<svg id="visual" viewBox="0 0 1920 1080" width="1920" height="1080" xmlns="http://www.w3.org/2000/svg" xmlns:xlink="http://www.w3.org/1999/xlink" version="1.1"><rect width="1920" height="1080" fill="#001829"></rect><g><g transform="translate(1553 515)"><path d="M0 -288.1L249.5 -144L249.5 144L0 288.1L-249.5 144L-249.5 -144Z" fill="#297EA6"></path></g><g transform="translate(898 465)"><path d="M0 -198L171.5 -99L171.5 99L0 198L-171.5 99L-171.5 -99Z" fill="#297EA6"></path></g><g transform="translate(221 715)"><path d="M0 -197L170.6 -98.5L170.6 98.5L0 197L-170.6 98.5L-170.6 -98.5Z" fill="#297EA6"></path></g><g transform="translate(395 47)"><path d="M0 -230L199.2 -115L199.2 115L0 230L-199.2 115L-199.2 -115Z" fill="#297EA6"></path></g></g></svg>