<?xml version="1.0" encoding="UTF-8"?>
<svg id="Layer_1" data-name="Layer 1" xmlns="http://www.w3.org/2000/svg" viewBox="0 0 245 64">
  <defs>
    <style>
      .cls-1 {
        fill: #c9dceb;
      }

      .cls-2 {
        fill: #79c6e5;
      }
    </style>
  </defs>
  <g>
    <path class="cls-2" d="M97.48,6.35c.3,.09,.25-.19-.43-.52l-.62,.08c.36,.12,.71,.27,1.05,.44Z"/>
    <path class="cls-2" d="M92.59,4.57c-.96,.16-1.99,.59-1.36,.82,.88-.39,1.1-.28,2.11-.63,.81,0,1.37,.24,1.22,.34,.29-.04,1.17,.29,1.62,.25-.88-.59-2.27-.81-3.64-.57-.3-.07-.01-.16,.06-.22Z"/>
    <path class="cls-2" d="M29.54,20.83l-.1-.5c.02,.14,.05,.31,.1,.5Z"/>
    <path class="cls-2" d="M8.01,50.04c-.28-.26-.42-.34-.45-.33,.27,.23,.5,.41,.45,.33Z"/>
    <path class="cls-2" d="M13.91,56.07c-.13-.13-.23-.24-.35-.36,.12,.15,.25,.29,.35,.36Z"/>
    <path class="cls-2" d="M29.54,20.83c.08,.43,.15,.85,.2,1.28,.13,.07-.06-.66-.2-1.28Z"/>
    <path class="cls-2" d="M82.48,8.3c.24-.13,.44-.26,.61-.38-.2,.11-.39,.21-.59,.31,0,.02,0,.04-.02,.07Z"/>
    <path class="cls-2" d="M36.44,3.43l.41-.07c.12-.06,.22-.11,.33-.18-.25,.06-.49,.16-.74,.24Z"/>
    <path class="cls-2" d="M53.23,5.4c-.36-.13-.57,.09-.75,.17,.24-.04,.52,0,.84,.08,.02-.05,0-.13-.1-.24Z"/>
    <path class="cls-2" d="M78.58,8.75l.42-.21c-.11,.05-.29,.14-.42,.21Z"/>
    <path class="cls-2" d="M27.21,11.09s-.09,.09-.11,.16c.03,0,.07-.06,.11-.16Z"/>
    <path class="cls-2" d="M114.65,3.35s0-.03,0-.05c-.1,.03-.13,.05,0,.05Z"/>
    <path class="cls-2" d="M96.48,7.01l.19-.19c-.02-.06-.03-.11-.07-.15l-.12,.34Z"/>
    <path class="cls-2" d="M29.09,58.47s-.04,0-.07,.02c-.38,.15-.16,.08,.07-.02Z"/>
    <path class="cls-2" d="M165,57.62c-1.61,.29,2.38-1.17,0-.63,.26,.03-1.96,1.12,0,.63Z"/>
    <path class="cls-2" d="M82.07,8.45c-.21,.1-.42,.19-.63,.29,.29-.12,.48-.21,.63-.29Z"/>
    <path class="cls-2" d="M164.99,56.98h0s-.25,.05-.25,.05c.1-.02,.16-.03,.25-.05Z"/>
    <path class="cls-2" d="M62.68,53.19c-.05-.07-.16-.16-.28-.24,0,.03,.06,.09,.28,.24Z"/>
    <path class="cls-2" d="M37.55,55.03l.63-.18c-.25,.06-.45,.12-.63,.18Z"/>
    <path class="cls-2" d="M74.78,59.26c.3,.2,.39,.29,.84,.5-.03-.03-.07-.07-.11-.1-.17-.05-.39-.15-.73-.4Z"/>
    <path class="cls-2" d="M88.6,63.73c-.08-.02-.18-.04-.27-.06-.15,0-.32,0-.47,0l.73,.06Z"/>
    <path class="cls-2" d="M157.91,7.34c-.33,0-.54-.04-.72-.08,.27,.14-1.82,.72,.72,.08Z"/>
    <path class="cls-2" d="M82.4,8.16c-.05,.1-.14,.18-.34,.29,.15-.07,.29-.15,.43-.21,.02-.06,.01-.1-.09-.07Z"/>
    <path class="cls-2" d="M76.38,57.61c.64,.39,1.28,.73,1.93,1.08-.54-.3-1.24-.69-1.93-1.08Z"/>
    <path class="cls-2" d="M240.73,26.08c-.04-.09-.08-.19-.16-.26,.08,.1,.11,.2,.16,.26Z"/>
    <path class="cls-2" d="M84.32,60.9c.35,.2,.73,.35,1.15,.43,.09,0,.2-.01,.26-.04-.48-.1-.95-.22-1.41-.39Z"/>
    <path class="cls-2" d="M157.19,7.26s0,0,0,0c0,0,0,0,0,0Z"/>
    <path class="cls-2" d="M141.88,8.37c2.2,.29,1.08-.23,1.57-.38,2.63,.15,1.19,.39,2.07,.66,1.67,.01,2.95-.3,4.19-.3,.09,.06,.34,.07,.05,.16,.44-.09,.98-.15,1.58-.19,.6-.06,1.26-.14,1.93-.21,.66-.11,1.34-.21,1.97-.34,.63-.15,1.2-.32,1.67-.53,.15,0,.24,0,.28,.03-.36-.1-.45-.28-.42-.42,.96-.23,1.7-.67,2.12-.53-.58,.15-.6,.26-.86,.4l.96-.37c.98,.09-1.32,.48-1.26,.72,1.93-.61,4.05-1.56,5.54-1.83,.39,.23-3.37,1.04-1.35,.79l-2.3,.51c1.89,.03-1.4,.35,.36,.46,1.51-.38,2.32-.65,3.13-.91,.81-.25,1.61-.52,3.07-.73,.63-.3-.27-.24,.36-.54,2.09-.42,2.96-.25,3.64-.04,.7,.21,1.22,.34,2.78,.26,.82-.17,1.19-.56,3.39,0-.27,.07-.55,.16-.82,.25,2.86,.56,1.76-.28,4.72,.67-.57,.02-2.29-.4-1.87-.25,1.88,.75,1.43,.09,2.93,.49l.22,.41c3.07,.74,6.5,1.57,9.98,2.36-.22,.05-.84,.01-.05,.31,2.21,.46,4.6,.93,7.01,1.24,.61,.07,1.21,.13,1.81,.2,.61,.03,1.21,.06,1.81,.08,1.2,.06,2.37,0,3.48-.06,.55-.16,1.1-.33,1.64-.51,.39-.05,.74,.02,.33,.14,1.7-.16,.06-.2,.85-.44,.95-.18,1.28-.06,.7,.14,1.46-.38,3.5-.94,5.56-1.36,2.06-.42,4.15-.66,5.66-.54l-.58,.12c1.17,0,1.82-.14,2.44-.22,.31-.06,.63-.09,.99-.05,.37,.02,.78,.09,1.29,.29l-.41-.04c1.22,.27,2.43,.7,3.56,1.26,1.12,.56,2.18,1.28,2.91,2.14,.39,.42,.6,.9,.75,1.33,.07,.44,.08,.85-.14,1.21l-.14,.27c-.07,.09-.15,.17-.22,.25-.14,.16-.28,.32-.48,.46-.38,.29-.81,.54-1.26,.79-.1,.22-.46,.51-.96,.94-.46,.43-1.2,1.04-1.4,2.18-.15,.95,.38,1.87,.8,2.22,.43,.4,.78,.52,.93,.47,.69,.53,1.19,.79,1.59,1,.4,.2,.71,.34,1.07,.48,.7,.27,1.69,.51,3.77,.75,1.1,.13,1.68-.25,2.97-.05l-.04,.31c.57,.02,1.13,.08,1.66,.22,.2,.25,.34,.51,.5,.73,.23,.19,.49,.36,.63,.58-.11-.28-.4-.64-.29-.67,.68,.46,.9,1.31,.64,2.02-.14,.35-.3,.65-.48,.86-.14,.21-.29,.31-.33,.3-.62,1.18-1.67,2.3-2.86,3.2,.02-.15,.6-.62,.99-1.06-.81,.86-.98,.84-1.09,.82-.13-.04-.18-.03-1.05,.62,.29-.08-.05,.24-.06,.32-.26,.09-.6,.21-.98,.37-.42,.16-.88,.34-1.38,.55-.98,.41-2.06,.89-2.97,1.35l.27-.36c-1.68,.74-3.46,1.58-5.18,2.9-.85,.67-1.71,1.46-2.35,2.58-.64,1.08-.89,2.63-.59,3.83-.12-.88,.05-1.3,.14-1.22,.11,.06,.2,.55,.36,1.19l-.19,.59c.41,.74-.22-1.31,.45,.24,.2,.74,.16,.97,.06,.96-.11-.02-.29-.27-.47-.68,.21,.58,.4,1.1,.48,1.54-.09,.09-.17-.22-.32-.28,.17,.3,.12,.78-.11,1.19-.23,.44-.68,.92-.89,1.36h-.13c-1.26,1.15-2.54,1.87-3.67,2.58-1.15,.69-2.23,1.32-3.67,2.03,.06,.28-1.09,.77-1.88,1.35-2.21,.84-4.75,1.53-7.47,1.99-1.9,.42-.53,.32-1.38,.59-.18-.18-2.9-.13-1.49-.34-.82,.05-1.47-.04-2.07-.07-.58-.12-1.13-.13-1.67-.3-.27-.07-.55-.14-.85-.21-.28-.11-.59-.22-.91-.34-.66-.22-1.36-.61-2.29-1.18,.33,.35,.73,.67,.46,.6-.67-.39-1.42-1.11-1.26-1.14l.19,.1c-.55-.33-1.12-.68-1.71-1.03-.61-.35-1.27-.66-1.93-.96-1.34-.59-2.79-.98-4.21-1.23-2.86-.52-5.64-.35-7.6,.21l.22-.06c-1.38,.31-2.73,.68-4.05,1.12-1.87,.44,1.07-.47-.35-.27-2.13,.78-3.82,1.36-5.38,1.89-1.57,.53-3.03,1.03-4.68,1.75-1.44,.1-3.75,.9-6.21,1.48-2.45,.6-5.08,.9-6.84,.54l.2,.19c-.93,.11-1.11-.16-1.78-.29,.08,.15,.98,.28,.4,.31-3.96-.27-7.85-2.03-12.06-3.39-4.23-1.43-8.97-1.81-13.36-1.29-1.6,.22-2.01,.55-2.53,.82-.52,.26-1.13,.53-3.12,.8l1.03-.59c-6.19,1.83-12.42,3.92-18.18,5.89,.33-.17,.31-.26,.88-.43-.65,.06-1.79,.37-2.76,.69-.98,.31-1.8,.58-1.79,.68-.92,.18-.25-.13-.83-.1-1.26,.16-3.08,.82-3.78,.71-.12-.02,.34-.13,.57-.19-.8,.27-3.79,.27-3,.51-1.12,.01-2.17-.07-3.17-.04-1-.03-1.94-.21-2.79-.4-.61,.11-1.51-.21-2.32-.42-.8-.29-1.51-.51-1.76-.38,.15-.19-.73-.6-1.79-1.09-1.07-.48-2.32-1.06-3-1.32,.48,.12-1.02-.74-.43-.62-1.42-.8-2.76-1.53-2.64-1.18-2.34-2.07-5.54-2.83-6.84-4.2-2.36-1.02-4.76-1.77-7.16-2.15-2.4-.34-4.75-.43-7.03-.23,.07-.21,1.34-.32,2.58-.29,.62,.02,1.22,.05,1.67,.03,.44,0,.72-.01,.68-.14-1.11-.08-2.11-.04-3.03-.01-.92,.1-1.79,.14-2.64,.29-.85,.15-1.7,.24-2.58,.44-.45,.08-.9,.16-1.38,.25-.48,.1-.97,.2-1.49,.31-1.1,.18,.57-.33,.92-.48-4.2,1.07-8.03,2.19-11.5,3.66,0-.04,.36-.22,.71-.38-.7,.26-1.65,.51-1.5,.67l.66-.29c1.21-.11-2.57,1.56-2.65,1.75,1-.95-3.56,1.04-1.9-.3-.45,.19-.99,.47-.85,.57-.7,.17-.94,.16-.29-.2-2.47,.88-1.52,.83-3.81,1.46-.02-.1,.43-.26,.64-.44-.55,.26-1.11,.51-1.78,.72-.67,.21-1.45,.46-2.42,.57,.11-.08-.13-.11,.44-.22-1.64,.32-3,.51-4.28,.08-1.3-.42-2.43-1.56-3.78-2.92,1.12,.46-.85-.99-.75-1.41l-1.58-1.33,.48,.7c-1.31-1.24-2.66-2.13-3.71-3.28l1.08,.8c-.84-.76-1.69-1.5-2.49-2.26,.41,.48,.83,.94,1.27,1.41-1.45-1.11-.2,.49-1.84-1.25,.36,.33-1.27-1.28-1.66-2.16h0c-.63-.6-1.3-1.26-1.8-2.47-.04-.35,.49,.06,.47-.17-.33-.29-.75-1.2-.83-2.16-.09-.97,.24-1.91,.41-2.42-.1,.34,.07,.44,.15,.36,.04-.22,.05-.47,.13-.7,.53-.58,.68-.58,.69-.4,.83-.76,.66-.71,.48-.71-.15,.03-.32-.06,.95-.73-.18,.14-.08,.1-.44,.39,1.2-.73,2.51-1.26,3.84-1.67,1.33-.41,2.67-.72,4.03-.9,.85,.22-2.32,.53-1.36,.67,3.81-.84,8.05-1.61,11.8-2.76l-.71,.18c.18-.34,.89-.48,1.77-.73,.88-.24,1.96-.63,2.71-1.35-.39,.31-.38,.61-.3,.49,1.19-.73,2.31-1.84,2.94-3.42,.63-1.58,.58-3.48,.09-5.45l.22,.48c-.12-1.63-.98-4.06-1.4-5.66-.27-.43-.51-1.35-.54-.74-.32-2.55-.8-4.87,0-6.94,.4-1.02,1.13-1.9,1.99-2.59,.9-.64,1.91-1.16,3.01-1.32-.5,.16-1.11,.55-.73,.39,1.13-.48,2.32-.85,3.57-1.06-.33-.17-.51-.07-1.34-.09,.44-.23,1.51-.54,2.47-.61-1.72,.33,.06,.35,.8,.44-.13-.07,.12-.15,.06-.22,2.02,.36,.33-.53,3.1-.17l-.15,.11c1.03,0,2-.07,3.11,.11,.42,.32-1.11-.02-1.21,.2,1.54,.14,3.14-.07,4.48,.5-.67-.08-1.61-.25-2.28-.29,1.46,.58,1.64,.54,2.75,.84l-.11-.03c.85,.24,1.68,.52,2.5,.81-.21-.09-.41-.19-.62-.27,2.07-.14,3.84,1.11,6.5,1.52-2.59-.42-.49,.1-.77,.32,.62,.3,1.57,.72,1.26,.7,1.28,.16,1.95,.85,3.78,1,.05,.12,1.31,.38,.97,.53,1.63,.34-.34-.26-.17-.35,1.28,.16,2.7,.62,4.32,.98,1.61,.35,3.43,.6,5.3,.32,1.6-.14,2.53-.43,3.4-.71,.87-.29,1.69-.62,3.03-1.18,.98-.19-.64,.61-.65,.59,1.57-.36,2.67-.87,3.98-1.59-.24,.2,.07,.14,.53,.05,1.07-.52,.57-.66,2.06-1.18-.2,.21-.44,.51-.92,.85,1.23-.67,2.41-1.4,3.73-1.96,.41,.03-.72,.52-1.14,.83,.73-.34,1.67-.72,2.52-1,.84-.29,1.57-.51,1.8-.68-.34,.03-.69,.06-1.03,.1,.57-.13,.34,.16-.07,.3-1.27,.52-1.92,.44-2.03,.37,.32-.13,.63-.25,.96-.36-.58-.13-1.58,.21-2.62,.74-1.04,.53-2.15,1.22-3.1,1.65l.61-.74-1.8,1.21c-.46,.09-.84,0,.07-.48-1.44,.42-1.15,.68-2.43,.94-.14,.02-.09-.02,.02-.09-.44,.21-.88,.41-1.33,.6,.24-.17-.31-.2,.54-.43-1.26,.31-2.23,.64-3.05,.84-.81,.23-1.45,.34-1.94,.23l.21-.05c-1.77,.21-1.87,.23-1.84,.35,.02,.09,.17,.26-1.21,.39-.61-.25-1.19-.59-1.77-.89l-.39,.26c-.37-.06-1.1-.19-.94-.29-1.4-.02,.21,.18-.62,.23-1.73-.55-4.89-1-5.14-1.59-.69,.04,1.61,.65-.29,.27-.37-.66-2.16-.56-3.65-1.32,.57-.09,2,.53,.51-.22-1.09,.12-3.01-1.13-4.36-1.49-.17,.32-2.94-.84-5.29-1.2,.09-.04-.99-.33-2.37-.6-1.38-.29-3.08-.47-4.18-.59l.07-.06c-.44,.36-2.72,.2-4.36,.52,.04-.22,.33-.34,1.23-.53-.53,.05-1.05,.09-1.58,.16-.35,.2-.84,.28-1.82,.58l.33-.37c-1.04,.26-2.07,.62-3.09,1.19-1.04,.52-2.05,1.28-3.09,2.25,.05,.15,.54-.17,.81-.15,.29,0,.19,.15-.57,1.26-.16,0-.45-.06-.02-.67-.16,.19-.45,.75-.73,1.15,.1-.38,.28-.72,.44-1.09-.82,.97-.23,.64-.72,1.49-.17-.1-.41,.64-.5,.45,.04-.13,.14-.33,.24-.55,.12-.21,.25-.43,.31-.62-.66,.97-1.04,2.36-1.23,2.82,.13-.09,.25,.03,.25,.87,.12,2.14-.22,.76-.18,2.02,.21,.5,.37,1.84,.68,1.8,.15,.59,.05,.73,.04,.98,.44,1.02,1.47,4.71,1.42,3.49l-.06-.26s.04,.1,.06,.16h0s0,0,0,0c.61,1.6,1.01,3.39,.81,5.11-.1,.85-.36,1.67-.79,2.38-.42,.71-.98,1.32-1.58,1.87l-.06-.08c-1.41,1.36-3.82,2.13-5.16,2.7-.58,.16-1.42,.17-1.2,0-1.5,.41-1.65,.55-3.9,.77,1.52-.43-.56-.05,1.56-.4-2.01,.27-2.49,.17-4.61,.8,.7-.37-1.58-.06-2.53,.22l1.46-.09c-1.08,.22-2.03,.42-2.99,.62l.45-.45c-4.24,.59-7.74,3.1-8.85,6.86,.09,.68,.12-.01,.33-.67,.24-.65,.56-1.25,.47-.67-.46,.98-.63,2.14-.57,3.08,.08,.94,.26,1.68,.41,1.97,.57,1.36,1.1,1.81,1.59,2.27,.5,.45,1.02,.88,1.94,1.95-.16-.35-.17-.78,1.37,.6,1.36,1.37,1.38,1.98,.43,1.23-.35-.31-.48-.5-.44-.51-.48-.4-1.11-.96-.65-.32l.26,.09c.62,.77,2.56,2.55,1.97,2.27,1.14,.91,.59,.28-.16-.5,1.68,1.81,2.81,2.64,4.58,4.45-.25-.32-.43-.68-.13-.4,2.64,2.64,1.28,.97,3.31,2.63,.56,.52,.41,.52,.38,.59-.01,.03,.01,.07,.2,.19,.19,.11,.54,.32,1.24,.53,.83,.32,.93,.37,.69,.41-.23,.03-.79-.04-1.16-.15,1.37,.43,2.64,.46,3.69,.45,1.06-.03,1.94-.11,2.6-.24-.39,.13-.81,.24-1.23,.35,.74-.18,1.34-.33,1.96-.48l-.75-.07c.72-.13,1.32-.27,1.34-.17,.69-.33-.65-.24,.74-.81,.97-.13,2.79-.92,3.19-.73-2.93,.78,.43,.23-2.04,.98,.47-.17,1.06-.33,1.76-.51,.11,0-.08,.09-.26,.17,2.87-.59,1.18-.73,4.02-1.67-.3,.29,.76,.09,1.21-.1-1.14,.39-.64-.09,.36-.58,1.85-.5,1.92-.78,2.87-1.09l-1.1,.31c.31-.3,1.21-.59,2.45-1.07,.15,.09-1.11,.48-.64,.39,1.29-.78,3.25-.76,5.13-1.54,.94-.15,.18,.29,.99,.15,1.06-.4,1.67-.51,2.29-.57,.62-.06,1.25-.17,2.39-.44-.71-.12-.82-.05,.79-.55l-1.91,.41-1.89,.5c.79-.28,1.58-.61,2.38-.86-1.16,.22-2.41,.65-3.11,.8,1.12-.5,1.02-.38,.41-.46,.84,0,1.61-.24,2.42-.47,.81-.19,1.66-.46,2.61-.42v.59c1.4-.04,2.61-.16,3.94-.26,.66,0,1.35-.03,2.1,0,.74,.09,1.55,.15,2.42,.37-.36-.13-.74-.19-1.12-.29,.52-.19,2.2,.34,3.33,.61-.16,.16,.52,.43,.94,.71,0-.08,.61,.16,1.28,.38,.67,.24,1.37,.51,1.61,.39,.46,.29,.9,.64,1.34,.95,2.54,1.48,3.22,1.16,5.66,2.7-.85-.27,.19,.53-1.54-.34,.82,.5,1.54,.98,1.63,.87,.41,.4,2.44,1.15,3.13,1.74,.4,.13,.61,.01,1.58,.53,.09,.09-.05,.08-.05,.08,.04-.07,1.59,.64,.83,.03,1.21,.93,3.17,1.76,5.17,2.29,.5,.12,1,.24,1.49,.36,.49,.08,.97,.15,1.43,.23,.92,.14,1.73,.38,2.39,.49,2.16,.06,4.74-.13,6.65-.43-.11,.08,0,.1-.36,.13,2.67-.25,1.54-.74,4.52-1.2,1.58-.03-1.53,.52-.56,.43,.27,.26,1.17,.07,2.24-.27,1.06-.36,2.31-.77,3.33-.9l-.46,.18c1.55-.24,3.54-1.36,5.94-2.11,0,0-.1,.09,.02,.1,1.53-.86,4.58-2,6.87-2.76-.65,.45-1.01,.43-.5,.55,1.03-.33-.43-.31,1.63-.97,.71-.08,2.25-.33,2.51-.1-.65,.16-1.31,.31-1.95,.52,1.08,.04,2.53-.63,3.58-.84l-.1,.18c3-.62,2.99-1.05,6.29-1.31l-.35-.09c1.8-.48,1.52,.19,3.33-.12,.18,.12,.35,.27,.52,.43,.59,.01,1.64,.04,2.8,.07,1.16,.1,2.43,.32,3.48,.59-.63-.03-1.56-.16-2.52-.27-.96-.12-1.97-.11-2.74-.11,.57,.09,1.57,.11,2.47,.29,.91,.14,1.75,.31,2.07,.3-.47-.09-1.07-.14-1.51-.3,1.47,0,3.38,.4,5.64,1.18-.32,.29,1.13,.85,2.89,1.43,1.76,.59,3.86,1.08,4.72,1.49,4.41,.44,8.85,.23,13.68-1.29-1.88-.06,1.4-.44,.91-.95,1.09-.4,1.51-.53,1.62-.53l3.42-.84c.84-.12-.98,.5-.84,.59,2.39-.82,1.08-.12,2.7-.54-.4-.08,.72-.61,2.07-.97-.65,.12-1.31,.25-1.97,.39,1.59-.75,2.33-.84,3.09-.94,.75-.09,1.5-.19,3.13-.74l-1.01,.45c.84-.28,2.42-.64,4.01-.93,1.59-.29,3.17-.49,4.02-.72,.31,.07,.71,.23-.05,.28,1.04-.01,2.11,.06,3.2,.15,1.07,.14,2.16,.32,3.16,.67,2.01,.61,3.62,2.02,5.14,3.06l-.38-.06c.38,.21,.75,.34,1.15,.49,.4,.13,.81,.27,1.29,.56-.07,.04-.39,0,0,.17,.22,.08,.82,.16,1.48,.31,.66,.12,1.41,.2,1.97,.32-.33,.03-.67,0-1,.01,2.27,.48,4.05,.25,5.63-.06,1.58-.37,3.01-.87,4.73-1.45,.06,.2,.92,.1,1.96-.19,1.04-.28,2.25-.73,3.05-1.05l-.03,.08c2.33-1.03,4.17-2.15,5.91-3.32,.87-.59,1.74-1.22,2.58-1.99,.82-.77,1.7-1.69,2.16-3.07,.21-.39,.36-.96,.37-1.56,0-.59-.1-1.21-.24-1.77-.14-.56-.3-1.1-.36-1.58-.03-.24-.06-.45-.01-.67l.04-.33c.02-.11,.07-.21,.1-.32,.26-.86,1.13-1.71,2.09-2.4,.98-.69,2.08-1.24,3.09-1.66-.64,.22-.06-.36,.65-.74,.98-.37,2.56-1.47,2.57-1.03l-.35,.14c.45,.02,1.16-.21,1.98-.53,.79-.3,1.8-.83,2.59-1.3l-.03-.61c1.1-.48,2.27-1.28,3.27-2.41,.49-.58,.96-1.2,1.29-1.97,.35-.73,.57-1.62,.49-2.53-.04-.93-.55-1.78-1.08-2.36-.57-.58-1.18-.94-1.74-1.25-1.16-.56-2.13-.78-2.75-1.06-1.18-.06-2.54-.14-3.6-.1l.08-.28c-1.38-.15-2.25-.34-3.19-.69-.45-.17-.9-.39-1.27-.65-.19-.13-.33-.28-.41-.39-.07-.09-.07-.13-.08-.21,.01-.03,0-.04,.03-.12,.01,.09,.07,.11,.11,.14l.06,.02s0,0,0-.01c-.01,.01-.01-.15,.08-.38,.09-.22,.22-.47,.37-.72,.31-.51,.71-1,1.49-1.62,.25-.02,.51-.06,.77-.12,.2-.19,.38-.44,.56-.66l.27-.35,.21-.42c.13-.29,.28-.56,.32-.9,.05-.32,.15-.65,.09-.97-.05-1.32-.69-2.41-1.4-3.19-1.44-1.63-3.28-2.55-5.15-3.06,.08-.03,.23-.11,.83,.11-.85-.39-2.56-1-4.04-1.2-1.5-.22-2.67-.09-2.32,.19-.02-.19-1.01-.21-2.23-.07-1.22,.15-2.65,.46-3.63,.7l.27-.32c-1.62,.62-1.65,.72-3.93,1.26-.55,.07-.52-.13,.22-.2-1.83,.2-1.36,.54-3.57,.78l.78-.32c-1.85,.3-1.68,.36-2.68,.72-1.15,.3-3.53,.28-3.8,.02-.24,.16-1.26,.35-2.35,.26-.14-.1,.26-.14,.46-.17-1.54-.17-2.69-.19-3.72-.29-1.04-.06-1.95-.19-2.98-.53-.02-.1-.15-.17-.32-.23,2.42,.52,4.39,.74,4.2,.75,.03-.26-1.91-.58-.32-.71-1.57,.03-4.35-.13-6.22-.72-.09-.05-.17-.1-.23-.15l.2,.02c-.43-.14-.83-.22-1.21-.27-.59-.2-.97-.33-1.55-.5-.17-.26-2.2-.74-3.17-1.03,0,.29-1.26-.11-.13,.45-.15-.06,.19,.02,.84,.19,.15,.03,.32,.08,.42,.09-.02,0-.05,0-.07,0,.64,.17,1.47,.4,2.42,.66-.8-.08-1.64-.18-2.67-.64-.55,.03-1.15,.05-1.48,.05-1.22-.76-3.77-1.65-4.08-1.98-1.54-.29-3.36-.67-5.07-.85-1.71-.2-3.3-.18-4.29,.05-.89,.07-1.03-.15-1.37-.24,.52-.05,1.14-.04,1.42-.12-1.81,.02-5.36,.32-5.71,.82-2.24,.27,1.18-.6-1.85,.1l.38-.2c-3.06,.4-5.29,1.42-7.65,2.19-2.34,.78-4.92,1.31-8.19,.9,.45,.05,.68,.08,.77,.14-7.46-.26-15.35-1.8-22.54-3.89-2.06-.55-2.35-.35-3.66-.41l-.41-.37c-.76,0-1.51-.01-2.26,.02-1.58-.08-2.92-.39-4.39-.62-1.46-.25-3.07-.4-5.08-.08,.18,.05,.35,.12,.53,.18-.72,0-1.86,.1-2.79,.21-.93,.11-1.65,.18-1.54,.05-.14,.06-.44,.29-1.01,.28l-.07-.15c-.58,.13-1.15,.32-1.72,.51-.57,.17-1.13,.39-1.68,.62-.67,.17-.98,.25-1.15,.25-.17,0-.18-.08-.23-.13-.05-.06-.14-.1-.46-.02-.32,.07-.87,.25-1.79,.77-.35,.18-.73,.48-1.09,.8-.37,.32-.75,.63-1.01,.98-.55,.66-.87,1.12-.62,.97,.47-.41,1.23-.99,1.37-.88-.33,.32-.64,.65-.96,.97,.07,.25,.01,.63,.26,.69,.12,.03,.32,0,.64-.16,.33-.14,.72-.46,1.41-.8,.5-.51,1.1-.91,1.69-1.34,.23-.05,.49-.05,.73-.08-.58,.21-1.07,.55-1.61,.83,.5-.15,.86-.34,1.18-.55,.34-.18,.63-.39,.94-.59,.21,.04,.51,0,.94-.08,.63-.37,1.27-.73,1.95-1.02,.3,.12-.86,.58,.57,.34,.95-.43-1.05-.19,.59-.67,1.1,.04,.8,.21,2.03-.11,.19,.1-.07,.21-.55,.31,.54-.13,1.28-.24,1.94-.33,.67-.07,1.27-.15,1.56-.3,.57,.11,1.52,.07,2.32,.07,.8,.02,1.44,.06,1.38,.28,.35-.1,2-.26,3.05-.18-.97,.17,0,.27,1.14,.39,1.14,.15,2.45,.33,2.16,.59,1.46-.3,5.02,.67,7.55,1-.15,0-.43,.02-.65-.05,1.38,.35,1.75,.58,2.63,.87,.26-.34,2.46,.07,3.68,.09,1.64,.74-1.14,.22-.68,.69-.02-.32,3.06,.33,2.53-.05,1.28,.49,1.12,.34,1.74,.79,.33-.44,1.26,.15,2.42,.04,1.9,.53,.43,.56,2.6,.69,1.01,.28-.94,.21-.94,.21Zm49.69,.52h0c-.43-.08-.79-.18-1.02-.24,.21,.05,.5,.13,1.03,.24Zm4.21,.89c-.52-.1-1.16-.23-1.84-.36-.13-.12,.05-.19,.48-.1-.24,.02,.74,.27,1.36,.47Zm-8.29-4c.66,.14,.86,.26,.93,.34-.31-.08-.67-.17-1.14-.28-.02,0-.06,0-.09,.01,.08-.03,.16-.06,.29-.06Z"/>
    <path class="cls-2" d="M186.23,5.8c-.1-.02-.15-.02-.27-.06,.13,.06,.25,.11,.37,.17,.09,0,.18-.01,.25-.02-.12-.03-.24-.07-.35-.1Z"/>
    <path class="cls-2" d="M29.42,20.25l.02,.09c0-.07-.02-.14-.01-.19,0,.06,0,.06,0,.1Z"/>
    <path class="cls-2" d="M237.78,24.35v-.07c-.1,0-.21,0-.33,0,.11,.02,.22,.05,.33,.08Z"/>
    <path class="cls-2" d="M38.83,4.46s.13,.05,.3,.06c-.01-.02-.14-.04-.3-.06Z"/>
    <path class="cls-2" d="M48.69,5.55c.45,.13,.9,.29,1.34,.44-.57-.22-1-.35-1.34-.44Z"/>
    <path class="cls-2" d="M56.01,7.96c.11-.01,.15-.04,.18-.07,0,0-.01,0-.01,0l-.17,.07Z"/>
    <path class="cls-2" d="M36.42,53.43c.1-.04,.19-.08,.28-.11,.65-.28,.2-.11-.28,.11Z"/>
    <path class="cls-2" d="M5.73,46.11c.28,.26,.56,.52,.86,.79-.42-.49-.71-.88-.86-.79Z"/>
    <path class="cls-2" d="M76.17,57.49h0c.07,.04,.14,.08,.22,.12l-.21-.12Z"/>
    <path class="cls-2" d="M7.74,48.12c-.42-.5-.8-.88-1.16-1.22,.33,.41,.75,.87,1.16,1.22Z"/>
    <path class="cls-2" d="M88.78,5.88l.35-.07s0-.04,.03-.05l-.38,.12Z"/>
    <path class="cls-2" d="M89.16,5.76c.13-.04,.26-.07,.38-.11-.18,.03-.34,.07-.38,.11Z"/>
    <path class="cls-2" d="M90.36,5.44c-.27,.06-.55,.13-.82,.21,.29-.06,.64-.11,.82-.21Z"/>
    <path class="cls-2" d="M79.32,9.57l-.07,.14c.05-.04,.08-.09,.07-.14Z"/>
    <path class="cls-2" d="M76.26,10.61c.75-.17,1.94-.33,2.92-.79l.06-.11c-.41,.34-2.31,.58-2.98,.9Z"/>
    <path class="cls-2" d="M63.28,8.9c.83,.24,1.67,.46,2.52,.64-.43-.19-.98-.44,.18-.25-3.11-.98,.6,.42-2.69-.39Z"/>
    <path class="cls-2" d="M55.6,6.35c1.35,.41,.04-.15,.13-.19-.88-.19-1.09-.24-.13,.19Z"/>
    <path class="cls-2" d="M20.86,32.15l.08-.28c-1.03,.26,.01,.1-.08,.28Z"/>
    <path class="cls-2" d="M10.14,35.52l1.04-.1,.43-.34c-.5,.13-.98,.28-1.47,.43Z"/>
    <path class="cls-2" d="M3.33,37.22c.11-.15,.24-.29,.36-.43-.49,.51-.87,1.15-1.19,1.81l.38-.72c.14-.22,.3-.44,.46-.65Z"/>
    <path class="cls-2" d="M85.96,63.7l-.29-.36c-.76-.05-.98,.27,.29,.36Z"/>
    <path class="cls-2" d="M127.61,55.06c.47,.07,1.62,.23,2.34,.05-.93,0-1.87-.18-2.34-.05Z"/>
    <path class="cls-2" d="M240.07,32.24c-.21,.24-.43,.46-.66,.68,.45-.37,.87-.8,1.28-1.23-.2,.2-.42,.37-.62,.55Z"/>
  </g>
  <g>
    <path class="cls-1" d="M11.12,36.64c-.26-.09-.26,.15,.35,.57l.62,.07-.97-.64Z"/>
    <path class="cls-1" d="M14.49,40.35c.73,.48,1.62,1.03,1.45,.41-.83-.4-.89-.65-1.82-1.02-.56-.48-.88-.95-.71-.96-.25-.11-.82-.81-1.27-.9,.58,.81,1.48,1.6,2.53,2.35,.14,.24-.11,.12-.19,.12Z"/>
    <path class="cls-1" d="M75.77,45.92l-.34-.31c.09,.09,.2,.2,.34,.31Z"/>
    <path class="cls-1" d="M117.79,48.7c-.32,.09-.45,.16-.46,.19,.3-.1,.54-.18,.46-.19Z"/>
    <path class="cls-1" d="M125.21,47.28c-.16,.03-.29,.05-.44,.07,.17,0,.34-.02,.44-.07Z"/>
    <path class="cls-1" d="M75.77,45.92l.88,.8c.13-.04-.44-.43-.88-.8Z"/>
    <path class="cls-1" d="M21.24,47.7c-.14-.2-.27-.36-.41-.51,.12,.17,.23,.33,.35,.5,.02,0,.04,0,.06,0Z"/>
    <path class="cls-1" d="M58.72,38h-.35c-.1,.02-.2,.06-.29,.12,.21-.05,.42-.08,.63-.12Z"/>
    <path class="cls-1" d="M44.73,41.79c.31-.14,.29-.44,.35-.61-.12,.19-.32,.34-.57,.5,.02,.05,.09,.09,.22,.11Z"/>
    <path class="cls-1" d="M22.74,50.75c-.15-.04-.3-.09-.44-.15,.11,.05,.31,.12,.44,.15Z"/>
    <path class="cls-1" d="M68.46,41.15s.03,.11,.06,.15c.02-.03-.01-.09-.06-.15Z"/>
    <path class="cls-1" d="M28.45,36.3s-.02-.03-.02-.04c-.07,.07-.08,.1,.02,.04Z"/>
    <path class="cls-1" d="M11.05,39.21l.24-.04c.02-.06,.04-.11,.04-.16l-.28,.2Z"/>
    <path class="cls-1" d="M138.75,45.79s-.04,0-.06,0c-.35,.05-.15,.03,.06,0Z"/>
    <path class="cls-1" d="M219.93,10.88c.78,.6,.06,.21-.54,.08-.3-.07-.57-.08-.62-.05-.05,.05,.15,.11,.71,.42-.09-.1,.49,.03,.86,.16,.18,.06,.32,.09,.3,0-.02-.08-.19-.31-.71-.63Z"/>
    <path class="cls-1" d="M21.41,48.04c.1,.16,.21,.31,.32,.47-.14-.21-.23-.36-.32-.47Z"/>
    <path class="cls-1" d="M219.47,11.34h0s.22,.14,.22,.14c-.09-.06-.14-.09-.22-.14Z"/>
    <path class="cls-1" d="M170.18,50.06c-.08-.04-.21-.05-.35-.06,.02,.03,.1,.05,.35,.06Z"/>
    <path class="cls-1" d="M146.72,45.58l.56,.14c-.22-.07-.4-.11-.56-.14Z"/>
    <path class="cls-1" d="M182.1,46.84c.31-.03,.42,0,.84-.09-.04,0-.08-.02-.13-.02-.15,.06-.35,.09-.7,.11Z"/>
    <path class="cls-1" d="M194.32,48.41c-.06-.04-.14-.09-.21-.13-.12-.04-.26-.08-.39-.11l.6,.24Z"/>
    <path class="cls-1" d="M43.56,10.88c-.26-.15-.41-.28-.51-.4,.14,.24-1.73-.22,.51,.4Z"/>
    <path class="cls-1" d="M21.11,47.79c.1,.03,.18,.1,.3,.25-.08-.12-.16-.23-.23-.34-.05,0-.09,0-.07,.09Z"/>
    <path class="cls-1" d="M182.31,44.57c.72-.07,1.43-.15,2.16-.15-.61-.02-1.39,.06-2.16,.15Z"/>
    <path class="cls-1" d="M134.64,17.16h-.49c.19,.02,.36,.03,.49,0Z"/>
    <path class="cls-1" d="M190.87,45.05c.34,.19,.72,.35,1.1,.5,.09,0,.19,.01,.26,0-.45-.17-.9-.34-1.36-.5Z"/>
    <path class="cls-1" d="M43.04,10.48h0s0,0,0,0Z"/>
    <path class="cls-1" d="M38.64,13.68c-1.01-1.98-.8-.75-1.19-1.05-.68-1.01-.68-1.18-.62-1.3,.07-.1,.22-.1,.2-.39-.23-.44-.31-.54-.31-.81,0-.2,.11-.43,.46-.54,.07,.04,.21,.03,.08,.14,.4-.3,1.44-.32,2.46-.1,.26,.05,.51,.12,.76,.19,.28,.07,.56,.15,.83,.22,.55,.13,1.08,.24,1.54,.28,.12,.07,.18,.12,.2,.16-.23-.26-.22-.46-.13-.57,.84,.25,1.63,.19,1.89,.51-.52-.14-.59-.06-.85-.05l.92,.13c.72,.54-1.25-.2-1.32,.05,.89,.16,1.86,.33,2.77,.46,.92,.12,1.77,.26,2.44,.45,.22,.4-3.18-.56-1.44,.12-.69-.19-1.38-.37-2.06-.6,1.46,.93-1.26-.36,.07,.57,2.74,.74,3.13,.53,5.89,1.11,.66-.09-.16-.3,.49-.4,2,.12,2.74,.43,3.37,.69,.63,.26,1.13,.54,2.61,.42,.78-.18,1.1-.54,3.16-.2l-.73,.34c2.72,.19,1.58-.45,4.4-.09-.51,.13-2.14,.05-1.73,.11,1.83,.37,1.31-.16,2.72-.13l.29,.34c2.89,.02,6.07-.26,9.25-.4-.17,.11-.72,.23,.03,.31,4.02-.27,8.56-.26,12.44-.24l1.47-.37c.34-.02,.65,.1,.28,.17,1.52,.02,.07-.19,.79-.35,.86-.07,1.15,.09,.61,.22,2.67-.39,7.56-1.22,10.41-1.56l-.53,.2c2.19-.33,2.29-1.14,4.3-1.23l-.36,.12c2.28-.4,4.62-.5,6.86-.09,2.23,.38,4.28,1.12,5.87,1.94,.78-.18,4.28,1.85,4.79,1.4,1.22,.64,1.66,.87,2.22,1.16,.57,.28,1.27,.63,3.16,1.23,1.02,.28,1.61,0,2.89,.17l-.02,.31c.6,0,1.19-.03,1.78-.07l.89,.47c.41,.01,.81,.02,1.22,.02-.48-.04-1.02-.22-.93-.3,1.88,.06,4.6,.35,4.66,.49,1.5-.15,2.99-.37,4.45-.72-.08,.13-.81,.31-1.39,.46,2.33-.67,.49,.27,2.61-.38-.3,0,.12-.21,.16-.28,1.1-.02,3.52-.57,5.23-1.15l-.28,.3c3.18-.81,6.53-2.07,9.99-2.94-1.26,.22-1.08-.21-.06-.5l.48,.21c.61-.36-1.09,.15,.2-.43,1.31-.25,.95,.17,.24,.44l1.55-.46c.11,.07-.25,.21-.32,.35,.61-.36,2.75-.2,3.63-.63l.1,.09c1.72-.2,2.96-.22,4.12-.22,1.15,.04,2.23,.12,3.58,.42,.12-.28,1.16,.03,2.03,.09,1.97,.73,4.04,1.96,6.61,2.84,1.86,.44,.61-.06,1.47,.03,.03,.14,.7,.4,1.18,.58,.49,.15,.81,.26,.1,.21,.8,.16,1.45,.3,2.05,.4,.6,.07,1.14,.14,1.71,.21,1.14,.09,2.39,.16,4.42,.08-.44-.12-.93-.18-.67-.26,.73,0,1.67,.11,1.56,.24l-.19,.03c4.51-.37,10.51-.28,13.92-1.51l-.19,.06,3.56-1.02c1.67-.31-.95,.4,.3,.29,1.9-.62,3.43-.93,4.88-1.19,1.42-.25,2.71-.44,3.84-.18,.17,.17,.35,.34,.5,.55,.07,.12,.14,.23,.23,.33,.07,.11,.09,.25,.16,.36,.19,.48,.18,1.35-.08,2.39-.51,2.09-1.53,4.45-1.91,6.49l.2-.22c.02,.52,0,.84-.03,1.14-.04,.3-.13,.56-.03,1,.06-.07,0-.4,.04-.6,.03-.2,.05-.3,.11,.03,.17,1.09,.63,2.22,1.48,3.04,.84,.85,1.97,1.28,3.01,1.44,1.05,.17,2.07,.13,3.05,0,.24-.04,.49-.06,.73-.11l.59-.11,.37-.06c.06-.04,.06,.08,.08,.12,.01,.06,.02,.12,.01,.17-.02,.15,0,.08-.14,.55-.24,.71-.72,1.42-1.31,1.95-1.25,1.15-3.14,1.92-4.99,3.28-1.25,.99-1.35,1.51-1.59,2.01-.2,.52-.54,1.04-1.76,2.41,.12-.34,.21-.7,.35-1.04-1.63,2.5-2.97,5.06-4.72,7.1-.87,1.02-1.83,1.88-2.9,2.5-1.07,.61-2.26,1.03-3.5,1.25,.29-.11,.28-.21,.75-.3-.53,0-1.48,.1-2.34,.15-.85,.06-1.61,.08-1.63,.18-.81-.12-.17-.2-.65-.35-1.05-.26-2.8-.23-3.32-.63-.09-.07,.32,.01,.53,.04-.73-.04-3.3-1.03-2.7-.55-1.91-.77-3.79-1.17-5.39-1.79-1.12-.04-3.59-1-4.03-.57,.11-.21-.84-.46-2.01-.47-1.17-.06-2.51,.14-3.18,.33,.44-.19-1.2,0-.7-.25-1.56,.24-2.91,.64-2.6,.81-2.9,.09-5.32,1.84-6.98,1.52-2.09,.65-4.11,1.16-6.09,1.36-1.98,.2-3.89,.06-5.78-.42,.13-.2,1.15,.08,2.14,.22,.99,.13,1.96,.14,1.88-.08-1.75,.02-3.15-.17-4.57-.47-1.42-.31-2.82-.77-4.59-1.47-.91-.39,.6,0,.93,.05-3.63-1.22-7.22-2.25-10.68-2.4,.01-.04,.39-.05,.75-.05-.68-.05-1.57-.22-1.52,0h.67c1.04,.43-2.73,.33-2.85,.56,1.17-.56-3.37-.23-1.54-.93-.45,.03-1.01,.11-.91,.25-.66-.04-.87-.09-.2-.28-2.43,.21-1.56,.36-3.74,.49,0-.1,.44-.19,.66-.3-1.1,.28-2.19,.56-4.03,.69,.1-.07-.12-.12,.43-.2-3.15,.46-5.26,1.28-8.66,1.85,.91-.64-1.18,.11-1.44-.22l-1.78,.54h.77c-1.59,.37-2.92,.98-4.3,1.22l1.13-.45-2.93,.83,1.7-.3c-1.54,.6,.29,.41-1.83,.86,.41-.15-1.57,.41-2.44,.42h0c-.74,.32-1.51,.66-2.69,.88-.33-.03,.13-.46-.08-.49-.68,.51-3.64,1.07-4.52,1.63,.3-.16,.27-.35,.15-.36l-.58,.41c-.75,.11-.86,.09-.78-.09-2.19,.51,.81,.29-1.83,.74,.2-.07,.09-.08,.51-.22-2.63,.51-5.01,1.4-7.45,1.61-.76-.25,2.08-.42,1.22-.61-1.71,.34-3.48,.65-5.25,.66-1.77,0-3.52-.34-5.1-.92,.19,.1,.39,.15,.58,.23-.31,.21-.89-.09-1.57-.49-.7-.36-1.46-.94-2.28-1.22,.39,.16,.62,0,.5,0-1.99-1.15-4.12-2.33-7.06-4.37l.43,.16c-1.03-.93-2.86-2.29-4.04-3.24-.43-.17-1.13-.68-.82-.22-1.65-1.7-3.62-2.85-5.62-3.74-2-.93-4.06-1.41-6.07-2.14,.51,.06,1.21,.14,.82,.03-1.2-.21-2.41-.32-3.62-.28,.28,.25,.47,.13,1.21,.38-.46,.09-1.46,.15-2.32,.2,1.58-.19-.02-.39-.73-.46,.12,.06-.11,.16-.05,.23-.95-.13-1.02,0-1.16,.16-.14,.17-.37,.3-1.62,.41l.11-.14c-.92,.23-1.72,.6-2.7,.84-.48-.14,.93-.39,.94-.62-1.4,.38-2.55,1.29-3.84,1.5,.54-.29,1.35-.59,1.91-.84-1.44,.15-1.57,.29-2.57,.63l.1-.03c-.77,.26-1.54,.54-2.29,.84l.6-.18c-1.34,1.36-3.23,1.7-5.11,3.26,1.83-1.5,.22-.4,.23-.76-.58,.22-1.44,.6-1.25,.39-.87,.77-1.74,.77-2.95,1.86-.11-.05-1.05,.58-.95,.25-1.24,.78,.38-.02,.34,.15-1.82,1.4-4.8,2.23-7.56,3.85-1.24,.62-1.98,.99-2.7,1.35-.36,.19-.72,.36-1.15,.51-.43,.14-.94,.29-1.6,.25-.42-.16-.21-.2,.06-.23,.28-.03,.65-.1,.65-.1-1.33-.07-2.03-.66-2.87-1.66,.22,.16,.12-.09,0-.48-.57-.88-.66-.43-1.31-1.7,.23,.14,.54,.32,.91,.71-.75-1.06-1.61-2-2.48-3-.08-.39,.69,.48,1.05,.8-.92-1.19-2.51-2.97-3.03-3.12l.55,.78c-.36-.4,0-.37,.29-.09,.99,.85,1.08,1.5,1.05,1.61l-.63-.7c.17,1.08,2.34,2.95,3.25,4.62l-.76-.45c.43,.48,.85,.99,1.32,1.41,.16,.36,.17,.76-.46,.05,.32,.61,.6,.81,.84,.97,.25,.15,.45,.3,.99,.61,.12,.07,.06,.08-.07,.05,.47,.12,.95,.12,1.4,.05-.27,.08,.26,.32-.63,.22,1.33,.2,2.28-.27,2.98-.55,.72-.29,1.25-.56,1.72-.56l-.18,.09c3.02-1.34,.2-.38,2.32-1.67,.6,0,1.21,0,1.82-.02l.16-.42c.31-.14,.92-.42,.86-.26,1.03-.76-.25-.02,.31-.53,1.58-.5,3.87-2.27,4.42-2.03,.39-.49-1.44,.61-.01-.39,.69,.21,1.7-1.07,3.11-1.59-.27,.46-1.56,1.02-.15,.51,.56-.84,2.57-1.31,3.63-1.93-.11-.35,2.35-1.35,4.26-2.19-.04,.08,.89-.23,2.08-.55,1.19-.32,2.64-.63,3.6-.71l-.04,.07c.29-.44,2.28-.67,3.72-.72-.06,.22-.31,.32-1.08,.44,.44,0,.89-.04,1.33-.03,.31-.09,.74-.19,1.61-.13l-.36,.24c.44,.04,.88,.05,1.33,.1,.23,.02,.45,.04,.68,.07,.23,.04,.46,.09,.69,.13,.47,.1,.96,.18,1.45,.34,.49,.18,.99,.39,1.51,.63,.23-.17-1.48-1.36,.91-.56,.03,.17,.01,.42-.6,.2,.2,.06,.73,.22,1.1,.46l-.99-.22c.91,.55,.58,.06,1.34,.45-.1,.17,.5,.4,.32,.48-.2-.08-.63-.39-.95-.46,.86,.42,1.79,1.12,2.04,1.43-.01-.14,.13-.23,.75,.1,1.53,.98,.39,.54,1.22,1.2,.45,.11,1.3,.92,1.5,.69,.43,.31,.43,.48,.55,.66,.84,.45,3.55,2.64,2.89,1.74l-.18-.16s.08,.05,.13,.08h0s0,0,0,0c2.65,1.66,5.04,4.1,7.84,5.56l-.05,.08c1.7,.8,3.78,1.83,5.16,1.91,.52,.17,1.22,.52,.96,.58,1.44,.16,1.6,.18,3.69,.42-1.47,.12,.5,.2-1.51,.04,1.88,.22,2.36,.36,4.34-.1-.66,.33,1.45,.16,2.31-.1-.44,.02-.88,.03-1.32,.03,.98-.17,1.84-.32,2.71-.48l-.4,.42c3.82-.39,6.47-2.21,9.41-2.28,.9-.48-2.01,.37-1.22-.13,1.68-.4,3.55-.4,4.07-.54,2.33-.44,2-1.05,4.42-1.56-.34-.03-.71-.26,1.05-.85,1.68-.39,2.18-.05,1.15,.31-.4,.11-.6,.13-.59,.08-.53,.18-1.22,.42-.53,.37l.19-.17c.86-.1,3.15-.7,2.66-.37,1.23-.43,.49-.33-.46-.15,2.18-.38,3.34-.83,5.58-1.21-.37,.01-.72-.05-.37-.13,3.28-.54,1.38-.56,3.58-1.02,1.29-.05-.37,.51,1.83-.05,1.38-.12,.34,.26-.18,.45,.99-.32,1.95-.38,2.79-.44,.85-.05,1.59-.05,2.17-.07-.35,.07-.7,.12-1.05,.21,.63-.14,1.15-.17,1.68-.22l-.63-.18c.63-.02,1.16-.07,1.16,.03,.64-.22-.53-.35,.74-.68,.85,.04,2.57-.24,2.87,.05-2.65,0,.3,.31-1.93,.44,.43-.05,.95-.07,1.58-.05,.1,.03-.09,.07-.26,.09,2.52,.18,1.15-.39,3.77-.34-.34,.17,.59,.34,1.01,.33-1.05-.03-.48-.36,.49-.39,1.66,.31,1.83,.07,2.7,.19-.33-.07-.66-.11-.99-.17,.18-.07,.48-.08,.88-.07,.4,.05,.9,.12,1.48,.2,.07,.15-1.07-.09-.66,.04,.67-.04,1.38,.17,2.15,.4,.76,.26,1.56,.61,2.46,.74,.77,.33-.02,.34,.67,.61,2,.4,1.98,.94,4.11,1.5-.51-.44-.64-.42,.9-.12l-3.43-1.06,2.27,.45c-1.02-.38-2.19-.64-2.78-.88,1.08,.17,.96,.19,.54-.17,1.27,.82,2.81,.82,4.37,1.59l-.24,.54c2.43,1.06,4.71,1.08,8.16,1.04-.37,0-.75-.03-1.12-.07,.46-.21,2.14-.11,3.22-.38-.07,.21,.63,.19,1.11,.22-.08-.11,2.47-.48,2.66-.96l1.52-.12c2.65-.58,2.82-1.37,5.35-1.9-.7,.39,.46,.25-1.17,.8,.83-.2,1.58-.34,1.56-.47,.5,0,2.25-.73,3.05-.62,.34-.11,.43-.37,1.38-.41,.11,.04,0,.1,0,.1,0-.1,1.48-.2,.64-.38,1.32,.26,3.1,.35,4.85,.74,1.74,.37,3.43,.89,4.44,1.51,1.8,.53,3.99,1.23,5.7,1.63-.12,.03-.03,.09-.35,0,1.15,.39,1.56,.31,1.98,.25,.43-.07,.89-.1,2.24,.13,1.38,.44-1.47,.04-.61,.24,.15,.35,1.01,.41,2.05,.36,1.05-.05,2.26-.28,3.25-.33-.15,.06-.3,.1-.45,.14,.75-.04,1.65-.34,2.56-.86,.92-.51,1.81-1.24,2.72-2.01,0,0-.05,.12,.06,.08,.51-.67,1.22-1.6,1.89-2.62,.68-1.02,1.33-2.13,1.88-3.06-.15,.71-.43,.9,.02,.7,.5-.84-.5,.01,.49-1.66,.46-.46,1.35-1.54,1.68-1.52-.35,.48-.68,.99-1.01,1.49,.8-.58,1.3-1.93,1.94-2.62l.05,.19c.84-1.04,1.24-1.58,1.7-2.1,.45-.54,1-1.03,2.29-1.81l-.33,.06c1.19-1.22,1.32-.52,2.51-1.78,.21,0,.44-.02,.66-.04,.41-.42,1.1-1.27,1.51-2.36,.21-.55,.36-1.11,.39-1.77,.04-.68-.09-1.3-.3-1.8,.17,.24,.34,.6,.43,1.09,.1,.49,.06,1.12-.03,1.57-.18,1-.67,1.94-1.13,2.61,.41-.46,1-1.34,1.28-2.31,.07-.24,.13-.48,.16-.72,.04-.24,.05-.56,.05-.8-.02-.5-.13-.86-.21-1.02,.08,.28,.15,.61,.17,.97,.01,.35-.03,.75-.11,.96,0-.21,0-.53-.02-.82-.03-.29-.07-.59-.15-.86-.07-.28-.19-.55-.32-.81-.06-.13-.13-.26-.21-.4-.04-.06-.07-.15-.12-.18h-.19c-.89,.32-1.87,.61-2.65,.73,.12-.43-1.24-.14-2.69-.35-.72-.1-1.42-.38-1.85-.79-.45-.4-.6-.93-.57-1.24-.32-.6-.39-1.39-.26-2.23,.15-.85,.43-1.72,.77-2.62,.34-.91,.72-1.85,1.04-2.92,.29-1.06,.59-2.36,.08-3.86-.02,1.11-.14,.66-.3,.08-.14-.28-.32-.61-.49-.81-.19-.19-.37-.23-.42-.08-.41-.44-.74-.7-.99-.83-.24-.15-.37-.2-.41-.25-1.09-.59-2.32-.67-3.43-.65-.83-.08,1.04-.27,.95-.36-1.28,.07-1.51,.1-1.68,.03-.15-.05-.25-.14-1-.06,.35,.15-.71,.47-2,.65l1.84-.09c-3.04,.96-2.79,.06-5.84,1.03l.94-.4c-1.58,.46-5.87,1.2-7.35,1.93-.29-.02-.69-.13,0-.29-1.91,.29-4.01,.7-6.02,.98-2.01,.25-3.94,.38-5.41,.16l.29-.14c-.71,.04-1.25,.23-2.12,0,.05-.06,.3-.13-.03-.16-.38,.05-1.89,.04-2.8-.18l.82-.05c-3.57-.76-5.53-.92-8.56-2.03,.18-.4-2.57-1.7-4.11-2.19l.07-.04c-2.28-.64-4.33-.84-6.26-.7-.97,.01-1.91,.19-2.88,.29-.95,.19-1.94,.33-2.96,.58-1.34-.04-3.5,.43-5.81,1.03-2.3,.61-4.74,1.37-6.73,1.8,.62-.1,0,.36-.69,.6-.94,.17-2.47,.98-2.42,.54l.33-.07c-.4-.11-1.06-.02-1.8,.14-.75,.13-1.58,.34-2.32,.46l-.15,.56c-2.01-.02-4.53,.26-6.88,.27-2.34,.02-4.49-.23-5.46-.77-.95-.04-2.09-.31-3.03-.45l.13-.26c-2.49-.81-3.69-1.34-6.83-2.49l.71,.06c-1.76-.7-2.53-.11-4.18-.67l-.37-.57c-1.59-.53-3.22-1.08-4.94-1.4-1.7-.32-3.52-.39-5.21,0,.05-.07,.14-.2,.7-.27-.83,.04-2.41,.2-3.64,.47-1.24,.26-2.15,.55-1.82,.77-.13-.34-3.26,.66-4.99,1.03l.23-.31c-1.41,.55-1.45,.66-3.51,.96-.49,0-.45-.18,.21-.17-1.64,0-1.25,.38-3.25,.37l.73-.23c-1.69,.09-1.55,.17-2.47,.43-1.06,.17-3.22,.08-3.48-.16-.22,.16-1.14,.41-2.15,.38-.14-.09,.22-.16,.4-.2-2.85-.07-4.21,.5-6.17,.29-.04-.09-.17-.13-.33-.16,2.25-.06,4.07-.13,3.9-.1-.01-.26-1.83-.23-.4-.64-1.45,.25-3.93,.76-5.71,.68-.09-.02-.17-.05-.24-.08l.18-.03c-.41-.02-.77,.02-1.12,.07-.57-.03-.92-.06-1.47-.06-.21-.2-2.08-.09-2.98-.11,.07,.28-1.11,.24,0,.47-.14-.02,.17-.03,.77-.05,.14,0,.3-.01,.39-.03-.02,0-.04,.02-.06,.02,.59-.01,1.37-.02,2.25-.04-.71,.15-1.46,.29-2.46,.13-.46,.18-.98,.37-1.27,.45-1.24-.4-3.62-.65-3.94-.91-2.76,.1-6.47-.24-8.25,.1-.79-.02-.88-.25-1.16-.37,.46,0,.99,.06,1.24,.02-1.57,0-4.6-.53-5.03-.23-1.92-.51,1.15-.14-1.53-.55l.38-.05c-2.57-.74-4.7-1.03-6.91-1.42-1.11-.2-2.18-.49-3.48-.75-.64-.11-1.3-.2-2.04-.19-.71,.02-1.58,.09-2.38,.76,.43-.37,.69-.43,.8-.44-.47,.2-.94,.6-1.17,1.12-.24,.49-.32,1.09-.21,1.61,.21,1.05,.8,1.8,1.2,2.52,.84,1.41,1.37,3.02,1.55,4.68,.37,3.34-.68,6.8-2.58,9.4-1.06,1.49-1.04,1.74-1.62,2.74-.16,.04-.33,.06-.5,.09-.35,.54-.72,1.08-1.14,1.59-.97,1-2.08,1.55-3.27,2.06-1.19,.52-2.44,1.02-3.99,1.86l.49,.02c-1.17,.47-3.77,1.4-3.63,1.09-.11,.07-.35,.31-.85,.34l-.08-.14c-.99,.33-1.98,.64-3,.9-2.41,.28,.27-.64-3.21-.19-1.28,.23-3.67,.83-3.17,.89,.53-.04,1.36-.02,1.42,.13l-1.2,.19c-.18,.48-1.09,1.05,1.95,1.09,.69-.16,1.37-.35,2.05-.53l.7,.13c-.59,.1-1.17,.17-1.76,.25,1.03,.09,1.64-.19,2.32-.42,.19,.1,.49,.13,.92,.1,.66-.26,1.31-.55,1.96-.83,.29,.12-.84,.55,.55,.35,.91-.42-1-.19,.54-.68,1.03-.04,.79,.2,1.89-.29,.19,.06-.02,.22-.47,.39,.99-.41,2.69-.9,3.11-1.34,1.11-.1,3.27-1.54,3.36-1.12,.26-.24,1.5-1.22,2.29-1.81-.61,.71,.19,.25,1.07-.43,.9-.63,1.85-1.55,1.87-1.16,.17-.33,.45-.73,.81-1.17,.34-.46,.75-.97,1.15-1.52,.81-1.11,1.55-2.42,1.95-3.56-.03,.14-.08,.41-.19,.59,.33-.6,.54-.98,.73-1.32,.19-.33,.38-.6,.55-1.02-.3-.29,.25-2.35,.09-3.51,.6-1.61,.32,1.06,.74,.61-.18,.01-.1-.73-.14-1.41-.04-.68-.07-1.29-.22-1.01,.18-1.29,.1-1.11,.34-1.81-.52-.16-.22-1.22-.83-2.19-.15-.94-.14-1.08-.12-1.25,0-.16,0-.35-.57-1.25-.35-.98,.71,.63,.7,.65Zm36.42-.42h0c-.39,.02-.73,.04-.94,.04,.2,0,.47-.02,.94-.04Zm3.83-.12c-.47,.01-1.05,.03-1.66,.04-.14-.09,0-.2,.39-.2-.21,.07,.7,.1,1.27,.16Zm-8.12-1.75c.6-.05,.8,0,.89,.06-.28,.01-.62,.03-1.05,.05-.02,0-.05,.03-.07,.03,.06-.05,.12-.1,.24-.14Z"/>
    <path class="cls-1" d="M69.7,11.76c-.09,0-.13,.02-.25,.02,.12,.02,.24,.04,.36,.06,.07-.03,.15-.06,.21-.09-.11,0-.22,0-.32,0Z"/>
    <path class="cls-1" d="M75.37,45.56l.06,.05s-.09-.1-.11-.13c.03,.04,.03,.05,.05,.08Z"/>
    <polygon class="cls-1" points="130.26 16.82 130.26 16.75 129.91 16.75 130.26 16.82"/>
    <path class="cls-1" d="M56.67,36.76s-.13-.04-.29-.05c.01,.02,.14,.03,.29,.05Z"/>
    <path class="cls-1" d="M47.7,38.93c-.42,.12-.83,.28-1.24,.41,.54-.18,.93-.31,1.24-.41Z"/>
    <path class="cls-1" d="M41.28,41.88c-.05,.09-.06,.13-.06,.17,0,0,.01,0,.01,0l.05-.17Z"/>
    <path class="cls-1" d="M146.49,43.66c.1,0,.19,.01,.28,.01,.65,.05,.21-.02-.28-.01Z"/>
    <path class="cls-1" d="M113.68,48.68c.33-.14,.65-.28,.99-.4-.57,.13-1.02,.24-.99,.4Z"/>
    <path class="cls-1" d="M182.07,44.6h0c.08,0,.16-.01,.24-.02l-.24,.02Z"/>
    <path class="cls-1" d="M116.16,47.89c-.58,.1-1.06,.24-1.49,.39,.47-.11,1.03-.23,1.49-.39Z"/>
    <path class="cls-1" d="M17.6,42.49l-.21-.27s-.04,.01-.06,0l.27,.27Z"/>
    <path class="cls-1" d="M17.32,42.22l-.28-.27c.12,.13,.22,.24,.28,.27Z"/>
    <path class="cls-1" d="M16.46,41.4l.59,.55c-.18-.21-.4-.48-.59-.55Z"/>
    <path class="cls-1" d="M22.85,49.68l.11-.06s-.08,.02-.11,.06Z"/>
    <path class="cls-1" d="M25.09,49.7c-.62,.14-1.49,.05-2.03-.13l-.09,.05c.17,0,.46,.17,.9,.22,.43,.07,.96,.01,1.22-.14Z"/>
    <path class="cls-1" d="M36.22,46.15l-2.12,1.06c.42-.1,.97-.23,.03,.3,2.79-1.13-.65,.09,2.09-1.36Z"/>
    <path class="cls-1" d="M42.66,42.72c-1.08,.65,.09,.13,.06,.22,.65-.46,.81-.58-.06-.22Z"/>
    <path class="cls-1" d="M89.76,53.8l-.18,.23c1.02,.14,.03-.1,.18-.23Z"/>
    <polygon class="cls-1" points="99.74 51.97 98.79 52.01 98.39 52.33 99.74 51.97"/>
    <polygon class="cls-1" points="105.96 52.36 105.55 52.5 107.12 52 105.96 52.36"/>
    <path class="cls-1" d="M192.1,47.95l-.19-.39c-.64-.12-.86,.17,.19,.39Z"/>
    <path class="cls-1" d="M224.01,35.24c.43-.08,1.42-.57,1.91-1.1-.76,.5-1.56,.84-1.91,1.1Z"/>
    <path class="cls-1" d="M140.44,14.58c.24-.06,.48-.13,.72-.2-.46,.11-.92,.18-1.38,.26l.65-.05Z"/>
  </g>
</svg>