<?xml version="1.0" encoding="UTF-8"?>
<svg id="Layer_1" data-name="Layer 1" xmlns="http://www.w3.org/2000/svg" viewBox="0 0 248 39">
  <defs>
    <style>
      .cls-1 {
        fill: #79c6e5;
      }

      .cls-2 {
        fill: #475257;
      }
    </style>
  </defs>
  <g>
    <path class="cls-2" d="M246.16,32.57c-.39,.33-.87,.72-.48,.93,.38-.43,.53-.36,.89-.89,.37-.17,.71-.14,.69,0,.11-.12,.62-.19,.75-.46-.59,0-1.21,.21-1.82,.64-.17-.02-.05-.15-.04-.22Z"/>
    <path class="cls-2" d="M210.92,34.2l.22,.13c-.05-.05-.13-.09-.22-.13Z"/>
    <path class="cls-2" d="M192.85,35.14c.16-.09,.21-.16,.2-.19-.14,.1-.25,.18-.2,.19Z"/>
    <path class="cls-2" d="M188.97,36.05c.08,0,.15-.01,.23-.02-.09-.01-.18-.01-.23,.02Z"/>
    <path class="cls-2" d="M210.92,34.2c-.19-.11-.36-.24-.54-.36-.09,.07,.26,.22,.54,.36Z"/>
    <path class="cls-2" d="M240.85,34.44c.14-.02,.26-.06,.36-.11l-.34,.06s0,.03-.02,.05Z"/>
    <path class="cls-2" d="M220.82,33.62l.16-.09c.03-.06,.05-.12,.06-.19l-.22,.28Z"/>
    <path class="cls-2" d="M226.64,29.19c-.24-.18-.36,.07-.45,.16,.12-.06,.29,0,.49,.1,.02-.05,.02-.13-.04-.27Z"/>
    <path class="cls-2" d="M238.92,33.37l.23-.04c-.06,0-.16,.03-.23,.04Z"/>
    <path class="cls-2" d="M215.49,34.92s-.04-.08-.07-.1c0,.04,.03,.07,.07,.1Z"/>
    <path class="cls-2" d="M9.8,33.84s0-.03,0-.05c-.06,.02-.07,.03,0,.05Z"/>
    <path class="cls-2" d="M1.53,28.3l.11,.08s.09-.06,.13-.1l-.24,.02Z"/>
    <path class="cls-2" d="M182.03,35.11s.02,0,.03,.02c.19,.03,.08,0-.03-.02Z"/>
    <path class="cls-2" d="M120.94,28.16c.67,.53-1.36-.18-.31,.52-.07-.15,1.2,0,.31-.52Z"/>
    <path class="cls-2" d="M240.62,34.42l-.35,.02c.16,0,.27,0,.35-.02Z"/>
    <path class="cls-2" d="M120.62,28.68h0s.11,.07,.11,.07c-.04-.03-.07-.05-.11-.07Z"/>
    <path class="cls-2" d="M168.1,32.48c.06,.02,.13,0,.21-.01-.02-.02-.07-.02-.21,.01Z"/>
    <path class="cls-2" d="M178.04,33.68l-.23-.21c.09,.09,.16,.16,.23,.21Z"/>
    <path class="cls-2" d="M162.57,35.8c-.17,.03-.23,0-.45,.11,.02,0,.05,.01,.08,.01,.07-.06,.17-.11,.37-.12Z"/>
    <path class="cls-2" d="M155.84,36.38s.08,.05,.12,.07c.07,0,.15,0,.22,0-.11-.02-.22-.04-.34-.08Z"/>
    <path class="cls-2" d="M28.62,31.77c-.1-.15-.14-.28-.16-.39,0,.23-1-.29,.16,.39Z"/>
    <path class="cls-2" d="M240.83,34.28c-.04,.07-.1,.11-.21,.13,.08-.01,.17-.02,.24-.03,.02-.04,.02-.08-.03-.1Z"/>
    <path class="cls-2" d="M162.91,38.01c-.39,.11-.8,.18-1.2,.26,.34-.05,.78-.12,1.2-.26Z"/>
    <path class="cls-2" d="M76.83,36.1l-.27,.06c.1,0,.2-.02,.27-.06Z"/>
    <path class="cls-2" d="M158.1,38.72c-.22-.09-.45-.16-.69-.2-.05,.02-.11,.04-.14,.07,.27,.04,.55,.1,.83,.13Z"/>
    <path class="cls-2" d="M28.46,31.37h0s0,0,0,0Z"/>
    <path class="cls-2" d="M24.2,31.02c.96-.71,.23-.63,.3-.94,.25-.23,.44-.36,.54-.41,.05-.02,.09,0,.13,.04,.07,.08,.14,.21,.22,.26,.03-.1,.06-.28,.14-.48,.03-.14,.1-.11,.15-.1,.06,.01,.12,.05,.18,.11,0,.09,.03,.15-.03,.19,.09-.02,.2,.04,.32,.12,.06,.05,.12,.1,.19,.15,.13,.1,.27,.2,.41,.3,.56,.4,1.11,.85,1.66,.96,.05,.07,.06,.11,.07,.15-.04-.24,.04-.41,.14-.51,.43,.25,.9,.28,.94,.58-.26-.16-.33-.09-.49-.1l.5,.18c.23,.55-.67-.27-.81-.05,.48,.21,.99,.45,1.49,.61,.51,.16,.97,.33,1.3,.54,.01,.38-1.71-.69-.89,.04-.35-.23-.72-.4-1.04-.67,.55,.96-.63-.42-.16,.53,.71,.44,1.16,.57,1.59,.74,.43,.17,.87,.29,1.63,.61,.41-.05-.02-.3,.38-.36,.56,.12,.94,.24,1.21,.36,.28,.13,.45,.28,.61,.42,.32,.27,.58,.57,1.46,.47,.48-.17,.69-.52,1.85-.18l-.45,.35c1.58,.13,.93-.46,2.55-.17-.29,.19-1.23,.08-.99,.15,1.06,.38,.76-.21,1.56-.21l.18,.33c1.69-.07,3.47-.63,5.23-1.14-.07,.13-.35,.33,.1,.3,2.22-.76,4.7-1.74,6.69-2.95l.53-.75c.16-.12,.37-.15,.24,.05,.74-.52-.08-.17,.16-.55,.23-.23,.28-.03,.28,.09,.02-.06,.05-.14,.09-.21l.07-.12s.05-.1,.09-.07c.07,.02,.14,.05,.23,.09,.09,.05,.14,.06,.42,.27,.43,.34,.89,.65,1.31,.94,.42,.3,.79,.6,1.08,.9l-.31-.1c1,.8,1.53,.19,2.4,1.01l-.22-.06c2.36,1.39,5.28,2.08,7.21,2.93,.46-.29,2.64,.63,2.88,.09,.75,.21,1.02,.33,1.37,.44,.35,.09,.78,.27,1.88,.34,.59,.02,.88-.37,1.59-.44l.03,.31c.32-.11,.64-.27,.96-.4l.55,.32,.67-.14c-.27,0-.59-.09-.55-.18,1.04-.18,2.58-.16,2.64,0,.82-.2,1.61-.52,2.4-.81-.02,.13-.42,.28-.72,.44,1.23-.64,.32,.25,1.45-.34-.18-.03,.03-.2,.04-.27,.63-.02,1.98-.46,2.9-.95l-.1,.28c.86-.39,1.79-.76,2.65-1.32,.44-.27,.88-.54,1.32-.82,.23-.13,.44-.29,.65-.45l.59-.43s-.11,.05-.17,.06c-.07,.02-.12,.04-.17,.04-.09,0-.15-.02-.17-.08-.06-.09,.11-.34,.25-.46,.09,.07,.16,.15,.23,.24,.05-.29-.27,.05-.08-.4,.34-.2,.19,.32,.17,.47l.08-.13,.05-.07s.05,.01,.07,.02c0,.13-.07,.13-.09,.29,.05-.1,.15,.11,.2,.24,.05,.08,0,.09,.14,.19,.17,.12,.35,.21,.52,.23v.11c1.78,1.3,2.77,1.62,4.42,2.23,.13-.26,.75,.06,1.31-.04,1.19,.42,2.57,.92,4.12,.96,1.09-.1,.32-.23,.81-.39,.07,.26,1.61,.21,.82,.41,1.84-.18,2.39-.2,4.58-1.03-.27-.03-.56,0-.44-.12,.39-.16,.95-.16,.93-.03l-.1,.06c1.16-.63,2.62-1.02,3.93-1.72,1.33-.64,2.53-1.6,2.97-2.34l-.06,.08c.41-.47,.79-.85,1.22-1.09,.63-.13-.3,.29,.18,.31,.58-.39,1.39-.2,2.08,.05,.73,.27,1.42,.56,2.3,.75,.99,1.16,4.51,1.91,6.12,3.12l-.03-.21c.53,.03,.52,.33,.85,.51,0-.15-.44-.35-.12-.33,2,.7,4.07,1.52,6.36,1.98,2.25,.44,4.67,.58,7.03-.04,.86-.25,1.02-.56,1.22-.85,.21-.3,.47-.52,1.51-.91-.11,.21-.25,.4-.38,.6,.23-.16,.47-.32,.69-.51l.34-.27,.16-.13,.05-.06,.22-.23,.11-.13c.1,.08,.12,.13,.28,.29,.41,.43,.86,.81,1.3,1.19,.9,.74,1.89,1.36,2.92,1.81-.21-.02-.26,.06-.54-.11,.23,.29,.81,.59,1.33,.8,.53,.19,1,.29,1.04,.2,.46,.21,.04,.21,.3,.42,.6,.41,1.75,.3,2.04,.62,.05,.05-.21,.02-.34,0,.24,0,.75,.15,1.16,.24,.41,.07,.72,.1,.54-.08,1.19,.38,2.34,.24,3.31,.42,.64-.26,2.13,.09,2.29-.38-.04,.5,2.21,.06,2.89-.38-.22,.2,.69-.05,.45,.22,.87-.25,1.6-.64,1.37-.79,.86-.04,1.58-.49,2.18-.91,.6-.43,1.1-.81,1.68-.78,1.04-.83,1.96-1.71,2.78-2.63,.41-.46,.79-.93,1.14-1.41,.17-.26,.29-.45,.44-.73,.02,.36-.09,.53-.2,.69l-.04,.06s0,0-.06,.08c-.09,.11-.17,.22-.23,.32-.12,.19-.16,.34-.06,.4,.09-.13,.18-.26,.27-.38l.13-.18c.05-.07,.09-.13,.06-.11,.01-.07,.03-.15,.06-.24,.06-.18,.13-.42,.24-.66,.07,.05,.16,.14,.26,.28,.05,.06,.11,.14,.16,.22l.08,.13,.04,.07,.1,.14c.32,.5-.42-.21-.37-.05,.04,.04,.02,0,.12,.11l.27,.31c.18,.2,.35,.42,.53,.62,.38,.39,.73,.8,1.12,1.16,.75,.74,1.6,1.35,2.48,1.81-.03,.04-.23-.05-.42-.14,.32,.23,.74,.55,.8,.36l-.36-.15c-.36-.56,1.63,.27,1.77,.12-.42,.11-.02,.36,.34,.61,.37,.23,.7,.45,.07,.58,.26,.07,.59,.11,.59-.04,.33,.19,.42,.31,0,.3,1.37,.38,.95,.04,2.17,.38-.03,.1-.29,.07-.45,.14,.68,0,1.33-.04,2.37,.2-.07,.05,.04,.14-.28,.1,1.85,.22,3.13-.25,5.09-.4-.5,.53,.69,.02,.88,.35l1.03-.4-.47-.06c.92-.25,1.59-.81,2.37-1.03l-.58,.42c.54-.25,1.06-.52,1.56-.83-.32,.11-.63,.23-.95,.33,.75-.59-.29-.37,.83-.84-.19,.16,.78-.45,1.31-.54h0c.3-.37,.62-.71,1.19-1.08,.21-.02,.15,.41,.29,.4,.18-.49,1.56-1.55,1.68-2.22-.07,.19,.07,.33,.14,.31,.02-.15,.05-.3,.06-.45,.33-.28,.4-.31,.48-.16,.83-1-.6,.05,.46-1.07-.05,.11,.01,.08-.1,.31,.24-.31,.47-.61,.65-.94,.17-.31,.38-.71,.48-.94,.19-.45,.39-1,.58-1.36h0s.04,.11,.05,.16c0,.04,0,.08,0,.13-.01,.31-.23,.58-.04,.73,.04-.12,.07-.25,.11-.38,.12,.02,.28,.18,.45,.29l.29,.21c.11,.08,.18,.13,.38,.3,.69,.58,1.36,1.17,1.97,1.76l-.24-.27c.55-.22,.89,1.17,1.84,1.59-.21-.12-.43,.03-.34,.03,1.01,.89,2.28,1.6,4.18,2.35h-.29c.66,.49,1.9,.94,2.72,1.24,.29-.06,.76,.09,.52-.18,1.2,.72,2.6,.71,3.82,.48,1.24-.23,2.34-.63,3.57-.78-.26,.12-.61,.34-.39,.27,.64-.27,1.24-.61,1.82-.99-.26-.12-.31,.01-.76,.06,.15-.26,.61-.58,.99-.87-.65,.63,.2,.31,.62,.18-.1-.02-.03-.16-.1-.2,.54-.16,.5-.3,.48-.45-.02-.17,0-.33,.57-.76l.04,.14c.34-.43,.49-.92,.82-1.37,.17-.03,.13,.1,.06,.27-.08,.16-.19,.34-.12,.42,.26-.33,.33-.77,.44-1.15,.06-.34,.16-.76,.36-.92-.05,.36-.18,.72-.26,1.02,.3-.23,.36-.29,.43-.39,.07-.09,.1-.2,.15-.35v.03s.1-.24,.1-.24c0-.05,.04-.01,.08,.03l.1,.1,.19,.19-.18-.23c.4-.54,1.2,.71,2.57,.89-1.36-.21-.31,.12-.54,.34,.27,.23,.7,.56,.53,.57,.68,.09,.91,.64,1.89,.67,0,.12,.65,.25,.42,.43,.83,.21-.13-.23-.02-.32,1.3,.14,2.8,1.34,4.74,1.19,1.61,.04,1.93-.28,3.38-.39,.49,.16-.41,.35-.41,.35,.79,.14,1.41,.15,2.15-.03-.15,.09,.01,.16,.25,.25,.61-.07,.38-.36,1.18-.32-.12,.12-.28,.33-.56,.46,.71-.19,1.4-.42,2.1-.66,.22,.12-.39,.36-.64,.49,.82-.21,2.12-.57,2.29-.92l-.54,.05c.29-.09,.21,.18,0,.29-.66,.35-1.03,.11-1.09,.02l.5-.16c-.63-.44-2.04,.48-3.12,.5l.4-.44-1.05,.41c-.24-.09-.39-.32,.11-.41-.75-.15-.65,.17-1.29-.05-.07-.04-.04-.06,.03-.07l-.72,.12c.14-.09-.11-.29,.33-.23-1.27-.28-2.1,.19-2.55-.2h.11c-1.79-.13-.21,.3-1.62,.4l-.74-.92-.24,.26c-.18-.06-.52-.18-.43-.28-.72,.02,.08,.16-.36,.24-.4-.24-1-.4-1.5-.58-.51-.16-.91-.35-.91-.62-.38,.09,.72,.5-.22,.28-.04-.59-1.06-.34-1.68-.95,.35-.12,.96,.35,.35-.23-.32,.09-.67-.1-.99-.38-.34-.29-.57-.56-1.07-.83-.07,.12-.31,.03-.63-.18-.16-.1-.35-.24-.56-.38-.1-.07-.21-.15-.32-.23l-.17-.12-.08-.06s-.03,.03-.05,.04c-.09,.37-.17,.77-.25,1.14-.02-.06-.09,.06-.2,.3-.06,.13-.12,.28-.2,.45l-.06,.14c-.04,.1-.05,.08-.07,.13-.04,.06-.09,.13-.13,.2-.33,.56-.88,1.12-1.28,1.43l-.02-.06c.16,.42-.72,1.07-1.34,1.55-.09-.2-.02-.36,.26-.67-.2,.13-.38,.28-.59,.39-.09,.18-.25,.36-.65,.6,.02-.11,.03-.21,.04-.32-.82,.42-1.67,1.06-2.94,1.1-.05,.27,1.16,.53-.2,.93-.07-.13-.15-.36,.19-.47-.11,.03-.4,.19-.64,.14,.17-.09,.34-.19,.51-.3-.58,0-.27,.23-.74,.26,0-.2-.35-.11-.3-.27,.11-.03,.41,.05,.57-.04-.26,0-.55-.01-.79-.04-.25-.05-.45-.12-.55-.2,.04,.11,0,.27-.38,.29-.97-.07-.31-.27-.85-.42-.24,.09-.81-.15-.89,.13-.28-.07-.29-.22-.38-.33-.53,.05-2.23-.74-1.81-.24l.11,.07s-.05-.01-.08-.02h0s0,0,0,0c-1.71-.36-3.05-1.75-4.45-2.67l.06-.08c-.87-.52-1.77-1.38-2.44-1.72-.22-.21-.39-.62-.22-.61-.3-.24-.49-.36-.69-.53-.22-.19-.34-.33-.84-.97,.41,.3,.38,.22,.36,.17-.01-.02-.02-.03,.04,.04,.05,.05,.15,.17,.36,.39-.43-.53-.7-.85-.98-1.19-.32-.36-.69-.71-1.19-1.06,.19,0-.1-.47-.49-.88-.17,.36-.36,.87-.46,1.22l.47-.72c-.27,.8-.51,1.39-.83,2.02-.03-.21-.05-.45-.07-.7-.21,.35-.41,.74-.59,1.13-.13,.28-.16,.28-.22,.41l-.15,.3c-.19,.4-.37,.79-.54,1.17-.36,.75-.81,1.42-1.57,1.73-.19,.54,.85-.67,.73-.15-.65,.67-1.69,.93-1.9,1.1-.52,.33-.69,.57-.85,.85-.16,.28-.35,.56-.94,.85,.19,0,.53,.22-.31,.8-.86,.41-1.25,.05-.76-.27,.19-.11,.3-.13,.31-.09,.24-.18,.56-.4,.18-.35l-.05,.16c-.44,.13-1.58,.62-1.39,.32-.58,.36-.19,.3,.29,.15-1.13,.29-1.7,.65-2.88,.78,.2,.03,.4,.13,.21,.17-.87,.11-1.06,.16-1.17,.26-.11,.09-.15,.21-.75,.29-.69-.16,.22-.44-.97-.25-.73-.16-.14-.31,.13-.42-1.07,.22-1.97-.26-2.54-.43,.19,0,.37,.02,.56,0-.33,.02-.6-.06-.87-.1l.26,.29c-.31-.1-.59-.16-.56-.25-.37,.06,.17,.46-.55,.48-.41-.21-1.36-.29-1.4-.64,1.29,.56-.04-.34,1.09-.02-.23-.02-.48-.13-.78-.27-.03-.05,.07-.05,.16-.03-.57-.34-.73-.34-.92-.28-.19,.04-.42,.16-1.03-.18,.23-.08-.13-.45-.34-.51,.49,.25,.09,.4-.42,.25-.7-.58-.89-.42-1.27-.71l.41,.37c-.24,.04-.62-.23-1.16-.58,.04-.14,.51,.28,.37,.09-.37-.09-.64-.41-.91-.76-.25-.38-.53-.74-.93-1.03-.22-.41,.21-.26,.01-.6-.45-.31-.57-.61-.71-.88-.04-.08-.08-.16-.12-.24-.08-.14-.16-.29-.24-.45-.18-.32-.42-.7-.74-1.11,.24,.83,.23,.76-.53-.09,.26,.41,.56,.82,.86,1.25l.46,.65,.33,.35-.26-.18-.13-.09s-.11-.12-.16-.17l-.63-.66c.12,.18,.24,.36,.37,.54,.12,.16,.28,.4,.36,.46,.2,.2,.37,.37,.46,.52-.51-.34-.43-.33-.41,.02-.06-.22-.15-.38-.28-.56-.15-.24-.33-.46-.5-.66-.36-.42-.63-.74-.92-1.49l.11-1c-.08-.17-.16-.33-.23-.49-.62,.8-1.22,1.84-1.81,2.79l-.22,.36-.2,.28c-.09,.13-.19,.27-.29,.41-.21,.28-.48,.54-.78,.81l.47-.33c.01,.34-.75,.8-1.12,1.25-.09-.18-.41-.01-.68,.04,.12,.11-1.02,.76-.94,1.17l-.81,.21c-1.27,.61-1.15,1.31-2.48,1.79,.31-.36-.32-.25,.46-.74-.42,.17-.81,.3-.77,.43-.29-.02-1.11,.68-1.58,.6-.16,.14-.17,.36-.69,.46-.06-.03-.02-.1-.02-.1,.02,.09-.77,.31-.28,.42-.77-.16-1.75,0-2.73,.05-.97,.08-1.94,.02-2.53-.3-1-.05-2.21-.25-3.1-.51,.07-.04,.03-.09,.19-.02-1.14-.57-.94,.32-2.22-.43-.55-.59,.78,.15,.4-.15,.08-.66-1.63-.62-2.26-1.48l.22,.09c-.51-.55-1.64-.75-2.54-1.57,0,0,.08,0,.07-.07-.33-.12-.73-.33-1.13-.63-.54-.41-1-.93-1.44-1.3-.24,.27-.46,.53-.67,.78,.25-.62,.47-.68,.2-.77-.27,.31-.2,.38-.2,.53,0,.15-.04,.36-.47,.78-.39,.18-1.05,.44-1.28,.26,.27-.18,.49-.33,.79-.56-.35,.05-.55,.17-.79,.39-.24,.18-.47,.4-.7,.48v-.17c-1.27,.61-1.19,1-2.77,1.31l.18,.08c-.82,.53-.76-.08-1.61,.27l-.29-.38c-.56,.13-2.04,.39-3.12,.29,.64-.19,1.87-.24,2.61-.44-.56,.04-1.92-.05-2.25,.1,.24,0,.53-.08,.76,0-.73,.26-1.7,.28-2.85,0,.19-.34-.53-.56-1.37-.87-.84-.29-1.8-.67-2.08-1.1-2.03-.5-3.73-1.77-6.05-2.72,.58,.9-.68-.27-.77,.36-.55-.19-.75-.27-.79-.33-.5-.33-1.01-.65-1.54-.96-.35-.3,.58,.05,.57-.09-1.22-.47-.42-.42-1.23-.85,.11,.27-.51,.14-1.37-.09,.4,.16,.75,.34,1.08,.53-.97-.1-1.4-.27-1.89-.42-.25-.07-.51-.13-.87-.1-.36,.03-.83,.16-1.32,.5,.19-.17,.41-.33,.65-.47-.64,.23-1.62,.83-2.26,1.48-.66,.67-1.13,1.21-1.31,1.65-.16,.04-.41,.03-.16-.24-.2,.14-.39,.31-.59,.47-.21,.15-.43,.3-.64,.46-.41,.34-.89,.61-1.34,.91-.92,.55-1.88,.95-2.69,1l.11-.19c-.34,.16-.57,.44-1.07,.38,.01-.07,.12-.17-.05-.15-.18,.1-.95,.45-1.46,.39l.41-.21c-1.95,.02-3.02,.56-4.74,.41,.04-.23-.33-.41-.78-.61-.44-.23-1-.39-1.34-.56l.04-.05c-1.06-.38-1.97-.67-2.84-1.03-.43-.19-.89-.34-1.3-.6-.21-.12-.43-.24-.65-.36l-.17-.1c-.07-.04-.15-.12-.23-.18-.16-.12-.31-.25-.47-.38-.17-.23-.38-.49-.63-.77-.06-.07-.13-.14-.2-.22-.07-.06-.13-.2-.23-.09-.18,.11-.36,.23-.55,.35-.59,.4-1.27,.85-1.97,1.32-1.08,.62-2.24,1.32-3.3,1.61,.33-.07,.1,.33-.24,.54-.49,.16-1.21,.81-1.28,.41l.18-.05c-.51-.26-1.43,.25-2.23,.43v.54c-.57-.05-1.18,.04-1.82,.16-.64,.09-1.3,.24-1.93,.39-.63,.13-1.25,.2-1.78,.24-.53,.05-.97,0-1.27-.18-.52,.13-1.16,.14-1.68,.27l.04-.28c-1.43-.18-2.14-.2-3.9-.45l.39-.14c-.97-.17-1.4,.62-2.32,.39l-.17-.48c-.86-.18-1.67-.55-2.48-.88-.83-.29-1.59-.69-2.47-.85,.05-.04,.15-.13,.42-.04-.18-.09-.45-.22-.75-.37-.28-.18-.59-.37-.87-.52-.57-.31-1.06-.49-1.08-.17,.16-.3-1.48-1.01-2.36-1.44l.28-.13c-.41-.11-.64-.16-.88-.25-.28-.13-.67-.39-1.28-.83-.28-.28-.25-.5,.16-.06-.12-.13-.23-.23-.33-.32-.05-.04-.09-.08-.13-.11-.04-.04-.08-.07-.11,0-.14,.15-.24,.28-.34,.42-.21,.28-.39,.54-.99,.98l.34-.55c-.25,.22-.47,.43-.56,.51-.09,.09-.14,.17-.19,.24-.08,.15-.12,.27-.26,.5-.41,.42-1.44,.98-1.7,.8-.02,.19-.36,.61-.86,.82-.11-.05,.03-.2,.11-.27-.69,.31-1.18,.58-1.62,.85-.43,.27-.83,.51-1.38,.52-.05-.08-.13-.1-.22-.1,.29-.09,.56-.18,.81-.25,.24-.1,.45-.19,.63-.26,.35-.15,.56-.22,.52-.2-.11-.23-1,.1-.45-.52-.58,.52-1.71,1.31-2.65,1.47-.05-.01-.1-.03-.14-.06l.09-.05c-.22,.02-.4,.08-.57,.17-.3,.02-.49,.03-.77,.09-.14-.16-1.1,.07-1.57,.11,.07,.27-.56,.31,.05,.47-.08-.01,.09-.04,.41-.1,.07-.02,.16-.03,.2-.05l-.03,.03c.32-.04,.73-.1,1.18-.22-.34,.23-.73,.43-1.29,.32-.22,.21-.48,.43-.63,.53-.72-.26-2-.52-2.17-.73-.73,.1-1.6,.03-2.4,.05-.8-.06-1.55-.03-2.06,.12-.43-.04-.44-.27-.58-.39,.25,0,.53,.09,.67,.05-.42-.04-1.03-.18-1.57-.27-.54-.11-.99-.22-1.15-.08-.95-.52,.68-.12-.72-.55l.23-.04c-.62-.38-1.16-.71-1.75-.92-.57-.23-1.11-.47-1.69-.69-.58-.22-1.1-.56-1.66-.93-.26-.16-.57-.48-.88-.82-.31-.35-.63-.74-1.01-1.24,.21,.27,.31,.39,.34,.51l-.31-.34-.16-.17c-.05,0-.11,.08-.17,.12l-.69,.61-.7,.65c-.21,.18-.38,.29-.57,.44-.71,.59-1.5,1.09-2.31,1.56-1.62,.93-3.48,1.5-5.29,1.5-1.01,.08-1.1,.24-1.72,.49l-.24-.29c-.35,.16-.7,.23-1.07,.35-.77,.14-1.43-.14-2.11-.37-.34-.1-.68-.27-1.06-.36-.38-.1-.8-.14-1.29-.18l.18,.27c-.33-.12-.86-.25-1.29-.37-.42-.16-.73-.32-.63-.4-.08,0-.29,.11-.5-.09l.04-.15c-.56-.11-1.08-.35-1.64-.53-1.06-.79,.48-.42-1.05-1.48-.57-.36-1.81-.93-1.69-.68,.21,.19,.49,.55,.41,.69l-.56-.37c-.4,.27-1.18,.23-.04,1.63,.37,.21,.76,.37,1.15,.52l.2,.41-.87-.58c.36,.51,.79,.57,1.2,.69,.02,.15,.11,.34,.31,.49l1.27,.18c.05,.23-.64,.07,.03,.54,.59,.06-.31-.59,.59-.33,.45,.41,.23,.51,.93,.6,.05,.15-.11,.17-.39,.11,.61,.13,1.56,.48,1.92,.34,.51,.47,2.01,.37,1.87,.81,.21-.04,1.12-.2,1.67-.15-.53,.2-.01,.29,.61,.34,.62,.03,1.33,.06,1.2,.34,.39-.21,1.06-.34,1.82-.41,.75-.09,1.58-.25,2.21-.5-.06,.06-.19,.16-.31,.16,.75-.11,.99-.05,1.49-.08,0-.37,1.08-.84,1.58-1.28,1,.04-.36,.62,.04,.86-.08-.15,.28-.34,.59-.56,.31-.23,.58-.43,.39-.48,.74-.09,.6-.16,1.08-.03-.12-.48,.54-.41,.89-.97,1.01-.34,.5,.26,1.33-.54,.53-.21-.19,.55-.19,.55Zm22.05,2.76h0c-.21,.09-.4,.12-.52,.15,.11-.03,.26-.05,.52-.15Zm2.08-.71c-.25,.11-.57,.2-.9,.31-.1-.07-.06-.19,.15-.25-.09,.09,.42,.01,.75-.06Zm-4.78-.7c.31-.07,.42-.07,.47-.01-.15,.04-.31,.09-.54,.13,0,.01-.02,.03-.03,.04,.02-.06,.05-.11,.1-.15Z"/>
    <path class="cls-2" d="M43.03,32.81s-.07,.03-.13,.04c.07,.02,.13,.03,.2,.04,.03-.03,.07-.07,.1-.1-.06,0-.12,.02-.17,.03Z"/>
    <path class="cls-2" d="M211.17,34.35l-.04-.02s.06,.05,.07,.07c-.02-.02-.02-.03-.03-.05Z"/>
    <polygon class="cls-2" points="74.39 36.44 74.39 36.37 74.2 36.43 74.39 36.44"/>
    <path class="cls-2" d="M222.46,34.08s.09,0,.18-.04c-.02,0-.09,0-.18,.04Z"/>
    <path class="cls-2" d="M225.34,30.35l.11-.18c0-.06,.06,.02,.1,.06-.03-.03-.06-.06-.08-.09-.02-.02-.02,.01-.03,0-.04,.08-.07,.15-.1,.21Z"/>
    <path class="cls-2" d="M227.53,31.53c.07-.02,.1-.05,.13-.07h0s-.12,.07-.12,.07Z"/>
    <path class="cls-2" d="M177.18,35.37s-.09-.06-.14-.08c-.34-.17-.12-.04,.14,.08Z"/>
    <path class="cls-2" d="M195.28,34.97c-.13,.16-.28,.3-.44,.44,.3-.16,.53-.3,.44-.44Z"/>
    <path class="cls-2" d="M163.04,37.98h0s-.09,.02-.13,.03l.13-.03Z"/>
    <path class="cls-2" d="M194.07,35.85c.33-.1,.56-.28,.76-.45-.25,.12-.53,.29-.76,.45Z"/>
    <path class="cls-2" d="M244.4,33.93c.06,0,.13-.02,.19-.03,0-.02,0-.03,.01-.05-.07,.03-.13,.06-.2,.08Z"/>
    <path class="cls-2" d="M244.6,33.85l.2-.09c-.1,.03-.18,.05-.2,.09Z"/>
    <path class="cls-2" d="M245.22,33.57l-.42,.19c.15-.04,.34-.08,.42-.19Z"/>
    <path class="cls-2" d="M239.11,34.41l-.06,.1s.05-.05,.06-.1Z"/>
    <path class="cls-2" d="M237.5,34.39c.38,.06,.96,.27,1.5,.2l.05-.08c-.26,.15-1.18-.24-1.55-.12Z"/>
    <path class="cls-2" d="M231.34,31.87c.39,.16,.79,.34,1.2,.47-.19-.16-.42-.38,.14-.25-1.44-.77,.24,.36-1.34-.22Z"/>
    <path class="cls-2" d="M227.82,30.09c.61,.3,.07-.14,.13-.18-.41-.14-.52-.17-.13,.18Z"/>
    <path class="cls-2" d="M204.02,29.05l.23-.13c-.41-.35-.07,.07-.23,.13Z"/>
    <path class="cls-2" d="M200.81,29.16c.09-.06,.16-.1,.24-.12-.03-.11-.06-.23-.08-.36l-.15,.49Z"/>
    <path class="cls-2" d="M197.59,30.76l.11-.19c-.15,.24-.29,.48-.47,.7,.13-.16,.25-.33,.36-.51Z"/>
    <path class="cls-2" d="M157.06,36.24l.14,.32c.35-.05,.43-.4-.14-.32Z"/>
    <path class="cls-2" d="M138.4,33.21c-.24-.1-.8-.14-1.13,.06,.45-.04,.91,.03,1.13-.06Z"/>
    <polygon class="cls-2" points="79.62 33.16 79.99 32.96 79.27 33.24 79.62 33.16"/>
  </g>
  <g>
    <path class="cls-1" d="M243.52,31.8c.14-.09,.06-.28-.35-.24l-.29,.33,.63-.09Z"/>
    <path class="cls-1" d="M240.78,31.18c-.48,.16-1.05,.41-.75,.73,.49-.3,.6-.17,1.12-.53,.41-.03,.71,.12,.64,.24,.14-.08,.64,.07,.85-.14-.53-.24-1.2-.26-1.9-.07-.15-.08,0-.16,.04-.22Z"/>
    <path class="cls-1" d="M204.41,26.96l.18,.18c-.04-.06-.1-.11-.18-.18Z"/>
    <path class="cls-1" d="M185.03,31.15c.17-.05,.23-.09,.23-.12-.15,.06-.28,.1-.23,.12Z"/>
    <path class="cls-1" d="M181.24,30.63c.08,.04,.14,.05,.21,.07-.08-.04-.16-.08-.21-.07Z"/>
    <path class="cls-1" d="M204.41,26.96c-.15-.15-.29-.31-.43-.47-.1,.05,.2,.27,.43,.47Z"/>
    <path class="cls-1" d="M235.23,31.55c.14,0,.26-.02,.37-.05h-.34s-.02,.03-.03,.05Z"/>
    <path class="cls-1" d="M213.03,26.07l.13-.16c0-.07,.01-.14,0-.22l-.14,.38Z"/>
    <path class="cls-1" d="M221.2,26.08c-.16-.09-.33,.15-.45,.23,.14-.06,.29-.06,.45-.01,.02-.05,.03-.12,0-.22Z"/>
    <path class="cls-1" d="M233.55,30.16h.23c-.06,0-.16,0-.23,0Z"/>
    <path class="cls-1" d="M208.64,28.32s-.03-.08-.06-.11c0,.03,.02,.07,.06,.11Z"/>
    <path class="cls-1" d="M8.41,28.61s0-.03,0-.05c-.06,.02-.08,.03,0,.05Z"/>
    <path class="cls-1" d="M.36,22.83l.11,.08s.1-.06,.13-.09l-.24,.02Z"/>
    <path class="cls-1" d="M175.62,26.71s0,.02,.02,.03c.14,.11,.07,.04-.02-.03Z"/>
    <path class="cls-1" d="M116.1,20.7c.2,.35-.09,.2-.34,.09-.41-.27-.6-.32-.14,.29,0-.15,1.07,.37,.48-.38Z"/>
    <path class="cls-1" d="M235.02,31.49l-.34-.05c.15,.03,.26,.05,.34,.05Z"/>
    <path class="cls-1" d="M115.63,21.08h0s.07,.1,.07,.1c-.03-.04-.05-.07-.07-.1Z"/>
    <path class="cls-1" d="M161.99,29.96c.06,.02,.13,.01,.21,0-.02-.02-.07-.02-.21,0Z"/>
    <path class="cls-1" d="M172.58,23.37c-.09-.11-.18-.21-.29-.31,.12,.12,.21,.22,.29,.31Z"/>
    <path class="cls-1" d="M156.37,32.49c-.17-.01-.23-.05-.45,0,.02,.01,.04,.02,.07,.03,.08-.04,.19-.07,.38-.03Z"/>
    <path class="cls-1" d="M149.92,31.28s.05,.07,.08,.11c.06,.03,.13,.06,.2,.08-.1-.05-.19-.12-.28-.19Z"/>
    <path class="cls-1" d="M26.01,24.6c.07-.11,.12-.19,.16-.27-.15,.16-.29-.03-.16,.27Z"/>
    <path class="cls-1" d="M235.25,31.4c-.05,.06-.12,.09-.23,.09,.08,0,.16,.01,.24,.02,.03-.04,.04-.08-.01-.11Z"/>
    <path class="cls-1" d="M156.25,34.72c-.42,0-.83,.04-1.25,0,.35,.06,.8,.02,1.25,0Z"/>
    <path class="cls-1" d="M72.54,33.18l-.26,.09c.11-.01,.2-.04,.26-.09Z"/>
    <path class="cls-1" d="M151.34,34.2c-.19-.16-.4-.28-.62-.38-.06,0-.12,0-.16,.02,.25,.13,.52,.24,.78,.36Z"/>
    <path class="cls-1" d="M26.17,24.33h0s0,0,0,0Z"/>
    <path class="cls-1" d="M22.87,26.77c1.01-.6,.28-.6,.38-.91,1.08-.83,.68-.12,1.18-.22,.34-.28,.55-.64,.77-.93l.16-.22c.03-.05,.01-.06,.02-.09,.01-.05,.05-.11,.09-.14,.03,.05,.06,.05,.05,.16,.03-.23,.25-.5,.39-.59,.05,.18,.11,.31,.31,.37-.01,.06-.03,.1-.05,.13,.12-.2,.24-.4,.35-.48,.05,.17,.17,.28,.26,.4,.09,.13,.16,.29,.09,.43-.12-.27-.24-.3-.34-.33,.07,.07,.2,.27,.3,.4-.05,.3-.16,.15-.28-.07-.15-.27-.19-.34-.3-.28,.04,.03,.22,.31,.37,.54,.17,.23,.35,.44,.52,.65,.34,.42,.69,.78,.89,1.12-.18,.37-1.21-1.45-.82-.4-.23-.36-.39-.77-.57-1.14,.04,1.11-.37-.7-.41,.37,.83,1.55,1.2,1.54,2.31,2.81,.4,.12,.1-.29,.5-.17,.98,.64,1.23,1.05,1.44,1.43,.2,.39,.39,.71,1.26,.94,.52-.01,.82-.28,1.85,.37l-.53,.2c.74,.33,1.01,.25,1.27,.23,.26-.03,.5-.02,1.28,.3-.32,.08-1.24-.2-1.02-.1,.97,.58,.8,0,1.6,.17l.11,.36c1.72,.27,3.58,.05,5.38-.24-.09,.11-.39,.26,.05,.31,2.3-.43,4.85-.97,6.99-1.6l.67-.59c.18-.07,.38-.02,.21,.12,.83-.23-.03-.19,.3-.46,.44-.21,.65-.11,.41,.1,.64-.42,1.55-.99,2.47-1.54,.93-.54,1.9-1.09,2.42-1.02l-.18,.14c.41-.06,.52-.18,.76-.28,.22-.09,.51-.11,.81,.25l-.17-.05c.83,.57,1.61,1.76,2.7,2.71,1.05,.94,2.17,1.64,3.08,2.27,.28-.12,.89,.21,1.53,.42,.62,.24,1.25,.36,1.4,.1,.74,.29,1.01,.44,1.36,.56,.35,.13,.79,.27,1.91,.4,.61,.04,.89-.36,1.61-.46l.04,.31c.33-.13,.65-.27,.96-.41,.19,.11,.38,.2,.57,.3l.67-.18c-.28,.03-.6-.05-.57-.14,1.03-.28,2.58-.31,2.65-.17,.79-.3,1.56-.63,2.31-.99-.01,.13-.39,.31-.68,.49,1.16-.73,.34,.24,1.39-.45-.18,0,.02-.2,.02-.27,.63-.03,1.91-.55,2.79-1.04l-.09,.27c1.7-.69,3.42-1.71,5.21-2.57-.69,.22-.7-.18-.19-.47l.35,.19c.25-.34-.6,.15-.01-.4,.69-.28,.61,.12,.27,.4l.77-.48c.09,.07-.08,.2-.08,.34,.25-.34,1.55-.36,1.82-.83l.07,.08c.79-.28,1.19-.32,1.59-.28,.43,.05,.92,.23,1.67,.58,.14-.23,.74,.09,1.31,.07,1.13,.58,2.48,1.14,4.02,1.34,1.1-.03,.34-.21,.84-.33,.05,.3,1.59,.3,.79,.47,.93,0,1.52-.02,2.16-.12,.65-.06,1.35-.23,2.46-.54-.26-.04-.55-.06-.42-.16,.4-.1,.94-.11,.91,.03l-.1,.05c1.22-.45,2.66-.8,4.05-1.24,1.36-.5,2.66-1.12,3.31-1.99l-.08,.09,.76-.78,.69-.84c.75-.65-.3,.55,.35,.15,.37-.47,.64-.93,.96-1.3l.11-.14s0,0,.02-.03l.06-.08c.04-.05,.08-.1,.12-.14l.11-.12s.08,.09,.12,.12c.09,.08,.16,.14,.32,.19,.28,.77,1.29,1.65,2.45,2.38,1.14,.77,2.42,1.38,3.17,2.07l-.02-.21c.52,.09,.5,.37,.81,.58,.01-.15-.42-.39-.1-.33,3.9,1.73,8.05,3.46,12.14,4.71,1.51,.44,1.05-.66,2.91,.23l-.64,.19c1.64,.2,3.31,.48,5.06,.47,.88-.01,1.78-.1,2.67-.37l.66-.24,.64-.32c.21-.12,.4-.27,.6-.41,.1-.07,.19-.15,.28-.23l.12-.12,.03-.05c.02,.09,.04,.21-.26,.44,.07-.02,.14-.06,.22-.11,.07-.04,.19-.12,.18-.11,.03,0,.05-.01,.06-.04,.03-.04,.05-.13,.08-.26,.03-.12,.07-.12,.08-.22,.08,.14-.01,.27-.01,.43,0,.12,.04,.05,.15,.07,.34,.26,.64,.48,.7,.71,.02,.08-.2-.09-.31-.17,.38,.3,1.74,1.41,1.52,.93,.48,.43,1.05,.67,1.56,.94,.54,.2,1.04,.39,1.49,.64,.36-.06,.86,.13,1.32,.28,.46,.13,.89,.19,1.02,0-.18,.47,2.16,.66,2.93,.31-.26,.15,.7,.11,.4,.31,.92-.06,1.73-.34,1.53-.52,.44,.09,.85,0,1.25-.12,.4-.11,.77-.26,1.09-.46,.33-.18,.64-.35,.94-.46,.29-.13,.56-.21,.86-.18,1.17-.75,2.1-1.74,2.89-2.73,.34-.54,.73-1.06,.99-1.6,.27-.53,.51-1.05,.74-1.54,.18,.14-.09,.67-.38,1.22-.27,.55-.64,1.08-.42,1.17,.61-1.04,.8-1.87,1.11-2.6,.29-.72,.64-1.45,1.3-1.98,.36-.23-.06,.3-.08,.46,.45-.64,1.24-1.04,1.88-1.08,.65-.03,1.01,.15,1.57,.71-.04,.02-.17-.09-.28-.17,.18,.18,.34,.59,.5,.45l-.22-.23c-.02-.28,.28-.15,.62,.15,.34,.29,.7,.71,.8,.7-.87-.24,.94,1.68-.26,1.24,.19,.19,.47,.39,.54,.26,.2,.33,.22,.48-.15,.26,.47,.54,.72,.63,.9,.75,.19,.11,.35,.23,.81,.66-.07,.07-.28-.08-.46-.09,.61,.32,1.19,.61,2.01,1.29-.09,.01-.03,.15-.29-.04,1.55,1.05,2.9,1.2,4.74,1.91-.34,.12-.19,.21,.06,.3,.25,.08,.59,.17,.62,.36,.37,.05,.75,.02,1.13,.03l-.43-.22c.97,.14,1.81-.19,2.63-.17l-.7,.23,.9-.13,.88-.23c-.35,.02-.69,.07-1.03,.07,.9-.37-.18-.44,1.04-.59-.23,.1,.87-.26,1.4-.28h0c.38-.29,.72-.62,1.34-.91,.21,0,.1,.43,.24,.43,.24-.48,1.73-1.38,1.9-2.03-.09,.18,.04,.34,.11,.32l.1-.44c.36-.24,.43-.25,.49-.09,.93-.87-.61-.04,.58-.98-.07,.1,0,.08-.14,.29,1.13-1.01,1.83-2.24,2.86-3.13,.54-.03-.75,.92-.2,.8,.54-.61,1.06-1.26,1.61-1.87,.56-.61,1.14-1.23,1.68-1.23,.22,0,.42,.06,.63,.19-.07-.06-.15-.11-.23-.15,.18-.22,.47-.02,.71,.32,.24,.33,.5,.81,.93,1.06-.19-.14-.42-.02-.34-.01,.85,.97,1.9,1.89,3.55,3.09l-.28-.06c.52,.62,1.62,1.37,2.4,1.81,.3,0,.76,.21,.55-.09,1.09,.9,2.55,1.05,3.81,.79,1.29-.26,2.37-.9,3.44-1.62-.19,.22-.44,.59-.25,.43,.51-.54,.87-1.11,1.24-1.62-.27-.03-.26,.1-.66,.31,.05-.28,.3-.78,.62-1.13-.45,.76,.28,.21,.61,.09-.09-.01-.06-.15-.13-.18,.48-.15,.43-.23,.43-.4,0-.13,.03-.43,.71-.44l-.04,.13c.42-.17,.93-.25,1.44-.03,.12,.32-.55-.05-.62,.18,.65,.11,1.56,.08,2.08,.61-.33-.07-.77-.29-1.09-.36,.54,.61,.67,.58,1.17,.87l-.05-.03c.38,.23,.77,.47,1.16,.69l-.28-.21c1.18-.23,1.9,.69,3.31,.74-1.36-.06-.29,.16-.49,.41,.29,.2,.74,.47,.58,.5,.68-.01,.93,.55,1.9,.49,0,.11,.64,.22,.43,.41,.81,.18-.13-.22-.03-.32,1.3,.07,2.74,1.27,4.64,1.22,1.57,.16,1.92-.11,3.36-.02,.45,.24-.45,.28-.45,.28,.75,.28,1.35,.34,2.1,.33-.16,.06-.02,.16,.19,.3,.6,.05,.44-.3,1.21-.07-.15,.09-.34,.25-.64,.32,.72,0,1.43-.11,2.16-.14,.18,.19-.46,.22-.73,.31,.83,0,2.14,.01,2.41-.25l-.52-.12c.3,0,.14,.24-.08,.28-.72,.17-1.01-.17-1.04-.27l.52-.02c-.48-.6-2.07-.08-3.11-.25l.48-.36c-.37,.08-.73,.14-1.1,.2-.21-.14-.33-.39,.19-.38-.7-.31-.67,.06-1.27-.27-.06-.05-.03-.06,.04-.07h-.73c.15-.06-.07-.31,.36-.18-1.23-.44-2.11-.09-2.53-.49h.11c-1.78-.27-.23,.26-1.64,.3-.24-.31-.47-.64-.7-.96l-.25,.25c-.18-.06-.53-.18-.43-.28-.72,.02,.08,.16-.36,.24-.78-.51-2.41-.6-2.44-1.13-.38,.12,.76,.44-.2,.29-.09-.57-1.07-.28-1.76-.79,.33-.17,1,.23,.32-.27-.63,.27-1.44-.67-2.1-.85-.17,.32-1.43-.44-2.52-.84,.05-.04-.39-.32-1.03-.67-.33-.17-.72-.34-1.15-.43-.43-.09-.89-.06-1.23,.02l.02-.07c-.08,.21-.44,.42-.78,.72-.35,.3-.7,.68-.93,1.02-.14-.17-.13-.34,.14-.76-.2,.21-.38,.42-.55,.62-.03,.22-.13,.45-.4,.85l-.1-.32c-.31,.39-.54,.8-.86,1.13-.32,.34-.77,.62-1.35,.7,0,.13,.28,.24,.43,.36,.14,.11,.16,.32-.52,.58-.09-.13-.17-.33,.15-.48-.1,.06-.37,.21-.61,.19,.17-.11,.32-.22,.47-.33-.56,.01-.24,.27-.7,.3-.01-.19-.34-.11-.29-.27,.11-.02,.39,.04,.54-.05-.49,.05-1.09-.08-1.26-.24,.03,.11-.01,.27-.38,.26-.93-.13-.28-.28-.78-.49-.25,.09-.76-.24-.88,.03-.26-.1-.25-.26-.31-.37-.5-.01-1.96-1.15-1.68-.58l.09,.09s-.05-.02-.08-.04h0s0,0,0,0c-1.56-.74-2.51-2.44-3.78-3.58l.07-.07c-.4-.33-.79-.73-1.24-1.09-.44-.36-1.02-.61-1.46-.55-.08-.01-.17-.03-.25-.04-.28-.05-.58-.09-.48-.21-.49,.17-.66,.36-.9,.53-.23,.18-.48,.37-.97,.69,.51-.66-.33,.07,.56-.64-.87,.62-1.16,.66-1.77,1.64,.09-.45-.78,.33-1.05,.74l.63-.4c-.36,.42-.7,.76-1.04,1.1l-.07-.42c-1.7,1.25-2.01,3.24-3.62,3.7-.24,.52,.92-.57,.74-.07-.73,.6-1.76,.76-1.99,.88-1.09,.43-.71,1.03-1.95,1.34,.18,.05,.47,.34-.47,.7-.93,.17-1.18-.31-.65-.46,.2-.06,.31-.04,.31,0,.27-.1,.61-.23,.25-.28l-.08,.14c-.44,.02-1.61,.12-1.35-.1-.63,.12-.27,.24,.22,.23-1.1-.1-1.74,.05-2.85-.32,.16,.1,.3,.27,.12,.23-1.62-.58-.8,.05-1.94-.31-.56-.42,.38-.28-.75-.65-.58-.44,.01-.34,.3-.31-1.05-.26-1.61-1.11-2.02-1.51,.16,.09,.32,.18,.49,.25-.3-.13-.49-.32-.71-.48l.09,.38c-.22-.24-.44-.41-.37-.48-.35-.12-.07,.48-.71,.17-.25-.37-1.04-.9-.9-1.22,.84,1.09,.14-.31,.95,.5-.18-.13-.35-.34-.54-.6,0-.06,.08,0,.15,.04-.32-.56-.44-.64-.64-.68-.2-.04-.42-.08-.78-.66,.24,.05,.12-.42-.03-.62,.28,.49-.11,.4-.51-.02-.4-.94-.7-.92-1.09-1.36,.15,.18,.28,.37,.39,.56-.28-.05-.56-.55-1.32-.91,.02-.18,.68,.33,.47,.11-.46-.15-.88-.43-1.44-.6-.55-.18-1.22-.19-1.77,.11-.58,.09-.17-.3-.69-.17-.6,.43-.92,.61-1.28,.82-.35,.22-.71,.48-1.05,1.1,.44-.18,.4-.26,.05,.64,.35-.62,.78-1.27,1.41-1.81-.35,.4-.62,.86-.81,1.29,.38-.51,.91-1.15,1.29-1.33-.47,.56-.41,.48-.05,.44-.47,.12-.79,.5-1.02,.89-.24,.39-.42,.81-.78,1.17l-.49-.33c-1.02,1.18-.88,2.47-2.06,3.67l.4-.37c.02,.16-.11,.39-.32,.61-.22,.21-.49,.43-.65,.66-.1-.18-.38,.02-.65,.04,.11,.09-.95,.73-.92,1.1l-.79,.14c-.64,.24-.95,.49-1.27,.79-.33,.23-.67,.51-1.35,.63,.36-.29-.26-.29,.56-.67-.42,.13-.82,.17-.8,.29-.27-.08-1.19,.48-1.63,.27-.18,.1-.24,.31-.76,.31-.06-.04,0-.1,0-.1,0,.1-.81,.09-.37,.33-.71-.32-1.67-.42-2.62-.64-.94-.2-1.83-.56-2.26-1.04-.88-.4-1.92-1-2.54-1.64,.08,0,.07-.07,.17,.07-.19-.26-.31-.36-.48-.47-.21-.15-.33-.2-.47-.26-.26-.12-.46-.16-.96-1.02-.06-.16-.1-.27-.13-.33-.02-.04-.02-.07-.01-.1,.02-.09,.11,.05,.2,.15,.19,.23,.4,.54,.23,.19,0-.19-.06-.38-.15-.58-.04-.1-.1-.2-.16-.3-.03-.05-.06-.11-.1-.14l-.1-.06c-.26,.43-.59,1.05-.97,1.62-.16,.29-.4,.53-.58,.65-.12,.1-.27,.15-.42,.17l.15-.13c-.16,.03-.31,.12-.46,.22-.17,.08-.33,.22-.53,.33-.39,.22-.89,.47-1.47,.5,0,0,.05-.06,0-.1-.73,.45-2.33,.52-3.51,.41,.4-.2,.55-.06,.36-.34-.52-.04,.1,.44-.96,.34-.32-.19-1.04-.48-1.07-.77,.32,.06,.64,.14,.97,.19-.42-.44-1.24-.25-1.74-.44l.1-.13c-1.51-.34-1.63,.04-3.23-.43l.13,.16c-.98,.13-.68-.41-1.63-.38l-.15-.46c-.6-.07-2.12-.23-3.16-.51,.67-.08,1.91,.15,2.7,.21-.57-.17-1.93-.56-2.28-.48,.24,.04,.55,.04,.76,.17-.78,.07-1.75-.08-2.85-.5,.45-.61-2.79-1.3-3.28-2.24-1.97-.64-3.52-2.01-5.34-3.42,.28,.98-.55-.41-.82,.13-.44-.34-.59-.49-.6-.55-.46-.56-1.01-1.36-1.65-2.17-.48-.75,.62,.44,.59,.21-.38-.41-.61-.68-.77-.88-.02-.02-.04-.06-.05-.06l-.04,.04s-.05,.04-.06,.05c-.04,.02-.07,.03-.09,.03-.1,0-.14-.1-.65,.48,.25,0-.34,1.06-1.16,1.98,.44-.36,.84-.83,1.21-1.16-.39,.67-.67,1.13-.94,1.38-.18,.16-.34,.25-.5,.34-.32,.19-.65,.34-1.13,1.01l.24-.49c-.46,.73-2.33,1.92-2.81,2.74-.17,.01-.42-.04-.12-.26-.89,.45-1.83,1.07-2.82,1.5-.49,.23-.98,.43-1.46,.55-.47,.14-.92,.22-1.33,.2l.13-.17c-.36,.1-.61,.39-1.1,.3,.02-.06,.13-.16-.04-.16-.19,.06-.98,.36-1.49,.27,.14-.05,.28-.11,.42-.18-1.94-.14-3.03,.31-4.72,.04,.06-.21-.28-.46-.71-.69-.43-.21-.92-.52-1.26-.68l.05-.05c-.97-.41-2.14-1.07-3.6-1.02-1.43,.07-2.44,.71-3.45,1.25-1.51,.14-4.43,1.91-6.56,2.59,.34-.07,.09,.34-.25,.54-.51,.13-1.21,.86-1.29,.45l.17-.07c-.52-.21-1.45,.29-2.23,.56l.05,.54c-1.15,.01-2.46,.48-3.69,.82-1.22,.33-2.38,.53-2.96,.19-.5,.16-1.13,.15-1.63,.25l.04-.28c-1.37-.17-2.05-.28-3.67-.69l.38-.09c-.44-.14-.78-.04-1.13,.04-.35,.1-.7,.17-1.11-.02-.02-.17-.04-.32-.05-.49-.73-.39-1.35-.94-1.92-1.5-.54-.55-1.07-1.23-1.93-1.83,.06-.02,.2-.06,.44,.16-.31-.33-.94-1.12-1.9-1.55-.97-.43-1.88-.23-1.6,.04,0-.2-.76-.18-1.42,.16-.67,.33-1.2,.79-1.6,1.08v-.32c-.56,.69-.54,.79-1.52,1.38-.26,.08-.31-.1,.04-.19-.87,.26-.52,.54-1.58,.86l.3-.33c-.85,.35-.75,.41-1.14,.8-.5,.33-1.67,.57-1.87,.37-.06,.18-.48,.54-1.02,.64-.1-.07,.07-.18,.16-.24-1.51,.27-2.12,.92-3.21,.84-.04-.09-.11-.12-.2-.14,1.18-.18,2.13-.44,2.04-.39-.07-.25-1.01-.06-.35-.59-.68,.38-1.91,1.06-2.87,1.02-.05-.02-.09-.04-.13-.07l.09-.04c-.22,0-.4,.04-.58,.09-.3-.03-.49-.03-.77-.04-.12-.2-1.08-.1-1.54-.15,.02,.29-.59,.19-.03,.47-.07-.02,.09-.03,.41-.03,.07,0,.16,0,.2-.02l-.03,.02c.31,.02,.72-.02,1.19-.02-.37,.14-.78,.29-1.31,.1-.25,.17-.54,.35-.7,.42-.65-.44-1.83-.86-1.93-1.16-1.44-.15-3.17-.99-4.22-1.05-.4-.15-.32-.39-.4-.54,.22,.1,.45,.26,.61,.25-.79-.29-1.99-1.37-2.36-1.27-.63-.85,.63,.18-.39-.8l.21,.07c-.53-.85-1-1.51-1.51-2.17l-.18-.25c-.04-.06-.17-.26-.24-.39-.16-.28-.26-.6-.39-.88-.26-.57-.43-1.06-.59-1.62-.04-.07-.15,.1-.23,.18l-.26,.29c-.18,.19-.36,.36-.54,.54-.38,.35-.77,.7-1.36,1.04,.28-.17,.4-.26,.48-.24-.56,.44-.85,.62-1.23,.92-.37,.27-.77,.49-1.15,.76-.37,.27-.79,.48-1.2,.7-.41,.22-.81,.46-1.25,.63-1.69,.79-3.57,1.22-5.38,1.12-1.02,0-1.11,.22-1.74,.39l-.22-.3c-.35,.1-.72,.25-1.08,.32-.77,.04-1.43-.16-2.08-.48-.33-.15-.67-.28-1.05-.38-.37-.13-.78-.23-1.27-.25l.18,.26c-.67-.18-2.09-.68-1.89-.83-.08,0-.3,.11-.5-.1l.05-.15-1.61-.58c-1.01-.85,.5-.42-1-1.5-.54-.4-1.78-.97-1.67-.72,.21,.2,.48,.56,.39,.69l-.55-.38c-.41,.26-1.18,.21-.08,1.63,.37,.2,.73,.4,1.13,.55l.19,.41c-.28-.2-.58-.38-.84-.6,.33,.53,.77,.58,1.17,.72,.01,.16,.11,.32,.29,.5,.41,.1,.85,.14,1.26,.21,.04,.23-.65,.06,.02,.54,.59,.08-.28-.62,.59-.3,.41,.46,.21,.52,.9,.62,.04,.15-.12,.16-.39,.11,.62,.1,1.51,.57,1.9,.4,.25,.21,.74,.34,1.15,.47,.41,.12,.75,.19,.67,.41,.22-.08,1.11-.11,1.66-.07-1.08,.41,2.06,.25,1.76,.76,.39-.24,1.07-.28,1.83-.31,.75-.1,1.58-.13,2.21-.38-.07,.05-.2,.15-.32,.15,.74-.09,.98,0,1.48,.01,.03-.37,1.13-.76,1.65-1.17,.99,.11-.4,.59-.02,.86-.07-.15,.3-.33,.63-.5,.32-.2,.61-.38,.42-.45,.74-.03,.6-.11,1.07,.06-.07-.48,.58-.33,.97-.88,1.01-.26,.47,.31,1.37-.39,.53-.17-.23,.55-.24,.52Zm18.82,5h0c-.22,.04-.41,.07-.53,.08,.11-.02,.26-.04,.53-.08Zm2.15-.37c-.26,.05-.59,.11-.93,.17-.09-.08-.03-.2,.19-.23-.1,.09,.41,.04,.74,.05Zm-4.58-1.44c.31-.04,.42,0,.46,.07-.15,0-.32,.02-.55,.04-.01,0-.03,.02-.04,.03,.03-.05,.07-.1,.12-.14Z"/>
    <path class="cls-1" d="M38.68,30.31s-.07,.02-.13,.02c.06,.03,.13,.05,.19,.07,.04-.03,.08-.06,.12-.08-.06,0-.12,0-.17,0Z"/>
    <path class="cls-1" d="M204.62,27.17l-.03-.03s.04,.06,.05,.08c-.02-.03-.01-.03-.02-.05Z"/>
    <polygon class="cls-1" points="70.08 33.62 70.07 33.55 69.88 33.62 70.08 33.62"/>
    <path class="cls-1" d="M214.72,26.09s.08,0,.15-.04c-.02,0-.08,0-.15,.04Z"/>
    <path class="cls-1" d="M218.67,26.47l.61,.4c-.26-.19-.45-.31-.61-.4Z"/>
    <path class="cls-1" d="M222.21,28.15c.06-.03,.09-.06,.11-.08h0s-.11,.08-.11,.08Z"/>
    <path class="cls-1" d="M171.37,24.84s-.05-.05-.08-.07c-.2-.12-.08-.04,.08,.07Z"/>
    <path class="cls-1" d="M187.4,31.52c-.16,.13-.32,.27-.52,.36,.34-.08,.57-.22,.52-.36Z"/>
    <path class="cls-1" d="M156.38,34.72h0s-.09,0-.14,0h.14Z"/>
    <path class="cls-1" d="M186.02,32.16c.35-.04,.62-.16,.86-.28-.28,.07-.6,.16-.86,.28Z"/>
    <path class="cls-1" d="M238.71,31.91l.19,.02s.01-.03,.03-.04l-.21,.02Z"/>
    <path class="cls-1" d="M238.92,31.89l.21-.02c-.1,0-.18,0-.21,.02Z"/>
    <path class="cls-1" d="M239.58,31.82l-.44,.05c.15,0,.34,.03,.44-.05Z"/>
    <path class="cls-1" d="M233.57,31.21l-.07,.09s.06-.04,.07-.09Z"/>
    <path class="cls-1" d="M232.01,30.97c.37,.09,.89,.38,1.42,.4l.06-.07c-.27,.11-1.1-.44-1.48-.33Z"/>
    <path class="cls-1" d="M226.01,28.17l1.21,.45c-.19-.17-.43-.39,.14-.25-1.46-.78,.25,.33-1.35-.2Z"/>
    <path class="cls-1" d="M222.3,26.69c.66,.21,.05-.15,.11-.19-.44-.07-.55-.09-.11,.19Z"/>
    <path class="cls-1" d="M197.09,21.71v-.27c-.67,.34,.03,.09,0,.27Z"/>
    <polygon class="cls-1" points="193.75 26.51 194.22 26.23 194.21 25.89 193.75 26.51"/>
    <path class="cls-1" d="M190.18,27.62l.14-.18c-.18,.22-.37,.45-.56,.66,.14-.15,.28-.31,.42-.47Z"/>
    <path class="cls-1" d="M151.08,31.52l.03,.35c.34,.07,.51-.24-.03-.35Z"/>
    <path class="cls-1" d="M132.39,28.83c-.18-.21-.72-.47-1.11-.42,.45,.15,.87,.39,1.11,.42Z"/>
    <path class="cls-1" d="M75.1,30.05l.35-.23c-.23,.11-.47,.21-.7,.32l.35-.09Z"/>
  </g>
</svg>