<?xml version="1.0" encoding="UTF-8"?>
<svg width="161px" height="17px" viewBox="0 0 161 17" version="1.1" xmlns="http://www.w3.org/2000/svg" xmlns:xlink="http://www.w3.org/1999/xlink">
    <!-- Generator: Sketch 52.2 (67145) - http://www.bohemiancoding.com/sketch -->
    <title>Group 25</title>
    <desc>Created with Sketch.</desc>
    <g id="Page-1" stroke="none" stroke-width="1" fill="none" fill-rule="evenodd">
        <g id="Desktop" transform="translate(-640.000000, -1608.000000)">
            <g id="Group-2" transform="translate(0.000000, 1311.000000)">
                <g id="Group-25" transform="translate(640.000000, 297.000000)">
                    <polygon id="Fill-3" fill="#E7B620" points="25.5 17 17 8.50046013 25.5 0 34 8.50046013"></polygon>
                    <polygon id="Fill-4" fill="#E7B620" points="53 8.5 61.5 17 70 8.5 61.5 0"></polygon>
                    <polygon id="Fill-5" fill="#E7B620" points="89 8.5 98 17 107 8.5 98 0"></polygon>
                    <polygon id="Fill-6" fill="#E7B620" points="125 8.5 134 17 143 8.5 134 0"></polygon>
                    <polygon id="Fill-14" fill="#16B1BF" points="8.5 17 0 8.5 8.5 0 17 8.5"></polygon>
                    <polygon id="Fill-15" fill="#16B1BF" points="43.5 17 35 8.50046013 43.5 0 52 8.50046013"></polygon>
                    <polygon id="Fill-16" fill="#16B1BF" points="71 8.5 79.4995456 17 88 8.5 79.4995456 0"></polygon>
                    <polygon id="Fill-17" fill="#16B1BF" points="107 8.5 116.000475 17 125 8.5 116.000475 0"></polygon>
                    <polygon id="Fill-18" fill="#16B1BF" points="143 8.5 152 17 161 8.5 152 0"></polygon>
                </g>
            </g>
        </g>
    </g>
</svg>