<?xml version="1.0" encoding="UTF-8"?>
<svg width="33px" height="38px" viewBox="0 0 33 38" version="1.1" xmlns="http://www.w3.org/2000/svg" xmlns:xlink="http://www.w3.org/1999/xlink">
    <!-- Generator: Sketch 52.2 (67145) - http://www.bohemiancoding.com/sketch -->
    <title>Fill 4</title>
    <desc>Created with Sketch.</desc>
    <g id="Page-1" stroke="none" stroke-width="1" fill="none" fill-rule="evenodd">
        <g id="Desktop" transform="translate(-509.000000, -1546.000000)" fill="#E7B620">
            <g id="Group-2" transform="translate(0.000000, 1311.000000)">
                <g id="Group-7" transform="translate(509.000000, 235.000000)">
                    <g id="Group-6" transform="translate(0.000000, 0.482465)">
                        <path d="M29.5195964,15.0159218 C27.3774327,14.9655764 25.2359782,14.9152309 23.0938145,14.8648855 C24.4474691,13.3545218 25.7975782,11.8413218 27.1235782,10.30614 C29.3501236,7.72717636 25.6047055,3.94984909 23.36256,6.54583091 C21.8358873,8.31430364 20.2851055,10.0615036 18.72156,11.7966491 C18.7811236,8.79648545 18.7967236,5.79632182 18.7633964,2.79474 C18.7258145,-0.625205455 13.4076327,-0.633714545 13.4452145,2.79474 C13.4728691,5.27726727 13.4636509,7.75908545 13.4289055,10.2401945 C11.8845055,8.05619455 10.3003964,5.89843091 8.67019636,3.77186727 C6.61596,1.09221273 1.99481455,3.73854 4.07812364,6.45577636 C6.11179636,9.10990364 8.07385091,11.8122491 9.97492364,14.5557218 C7.50516,14.4975764 5.03610545,14.4394309 2.56705091,14.3812855 C-0.85644,14.3011582 -0.855021818,19.61934 2.56705091,19.6994673 L11.1591055,19.9022673 C8.15326909,23.0251036 5.09992364,26.1039764 1.97212364,29.1105218 C-0.499767273,31.4873945 3.26408727,35.2441582 5.73314182,32.87154 C8.10859636,30.5882673 10.4351236,28.2596127 12.7396691,25.9096855 C12.6779782,26.7400309 12.6205418,27.5710855 12.5503418,28.4007218 C12.3631418,30.6471218 11.5249964,33.4863218 12.6439418,35.5476491 C13.1842691,36.5417945 14.5591964,37.1182855 15.6476509,36.7701218 C15.7171418,36.7474309 15.7880509,36.72474 15.8575418,36.7020491 C17.8117964,36.07734 18.0791236,33.9727582 17.2750145,32.6205218 C17.3941418,31.8951218 17.7508145,29.7650127 17.7529418,29.7444491 C17.8337782,28.83894 17.90256,27.9320127 17.9734691,27.0257945 C18.8591236,28.51914 19.7320145,30.0209945 20.5815055,31.5384491 C22.2521236,34.5265582 26.8470327,31.8476127 25.1735782,28.85454 C23.5171418,25.8933764 21.7862509,22.98114 19.9915418,20.1100309 C23.16756,20.1844855 26.3435782,20.2596491 29.5195964,20.3341036 C32.9430873,20.41494 32.9423782,15.0967582 29.5195964,15.0159218" id="Fill-4"></path>
                    </g>
                </g>
            </g>
        </g>
    </g>
</svg>