<?xml version="1.0" encoding="UTF-8"?>
<svg width="292px" height="13px" viewBox="0 0 292 13" version="1.1" xmlns="http://www.w3.org/2000/svg" xmlns:xlink="http://www.w3.org/1999/xlink">
    <!-- Generator: Sketch 52.2 (67145) - http://www.bohemiancoding.com/sketch -->
    <title>Group 49</title>
    <desc>Created with Sketch.</desc>
    <defs>
        <polygon id="path-1" points="3.98227128e-05 0.873 15.804777 0.873 15.804777 13 3.98227128e-05 13"></polygon>
        <polygon id="path-3" points="0.40738684 0.873 16.211977 0.873 16.211977 13 0.40738684 13"></polygon>
        <polygon id="path-5" points="0.815122855 0.873 16.6202479 0.873 16.6202479 13 0.815122855 13"></polygon>
        <polygon id="path-7" points="0.22288684 0.873 16.027477 0.873 16.027477 13 0.22288684 13"></polygon>
        <polygon id="path-9" points="0.630522855 0.873 16.4351194 0.873 16.4351194 13 0.630522855 13"></polygon>
        <polygon id="path-11" points="0.0381398227 0.873 15.842877 0.873 15.842877 13 0.0381398227 13"></polygon>
        <polygon id="path-13" points="0.44548684 0.873 16.250077 0.873 16.250077 13 0.44548684 13"></polygon>
        <polygon id="path-15" points="0.853222855 0.873 16.6583479 0.873 16.6583479 13 0.853222855 13"></polygon>
        <polygon id="path-17" points="0.26098684 0.873 16.065577 0.873 16.065577 13 0.26098684 13"></polygon>
        <polygon id="path-19" points="0.668622855 0.873 16.4732194 0.873 16.4732194 13 0.668622855 13"></polygon>
        <polygon id="path-21" points="0.0762398227 0.873 15.880977 0.873 15.880977 13 0.0762398227 13"></polygon>
        <polygon id="path-23" points="0.48358684 0.873 16.288177 0.873 16.288177 13 0.48358684 13"></polygon>
        <polygon id="path-25" points="0.891222855 0.873 16.6963479 0.873 16.6963479 13 0.891222855 13"></polygon>
        <polygon id="path-27" points="0.29898684 0.873 16.103577 0.873 16.103577 13 0.29898684 13"></polygon>
        <polygon id="path-29" points="0.706722855 0.873 16.5113194 0.873 16.5113194 13 0.706722855 13"></polygon>
        <polygon id="path-31" points="0.114339823 0.873 15.919 0.873 15.919 13 0.114339823 13"></polygon>
    </defs>
    <g id="Page-1" stroke="none" stroke-width="1" fill="none" fill-rule="evenodd">
        <g id="Desktop" transform="translate(-574.000000, -1018.000000)">
            <g id="Group-4" transform="translate(509.000000, 845.000000)">
                <g id="Group-49" transform="translate(65.000000, 172.000000)">
                    <g id="Group-3" transform="translate(0.000000, 0.127300)">
                        <mask id="mask-2" fill="white">
                            <use xlink:href="#path-1"></use>
                        </mask>
                        <g id="Clip-2"></g>
                        <path d="M4.3994,12.4169 C7.6214,9.8709 11.0384,7.5979 14.5924,5.5449 C17.3784,3.9359 14.8634,-0.3861 12.0694,1.2279 C8.1374,3.4989 4.4244,6.0669 0.8644,8.8809 C-1.6586,10.8759 1.9004,14.3929 4.3994,12.4169" id="Fill-1" fill="#E7B620" mask="url(#mask-2)"></path>
                    </g>
                    <g id="Group-6" transform="translate(18.000000, 0.127300)">
                        <mask id="mask-4" fill="white">
                            <use xlink:href="#path-3"></use>
                        </mask>
                        <g id="Clip-5"></g>
                        <path d="M4.8076,12.4169 C8.0286,9.8709 11.4466,7.5979 14.9996,5.5449 C17.7856,3.9359 15.2706,-0.3861 12.4766,1.2279 C8.5446,3.4989 4.8326,6.0669 1.2716,8.8809 C-1.2514,10.8759 2.3086,14.3929 4.8076,12.4169" id="Fill-4" fill="#E7B620" mask="url(#mask-4)"></path>
                    </g>
                    <g id="Group-9" transform="translate(36.000000, 0.127300)">
                        <mask id="mask-6" fill="white">
                            <use xlink:href="#path-5"></use>
                        </mask>
                        <g id="Clip-8"></g>
                        <path d="M5.2149,12.4169 C8.4359,9.8709 11.8539,7.5979 15.4079,5.5449 C18.1939,3.9359 15.6789,-0.3861 12.8839,1.2279 C8.9529,3.4989 5.2399,6.0669 1.6799,8.8809 C-0.8441,10.8759 2.7159,14.3929 5.2149,12.4169" id="Fill-7" fill="#E7B620" mask="url(#mask-6)"></path>
                    </g>
                    <g id="Group-12" transform="translate(55.000000, 0.127300)">
                        <mask id="mask-8" fill="white">
                            <use xlink:href="#path-7"></use>
                        </mask>
                        <g id="Clip-11"></g>
                        <path d="M4.6231,12.4169 C7.8441,9.8709 11.2621,7.5979 14.8151,5.5449 C17.6011,3.9359 15.0861,-0.3861 12.2921,1.2279 C8.3601,3.4989 4.6471,6.0669 1.0871,8.8809 C-1.4359,10.8759 2.1241,14.3929 4.6231,12.4169" id="Fill-10" fill="#E7B620" mask="url(#mask-8)"></path>
                    </g>
                    <g id="Group-15" transform="translate(73.000000, 0.127300)">
                        <mask id="mask-10" fill="white">
                            <use xlink:href="#path-9"></use>
                        </mask>
                        <g id="Clip-14"></g>
                        <path d="M5.0303,12.4169 C8.2513,9.8709 11.6693,7.5979 15.2223,5.5449 C18.0093,3.9359 15.4933,-0.3861 12.6993,1.2279 C8.7673,3.4989 5.0553,6.0669 1.4953,8.8809 C-1.0287,10.8759 2.5313,14.3929 5.0303,12.4169" id="Fill-13" fill="#E7B620" mask="url(#mask-10)"></path>
                    </g>
                    <g id="Group-18" transform="translate(92.000000, 0.127300)">
                        <mask id="mask-12" fill="white">
                            <use xlink:href="#path-11"></use>
                        </mask>
                        <g id="Clip-17"></g>
                        <path d="M4.4375,12.4169 C7.6595,9.8709 11.0765,7.5979 14.6305,5.5449 C17.4165,3.9359 14.9015,-0.3861 12.1075,1.2279 C8.1755,3.4989 4.4625,6.0669 0.9025,8.8809 C-1.6205,10.8759 1.9385,14.3929 4.4375,12.4169" id="Fill-16" fill="#E7B620" mask="url(#mask-12)"></path>
                    </g>
                    <g id="Group-21" transform="translate(110.000000, 0.127300)">
                        <mask id="mask-14" fill="white">
                            <use xlink:href="#path-13"></use>
                        </mask>
                        <g id="Clip-20"></g>
                        <path d="M4.8457,12.4169 C8.0667,9.8709 11.4847,7.5979 15.0377,5.5449 C17.8237,3.9359 15.3087,-0.3861 12.5147,1.2279 C8.5827,3.4989 4.8707,6.0669 1.3097,8.8809 C-1.2133,10.8759 2.3467,14.3929 4.8457,12.4169" id="Fill-19" fill="#E7B620" mask="url(#mask-14)"></path>
                    </g>
                    <g id="Group-24" transform="translate(128.000000, 0.127300)">
                        <mask id="mask-16" fill="white">
                            <use xlink:href="#path-15"></use>
                        </mask>
                        <g id="Clip-23"></g>
                        <path d="M5.253,12.4169 C8.474,9.8709 11.892,7.5979 15.446,5.5449 C18.232,3.9359 15.717,-0.3861 12.922,1.2279 C8.991,3.4989 5.278,6.0669 1.718,8.8809 C-0.806,10.8759 2.754,14.3929 5.253,12.4169" id="Fill-22" fill="#E7B620" mask="url(#mask-16)"></path>
                    </g>
                    <g id="Group-27" transform="translate(147.000000, 0.127300)">
                        <mask id="mask-18" fill="white">
                            <use xlink:href="#path-17"></use>
                        </mask>
                        <g id="Clip-26"></g>
                        <path d="M4.6612,12.4169 C7.8822,9.8709 11.3002,7.5979 14.8532,5.5449 C17.6392,3.9359 15.1242,-0.3861 12.3302,1.2279 C8.3982,3.4989 4.6852,6.0669 1.1252,8.8809 C-1.3978,10.8759 2.1622,14.3929 4.6612,12.4169" id="Fill-25" fill="#E7B620" mask="url(#mask-18)"></path>
                    </g>
                    <g id="Group-30" transform="translate(165.000000, 0.127300)">
                        <mask id="mask-20" fill="white">
                            <use xlink:href="#path-19"></use>
                        </mask>
                        <g id="Clip-29"></g>
                        <path d="M5.0684,12.4169 C8.2894,9.8709 11.7074,7.5979 15.2604,5.5449 C18.0474,3.9359 15.5314,-0.3861 12.7374,1.2279 C8.8054,3.4989 5.0934,6.0669 1.5334,8.8809 C-0.9906,10.8759 2.5694,14.3929 5.0684,12.4169" id="Fill-28" fill="#E7B620" mask="url(#mask-20)"></path>
                    </g>
                    <g id="Group-33" transform="translate(184.000000, 0.127300)">
                        <mask id="mask-22" fill="white">
                            <use xlink:href="#path-21"></use>
                        </mask>
                        <g id="Clip-32"></g>
                        <path d="M4.4756,12.4169 C7.6976,9.8709 11.1146,7.5979 14.6686,5.5449 C17.4546,3.9359 14.9396,-0.3861 12.1456,1.2279 C8.2136,3.4989 4.5006,6.0669 0.9406,8.8809 C-1.5824,10.8759 1.9766,14.3929 4.4756,12.4169" id="Fill-31" fill="#E7B620" mask="url(#mask-22)"></path>
                    </g>
                    <g id="Group-36" transform="translate(202.000000, 0.127300)">
                        <mask id="mask-24" fill="white">
                            <use xlink:href="#path-23"></use>
                        </mask>
                        <g id="Clip-35"></g>
                        <path d="M4.8838,12.4169 C8.1048,9.8709 11.5228,7.5979 15.0758,5.5449 C17.8618,3.9359 15.3468,-0.3861 12.5528,1.2279 C8.6208,3.4989 4.9088,6.0669 1.3478,8.8809 C-1.1752,10.8759 2.3848,14.3929 4.8838,12.4169" id="Fill-34" fill="#E7B620" mask="url(#mask-24)"></path>
                    </g>
                    <g id="Group-39" transform="translate(220.000000, 0.127300)">
                        <mask id="mask-26" fill="white">
                            <use xlink:href="#path-25"></use>
                        </mask>
                        <g id="Clip-38"></g>
                        <path d="M5.291,12.4169 C8.512,9.8709 11.93,7.5979 15.484,5.5449 C18.27,3.9359 15.755,-0.3861 12.96,1.2279 C9.029,3.4989 5.316,6.0669 1.756,8.8809 C-0.768,10.8759 2.792,14.3929 5.291,12.4169" id="Fill-37" fill="#E7B620" mask="url(#mask-26)"></path>
                    </g>
                    <g id="Group-42" transform="translate(239.000000, 0.127300)">
                        <mask id="mask-28" fill="white">
                            <use xlink:href="#path-27"></use>
                        </mask>
                        <g id="Clip-41"></g>
                        <path d="M4.6992,12.4169 C7.9202,9.8709 11.3382,7.5979 14.8912,5.5449 C17.6772,3.9359 15.1622,-0.3861 12.3682,1.2279 C8.4362,3.4989 4.7232,6.0669 1.1632,8.8809 C-1.3598,10.8759 2.2002,14.3929 4.6992,12.4169" id="Fill-40" fill="#E7B620" mask="url(#mask-28)"></path>
                    </g>
                    <g id="Group-45" transform="translate(257.000000, 0.127300)">
                        <mask id="mask-30" fill="white">
                            <use xlink:href="#path-29"></use>
                        </mask>
                        <g id="Clip-44"></g>
                        <path d="M5.1065,12.4169 C8.3275,9.8709 11.7455,7.5979 15.2985,5.5449 C18.0855,3.9359 15.5695,-0.3861 12.7755,1.2279 C8.8435,3.4989 5.1315,6.0669 1.5715,8.8809 C-0.9525,10.8759 2.6075,14.3929 5.1065,12.4169" id="Fill-43" fill="#E7B620" mask="url(#mask-30)"></path>
                    </g>
                    <g id="Group-48" transform="translate(276.000000, 0.127300)">
                        <mask id="mask-32" fill="white">
                            <use xlink:href="#path-31"></use>
                        </mask>
                        <g id="Clip-47"></g>
                        <path d="M4.5137,12.4169 C7.7357,9.8709 11.1527,7.5979 14.7067,5.5449 C17.4927,3.9359 14.9777,-0.3861 12.1837,1.2279 C8.2517,3.4989 4.5387,6.0669 0.9787,8.8809 C-1.5443,10.8759 2.0147,14.3929 4.5137,12.4169" id="Fill-46" fill="#E7B620" mask="url(#mask-32)"></path>
                    </g>
                </g>
            </g>
        </g>
    </g>
</svg>