<?xml version="1.0" encoding="UTF-8"?>
<svg width="64px" height="28px" viewBox="0 0 64 28" version="1.1" xmlns="http://www.w3.org/2000/svg" xmlns:xlink="http://www.w3.org/1999/xlink">
    <!-- Generator: Sketch 52.2 (67145) - http://www.bohemiancoding.com/sketch -->
    <title>Group 7</title>
    <desc>Created with Sketch.</desc>
    <g id="Page-1" stroke="none" stroke-width="1" fill="none" fill-rule="evenodd">
        <g id="Desktop" transform="translate(-688.000000, -1423.000000)" fill="#E7B620">
            <g id="Group-2" transform="translate(0.000000, 1311.000000)">
                <g id="Group-7" transform="translate(688.000000, 112.000000)">
                    <path d="M50.0783,27.0526 C54.3783,22.6856 58.6783,18.3186 62.9763,13.9516 C65.2363,11.6566 61.7033,8.1186 59.4413,10.4166 C55.1413,14.7836 50.8433,19.1506 46.5433,23.5166 C44.2833,25.8116 47.8163,29.3496 50.0783,27.0526" id="Fill-1"></path>
                    <path d="M31.8049,20.4003 C31.4409,14.4023 31.0759,8.4043 30.7119,2.4063 C30.5189,-0.7907 25.5169,-0.8127 25.7119,2.4063 L26.8049,20.4003 C26.9989,23.5973 32.0009,23.6193 31.8049,20.4003" id="Fill-3"></path>
                    <path d="M12.0646,19.6586 C10.3366,14.1576 7.6696,9.2156 4.1136,4.6856 C2.1276,2.1576 -1.3874,5.7176 0.5786,8.2216 C3.5806,12.0446 5.7896,16.3576 7.2436,20.9876 C8.2046,24.0476 13.0326,22.7406 12.0646,19.6586" id="Fill-5"></path>
                </g>
            </g>
        </g>
    </g>
</svg>