<?xml version="1.0" encoding="UTF-8"?>
<svg width="138px" height="66px" viewBox="0 0 138 66" version="1.1" xmlns="http://www.w3.org/2000/svg" xmlns:xlink="http://www.w3.org/1999/xlink">
    <!-- Generator: Sketch 52.2 (67145) - http://www.bohemiancoding.com/sketch -->
    <title>Group 6</title>
    <desc>Created with Sketch.</desc>
    <defs>
        <polygon id="path-1" points="0 0.488147222 137.343619 0.488147222 137.343619 65.6602595 0 65.6602595"></polygon>
    </defs>
    <g id="Page-1" stroke="none" stroke-width="1" fill="none" fill-rule="evenodd">
        <g id="Desktop" transform="translate(-785.000000, -1083.000000)">
            <g id="Group-4" transform="translate(509.000000, 845.000000)">
                <g id="Group-13" transform="translate(20.000000, 238.000000)">
                    <g id="Group-7" transform="translate(325.000000, 33.500000) scale(-1, 1) translate(-325.000000, -33.500000) translate(256.000000, 0.000000)">
                        <g id="Group-6">
                            <mask id="mask-2" fill="white">
                                <use xlink:href="#path-1"></use>
                            </mask>
                            <g id="Clip-5"></g>
                            <path d="M136.523342,18.2292835 C129.901675,19.005817 103.735022,22.0030085 94.090283,22.0030085 C88.5273238,22.0030085 75.8152411,22.8213457 67.1571111,21.6597123 L67.3544329,1.55598069 C67.3620223,0.702173813 66.4146242,0.189129624 65.7164084,0.678105074 C60.6809057,4.19467463 44.5131603,12.639002 38.6112122,15.98329 C32.3690103,19.5188612 8.65117314,29.7138727 0.512910404,32.3462327 C-0.206808511,32.5780527 -0.156213156,33.610475 0.581214132,33.773889 C8.81054851,35.6081804 30.2452703,44.3907368 36.0346438,47.8072311 C42.2376342,51.4669463 60.2128987,61.0982426 65.1383564,65.4116141 C65.785977,65.9778628 66.7890299,65.5142229 66.7978841,64.6528154 L66.5600859,43.6775421 C74.8615186,42.7211264 87.4901191,44.0221051 93.012602,44.0221051 C102.546032,44.0221051 129.111122,46.4416468 136.346258,47.1168383 C137.09254,47.186511 137.601023,46.3808416 137.206379,45.7423866 C135.626539,43.1784324 132.56552,35.5182393 132.56552,33.1848383 C132.56552,30.7779643 135.689783,21.8383277 137.227882,19.3605142 C137.556752,18.831002 137.14187,18.1558105 136.523342,18.2292835" id="Fill-4" fill="#E7B620" mask="url(#mask-2)"></path>
                        </g>
                    </g>
                </g>
            </g>
        </g>
    </g>
</svg>