<?xml version="1.0" encoding="UTF-8"?>
<svg width="33px" height="37px" viewBox="0 0 33 37" version="1.1" xmlns="http://www.w3.org/2000/svg" xmlns:xlink="http://www.w3.org/1999/xlink">
    <!-- Generator: Sketch 52.2 (67145) - http://www.bohemiancoding.com/sketch -->
    <title>Fill 1</title>
    <desc>Created with Sketch.</desc>
    <g id="Page-1" stroke="none" stroke-width="1" fill="none" fill-rule="evenodd">
        <g id="Desktop" transform="translate(-511.000000, -1548.000000)" fill="#3473A2">
            <g id="Group-2" transform="translate(0.000000, 1311.000000)">
                <g id="Group-7" transform="translate(509.000000, 235.000000)">
                    <g id="Group-3" transform="translate(2.127273, 1.900647)">
                        <path d="M29.5210145,15.01656 C27.3788509,14.9662145 25.2373964,14.9158691 23.0952327,14.8655236 C24.4488873,13.35516 25.7989964,11.8426691 27.1249964,10.3067782 C29.3515418,7.72781455 25.6061236,3.95048727 23.3639782,6.54646909 C21.8373055,8.31565091 20.2865236,10.0621418 18.7229782,11.7972873 C18.7825418,8.79783273 18.7981418,5.79696 18.7648145,2.79608727 C18.7272327,-0.624567273 13.4090509,-0.633076364 13.4466327,2.79608727 C13.4742873,5.27790545 13.4650691,7.75972364 13.4303236,10.2408327 C11.8859236,8.05683273 10.3018145,5.89906909 8.67161455,3.77250545 C6.61737818,1.09285091 1.99623273,3.73917818 4.07954182,6.45712364 C6.11321455,9.11054182 8.07526909,11.8135964 9.97634182,14.5570691 C7.50657818,14.4989236 5.03752364,14.4407782 2.56846909,14.3819236 C-0.855021818,14.3017964 -0.853603636,19.6199782 2.56846909,19.7001055 C5.43248727,19.7681782 8.29650545,19.8348327 11.1605236,19.9029055 C8.15468727,23.0257418 5.10134182,26.1046145 1.97354182,29.11116 C-0.498349091,31.4880327 3.26550545,35.2455055 5.73456,32.8721782 C8.11001455,30.5889055 10.4365418,28.2602509 12.7410873,25.9103236 C12.6793964,26.7406691 12.62196,27.5717236 12.55176,28.40136 C12.36456,30.64776 11.5264145,33.48696 12.64536,35.5489964 C13.1856873,36.5424327 14.5606145,37.1189236 15.6490691,36.77076 C15.71856,36.7480691 15.7894691,36.7253782 15.85896,36.7033964 C17.8132145,36.0779782 18.0805418,33.9733964 17.2764327,32.62116 C17.39556,31.8964691 17.7522327,29.7656509 17.75436,29.7457964 C17.8351964,28.8395782 17.9039782,27.9326509 17.9748873,27.0264327 C18.8605418,28.5204873 19.7334327,30.0223418 20.5829236,31.5397964 C22.2535418,34.5271964 26.8484509,31.84896 25.1749964,28.8551782 C23.51856,25.8947236 21.7876691,22.9817782 19.99296,20.1106691 C23.1689782,20.1858327 26.3449964,20.2602873 29.5210145,20.3347418 C32.9445055,20.4155782 32.9437964,15.0973964 29.5210145,15.01656" id="Fill-1"></path>
                    </g>
                </g>
            </g>
        </g>
    </g>
</svg>