<?xml version="1.0" encoding="UTF-8"?>
<svg id="Layer_1" data-name="Layer 1" xmlns="http://www.w3.org/2000/svg" viewBox="0 0 428 129">
  <defs>
    <style>
      .cls-1 {
        fill: #d69a38;
      }

      .cls-2 {
        fill: #75aa41;
      }

      .cls-3 {
        fill: #3691bd;
      }
    </style>
  </defs>
  <path class="cls-3" d="M.99,97.41c34.89-6.85,58.49-38.44,93.51-45.11,8.49-1.62,17.38-1.54,25.61,1.32,8.7,3.02,15.3,9.45,22.76,14.56,14.01,9.6,31.65,15.29,48.45,10.39,30.39-8.86,55.37-51.93,90.59-34.31,12.43,6.22,21.93,16.84,33.04,24.96,5.48,4,11.44,7.47,17.99,9.35,8.22,2.36,16.96,1.99,25.2-.09,17.9-4.53,32.3-16.32,47.13-26.67,14.48-10.1,31.26-19.49,49.59-17.43,4.43,.5,8.72,1.79,12.68,3.83,1.71,.88,3.23-1.71,1.51-2.59-15.51-7.97-33.92-4.3-48.78,3.37-16.56,8.54-30.18,21.73-46.72,30.3-8.16,4.23-17.14,7.42-26.39,7.87-8.1,.4-15.84-1.57-22.9-5.49-12.39-6.87-21.92-17.71-33.56-25.66-5.47-3.74-11.51-6.84-18.05-8.14-8.32-1.66-16.76-.29-24.55,2.88-16.5,6.72-28.83,19.98-44.01,28.89-7.79,4.57-16.31,7.74-25.43,7.79-9.1,.05-18.05-2.72-26.08-6.9s-14.63-10.33-22.24-15.19c-7.14-4.56-15.3-6.9-23.75-7.09-36.85-.84-61.87,30.64-94.12,42.78-3.99,1.5-8.08,2.67-12.27,3.5-1.89,.37-1.09,3.26,.8,2.89H.99Z"/>
  <path class="cls-1" d="M-5.7,121.58c38.63-3.9,61.8-41.3,98.04-51.49,9.45-2.66,19.47-3.17,28.87-.04s16.52,8.93,24.32,14.05c15.7,10.3,33.99,14.89,52.64,11.48s34.75-16.58,51.86-25.6c9.1-4.8,19.2-8.62,29.62-8.61,8.94,.01,16.96,3.38,24.31,8.24,13.68,9.03,25.37,21.7,42.39,24.03,19.45,2.66,38.07-6.89,55.38-14.38,18.35-7.93,37.4-13.04,57.43-14.01s39.28,1.71,57.85,7.98c4.7,1.59,9.3,3.41,13.82,5.44,1.75,.79,3.27-1.8,1.51-2.59-35.26-15.9-76.13-18.42-113.04-6.76-18.96,5.99-36.3,17.02-55.97,20.75-9.55,1.81-19.44,1.27-28.35-2.83-7.57-3.49-14.1-8.78-20.67-13.81s-12.83-9.6-20.34-12.45c-8.55-3.25-17.84-3.21-26.65-1.04-19.49,4.8-34.69,18.52-52.49,26.98-18.14,8.62-39.46,9.19-57.7,.43-8.65-4.15-16.07-10.35-24.33-15.17s-16.41-7.37-25.57-7.32c-19.09,.09-36.86,10.38-51.86,21.28s-29.49,23.34-47.19,29.38c-4.5,1.54-9.15,2.59-13.88,3.07-1.9,.19-1.92,3.19,0,3h0Z"/>
  <path class="cls-2" d="M-5.61,131.28c15.47-1.66,29.7-8.59,44.24-13.66s29.96-9.49,45.35-12.65c30.98-6.37,63.22-7.93,94.35-1.68,16.05,3.22,31.71,7.75,48.05,9.47s32.75,1.49,49.09,.38c31.9-2.17,63.48-7.76,95.44-9.14,29.29-1.27,59.5,.81,86.81,12.29,3.44,1.45,6.81,3.05,10.12,4.78,1.71,.89,3.23-1.7,1.51-2.59-26.09-13.63-55.66-17.89-84.8-17.8-31.64,.09-62.91,5.25-94.33,8.25-16.65,1.59-33.4,2.58-50.13,1.85-8.42-.37-16.83-1.17-25.15-2.56s-16.16-3.34-24.19-5.23c-15.41-3.63-30.91-6.08-46.76-6.56-15.57-.47-31.16,.7-46.55,3.08s-31.39,6.22-46.65,10.96c-7.56,2.34-15.04,4.93-22.45,7.71s-14.55,5.71-22.08,7.78c-3.89,1.07-7.85,1.89-11.87,2.32-1.9,.2-1.92,3.21,0,3h0Z"/>
</svg>