<?xml version="1.0" standalone="no"?>
<!DOCTYPE svg PUBLIC "-//W3C//DTD SVG 20010904//EN"
 "http://www.w3.org/TR/2001/REC-SVG-20010904/DTD/svg10.dtd">
<svg version="1.0" xmlns="http://www.w3.org/2000/svg"
 width="1231.000000pt" height="981.000000pt" viewBox="0 0 1231.000000 981.000000"
 preserveAspectRatio="xMidYMid meet">

<g transform="translate(0.000000,981.000000) scale(0.100000,-0.100000)"
fill="#000000" stroke="none">
<path d="M2830 8934 c-85 -31 -94 -50 -100 -224 l-5 -145 -167 -3 -168 -2 -2
-418 -3 -417 -252 -3 -253 -2 0 -35 0 -35 150 0 150 0 0 -300 0 -300 -255 0
-255 0 0 -35 0 -35 164 0 164 0 73 -122 74 -123 3 -232 3 -233 -60 0 -61 0 0
-40 0 -39 58 -3 57 -3 2 -170 c1 -126 6 -181 17 -214 19 -53 19 -51 0 -51 -10
0 -14 -7 -12 -22 2 -19 11 -24 48 -29 l45 -6 -45 -3 -45 -3 45 -7 45 -7 -42
-1 -43 -2 0 -170 c0 -170 0 -170 -22 -170 -13 0 -446 -1 -963 -3 -828 -2 -940
-4 -940 -17 0 -13 114 -15 954 -17 753 -2 957 0 963 10 6 9 8 9 8 0 0 -18 226
-18 233 0 4 9 6 9 6 0 1 -10 156 -13 741 -13 l741 0 -4 28 c-3 20 -9 26 -23
24 -16 -2 -17 -1 -4 8 13 9 12 12 -5 26 -11 8 -20 20 -21 27 -2 39 -44 82 -44
46 0 -6 5 -7 12 -3 7 5 8 3 3 -6 -6 -10 -11 -9 -22 5 -7 11 -13 24 -13 29 0 6
5 4 10 -4 8 -12 10 -11 10 7 0 12 -11 35 -25 51 -13 16 -29 41 -34 55 -8 20
-15 25 -28 20 -16 -6 -17 -5 -3 12 10 13 11 16 2 11 -9 -6 -12 -3 -10 10 2 15
-3 19 -24 18 -15 0 -24 4 -21 9 3 4 11 6 19 3 18 -7 18 4 -2 32 -14 20 -22 22
-75 18 -32 -2 -56 0 -53 5 3 5 -1 6 -8 4 -8 -3 -30 -7 -50 -8 l-37 -3 -1 236
-1 237 83 6 c46 4 131 7 189 7 l107 0 106 -114 c58 -63 106 -118 106 -123 0
-6 15 -23 33 -40 17 -16 61 -63 97 -103 36 -41 91 -101 123 -134 31 -33 55
-66 53 -73 -3 -7 1 -10 10 -6 13 5 15 -8 13 -86 -2 -91 -1 -93 30 -125 l31
-32 0 -342 0 -342 65 0 65 0 0 339 0 338 36 -33 c19 -19 41 -34 48 -34 7 0 44
-35 82 -77 38 -42 100 -109 137 -149 38 -40 77 -83 88 -96 11 -12 54 -57 94
-99 47 -48 71 -79 66 -87 -4 -7 -14 -11 -22 -9 -8 2 -11 2 -7 0 27 -16 -162
-162 -213 -166 -10 -1 -16 -3 -14 -6 8 -8 -47 -31 -59 -24 -6 3 -8 2 -3 -2 8
-9 -94 -65 -118 -65 -8 0 -15 -5 -15 -11 0 -5 -4 -7 -10 -4 -5 3 -10 1 -10 -5
0 -7 -7 -9 -17 -6 -10 4 -14 4 -10 0 9 -10 -62 -46 -75 -38 -7 4 -8 3 -4 -4 6
-11 -6 -16 -26 -13 -5 0 -8 -4 -8 -10 0 -5 -4 -7 -10 -4 -5 3 -10 1 -10 -5 0
-7 -7 -9 -16 -6 -9 4 -13 2 -8 -5 4 -7 1 -10 -6 -7 -8 2 -22 -4 -33 -15 -10
-10 -25 -16 -32 -13 -8 3 -17 0 -21 -6 -4 -7 -3 -8 4 -4 7 4 12 5 12 3 0 -6
-119 -77 -129 -77 -4 0 -16 -9 -26 -20 -10 -11 -20 -18 -22 -16 -5 5 -35 -18
-69 -54 -21 -21 -26 -23 -35 -10 -9 13 -10 13 -6 -1 6 -19 -45 -74 -57 -62 -4
5 -6 3 -4 -3 2 -6 -16 -32 -39 -58 -24 -26 -43 -51 -43 -56 0 -4 -7 -10 -15
-14 -8 -3 -14 -11 -13 -18 2 -7 -3 -12 -10 -10 -7 1 -12 -3 -10 -10 3 -19 -21
-60 -32 -53 -5 3 -14 -3 -19 -14 -16 -30 -12 -40 4 -11 8 14 14 20 15 14 0 -6
-11 -28 -25 -48 -14 -21 -20 -34 -13 -31 7 4 2 -3 -12 -15 -14 -12 -19 -18
-11 -14 9 4 12 2 9 -7 -3 -8 -10 -13 -16 -12 -5 1 -8 -7 -4 -19 3 -12 1 -19
-4 -16 -5 4 -9 -8 -10 -26 -1 -18 -8 -48 -17 -67 -14 -32 -27 -74 -32 -109 -2
-8 -14 -81 -28 -161 -105 -593 -77 -1139 83 -1619 90 -270 166 -416 270 -521
141 -142 235 -167 660 -176 290 -6 463 2 705 33 168 21 374 60 479 89 296 84
486 295 574 639 l26 102 24 -70 c87 -260 261 -466 487 -577 104 -51 191 -72
292 -73 46 -1 83 -2 83 -3 0 -2 -10 -38 -22 -80 -19 -65 -23 -103 -23 -223 0
-175 18 -247 93 -361 113 -171 271 -275 583 -382 160 -55 261 -80 424 -104
171 -26 841 -26 1021 0 321 45 520 132 684 296 88 89 146 180 170 269 29 109
4 258 -61 370 -68 119 -253 278 -418 362 -94 47 -217 86 -431 135 -200 47
-304 76 -385 110 l-40 17 35 30 c19 16 125 102 234 191 246 199 374 315 499
448 196 212 317 378 426 590 173 335 257 687 277 1159 6 125 10 157 23 167 14
12 14 12 -1 7 -14 -5 -18 -1 -17 17 1 13 -4 71 -10 129 -6 58 -13 130 -16 160
-2 30 -9 78 -15 105 -6 28 -12 64 -15 80 -2 17 -9 50 -15 75 -6 24 -9 53 -6
62 2 10 1 16 -4 13 -11 -7 -22 42 -15 68 4 15 3 18 -3 9 -10 -15 -36 84 -25
100 3 7 1 8 -5 4 -8 -4 -12 0 -12 11 0 11 -4 23 -9 28 -6 6 -12 21 -15 35 -2
14 -16 53 -30 88 -14 35 -23 71 -20 80 5 15 4 15 -6 2 -10 -13 -11 -11 -7 8 3
12 1 20 -3 17 -5 -3 -14 11 -21 32 -6 20 -20 51 -31 69 -11 18 -16 39 -12 45
4 7 3 9 -3 6 -14 -9 -42 56 -38 89 1 15 8 30 14 32 6 2 11 8 11 14 0 6 10 25
23 42 13 17 26 39 30 49 4 10 11 15 17 12 6 -4 7 1 3 11 -5 13 -3 15 7 9 9 -5
11 -4 6 4 -4 6 1 19 11 29 11 9 13 13 7 9 -7 -5 -2 13 11 40 38 77 63 140 71
178 19 96 26 156 25 230 -1 96 -3 114 -20 158 -6 16 -9 33 -5 38 3 5 1 9 -4 9
-6 0 -13 7 -16 16 -3 8 -2 12 3 9 5 -3 13 0 17 6 4 8 3 9 -4 5 -7 -4 -12 -2
-12 5 0 7 -3 9 -7 6 -10 -11 -43 51 -37 70 5 14 4 15 -4 4 -8 -11 -20 -4 -61
38 -29 28 -57 51 -62 51 -6 0 -8 3 -6 8 3 4 -5 8 -16 9 -12 0 -44 11 -72 24
-65 29 -88 33 -225 32 -141 0 -212 -6 -197 -15 8 -5 5 -8 -8 -8 -10 0 -40 -7
-65 -16 -25 -9 -52 -19 -60 -21 -8 -3 -88 -5 -178 -5 -97 0 -160 -3 -157 -9 5
-8 -20 -14 -28 -6 -1 1 -13 -8 -27 -21 -13 -12 -30 -20 -37 -18 -7 3 -10 -1
-7 -8 3 -8 0 -17 -7 -22 -7 -4 -10 -3 -6 3 3 5 0 10 -8 10 -10 0 -11 -5 -4
-18 8 -15 6 -17 -8 -12 -14 4 -15 3 -7 -6 12 -13 -7 -96 -26 -115 -6 -6 -10
-15 -10 -20 0 -6 5 -4 11 4 8 11 9 8 4 -15 -7 -32 -49 -94 -66 -96 -19 -3 -24
-5 -37 -12 -7 -5 -22 -5 -33 -2 -16 5 -19 4 -14 -6 6 -9 2 -11 -14 -6 -13 3
-21 3 -18 0 3 -2 -8 -17 -24 -31 -20 -19 -32 -43 -39 -77 -6 -27 -12 -57 -14
-65 -3 -8 -5 -32 -5 -53 -1 -21 -5 -36 -10 -33 -5 4 -7 -4 -4 -16 4 -19 3 -20
-7 -8 -9 12 -10 11 -5 -7 12 -42 -90 -324 -110 -306 -4 4 -5 0 -2 -9 7 -20 -1
-50 -12 -44 -3 2 -7 -10 -8 -27 -1 -17 -6 -33 -10 -36 -5 -3 -20 -28 -35 -56
-15 -27 -31 -50 -37 -50 -5 0 -13 -4 -18 -9 -5 -5 -2 -6 6 -1 9 5 12 3 9 -6
-3 -8 -11 -13 -17 -11 -7 1 -10 -2 -6 -8 8 -13 -14 -42 -26 -34 -5 3 -6 -1 -4
-9 3 -7 -7 -30 -22 -50 -15 -20 -53 -70 -83 -112 -33 -47 -59 -74 -68 -70 -7
2 -10 1 -7 -5 8 -13 -55 -81 -68 -73 -5 3 -7 1 -4 -4 8 -13 -17 -36 -28 -25
-5 4 -5 2 -2 -4 12 -21 -163 -131 -186 -117 -6 3 -7 1 -3 -5 7 -11 -12 -16
-51 -15 -7 1 -13 -4 -13 -9 0 -6 -11 -8 -24 -6 -21 4 -23 1 -22 -36 0 -34 4
-41 21 -42 11 -1 40 -4 65 -8 41 -6 158 -10 170 -5 3 1 10 2 15 3 6 1 42 7 80
14 39 6 93 13 120 16 67 5 168 32 211 56 43 25 44 25 44 0 0 -11 -3 -20 -7
-20 -13 0 -17 -186 -7 -273 7 -62 0 -77 -38 -77 -13 0 -18 8 -18 25 0 15 -7
39 -15 54 -8 16 -11 31 -8 35 4 3 1 6 -6 6 -7 0 -9 5 -5 12 4 6 3 8 -4 4 -16
-10 -27 15 -11 26 12 7 11 8 -1 6 -18 -3 -81 33 -74 43 2 4 -1 11 -7 15 -7 4
-9 3 -6 -3 8 -13 -17 -35 -29 -25 -4 4 -3 0 3 -8 6 -8 10 -32 9 -52 -3 -46
-31 -81 -60 -72 -15 4 -17 3 -8 -4 11 -7 10 -10 -3 -16 -9 -3 -22 -3 -27 1 -6
3 -8 1 -5 -4 4 -7 -7 -13 -26 -16 -89 -15 -160 -34 -207 -56 -19 -9 -39 -16
-45 -16 -5 -1 -25 -16 -44 -33 -22 -21 -40 -31 -51 -27 -10 3 -21 1 -25 -4 -4
-7 1 -8 12 -4 14 5 16 3 6 -7 -9 -10 -18 -8 -45 11 -18 13 -35 26 -38 29 -3 4
-13 9 -23 13 -14 5 -16 11 -8 25 7 14 6 19 -4 19 -7 0 -11 -6 -8 -14 9 -22
-12 -14 -41 16 -16 16 -25 34 -22 40 4 6 1 9 -7 5 -14 -5 -82 44 -74 53 3 2
-12 21 -32 41 -52 53 -83 101 -75 114 4 6 3 8 -3 5 -10 -6 -70 91 -65 105 1 5
-2 8 -7 8 -5 0 -13 10 -16 23 -4 12 -15 40 -25 62 -21 44 -56 171 -65 231 -9
61 -15 284 -8 336 l5 46 118 -1 c65 -1 113 1 107 5 -7 4 15 8 48 9 83 2 103 4
160 13 28 4 62 9 75 11 130 17 260 51 260 67 0 4 6 8 14 8 8 0 18 9 21 21 5
14 12 18 23 14 13 -5 14 -3 6 5 -8 8 -9 23 -3 48 17 69 9 258 -17 390 -3 13
-24 43 -47 66 -68 70 -106 136 -76 136 5 0 7 5 4 10 -4 6 -2 17 5 24 6 8 12
22 14 33 2 10 9 36 14 58 28 103 10 205 -36 205 -14 0 -14 2 -3 9 15 10 -31 8
-59 -2 -8 -3 -39 -8 -68 -12 -29 -3 -81 -15 -115 -25 -77 -24 -107 -25 -107
-4 0 13 8 15 35 12 19 -2 36 -1 37 4 2 4 20 9 40 12 21 2 63 18 94 35 31 17
61 28 67 24 5 -3 7 -2 4 4 -7 10 83 90 96 85 5 -1 6 1 3 6 -3 5 2 18 10 28 9
10 13 14 10 7 -4 -6 -3 -14 2 -17 4 -2 8 3 9 13 2 24 52 97 65 93 5 -1 7 2 3
8 -7 12 16 81 25 75 4 -3 7 8 8 23 0 15 2 50 3 77 2 28 -1 63 -5 78 -5 21 -4
27 5 21 8 -4 9 -3 5 4 -4 7 -14 12 -22 12 -8 0 -14 7 -14 15 0 11 -8 8 -30
-12 -16 -14 -30 -31 -30 -38 0 -13 -79 -88 -109 -104 -14 -8 -21 -8 -24 2 -4
7 -6 6 -6 -4 -2 -28 -87 -39 -147 -19 -16 5 -48 14 -72 20 -23 6 -40 15 -37
20 3 6 -1 7 -10 4 -8 -4 -22 0 -31 7 -9 7 -22 14 -30 15 -7 1 -27 9 -43 17
-16 8 -52 21 -80 28 -55 14 -67 29 -48 62 8 14 12 69 13 157 0 123 -1 136 -19
149 -18 13 -23 10 -61 -32 -44 -50 -113 -107 -129 -107 -6 0 -5 5 1 13 8 10 6
13 -8 13 -14 0 -16 -4 -9 -17 12 -22 12 -32 0 -25 -5 4 -11 3 -13 -2 -4 -9
-63 -52 -73 -52 -3 0 -3 5 1 12 4 7 3 8 -5 4 -6 -4 -10 -10 -7 -14 2 -4 -6
-16 -17 -27 -11 -11 -17 -14 -13 -5 4 8 -1 5 -11 -8 -10 -13 -22 -20 -26 -16
-4 4 -3 12 3 18 5 7 5 17 -2 26 -8 12 -9 12 -4 -2 3 -10 1 -18 -4 -18 -9 0
-14 15 -7 23 5 7 -60 65 -81 71 -12 4 -20 11 -17 15 2 5 -7 6 -20 3 -14 -2
-25 0 -25 4 0 5 -61 9 -136 10 -99 1 -138 4 -144 14 -4 7 -13 9 -20 5 -20 -12
-136 53 -178 100 -25 29 -48 45 -62 45 -22 0 -23 -2 -17 -73 3 -40 17 -108 32
-150 14 -42 23 -82 19 -89 -4 -6 -3 -8 3 -5 6 4 13 1 16 -6 3 -8 -13 -13 -56
-14 -33 -2 -76 -7 -95 -13 -20 -5 -37 -8 -39 -7 -1 2 9 19 23 39 15 20 23 41
19 47 -9 16 -159 13 -235 -4 -73 -17 -180 -58 -225 -85 l-30 -19 -1 117 c0 95
-5 128 -22 177 -24 65 -88 169 -127 205 -24 23 -52 22 -59 -2 -42 -140 -68
-188 -165 -305 l-59 -73 -25 43 c-14 23 -48 64 -76 91 -53 49 -152 102 -175
93 -9 -4 -15 -35 -18 -104 -4 -75 -15 -127 -43 -218 -61 -194 -67 -226 -68
-310 -1 -85 22 -156 64 -201 19 -21 19 -21 -2 -40 -52 -47 -70 -156 -37 -221
14 -28 14 -33 0 -47 -14 -14 -18 -13 -38 9 -62 67 -156 -18 -141 -126 4 -33 1
-44 -25 -74 -17 -19 -35 -32 -40 -29 -5 3 -8 2 -7 -3 3 -20 -2 -34 -11 -28 -6
4 -7 11 -4 17 5 7 2 8 -7 2 -8 -5 -17 -9 -21 -9 -3 0 -10 -4 -15 -9 -5 -5 -3
-6 5 -2 7 4 12 2 12 -6 0 -9 3 -9 10 2 9 13 10 13 10 0 0 -21 -72 -110 -86
-106 -6 2 -11 -2 -11 -10 0 -7 4 -11 9 -8 5 3 -3 -12 -19 -34 l-28 -39 -5 116
c-3 64 -3 122 -1 129 2 8 25 12 72 12 l69 0 0 55 0 55 -70 0 -70 0 0 1130 0
1130 25 0 c20 0 25 5 25 25 0 20 -5 25 -25 25 -23 0 -24 3 -27 68 l-3 67 -92
3 -93 3 0 -71 0 -70 -30 0 c-25 0 -30 -4 -30 -25 0 -21 5 -25 30 -25 l30 0 0
-980 0 -980 -263 0 -263 0 -52 53 c-29 29 -52 56 -52 60 0 4 97 7 215 7 l215
0 0 135 0 135 -70 0 -70 0 0 735 0 735 40 1 c63 2 65 3 68 27 3 17 -2 25 -17
29 -19 5 -21 14 -23 122 l-3 116 -107 3 -108 3 0 -121 c0 -115 -1 -120 -21
-120 -16 0 -20 -5 -17 -27 3 -26 7 -28 56 -31 l52 -3 0 -735 0 -734 -110 0
-110 0 0 25 c0 24 -2 25 -65 25 l-65 0 0 785 0 785 -35 0 -35 0 0 -445 c0
-290 -3 -445 -10 -445 -7 0 -10 155 -10 445 l0 445 -40 0 -40 0 -2 -447 -3
-448 -62 -3 -63 -3 0 380 0 379 28 53 c60 118 8 232 -108 233 -60 1 -90 -22
-136 -107 -61 -110 -64 -108 -64 39 0 141 -11 180 -60 216 -27 20 -85 31 -110
22z m680 -1578 c0 -186 -4 -297 -10 -301 -7 -4 -10 97 -10 294 0 194 4 301 10
301 6 0 10 -105 10 -294z m3035 13 c44 -16 96 -23 200 -29 144 -7 181 -16 217
-57 28 -31 48 -89 48 -142 0 -53 8 -65 35 -55 13 6 16 17 13 60 -2 32 1 54 7
54 11 0 145 94 234 163 90 69 85 71 79 -24 -3 -52 -13 -99 -24 -123 -17 -36
-23 -40 -64 -43 -136 -12 -250 -79 -298 -177 -42 -83 0 -106 55 -32 71 97 164
147 270 147 76 0 140 -17 276 -75 128 -55 168 -66 238 -66 81 0 149 25 208 77
55 48 59 44 36 -33 -54 -183 -262 -353 -421 -345 -17 1 -24 12 -34 46 -30 107
-101 145 -186 100 -37 -19 -62 -19 -138 1 -117 31 -204 1 -227 -77 -7 -21 -15
-39 -18 -39 -4 0 -24 9 -46 20 -46 24 -74 25 -119 6 -48 -20 -76 -72 -83 -156
l-6 -70 -47 0 c-36 0 -58 -7 -94 -32 -26 -17 -50 -37 -53 -45 -9 -24 -30 -14
-112 58 -45 39 -109 83 -141 98 l-59 28 28 34 c16 19 40 58 55 87 14 28 29 52
31 52 18 0 132 -67 165 -96 33 -30 43 -34 55 -24 21 17 20 21 -21 69 -36 41
-102 82 -157 95 -26 6 -27 9 -20 44 21 98 -1 214 -50 270 -20 22 -20 22 -1 22
54 0 146 -25 213 -57 80 -40 188 -139 221 -203 25 -48 47 -67 62 -52 27 27
-34 133 -129 226 -52 51 -193 136 -227 136 -23 0 -94 134 -111 208 l-7 33 44
-31 c23 -16 70 -40 103 -51z m-227 -255 c-39 -54 -89 -100 -147 -132 l-41 -23
0 28 c0 34 26 133 38 145 8 8 101 24 155 27 l28 1 -33 -46z m984 -364 c66 -25
95 -25 133 0 57 38 106 22 136 -43 26 -58 24 -63 -18 -65 -21 0 -61 -4 -90 -7
-42 -6 -62 -2 -110 19 -96 42 -118 39 -188 -24 -60 -55 -88 -61 -136 -33 -47
28 -53 10 -29 -97 11 -51 19 -98 17 -104 -3 -6 -25 -26 -50 -43 l-45 -33 -7
28 c-3 15 -18 45 -32 66 -38 58 -42 146 -11 205 33 64 48 70 103 43 25 -12 61
-22 79 -22 28 0 36 5 46 30 7 17 29 46 48 65 43 42 76 45 154 15z m-1925 -73
c12 -12 30 -44 40 -71 10 -27 30 -58 45 -69 26 -19 32 -20 78 -8 87 22 143 -2
170 -74 6 -16 15 -75 20 -131 12 -150 60 -224 147 -224 58 0 105 85 89 161
-19 97 -108 123 -118 35 -4 -35 14 -44 27 -14 6 12 15 23 22 25 15 5 36 -62
29 -92 -7 -29 -59 -67 -80 -59 -34 13 -59 74 -64 153 l-4 77 44 24 c52 27 81
23 129 -17 61 -52 76 -138 39 -236 -30 -80 -87 -127 -155 -127 -46 0 -88 22
-119 63 -35 45 -45 77 -66 201 -24 138 -35 152 -122 148 -111 -4 -175 45 -199
156 -11 51 -44 92 -75 92 -17 0 -18 17 -2 22 26 9 104 -13 125 -35z m1972 -67
c48 -22 112 -26 160 -9 25 9 38 9 57 -1 26 -15 31 -29 12 -34 -7 -2 -72 -18
-145 -35 -73 -17 -187 -49 -254 -71 -67 -22 -124 -38 -126 -36 -4 4 -32 114
-33 129 0 4 9 3 19 -3 31 -16 73 -12 110 13 115 76 129 79 200 47z m-2130 -6
c9 -3 -11 -22 -54 -50 -38 -25 -86 -59 -107 -75 -20 -17 -42 -28 -47 -25 -17
11 -23 84 -9 113 20 42 53 54 133 47 39 -3 76 -8 84 -10z m56 -63 c-3 -5 4
-12 14 -16 13 -4 18 -11 14 -22 -4 -10 -2 -14 5 -9 6 3 13 -3 17 -14 3 -11 10
-20 15 -20 4 0 6 -9 3 -20 -4 -14 0 -20 11 -20 11 0 14 5 10 12 -4 7 -3 8 5 4
6 -4 8 -13 4 -19 -12 -19 -12 -36 -1 -44 7 -4 8 -1 3 7 -6 10 -4 11 11 5 10
-5 31 -8 47 -8 15 0 27 -4 27 -9 0 -5 5 -6 10 -3 6 3 10 -2 10 -11 0 -16 1
-16 18 -1 23 21 32 21 32 1 0 -8 5 -12 11 -8 7 4 6 11 -5 22 -12 12 -18 13
-30 3 -11 -9 -15 -9 -18 0 -2 7 -18 12 -36 12 -17 0 -29 5 -25 10 3 5 -3 7
-13 3 -25 -8 -53 9 -29 17 11 5 14 3 9 -5 -5 -8 -2 -9 9 -5 10 4 29 2 44 -4
24 -9 54 -14 113 -21 28 -3 40 -31 34 -81 -4 -35 -1 -53 9 -65 23 -27 29 -69
12 -86 -9 -8 -11 -17 -6 -21 6 -3 7 -13 4 -23 -6 -15 -5 -15 11 -3 13 11 14
16 4 22 -7 4 -9 11 -5 16 12 12 27 -19 17 -36 -12 -22 6 -52 27 -44 10 4 14 2
9 -5 -3 -6 2 -13 12 -16 23 -8 70 -56 54 -56 -7 0 -12 5 -12 10 0 6 -6 9 -12
8 -7 -2 -12 3 -10 10 1 6 -5 12 -14 12 -13 0 -14 -3 -4 -15 10 -12 8 -16 -11
-24 -20 -7 -15 -9 21 -7 25 1 51 6 59 10 11 7 13 5 8 -7 -5 -15 2 -17 50 -17
41 0 60 5 70 18 14 16 14 16 9 -1 -5 -15 -3 -16 17 -6 12 7 25 16 28 21 3 5
13 0 23 -11 12 -13 15 -27 10 -47 l-7 -28 -10 25 c-5 13 -11 19 -14 12 -7 -20
16 -53 32 -47 11 5 13 2 9 -10 -3 -9 -2 -16 3 -16 6 0 15 -12 21 -26 7 -14 8
-23 3 -20 -5 4 -8 -2 -6 -11 2 -10 4 -21 4 -25 1 -5 6 -8 12 -8 8 0 7 6 -2 17
-12 14 -12 16 1 11 8 -3 14 -13 13 -22 0 -11 4 -15 13 -12 10 4 14 0 12 -11
-2 -11 5 -19 17 -21 16 -2 17 -1 5 7 -17 12 -10 14 14 5 22 -9 20 -19 -4 -21
-22 -2 -60 -33 -40 -33 6 0 9 -4 6 -9 -7 -10 23 -20 42 -14 6 3 12 11 12 18 0
17 40 31 49 18 3 -6 19 -16 35 -24 16 -8 31 -21 34 -29 3 -12 1 -12 -9 1 -8
10 -25 20 -39 23 -14 3 -19 3 -11 0 10 -5 10 -8 1 -14 -8 -5 -7 -9 5 -13 9 -4
13 -3 10 3 -3 6 -2 10 3 10 6 0 13 -7 16 -16 3 -9 2 -12 -5 -9 -6 4 -8 -3 -4
-22 l6 -28 -16 28 c-9 15 -17 27 -19 27 -1 0 -2 -15 -2 -34 1 -19 4 -32 9 -29
4 2 7 -14 7 -36 0 -23 -4 -41 -10 -41 -5 0 -10 -5 -10 -10 0 -7 6 -7 20 0 14
7 20 7 20 0 0 -5 -4 -10 -10 -10 -5 0 -7 -13 -3 -30 3 -20 1 -30 -6 -30 -8 0
-10 8 -6 19 3 11 2 22 -3 25 -14 8 -12 -46 2 -63 8 -12 8 -13 -1 -7 -7 4 -13
3 -13 -3 0 -5 5 -13 11 -17 8 -5 6 -10 -5 -16 -9 -5 -16 -16 -16 -23 0 -8 -7
-15 -15 -15 -8 0 -15 -4 -15 -10 0 -14 23 -13 38 2 13 13 15 8 6 -16 -3 -9
-14 -16 -23 -16 -10 0 -28 -11 -41 -25 -21 -22 -22 -28 -12 -62 14 -46 6 -83
-18 -83 -10 0 -23 -7 -30 -15 -10 -12 -10 -15 3 -15 14 0 14 -3 1 -27 -23 -45
-27 -92 -14 -149 7 -30 16 -54 20 -54 4 0 12 -12 19 -26 13 -30 1 -54 -28 -54
-12 0 -13 -2 -3 -9 8 -4 14 -24 15 -42 2 -28 -2 -34 -18 -34 -16 1 -20 -6 -22
-32 -1 -18 3 -31 8 -28 5 4 9 2 9 -4 0 -5 -8 -12 -19 -16 -10 -3 -21 -18 -24
-33 -3 -15 -9 -36 -13 -46 -5 -14 -4 -17 4 -12 9 5 10 1 3 -16 -4 -13 -6 -29
-3 -37 3 -8 -8 -3 -24 12 -15 14 -25 30 -20 34 4 4 11 1 16 -7 5 -8 12 -11 17
-7 7 8 -14 27 -30 27 -19 0 -18 -33 1 -51 14 -12 19 -25 15 -37 -6 -15 -5 -15
11 -3 16 13 16 13 0 -16 -16 -27 -59 -56 -75 -50 -11 4 -38 -24 -38 -41 -3
-68 -8 -91 -24 -106 -9 -10 -17 -13 -17 -7 0 5 8 15 18 20 15 9 15 10 1 11
-23 0 -41 -24 -33 -44 5 -12 2 -15 -9 -10 -26 9 -1 59 38 74 15 7 16 9 4 9 -9
1 -28 -8 -43 -20 -14 -11 -26 -16 -26 -10 0 5 10 17 23 27 l22 16 -22 -5 c-29
-7 -37 6 -21 32 10 17 10 23 -1 33 -12 11 -13 10 -8 -4 4 -10 2 -18 -3 -18
-14 0 -12 24 2 38 9 9 6 14 -13 21 -24 10 -24 10 -1 10 27 1 32 41 5 41 -15 0
-16 -2 -3 -10 8 -5 11 -12 7 -17 -10 -10 -27 16 -20 32 5 15 -41 28 -69 20
-11 -4 -17 -13 -14 -21 7 -17 -10 -28 -20 -13 -5 8 -3 9 6 4 8 -5 11 -4 6 3
-4 6 -13 9 -21 6 -13 -5 -13 -8 0 -21 20 -19 19 -23 -5 -18 -11 2 -20 0 -20
-6 0 -5 -5 -9 -11 -9 -6 0 -9 6 -6 13 2 6 -2 19 -9 27 -7 9 -14 30 -16 48 -1
18 -7 32 -13 32 -5 1 0 6 13 14 21 11 22 14 7 26 -15 12 -14 16 12 39 15 14
30 25 34 24 3 -1 19 11 35 28 24 25 27 33 16 49 -10 16 -9 18 3 14 8 -4 15
-10 15 -16 0 -5 5 -6 10 -3 6 4 3 13 -8 23 -10 9 -13 13 -6 9 7 -4 15 -3 19 3
3 5 1 10 -5 10 -8 0 -8 6 0 20 6 11 8 24 5 29 -7 12 5 42 15 36 4 -2 5 7 2 20
-3 20 -1 24 12 19 15 -6 21 16 19 74 -1 6 4 12 9 12 5 0 7 -13 3 -30 -3 -16
-3 -36 2 -45 6 -10 9 -1 8 30 0 29 -5 49 -15 55 -12 8 -11 10 6 10 18 0 22 6
23 43 3 64 4 67 14 67 6 0 2 9 -7 19 -10 11 -16 28 -13 38 3 15 6 13 15 -9 12
-30 27 -36 35 -15 4 9 8 9 15 -2 13 -18 11 77 -1 97 -5 6 -4 12 2 12 5 0 9 14
9 31 -1 20 -4 26 -9 17 -6 -8 -9 -2 -9 20 0 17 4 32 9 32 11 0 21 229 10 255
-8 22 -7 26 -14 -50 -1 -11 -3 -57 -4 -101 -1 -69 -4 -82 -18 -86 -16 -4 -18
5 -18 88 0 78 2 91 14 81 11 -10 13 -8 7 10 -4 12 -2 24 4 28 5 3 10 14 10 23
0 15 -2 15 -10 2 -8 -11 -9 -8 -6 12 9 52 30 64 46 26 8 -19 9 -16 4 12 -3 19
-7 40 -8 45 0 6 5 9 12 7 7 -1 12 3 11 10 -4 35 2 39 21 15 23 -28 25 -43 9
-53 -8 -4 -9 0 -4 15 3 11 2 21 -3 21 -15 0 -23 -29 -14 -48 4 -9 5 -35 2 -57
-8 -59 37 -134 82 -135 9 0 20 -4 23 -10 8 -14 45 -13 45 1 0 6 -7 9 -15 6
-22 -9 -28 11 -6 22 11 6 23 25 27 43 9 38 12 160 3 147 -3 -5 -16 1 -28 13
-14 12 -38 22 -57 22 -35 2 -74 29 -60 43 4 4 11 2 15 -6 7 -10 9 -10 14 2 4
11 -1 14 -19 12 -13 -1 -24 1 -24 5 0 10 53 20 60 12 3 -4 15 -8 28 -9 16 -2
22 2 22 17 0 22 -16 26 -87 20 l-28 -2 25 -8 25 -8 -27 -1 c-30 -1 -32 2 -18
34 5 11 9 14 9 8 1 -15 31 -18 31 -3 0 6 -3 11 -7 11 -44 7 -63 6 -68 -2 -3
-5 1 -6 9 -3 9 3 16 1 16 -5 0 -6 -10 -11 -22 -11 -27 0 -74 -75 -56 -86 7 -5
8 -2 3 6 -5 8 -4 11 3 6 6 -4 9 -13 5 -22 -4 -12 -8 -12 -21 -2 -13 11 -15 10
-10 -10 4 -13 2 -20 -4 -16 -5 3 -21 -5 -35 -17 -16 -14 -24 -18 -21 -9 4 11
-3 16 -28 17 -26 1 -38 -4 -50 -22 -9 -13 -13 -28 -10 -33 3 -6 0 -15 -7 -21
-8 -6 -13 -27 -11 -48 2 -40 -9 -53 -41 -52 -17 1 -16 2 5 10 23 7 7 7 -58 -1
-2 0 0 -5 3 -10 4 -6 11 -7 17 -4 6 4 9 1 7 -5 -3 -7 -9 -13 -14 -13 -6 0 -18
-4 -27 -9 -12 -6 -18 -6 -18 0 0 5 8 12 18 15 14 4 14 5 -3 4 -38 -1 -45 2
-45 17 0 8 -7 15 -15 15 -8 0 -15 6 -15 13 0 7 -3 8 -8 2 -4 -6 -18 -16 -32
-22 -22 -10 -20 -11 20 -7 35 3 40 2 20 -5 -25 -9 -25 -9 -2 -10 28 -1 58 -27
39 -34 -6 -2 -18 -2 -25 1 -11 4 -11 6 0 13 8 6 -2 9 -28 9 -22 0 -44 -3 -47
-6 -4 -4 -23 -8 -44 -9 -21 -2 -63 -6 -94 -10 -37 -4 -59 -3 -64 4 -4 8 -12 8
-26 1 -11 -6 -16 -16 -13 -22 5 -8 1 -9 -12 -3 -10 5 -31 8 -46 7 -26 -1 -26
0 -10 18 18 22 42 26 58 10 6 -6 15 -6 24 0 12 8 12 10 -5 11 -16 1 -16 2 5 8
14 4 34 5 44 1 11 -4 32 -1 47 7 15 8 43 13 62 11 34 -2 71 17 62 32 -2 4 -21
5 -42 3 -20 -2 -34 -1 -31 2 3 4 9 6 13 5 3 0 12 5 20 12 35 32 45 38 60 38 8
0 15 -5 15 -11 0 -6 -6 -9 -14 -6 -9 4 -13 0 -11 -11 2 -9 4 -21 4 -26 1 -12
16 3 16 16 0 14 45 31 46 18 1 -6 2 -14 3 -19 0 -5 4 -13 8 -17 4 -4 7 11 5
34 -1 29 -5 38 -14 30 -8 -6 -18 -6 -31 1 -11 6 -23 7 -28 3 -5 -4 -2 1 6 11
13 18 15 18 27 1 14 -19 15 -19 32 13 6 13 7 24 2 28 -5 3 -11 -3 -13 -12 -2
-11 -6 -14 -10 -7 -4 6 4 22 19 35 14 13 24 19 20 14 -7 -13 30 -17 38 -4 3 5
0 6 -8 3 -18 -7 -28 18 -15 37 7 11 8 9 3 -6 -4 -14 -3 -17 5 -9 6 6 12 20 15
32 6 31 15 43 27 36 6 -4 8 1 3 15 -4 14 -2 21 6 21 7 0 9 3 5 7 -4 5 -14 -1
-22 -11 -8 -11 -14 -15 -14 -9 0 7 5 15 10 18 6 4 7 11 4 17 -4 7 -2 8 4 4 8
-5 12 2 12 21 0 21 -3 24 -10 13 -9 -15 -10 -14 -25 38 -5 16 -4 16 9 -1 13
-16 14 -16 19 5 4 13 2 27 -3 32 -13 13 -13 29 0 21 6 -3 10 -1 10 4 0 14 -17
14 -26 0 -3 -6 -1 -16 5 -22 17 -17 13 -31 -4 -17 -8 7 -15 9 -15 6 0 -4 -5
-4 -11 -1 -6 5 -4 16 7 33 15 23 15 25 2 14 -14 -11 -18 -10 -26 5 -6 10 -14
14 -18 10 -4 -4 1 -14 12 -23 18 -15 17 -15 -5 -2 -29 17 -34 53 -12 75 14 14
13 15 -8 8 -16 -5 -21 -4 -17 4 9 14 4 14 -29 -3 l-28 -15 34 -4 34 -4 -37 -1
c-20 -1 -40 -6 -43 -12 -3 -5 -10 -10 -16 -10 -17 0 -9 20 9 21 12 0 11 3 -6
10 -13 5 -29 6 -34 2 -6 -3 -8 -1 -5 4 4 6 -4 13 -17 15 -23 5 -30 -11 -13
-28 11 -12 8 -29 -9 -50 -8 -10 -13 -13 -9 -6 3 6 1 12 -4 12 -6 0 -11 -5 -11
-11 0 -16 -62 -69 -73 -62 -5 3 -7 -3 -5 -13 2 -14 -2 -18 -16 -16 -12 2 -16
-1 -10 -9 4 -8 3 -10 -4 -5 -18 11 -37 -4 -21 -16 10 -6 7 -7 -9 -3 -21 6 -23
4 -18 -17 3 -12 3 -17 0 -10 -8 17 -27 15 -20 -3 3 -8 1 -15 -3 -15 -5 0 -12
6 -14 13 -4 8 -6 6 -6 -4 -1 -12 -8 -15 -26 -11 -14 2 -28 8 -31 13 -3 5 -11
9 -17 9 -7 0 2 -9 18 -21 24 -16 26 -19 8 -14 -14 4 -23 2 -23 -4 0 -6 -5 -11
-11 -11 -8 0 -8 4 0 13 9 11 3 14 -27 14 -20 0 -29 -2 -19 -4 39 -10 13 -20
-44 -17 -66 4 -83 10 -73 26 7 11 -47 7 -96 -7 -19 -5 -22 -4 -10 4 13 10 13
11 0 11 -10 0 -11 3 -4 8 6 4 14 20 18 36 4 15 10 26 13 23 3 -3 1 -20 -5 -36
-6 -17 -7 -31 -3 -31 28 0 29 117 2 140 -10 9 -16 22 -13 30 4 12 2 13 -9 3
-7 -7 -18 -13 -23 -13 -6 0 -4 6 4 13 8 7 20 21 27 32 6 11 17 19 23 17 8 -2
10 4 6 15 -5 16 -4 15 9 -1 10 -13 15 -15 15 -6 0 16 29 50 43 50 5 0 4 -6 -2
-14 -10 -11 -9 -14 3 -12 26 4 30 16 10 32 -10 8 -13 13 -6 9 7 -4 16 4 22 22
6 15 15 37 20 48 8 17 9 16 5 -7 -3 -24 0 -27 20 -26 27 2 39 32 25 57 -8 13
-9 11 -7 -8 1 -13 -2 -25 -8 -27 -19 -7 -13 42 6 54 11 7 19 9 18 5 -3 -17 1
-24 11 -18 7 4 7 12 0 24 -7 14 -5 23 8 34 16 15 18 15 18 -4 0 -13 -5 -18
-16 -14 -11 5 -12 3 -4 -5 6 -6 23 -13 39 -16 21 -4 26 -2 22 10 -4 10 -1 13
9 9 11 -4 12 -9 5 -16 -20 -20 -13 -39 12 -31 29 9 34 14 20 22 -7 5 -6 12 5
22 14 13 15 12 10 -2 -5 -11 0 -18 13 -21 23 -6 26 -27 3 -27 -8 0 -12 -4 -9
-10 3 -5 15 -10 26 -10 11 0 17 4 14 10 -3 6 1 7 10 3 11 -4 13 -8 5 -13 -23
-14 16 -27 78 -25 34 2 65 -2 68 -7 3 -5 11 -4 19 2 8 7 18 9 22 7 5 -3 10 3
10 14 2 17 0 18 -13 4 -9 -8 -23 -15 -32 -15 -16 1 -16 2 -1 13 9 7 15 23 13
37 -4 37 -4 37 -15 16 -8 -13 -8 -20 0 -26 8 -5 5 -12 -11 -22 -21 -14 -26
-14 -43 -1 -12 9 -14 14 -5 11 8 -3 24 -2 35 3 17 6 17 8 3 8 -16 1 -15 4 5
24 12 12 26 21 30 19 5 -1 6 8 3 20 -3 13 -3 17 0 11 4 -10 9 -10 20 1 18 18
18 30 1 23 -16 -6 -20 60 -5 83 7 12 8 10 5 -6 -3 -12 -1 -28 4 -35 6 -10 9
-4 9 17 0 26 5 33 27 39 21 5 24 8 12 16 -10 6 -11 9 -1 9 10 0 10 5 -2 22
-12 16 -13 25 -4 35 6 7 8 17 4 20 -10 11 -25 -17 -32 -59 -4 -21 -10 -38 -15
-38 -4 0 -4 13 1 29 9 33 5 42 -17 34 -11 -4 -12 -8 -3 -13 9 -6 9 -13 1 -26
-10 -19 -12 -16 -15 29 -1 16 -7 22 -25 22 -33 1 -37 20 -9 39 32 23 45 20 17
-4 -31 -25 -12 -26 21 0 20 16 22 22 11 29 -11 7 -10 11 5 20 24 13 27 13 19
2z m-1727 -59 c9 -10 47 -50 85 -89 37 -39 67 -74 67 -77 0 -3 -61 -6 -135 -6
l-135 0 0 95 0 95 50 0 c36 0 55 -5 68 -18z m802 -77 l0 -95 -128 0 -127 0
-83 89 c-45 49 -82 92 -82 95 0 3 95 6 210 6 l210 0 0 -95z m2467 19 c33 -21
54 -58 60 -104 6 -40 4 -44 -57 -105 -62 -62 -64 -63 -85 -47 l-23 17 30 34
c38 43 73 115 65 134 -5 13 -19 15 -74 11 -85 -6 -110 6 -73 37 60 49 107 56
157 23z m1018 -112 c37 -18 145 -132 145 -153 0 -5 -14 -9 -32 -9 -59 0 -85
-52 -56 -115 12 -27 27 -32 46 -13 9 9 21 3 52 -27 22 -21 47 -40 56 -41 9 -1
18 -5 21 -8 3 -2 4 -50 4 -106 -1 -110 -16 -161 -50 -180 -61 -32 -345 -74
-584 -86 -250 -13 -339 20 -537 195 -72 64 -114 48 -46 -18 l34 -33 -24 -66
c-55 -151 -68 -248 -68 -507 -1 -232 0 -243 27 -340 15 -55 43 -132 61 -172
33 -68 34 -73 21 -110 -26 -72 -17 -118 33 -160 l26 -22 -29 -22 c-55 -41
-140 -135 -165 -182 -14 -26 -28 -47 -32 -47 -12 0 -83 116 -141 230 -93 187
-152 395 -178 628 -12 120 -7 540 9 617 l8 40 28 -48 c61 -102 96 -32 97 193
1 133 -19 229 -57 271 -21 23 -11 36 31 44 26 5 33 0 57 -34 15 -22 48 -52 75
-68 62 -37 156 -39 219 -6 90 48 156 151 169 264 10 85 38 81 114 -15 27 -35
65 -70 84 -79 70 -34 249 -17 346 33 47 24 77 80 87 165 3 33 9 64 11 68 3 4
26 -8 51 -26 26 -19 65 -44 87 -55z m-2831 7 c-10 -12 -18 -29 -16 -39 1 -9
-4 -23 -13 -30 -12 -10 -15 -10 -15 1 0 11 -2 11 -9 -1 -6 -8 -7 -19 -4 -25 3
-5 0 -4 -8 3 -10 9 -10 15 -1 24 16 16 15 31 0 22 -7 -4 -2 5 11 19 13 15 28
24 32 21 5 -2 14 4 21 15 7 11 14 18 17 16 2 -3 -4 -14 -15 -26z m16 -54 c0
-8 -2 -15 -4 -15 -2 0 -6 7 -10 15 -3 8 -1 15 4 15 6 0 10 -7 10 -15z m2007
-12 c-3 -10 -8 -36 -12 -57 -9 -54 -46 -125 -87 -163 -91 -87 -209 -82 -301
14 l-38 40 55 41 c48 35 56 38 61 23 7 -22 46 -41 83 -41 34 0 86 31 108 65
16 24 108 93 127 94 5 1 6 -7 4 -16z m-2677 -128 c0 -69 -2 -75 -17 -66 -17 9
-54 46 -112 114 l-24 27 76 0 77 0 0 -75z m809 26 c10 -7 7 -9 -12 -8 -15 1
-27 5 -27 10 0 10 22 9 39 -2z m-366 -21 c-3 -12 -8 -18 -11 -15 -3 3 -15 -3
-26 -12 -12 -10 -8 -3 8 15 35 38 36 38 29 12z m3276 -25 c19 -23 19 -61 1
-95 -11 -19 -19 -30 -20 -24 -1 24 -73 84 -102 84 -21 0 -28 5 -28 19 0 11 6
22 13 24 21 9 128 3 136 -8z m-2414 -15 c-3 -5 -1 -10 5 -10 6 0 8 -5 4 -11
-4 -8 -9 -7 -15 2 -7 12 -3 29 7 29 3 0 2 -4 -1 -10z m-245 -100 c0 -13 -11
-13 -30 0 -12 8 -11 10 8 10 12 0 22 -4 22 -10z m397 -16 c-3 -3 -12 -4 -19
-1 -8 3 -5 6 6 6 11 1 17 -2 13 -5z m-1123 -43 c19 -21 11 -55 -11 -47 -11 5
-13 1 -8 -15 5 -15 4 -19 -5 -14 -6 4 -10 15 -7 25 2 10 -4 25 -15 34 -10 9
-16 21 -13 26 10 16 41 11 59 -9z m582 -158 c6 -38 10 -69 9 -71 -2 -2 -27 9
-56 25 -30 15 -55 28 -56 29 -7 2 74 84 82 84 6 0 16 -30 21 -67z m4366 56
c103 -22 209 -92 281 -186 53 -70 149 -249 211 -396 216 -507 287 -1084 200
-1617 -74 -453 -244 -827 -533 -1170 -76 -91 -385 -396 -472 -467 -78 -63
-211 -168 -273 -214 -126 -94 -294 -253 -377 -357 -145 -181 -210 -368 -165
-475 19 -46 91 -105 150 -122 155 -46 322 -42 482 11 90 30 114 47 114 82 0
22 -3 24 -37 19 -21 -2 -87 -16 -148 -31 -157 -37 -303 -33 -390 12 l-30 15
47 13 c57 14 126 53 190 107 63 53 83 84 67 103 -10 13 -15 12 -38 -3 -14 -9
-43 -32 -63 -51 -91 -84 -212 -135 -256 -108 -17 11 -15 89 5 138 37 94 131
224 244 339 41 42 66 59 77 56 9 -3 60 -22 112 -42 52 -20 184 -59 295 -86
246 -61 337 -90 439 -141 220 -110 382 -266 442 -429 24 -65 23 -192 -3 -249
-50 -111 -130 -206 -244 -286 -208 -147 -608 -213 -1164 -193 -515 18 -862
100 -1106 262 -107 71 -172 145 -224 252 -88 183 -71 413 50 663 134 278 335
495 752 808 72 54 153 115 180 134 486 349 720 564 875 806 41 64 123 232 147
302 119 347 101 735 -52 1107 -48 119 -74 165 -92 165 -27 0 -27 -22 0 -82
l27 -60 -34 -29 c-18 -15 -36 -28 -39 -29 -4 0 -32 -15 -62 -34 -144 -86 -324
-102 -470 -41 -21 9 -40 22 -44 31 -10 26 25 98 78 160 65 75 109 166 116 241
3 33 12 61 19 66 19 11 18 44 -2 51 -49 19 -124 -25 -124 -73 0 -26 35 -29 49
-3 19 32 13 -43 -8 -98 -19 -49 -52 -97 -119 -174 -19 -21 -44 -61 -56 -89
l-23 -50 -11 58 c-25 121 -8 348 41 555 12 51 14 53 25 33 21 -38 43 -53 78
-53 68 0 137 58 177 150 45 101 64 250 32 250 -8 0 -18 1 -22 3 -4 1 -10 -11
-13 -28 -5 -28 -8 -30 -45 -27 -22 2 -57 -4 -77 -12 -21 -9 -42 -16 -47 -16
-5 0 1 25 12 56 16 40 44 80 96 136 221 236 545 381 753 337z m-4278 -18 c20
-22 16 -46 -17 -87 l-21 -28 -18 59 c-9 32 -15 62 -12 67 9 15 51 8 68 -11z
m-708 -26 c1 -8 -2 -17 -7 -21 -5 -3 -9 -10 -9 -16 0 -6 7 -5 18 4 23 21 62
32 62 19 0 -6 -8 -11 -18 -11 -10 0 -27 -7 -39 -15 -18 -13 -22 -13 -33 0 -9
11 -9 15 -1 15 6 0 11 12 11 27 0 27 12 25 16 -2z m121 -21 c-3 -3 -12 -4 -19
-1 -8 3 -5 6 6 6 11 1 17 -2 13 -5z m-152 -45 c-10 -15 -25 -10 -19 6 4 8 10
12 15 9 5 -3 7 -10 4 -15z m511 -54 c0 -84 8 -82 -69 -13 l-28 24 48 31 c26
17 48 32 48 32 0 1 1 -33 1 -74z m-1702 16 c-4 -3 -9 0 -11 7 -3 6 -11 12 -19
12 -9 0 -12 5 -9 11 5 7 14 4 26 -7 11 -9 16 -20 13 -23z m1151 29 c3 -5 1
-10 -4 -10 -6 0 -11 5 -11 10 0 6 2 10 4 10 3 0 8 -4 11 -10z m56 -34 c-11
-13 -5 -26 11 -26 5 0 6 5 2 12 -4 7 -3 8 5 4 7 -5 9 -12 3 -19 -5 -7 -9 -23
-9 -37 -1 -14 1 -19 4 -12 8 19 22 14 20 -8 -1 -12 -7 -18 -14 -16 -7 3 -15 0
-19 -6 -4 -7 -3 -8 4 -4 20 12 13 -8 -8 -27 -11 -9 -20 -22 -20 -27 0 -6 14 3
30 20 17 17 30 26 30 20 0 -6 -11 -22 -25 -36 -28 -28 -32 -39 -11 -31 10 4
12 -1 9 -16 -4 -18 -3 -19 6 -7 8 11 11 12 11 2 0 -7 5 -10 12 -6 7 5 8 3 4
-5 -5 -8 -3 -12 5 -10 28 3 38 -1 33 -16 -4 -8 -10 -12 -15 -9 -5 3 -6 11 -2
17 4 7 0 6 -10 -2 -14 -11 -18 -11 -23 2 -3 9 -11 14 -18 11 -6 -2 -20 15 -31
41 -19 43 -41 65 -28 28 5 -15 4 -16 -8 -5 -11 10 -11 16 0 33 9 15 10 24 2
32 -6 6 -11 20 -12 32 0 20 0 20 -9 0 -7 -16 -9 -17 -9 -3 -1 9 4 20 9 23 6 3
10 15 10 26 0 13 7 19 23 20 18 1 16 3 -8 9 -29 7 -29 8 -5 10 14 1 31 2 38 1
7 -1 12 2 11 6 -3 18 4 27 8 10 3 -10 0 -24 -6 -31z m628 -12 c12 -11 6 -18
-35 -43 -26 -17 -52 -31 -56 -31 -10 0 -11 114 -1 123 6 7 66 -25 92 -49z
m946 46 c8 -13 -5 -13 -25 0 -13 8 -13 10 2 10 9 0 20 -4 23 -10z m-2635 -10
c0 -5 -4 -10 -9 -10 -6 0 -13 5 -16 10 -3 6 1 10 9 10 9 0 16 -4 16 -10z m50
6 c0 -2 -7 -7 -16 -10 -8 -3 -12 -2 -9 4 6 10 25 14 25 6z m6 -38 c-9 -12 -16
-17 -16 -10 0 14 23 42 29 37 1 -2 -4 -14 -13 -27z m926 7 c3 -13 1 -22 -3
-19 -9 5 -13 44 -5 44 2 0 6 -11 8 -25z m-1165 9 c-3 -3 -12 -4 -19 -1 -8 3
-5 6 6 6 11 1 17 -2 13 -5z m3583 -33 c85 -67 161 -105 250 -125 l26 -5 -16
-108 -16 -107 -39 -9 c-54 -12 -199 -2 -260 17 -84 27 -82 22 -61 128 18 97
56 248 63 248 2 0 26 -18 53 -39z m-3373 23 c-3 -3 -12 -4 -19 -1 -8 3 -5 6 6
6 11 1 17 -2 13 -5z m2764 -7 c18 -14 20 -34 8 -98 -4 -25 -10 -68 -13 -95
-16 -136 -19 -154 -30 -154 -8 0 -8 -2 0 -8 7 -4 13 -72 17 -187 3 -114 13
-224 26 -298 12 -66 18 -124 14 -130 -3 -7 -2 -8 2 -4 11 10 44 -105 41 -143
-1 -19 2 -26 11 -23 9 4 11 0 7 -11 -3 -9 -1 -16 5 -16 6 0 11 -6 11 -14 0 -8
13 -44 30 -80 16 -37 27 -74 24 -84 -5 -14 -4 -15 5 -2 8 11 11 11 12 3 3 -24
5 -28 32 -70 15 -24 27 -52 27 -63 0 -12 4 -19 9 -15 9 5 33 -27 28 -36 -1 -2
0 -3 2 -2 8 5 101 -129 101 -145 0 -10 9 -35 20 -56 l19 -39 -74 -99 c-157
-210 -265 -485 -291 -740 l-7 -66 -40 51 c-101 127 -216 220 -507 406 -63 41
-120 80 -127 87 -17 16 -17 27 0 18 9 -6 9 -5 0 7 -9 11 -8 18 1 31 7 10 17
14 21 10 5 -4 6 -2 3 3 -4 6 -2 30 2 55 10 50 -3 159 -26 229 -12 37 -12 42 0
38 8 -3 20 2 28 11 12 15 11 16 -4 3 -22 -17 -23 -3 -4 36 20 39 30 66 27 80
-1 7 18 27 42 45 24 18 59 52 77 75 19 23 39 39 44 36 6 -4 8 -3 4 2 -10 11
11 47 23 39 6 -3 9 0 7 7 -1 8 10 34 24 59 15 25 37 71 49 102 12 33 26 55 32
51 6 -3 7 -1 3 6 -4 6 0 37 10 69 10 31 18 62 20 67 20 85 28 113 36 128 5 10
7 21 4 25 -2 4 2 34 10 67 7 33 17 80 20 105 3 25 10 50 15 56 5 6 6 13 3 17
-3 3 -1 29 5 59 6 29 13 69 16 88 3 19 8 46 10 60 3 14 7 43 10 65 2 22 7 57
11 78 8 52 10 68 25 184 7 56 16 100 21 97 4 -3 5 2 2 10 -4 9 2 16 18 19 13
2 25 5 28 5 3 1 12 -4 21 -11z m-2928 -4 c-7 -2 -21 -2 -30 0 -10 3 -4 5 12 5
17 0 24 -2 18 -5z m1314 -84 c-16 -27 -34 -49 -38 -49 -5 0 -9 20 -9 44 0 24
-3 51 -6 59 -4 12 2 13 39 4 l44 -10 -30 -48z m190 10 l-12 -47 -50 44 -49 44
34 1 c19 1 46 4 60 8 31 9 32 6 17 -50z m815 31 c-12 -10 -18 -20 -15 -24 4
-3 1 -6 -5 -6 -7 0 -12 -7 -12 -15 0 -8 -4 -15 -8 -15 -5 0 -25 -16 -45 -37
-20 -20 -40 -33 -44 -29 -10 10 -13 37 -3 31 13 -8 60 17 53 28 -3 6 -1 7 5 3
9 -5 26 9 27 24 0 9 30 47 40 51 6 2 9 8 7 12 -1 5 3 5 9 1 9 -5 6 -12 -9 -24z
m-687 -17 l38 -37 -32 -13 c-18 -8 -52 -16 -76 -20 l-43 -6 7 34 c20 88 48 99
106 42z m624 15 c-11 -21 -11 -22 4 -9 17 13 25 2 10 -13 -5 -4 -8 -12 -8 -17
0 -5 -3 -8 -7 -6 -3 1 -17 -8 -31 -21 -20 -19 -26 -20 -36 -9 -9 11 -8 17 2
26 8 6 17 8 20 4 4 -3 7 -2 7 4 0 11 38 63 46 63 3 0 -1 -10 -7 -22z m-821
-63 l37 -34 -77 -1 c-43 0 -78 4 -78 9 0 18 42 61 61 61 11 0 36 -16 57 -35z
m-1162 -2 c-10 -10 -19 5 -10 18 6 11 8 11 12 0 2 -7 1 -15 -2 -18z m2496 -9
c-9 -16 -10 -14 -9 8 1 15 6 23 11 18 4 -4 4 -16 -2 -26z m-415 -16 c-3 -8 -6
-5 -6 6 -1 11 2 17 5 13 3 -3 4 -12 1 -19z m-2060 -25 c-3 -10 -5 -4 -5 12 0
17 2 24 5 18 2 -7 2 -21 0 -30z m1603 -9 c0 -2 -9 -4 -21 -4 -11 0 -18 4 -14
10 5 8 35 3 35 -6z m416 -115 c-3 -73 -9 -149 -12 -169 l-6 -37 -102 -32
c-138 -42 -224 -54 -294 -41 -30 5 -57 12 -60 14 -2 3 -1 52 3 110 7 104 8
106 32 106 14 0 71 9 126 21 119 24 227 72 276 123 19 20 37 36 40 36 2 0 1
-59 -3 -131z m-1146 85 c0 -9 5 -12 12 -8 7 5 8 3 3 -6 -6 -10 -11 -9 -22 5
-15 22 -17 39 -3 30 6 -3 10 -13 10 -21z m595 16 c-3 -5 -12 -10 -18 -10 -7 0
-6 4 3 10 19 12 23 12 15 0z m-515 -64 c0 4 6 2 13 -4 7 -6 30 -7 62 -2 28 5
61 9 75 9 24 -1 24 -1 -4 -9 -58 -18 -136 -23 -151 -10 -12 10 -18 10 -30 0
-12 -10 -15 -10 -15 4 0 9 -5 16 -11 16 -5 0 -7 4 -4 10 4 6 17 4 36 -5 16 -9
29 -13 29 -9z m-870 4 c0 -5 -5 -10 -11 -10 -5 0 -7 5 -4 10 3 6 8 10 11 10 2
0 4 -4 4 -10z m967 4 c-3 -3 -12 -4 -19 -1 -8 3 -5 6 6 6 11 1 17 -2 13 -5z
m220 -9 c5 -4 3 -6 -2 -2 -6 3 -21 -1 -35 -8 -23 -13 -21 -14 30 -11 30 2 44
2 31 -1 -19 -4 -21 -7 -10 -14 11 -7 11 -9 -3 -9 -10 0 -18 3 -18 8 0 8 -42
11 -150 11 l-35 0 30 -14 c39 -17 32 -17 -30 0 -44 12 -47 14 -20 16 58 5 70
7 115 14 35 7 40 10 25 16 -14 6 -6 7 22 5 24 -1 46 -6 50 -11z m183 -10 l45
-15 -40 6 c-22 3 -44 10 -49 15 -13 12 -9 11 44 -6z m133 -2 c-7 -2 -19 -2
-25 0 -7 3 -2 5 12 5 14 0 19 -2 13 -5z m-643 -13 c0 -5 -4 -10 -10 -10 -5 0
-10 5 -10 10 0 6 5 10 10 10 6 0 10 -4 10 -10z m435 0 c3 -5 -1 -10 -10 -10
-9 0 -13 5 -10 10 3 6 8 10 10 10 2 0 7 -4 10 -10z m-366 -14 c-2 -2 -17 -6
-34 -10 -22 -5 -26 -4 -15 4 14 9 59 15 49 6z m54 -13 c-7 -2 -19 -2 -25 0 -7
3 -2 5 12 5 14 0 19 -2 13 -5z m130 0 c-7 -2 -21 -2 -30 0 -10 3 -4 5 12 5 17
0 24 -2 18 -5z m-2598 -43 c-3 -5 -12 -10 -18 -10 -7 0 -6 4 3 10 19 12 23 12
15 0z m1533 -15 c-3 -3 -9 2 -12 12 -6 14 -5 15 5 6 7 -7 10 -15 7 -18z
m-3555 8 c-13 -2 -33 -2 -45 0 -13 2 -3 4 22 4 25 0 35 -2 23 -4z m1970 0 c-7
-2 -19 -2 -25 0 -7 3 -2 5 12 5 14 0 19 -2 13 -5z m2931 1 c24 -9 19 -34 -6
-35 -15 -1 -17 -3 -7 -6 13 -3 17 -20 18 -91 l2 -86 -56 62 c-31 34 -72 78
-91 97 -19 20 -34 37 -34 39 0 3 6 4 90 15 36 4 66 9 67 9 1 1 8 -1 17 -4z
m603 -51 c-3 -10 -5 -2 -5 17 0 19 2 27 5 18 2 -10 2 -26 0 -35z m1106 26 c64
-23 221 -31 278 -16 l26 7 8 -82 c4 -45 18 -125 31 -177 13 -51 21 -98 18
-102 -13 -21 -86 -48 -156 -58 -53 -7 -102 -7 -158 0 -44 5 -86 7 -92 3 -18
-12 13 -22 102 -34 104 -13 197 -2 274 33 l55 25 16 -41 c40 -100 140 -250
234 -349 22 -24 30 -38 21 -38 -34 0 -92 -23 -139 -55 -28 -18 -51 -30 -51
-26 0 4 -16 26 -36 49 -33 40 -35 44 -30 99 4 35 1 72 -7 93 -13 38 -55 65
-86 55 -20 -6 -41 -45 -41 -75 0 -21 -15 -27 -25 -10 -13 21 -85 50 -123 50
-24 0 -49 -8 -65 -20 l-26 -21 -17 38 c-52 121 -80 238 -94 382 -11 117 -4
291 12 291 5 0 37 -10 71 -21z m2011 -8 c9 -15 -34 -132 -65 -178 -25 -35 -56
-63 -71 -63 -2 0 -3 48 -3 108 l0 107 35 17 c37 19 95 24 104 9z m-2764 -21
c0 -5 -4 -10 -10 -10 -5 0 -10 5 -10 10 0 6 5 10 10 10 6 0 10 -4 10 -10z
m-46 -32 c3 -13 5 -39 5 -58 l-1 -35 -8 35 c-5 19 -11 45 -15 58 -4 13 -3 22
3 22 5 0 12 -10 16 -22z m36 0 c0 -13 -23 -5 -28 10 -2 7 2 10 12 6 9 -3 16
-11 16 -16z m-330 1 c0 -6 -7 -9 -15 -5 -9 3 -15 0 -15 -9 0 -8 5 -15 10 -15
6 0 10 -7 10 -15 0 -8 5 -15 10 -15 6 0 10 -8 10 -17 -1 -16 -2 -16 -15 2 -8
11 -21 27 -30 36 -9 9 -13 23 -9 33 7 18 44 22 44 5z m330 -39 c0 -5 -4 -10
-10 -10 -5 0 -10 5 -10 10 0 6 5 10 10 10 6 0 10 -4 10 -10z m-362 -41 c-3 -8
-7 -3 -11 10 -4 17 -3 21 5 13 5 -5 8 -16 6 -23z m-73 -66 c-11 -76 -51 -225
-77 -289 -24 -59 -87 -164 -99 -164 -3 0 -17 9 -30 21 -36 32 -70 47 -156 69
-169 46 -185 51 -179 63 43 99 66 166 76 226 12 66 15 72 34 66 12 -4 62 -9
111 -12 97 -5 184 10 265 46 25 11 49 20 54 20 4 1 5 -20 1 -46z m-450 -372
c98 -27 192 -65 224 -92 23 -19 23 -20 5 -41 -31 -34 -114 -92 -189 -131 -88
-46 -361 -177 -369 -177 -3 0 -6 9 -6 19 0 39 -39 107 -84 149 -26 24 -46 45
-44 46 2 1 35 20 73 40 102 56 188 120 236 176 32 38 45 47 58 41 9 -5 52 -18
96 -30z m375 -30 c0 -5 -9 -19 -20 -32 l-20 -24 17 32 c19 34 23 39 23 24z
m1610 -150 c-11 -59 -17 -60 -26 -6 -4 30 -2 56 6 73 l13 27 7 -26 c4 -15 4
-46 0 -68z m-1226 60 c3 -5 -1 -11 -9 -14 -9 -4 -12 -1 -8 9 6 16 10 17 17 5z
m1066 -27 c14 -10 42 -33 62 -52 l37 -35 -77 -38 c-86 -44 -121 -48 -147 -19
-22 24 -16 75 15 125 17 28 28 35 54 35 17 0 43 -7 56 -16z m-1077 -24 c-3
-12 -8 -19 -11 -16 -5 6 5 36 12 36 2 0 2 -9 -1 -20z m-507 -26 c-17 -12 -17
-14 -4 -14 9 0 20 -5 24 -11 4 -8 -1 -9 -17 -4 -21 7 -22 6 -10 -9 7 -9 10
-16 6 -16 -4 0 -14 8 -21 18 -9 11 -13 12 -14 4 0 -7 -10 -17 -22 -22 -20 -9
-18 -9 9 -4 17 3 34 1 38 -5 3 -6 11 -11 16 -11 6 0 8 4 4 9 -3 5 -1 12 5 16
9 5 15 -15 11 -37 0 -5 3 -8 9 -8 5 0 7 -6 4 -14 -3 -8 -1 -17 5 -20 6 -4 8
-13 4 -21 -4 -11 -1 -13 11 -9 12 5 15 2 10 -10 -3 -9 -2 -16 4 -16 6 0 13 6
15 13 4 9 6 9 6 0 1 -6 -3 -14 -9 -18 -5 -3 -8 -11 -6 -18 1 -7 1 -9 -1 -4 -3
4 -9 7 -14 7 -13 0 -11 -34 4 -50 10 -12 9 -12 -6 0 -11 8 -17 22 -14 36 2 12
-3 30 -11 40 -13 18 -14 17 -8 -9 l7 -28 -30 27 c-17 15 -28 30 -26 34 3 4
-10 15 -28 24 -17 8 -27 16 -21 16 19 0 79 -33 66 -38 -14 -4 -6 -22 9 -22 6
0 7 5 4 10 -3 6 0 10 7 10 7 0 0 10 -15 21 -22 17 -25 24 -16 35 8 10 8 14 0
14 -6 0 -11 -4 -11 -9 0 -14 -67 -18 -97 -6 -23 10 -25 12 -10 18 11 4 16 3
12 -3 -3 -6 -1 -10 5 -10 7 0 14 9 17 20 3 11 16 23 29 26 13 3 22 9 20 13 -3
4 9 16 25 26 16 11 29 24 29 29 0 5 3 6 7 2 5 -4 -1 -14 -11 -22z m2924 -40
c0 -33 -44 -70 -107 -88 -183 -54 -229 -81 -263 -151 -45 -93 -33 -252 24
-316 47 -54 70 -62 195 -69 135 -8 166 -21 203 -84 20 -35 23 -55 23 -136 0
-80 -4 -103 -24 -144 -31 -62 -82 -112 -187 -183 -45 -30 -102 -74 -126 -97
-66 -63 -145 -190 -175 -281 -23 -69 -27 -97 -27 -210 -1 -207 50 -345 175
-477 l68 -72 -32 -28 c-18 -15 -38 -25 -45 -23 -7 3 -11 1 -7 -4 3 -5 -9 -20
-27 -32 -32 -22 -188 -151 -238 -196 -14 -13 -28 -23 -32 -23 -14 0 -109 146
-152 234 -97 197 -130 349 -130 591 1 142 5 186 24 265 47 194 126 344 245
465 90 93 167 146 273 193 69 31 74 31 102 17 17 -9 30 -19 30 -23 0 -16 48
-11 55 6 5 12 -4 26 -30 49 -35 30 -36 32 -13 35 17 2 23 9 23 28 0 24 -2 25
-82 27 -170 3 -272 87 -304 251 -21 112 9 240 73 309 21 22 137 83 158 83 6 0
51 9 99 21 100 24 182 64 196 97 9 21 11 21 22 5 7 -9 13 -27 13 -39z m-3627
-45 c34 -28 72 -89 97 -154 8 -22 4 -28 -48 -62 -72 -47 -185 -139 -236 -192
l-39 -40 -22 48 c-38 82 -132 170 -198 187 -15 3 -27 9 -27 14 0 11 403 226
430 229 3 1 22 -13 43 -30z m896 12 c10 -7 7 -9 -12 -8 -14 1 -23 5 -20 10 6
9 15 9 32 -2z m1947 -36 c63 -45 166 -114 178 -118 4 -1 0 -35 -9 -75 -12 -50
-16 -96 -13 -152 l5 -81 -46 -24 c-71 -36 -127 -80 -169 -134 l-39 -49 -43 60
-42 60 16 50 c32 99 19 169 -49 272 -57 86 -58 114 -7 156 29 24 128 66 163
69 4 1 29 -15 55 -34z m-2352 -31 c-11 -17 -24 -24 -36 -21 -10 3 -18 1 -18
-5 0 -5 -5 -6 -11 -2 -17 10 9 23 35 16 11 -3 18 -1 14 3 -4 4 0 14 10 21 24
19 25 17 6 -12z m1985 10 c22 -16 51 -70 51 -97 0 -7 -17 -19 -37 -26 -121
-43 -301 -153 -404 -249 -45 -41 -58 -49 -63 -36 -31 81 52 208 212 324 131
95 194 117 241 84z m-1659 2 c0 -3 -4 -8 -10 -11 -5 -3 -10 -1 -10 4 0 6 5 11
10 11 6 0 10 -2 10 -4z m3780 -67 c0 -10 9 -42 19 -71 40 -110 56 -234 56
-418 0 -145 -4 -193 -24 -279 -45 -203 -123 -374 -249 -543 -83 -112 -252
-286 -375 -387 l-78 -63 8 53 c14 97 7 287 -16 395 -28 135 -82 290 -137 393
-41 76 -44 86 -34 115 17 47 22 126 12 171 -9 41 -9 41 22 41 323 8 496 18
523 29 24 10 33 11 37 2 3 -7 3 -2 1 10 -3 12 -2 24 2 26 5 3 5 50 2 104 -4
54 -8 156 -10 226 l-4 129 39 19 c31 15 42 16 49 7 6 -10 8 -9 4 3 -6 18 28
43 46 33 7 -4 9 -4 5 1 -4 4 11 23 34 41 l41 35 13 -27 c8 -14 14 -35 14 -45z
m-4193 17 c-3 -8 1 -17 9 -20 8 -3 13 -2 10 3 -3 5 6 9 20 9 l26 0 -29 -19
c-15 -10 -22 -19 -15 -19 6 0 12 -5 12 -11 0 -5 -4 -8 -8 -5 -5 3 -13 -13 -19
-34 -5 -22 -6 -37 -2 -34 5 3 9 -6 9 -19 0 -13 9 -36 21 -51 20 -25 20 -26 1
-26 -11 0 -26 -8 -33 -17 -13 -15 -12 -16 6 -8 11 5 34 9 52 9 18 0 30 3 27 8
-3 4 0 8 5 8 18 0 13 -20 -6 -27 -15 -6 -14 -8 7 -14 24 -7 23 -7 -5 -6 -34 1
-72 -17 -98 -46 -17 -20 -17 -20 -15 3 2 13 -3 25 -12 27 -10 3 -11 2 -3 -4 7
-5 9 -14 3 -22 -4 -8 -6 -21 -3 -29 5 -12 3 -12 -16 -1 -11 8 -21 24 -21 36 0
12 -4 25 -10 28 -14 9 -12 -17 4 -55 14 -35 10 -83 -5 -58 -5 7 -9 26 -9 42 0
18 -10 38 -25 52 -29 27 -31 34 -9 34 18 0 49 28 41 37 -4 3 -19 -3 -34 -13
-36 -25 -160 -29 -160 -6 0 8 8 17 18 19 32 9 11 93 -23 93 -16 0 -8 -19 12
-25 24 -8 26 -21 4 -29 -8 -3 -12 -2 -9 4 7 12 3 12 -19 4 -13 -5 -14 -9 -5
-20 9 -11 8 -14 -7 -14 -17 0 -17 -1 2 -15 17 -13 17 -14 2 -15 -10 0 -18 -4
-18 -9 0 -5 8 -11 18 -13 14 -3 13 -7 -10 -28 -21 -18 -28 -33 -28 -60 0 -33
5 -41 41 -64 22 -15 47 -25 55 -22 15 6 18 -3 8 -27 -3 -9 -13 -13 -24 -10
-10 3 -29 -2 -42 -11 -12 -9 -19 -16 -15 -16 13 0 22 -2 45 -11 18 -7 24 -5
31 14 5 12 18 31 30 41 21 19 21 19 21 -2 0 -12 -13 -31 -30 -44 -29 -21 -43
-46 -17 -32 6 4 3 -2 -8 -13 -14 -14 -24 -17 -32 -11 -7 5 -17 7 -23 3 -5 -3
-10 -2 -10 4 0 17 20 23 36 10 12 -10 13 -9 8 5 -3 9 -17 16 -29 16 -19 0 -23
-5 -20 -25 1 -14 -2 -28 -6 -31 -5 -3 -9 -12 -9 -20 0 -8 5 -12 10 -9 6 4 7
11 4 17 -5 7 -2 8 6 3 9 -5 11 -4 6 3 -8 13 6 17 17 6 7 -7 -30 -44 -45 -44
-4 0 -7 -6 -6 -12 2 -8 -5 -12 -16 -10 -10 2 -16 0 -13 -5 2 -4 0 -19 -5 -33
-9 -24 -10 -24 -24 -6 -13 19 -14 19 -14 -7 0 -16 -5 -27 -14 -27 -21 0 -26
-38 -8 -57 16 -16 16 -16 0 -10 -12 4 -18 2 -18 -8 0 -8 4 -15 9 -15 5 0 7 -9
4 -20 -3 -11 -14 -20 -24 -20 -10 0 -18 -7 -17 -17 0 -37 -29 -157 -34 -143
-5 12 -7 12 -7 -2 -1 -9 3 -18 8 -20 5 -1 13 -16 17 -32 10 -43 -10 -24 -26
23 -14 44 -40 56 -39 19 0 -22 1 -22 9 -3 8 18 9 17 9 -7 1 -15 -3 -30 -9 -33
-5 -3 -10 -11 -10 -16 0 -6 5 -7 10 -4 7 4 9 -3 5 -22 -5 -21 -4 -24 4 -13 8
11 11 12 11 2 0 -24 -21 -52 -39 -52 -16 0 -51 -28 -76 -62 -50 -66 -46 -219
7 -256 18 -13 26 -38 8 -27 -5 3 -10 1 -10 -5 0 -7 8 -9 19 -5 10 3 23 -1 30
-9 10 -12 8 -13 -10 -9 -15 4 -20 3 -15 -5 4 -7 14 -12 22 -12 23 0 28 -28 9
-46 -13 -13 -15 -27 -11 -55 4 -27 2 -42 -9 -53 -20 -20 -20 -86 0 -86 10 0
15 -10 15 -30 0 -21 -5 -30 -16 -30 -11 0 -14 -5 -9 -17 3 -10 9 -35 11 -57 3
-21 12 -45 20 -53 7 -8 14 -32 14 -54 0 -21 5 -39 10 -39 6 0 10 -6 10 -14 0
-8 4 -17 9 -21 6 -3 6 7 0 27 -5 18 -9 40 -8 48 1 8 7 -5 13 -30 14 -48 11
-64 -8 -57 -7 3 -11 -12 -10 -47 1 -72 1 -72 32 -40 l28 29 23 -34 c12 -19 16
-29 7 -22 -19 16 -55 6 -39 -10 5 -5 19 -11 30 -12 13 0 19 -6 16 -14 -3 -7
-8 -11 -12 -9 -3 2 -7 -14 -8 -37 -2 -22 -8 -44 -15 -48 -8 -5 -7 -14 6 -34
12 -17 16 -36 12 -53 -5 -18 -4 -22 3 -13 5 7 14 10 20 7 17 -11 13 -26 -6
-26 -14 0 -14 -3 -5 -12 10 -10 14 -10 21 0 6 10 15 9 42 -5 19 -10 36 -21 39
-24 10 -12 112 -29 178 -29 47 0 63 -3 52 -10 -11 -7 -7 -10 18 -10 20 0 31 4
27 10 -4 6 -11 8 -16 5 -5 -4 -9 -2 -9 4 0 6 17 13 38 17 20 4 40 12 44 18 4
6 28 10 53 9 25 -1 45 3 45 8 0 6 -9 7 -20 4 -28 -9 -25 2 10 32 17 13 28 28
26 31 -2 4 19 7 47 6 29 0 55 4 59 9 4 7 12 6 22 -2 13 -11 16 -11 16 -1 0 9
13 11 46 7 29 -3 41 -1 33 4 -8 5 -24 9 -37 9 -13 0 -21 4 -18 9 4 5 0 12 -6
14 -9 4 -8 6 2 6 8 1 26 10 40 21 29 22 45 26 34 8 -5 -9 -3 -9 9 1 9 7 15 17
12 21 -3 5 3 7 12 5 10 -2 22 -4 26 -4 12 -1 -2 -21 -14 -21 -6 0 -7 5 -3 12
5 7 3 8 -5 3 -17 -10 1 -27 21 -20 9 4 16 17 16 30 0 17 -5 22 -16 18 -9 -4
-6 4 9 20 22 27 36 36 24 18 -3 -5 -1 -12 5 -16 9 -6 14 14 11 43 -1 6 3 12 9
12 6 0 9 3 6 8 -2 4 2 18 10 32 7 14 13 19 14 11 0 -11 3 -11 15 -1 8 7 15 17
15 22 0 6 -7 8 -15 4 -16 -6 -17 -1 -6 28 6 16 9 16 22 5 8 -8 24 -22 36 -32
l21 -18 -1 95 c0 52 -4 93 -9 90 -4 -3 -8 -17 -8 -32 l0 -27 -13 25 c-11 20
-11 27 0 38 7 7 13 33 13 57 0 24 5 47 10 50 17 10 11 33 -7 31 -12 -1 -17 5
-15 16 2 11 -4 18 -15 19 -15 1 -15 2 -2 6 18 4 15 48 -4 60 -6 4 -7 -4 -3
-21 5 -19 3 -26 -4 -21 -8 5 -9 20 -5 42 3 18 3 54 -1 79 -5 39 -8 43 -22 32
-13 -11 -14 -10 -4 9 9 17 9 22 -3 26 -10 4 -12 1 -8 -10 4 -11 3 -14 -6 -9
-7 5 -9 16 -5 28 4 14 2 18 -5 14 -6 -4 -10 -4 -9 1 1 4 -10 27 -25 50 -15 24
-24 49 -21 58 4 9 3 15 -2 13 -14 -5 -17 5 -10 30 4 12 14 22 21 22 9 0 12 6
9 15 -4 8 -10 15 -15 15 -5 0 -9 -7 -9 -15 0 -8 -5 -15 -11 -15 -5 0 -8 -4 -4
-9 3 -5 0 -13 -6 -17 -8 -4 -9 -3 -5 4 4 7 -4 23 -18 37 -27 27 -32 36 -18 34
26 -4 52 2 46 12 -3 6 -17 9 -29 6 -22 -4 -23 -1 -20 45 2 26 0 48 -5 48 -5 0
-6 -8 -3 -17 6 -16 5 -17 -12 -3 -10 8 -28 15 -39 15 -16 0 -21 6 -21 25 0 14
4 28 10 32 6 5 6 8 -2 8 -7 0 -13 9 -13 21 0 11 -4 18 -10 14 -5 -3 -7 -12 -4
-19 3 -7 -7 -21 -22 -31 -14 -9 -23 -12 -20 -6 4 6 1 11 -6 11 -8 0 -9 3 -3 8
17 12 18 133 1 174 -9 20 -13 44 -10 53 4 8 1 21 -5 29 -6 7 -8 15 -5 18 3 3
1 9 -5 13 -14 8 -14 -18 0 -32 6 -6 9 -17 7 -24 -3 -8 -12 0 -23 19 -11 17
-32 36 -47 41 -15 6 -28 13 -28 16 0 3 4 4 9 0 5 -3 12 -1 16 5 4 6 -6 10 -24
10 -17 0 -31 -4 -31 -10 0 -5 -8 -10 -18 -10 -28 0 -72 -23 -72 -38 0 -7 -5
-10 -11 -7 -13 9 18 45 40 46 9 1 5 4 -8 8 -27 7 -44 50 -37 91 5 22 3 21 -9
-5 l-14 -30 2 32 c1 17 5 29 8 27 11 -7 32 25 26 40 -3 8 4 22 15 33 21 18 21
18 9 -4 -14 -27 -14 -33 -1 -33 6 0 10 6 10 14 0 8 5 18 11 22 8 5 10 -1 5
-19 -4 -16 -2 -27 7 -30 7 -2 8 -8 3 -13 -5 -5 -10 -4 -13 2 -2 7 -13 10 -23
7 -31 -8 -24 -18 15 -20 l34 -3 -4 48 c-3 26 -1 42 3 35 6 -10 70 -12 97 -3
16 5 115 -41 109 -51 -3 -5 -10 -9 -15 -9 -6 0 -7 5 -3 12 4 7 3 8 -4 4 -7 -4
-12 -3 -12 1 0 11 -69 37 -76 30 -3 -3 11 -11 32 -19 l37 -13 -34 -7 -34 -6
35 1 c19 1 41 -2 48 -7 7 -4 19 -5 27 -2 8 3 14 2 12 -2 -2 -8 7 -12 26 -12 8
0 7 4 -3 10 -8 5 -10 10 -5 10 6 0 24 -9 40 -21 28 -19 28 -20 5 -14 -24 6
-25 6 -5 -10 11 -9 29 -14 40 -11 11 3 26 1 34 -3 8 -6 -2 -9 -29 -9 -23 -1
-45 -4 -49 -7 -3 -4 8 -6 24 -5 52 4 76 0 71 -9 -7 -11 52 -33 66 -25 5 3 16
0 24 -7 14 -12 14 -14 -2 -26 -10 -7 -16 -13 -13 -13 2 0 19 -4 36 -9 22 -7
35 -6 39 1 4 7 2 8 -4 4 -7 -4 -12 -3 -12 2 0 6 -10 8 -22 5 -20 -4 -21 -3 -6
7 13 8 24 7 45 -4 16 -8 22 -15 16 -16 -18 0 -16 -20 1 -20 16 0 30 -26 28
-55 -1 -14 0 -16 5 -5 3 8 12 19 20 23 7 5 11 12 8 18 -3 5 1 6 11 2 14 -5 14
-8 -6 -23 l-23 -17 30 -10 c24 -9 30 -8 30 3 0 9 -7 13 -21 9 -21 -5 -21 -5 0
6 18 9 32 4 92 -38 39 -26 67 -49 62 -51 -19 -7 -10 -29 17 -41 20 -9 29 -9
37 0 7 7 7 10 1 6 -6 -3 -17 4 -24 15 -12 19 -12 20 9 5 12 -8 28 -25 36 -36
9 -12 21 -21 28 -21 15 0 40 -27 49 -51 7 -21 -8 -43 -23 -34 -9 6 -10 9 0 15
9 5 9 9 1 14 -6 4 -11 2 -11 -3 0 -6 -4 -11 -9 -11 -5 0 -7 13 -5 30 4 24 2
29 -10 24 -9 -3 -13 -11 -9 -17 4 -6 0 -8 -10 -4 -9 3 -19 1 -23 -5 -4 -6 -3
-8 4 -4 6 3 13 2 17 -4 3 -5 -1 -10 -11 -10 -13 0 -14 -3 -4 -15 8 -10 21 -13
38 -8 16 4 23 2 19 -4 -6 -9 9 -10 46 -4 5 0 5 6 2 11 -3 6 0 10 7 10 10 0 9
3 -2 11 -12 8 -12 10 -1 7 8 -2 16 -13 17 -24 1 -10 5 -29 9 -41 5 -15 1 -27
-14 -39 -12 -10 -21 -26 -21 -35 0 -22 37 -32 44 -12 10 24 7 35 -6 27 -7 -4
-10 -4 -6 1 4 4 22 9 40 10 18 0 40 3 48 6 15 4 15 0 3 -42 -2 -8 5 -26 16
-40 18 -20 20 -21 14 -4 -6 18 -5 18 10 6 9 -7 17 -9 17 -3 0 5 -6 15 -14 21
-11 9 -15 9 -19 -1 -3 -9 -7 -8 -12 5 -5 11 -3 23 4 30 9 9 11 8 5 -7 -5 -12
-4 -17 3 -13 15 9 45 -27 38 -46 -4 -8 -2 -18 4 -21 6 -4 7 -14 4 -24 -5 -15
-4 -15 8 -2 8 8 13 14 12 11 -1 -2 5 -10 13 -19 9 -8 12 -18 7 -21 -13 -10
-15 -68 -3 -76 9 -6 10 1 5 24 -4 19 -3 31 4 31 6 0 7 -7 4 -17 -4 -10 -2 -14
4 -10 7 5 9 0 6 -14 -3 -11 -12 -23 -19 -26 -8 -3 -14 -13 -14 -22 0 -14 2
-14 11 -1 8 12 10 9 6 -13 -3 -18 0 -30 9 -34 8 -3 14 -11 14 -18 0 -8 5 -17
12 -21 8 -5 9 -2 5 9 -3 9 -2 19 3 22 4 3 10 -25 12 -61 3 -61 -5 -92 -15 -62
-2 7 -1 2 2 -12 8 -32 8 -171 0 -280 -4 -47 -3 -62 1 -35 l7 50 1 -57 c1 -31
-2 -59 -7 -62 -5 -3 -9 -22 -9 -42 0 -32 1 -33 14 -17 13 17 13 17 14 -5 0
-15 -7 -26 -17 -28 -14 -4 -19 -17 -20 -54 -1 -27 2 -52 7 -55 6 -3 10 -12 10
-18 0 -7 -4 -6 -10 3 -8 13 -11 13 -22 1 -10 -10 -10 -12 0 -7 8 5 12 -2 12
-23 0 -24 -5 -32 -25 -37 -14 -3 -25 -10 -25 -16 0 -5 5 -6 10 -3 7 4 9 -14 7
-54 -2 -34 1 -61 5 -61 5 0 6 -5 2 -11 -5 -8 -9 -8 -14 1 -5 9 -9 9 -14 1 -4
-6 -4 -15 -1 -21 3 -5 1 -10 -5 -10 -6 0 -8 -12 -5 -30 5 -27 2 -31 -24 -36
-21 -4 -28 -11 -24 -21 5 -12 7 -12 14 -1 10 16 12 6 3 -17 -6 -14 -10 -13
-28 10 l-22 27 1 -25 c0 -14 4 -29 8 -33 4 -5 5 0 1 10 -5 14 -4 17 5 12 6 -4
11 -15 9 -24 -1 -10 1 -23 6 -30 5 -8 3 -18 -4 -25 -10 -9 -11 -9 -6 0 3 6 2
14 -3 17 -5 4 -8 -5 -7 -19 2 -14 -6 -38 -18 -54 -29 -38 -126 -136 -126 -127
0 5 -9 -2 -21 -15 -11 -13 -17 -18 -13 -10 6 11 1 13 -27 6 -19 -4 -42 -7 -52
-7 -9 1 -15 -3 -12 -8 3 -5 20 -7 38 -6 17 2 21 1 8 -1 -17 -3 -20 -7 -12 -12
9 -6 8 -10 -5 -15 -10 -4 -15 -4 -11 0 4 4 -11 16 -34 27 -22 10 -43 16 -47
13 -3 -3 1 -6 9 -6 12 0 11 -2 -1 -10 -11 -8 -7 -9 15 -5 29 5 29 5 5 -5 -20
-9 -27 -8 -37 6 -15 20 -13 21 -36 -28 -16 -36 -16 -38 1 -39 14 0 14 -2 -3
-8 -11 -5 -21 -5 -23 -1 -2 4 -12 6 -22 3 -12 -3 -20 0 -20 8 0 8 -7 6 -19 -7
-12 -13 -15 -21 -7 -26 7 -5 4 -8 -6 -8 -34 0 -18 26 46 78 18 15 20 9 6 -19
-12 -20 -10 -22 14 -13 8 3 12 12 9 20 -3 8 -1 20 5 27 5 6 8 22 6 35 -3 14 0
21 6 17 5 -3 10 -2 10 4 0 5 -5 11 -11 13 -6 2 -13 32 -16 66 -5 48 -9 62 -22
61 -10 0 -12 -2 -3 -6 6 -2 12 -12 12 -20 0 -14 -2 -14 -17 -1 -31 27 -87 50
-138 58 l-50 8 43 1 c26 1 41 5 37 11 -8 13 -61 13 -87 -1 -22 -12 -40 -3 -19
10 10 7 9 10 -3 14 -13 5 -16 -1 -16 -33 0 -29 -4 -40 -15 -40 -11 0 -15 11
-15 40 0 22 -5 40 -11 40 -6 0 -9 -18 -8 -45 2 -36 -2 -50 -22 -71 -20 -22
-24 -35 -24 -87 0 -58 3 -64 37 -98 20 -20 51 -42 70 -49 65 -24 88 -29 88
-19 0 5 -11 9 -24 9 -14 0 -27 4 -30 8 -2 4 23 8 57 8 46 1 54 -1 32 -6 l-30
-8 30 -2 30 -2 -30 -10 c-34 -11 -94 -11 -110 0 -5 4 -23 9 -38 11 -26 2 -27
0 -22 -26 4 -15 3 -23 -2 -18 -11 13 -33 17 -33 6 0 -5 6 -12 13 -14 7 -3 5
-6 -5 -6 -10 -1 -18 4 -18 9 0 6 -9 10 -20 10 -11 0 -20 -5 -20 -11 0 -5 6 -7
13 -3 9 5 9 4 0 -6 -12 -13 -48 -6 -40 7 6 10 -61 15 -76 6 -19 -12 -113 -14
-141 -3 -16 6 -27 6 -31 0 -4 -6 -18 -11 -33 -11 -20 -1 -22 -2 -7 -6 11 -2
29 -8 40 -13 11 -5 27 -11 35 -13 8 -3 3 -6 -12 -6 -14 -1 -28 4 -30 9 -2 6
-29 12 -61 13 -38 1 -57 6 -57 15 0 8 9 11 28 7 21 -4 23 -4 7 3 -11 5 -31 8
-45 6 -14 -1 -29 -3 -33 -3 -5 -1 -5 -5 -2 -11 10 -16 -11 -11 -26 6 -7 8 -20
13 -30 11 -9 -3 -23 -1 -30 4 -8 4 -19 3 -26 -3 -11 -8 -12 -7 -7 7 10 26 -17
38 -39 17 -10 -9 -18 -12 -17 -7 2 6 2 19 1 30 -1 16 -3 17 -10 5 -6 -8 -7
-18 -4 -24 3 -5 1 -6 -6 -2 -6 4 -8 12 -5 18 5 7 1 9 -9 5 -9 -3 -19 -2 -22 4
-4 5 -3 9 2 8 4 -1 15 -1 23 0 11 1 11 4 2 13 -19 19 -14 30 11 23 15 -5 12 0
-11 14 -40 25 -43 26 -35 4 5 -15 3 -16 -8 -6 -7 7 -20 13 -28 13 -11 0 -10
-4 5 -14 10 -8 16 -18 12 -22 -11 -10 -38 15 -38 35 0 9 5 22 12 29 9 9 8 12
-5 12 -9 0 -17 6 -18 13 0 9 -2 9 -6 0 -6 -17 -23 -16 -23 1 0 7 -14 28 -31
45 -17 18 -28 39 -25 47 3 8 3 21 0 29 -5 11 -9 12 -19 2 -7 -7 -11 -16 -8
-21 3 -4 10 -2 15 5 7 10 8 8 3 -7 -7 -26 10 -75 25 -72 6 2 17 -13 25 -32 8
-20 9 -27 2 -16 -7 10 -22 28 -34 39 -13 11 -23 27 -23 34 0 7 -4 13 -10 13
-5 0 -7 7 -3 15 3 10 0 15 -8 13 -9 -2 -13 4 -11 16 2 12 -1 16 -9 10 -8 -4
-10 -3 -5 5 4 6 11 9 16 6 5 -3 11 -1 14 4 4 5 -5 8 -19 6 -25 -2 -29 4 -26
37 2 13 -2 16 -15 11 -12 -4 -15 -3 -10 6 4 6 9 26 11 43 5 37 15 50 15 19 0
-24 27 -71 41 -71 13 0 11 37 -4 52 -7 7 -20 25 -30 41 -21 33 -30 34 -57 5
-18 -20 -20 -20 -14 -4 5 13 4 17 -4 12 -8 -5 -10 -2 -6 9 4 9 -1 21 -11 29
-15 11 -16 16 -5 37 12 21 11 22 -2 12 -12 -11 -14 -8 -10 17 2 17 8 33 13 36
5 3 9 11 9 17 0 7 -7 3 -15 -7 -11 -15 -15 -16 -15 -5 0 8 5 20 11 26 6 6 8
17 3 24 -5 9 -10 8 -16 -7 -5 -12 -6 -4 -2 21 13 78 13 154 2 161 -7 5 -9 0
-6 -14 4 -12 3 -22 -2 -22 -4 0 -11 -16 -14 -35 -4 -20 -11 -33 -16 -30 -5 3
-10 0 -13 -7 -2 -7 -2 -2 0 10 3 17 0 21 -8 16 -8 -4 -9 -3 -5 5 15 23 15 102
0 108 -8 3 -14 18 -14 34 0 16 -9 37 -22 49 -12 11 -18 23 -15 27 4 3 7 1 7
-5 0 -7 7 -12 15 -12 10 0 15 10 15 30 0 18 6 33 15 36 10 4 15 20 15 50 0 40
-2 44 -25 44 -22 0 -25 -4 -25 -35 0 -44 -12 -45 -28 -2 -15 41 -15 50 -2 42
6 -4 10 8 10 29 0 20 -5 36 -11 36 -5 0 -7 -4 -4 -10 3 -5 1 -10 -4 -10 -12 0
-15 36 -3 43 9 6 8 132 -2 172 -4 17 -4 25 1 18 13 -19 6 324 -8 349 -11 20
-10 21 2 11 12 -10 14 -5 13 30 0 23 2 61 6 84 7 43 -4 83 -13 47 -4 -16 -5
-15 -6 4 0 12 6 25 14 28 8 4 15 12 15 19 0 7 7 16 15 19 13 5 14 10 4 28 -7
13 -16 26 -21 29 -11 7 1 89 13 89 5 0 9 -4 9 -8 0 -5 7 -9 15 -9 8 0 15 6 15
14 0 7 -7 13 -15 13 -8 0 -15 2 -15 4 0 2 -3 13 -6 23 -5 15 -4 16 6 3 9 -12
11 -10 6 11 -7 31 10 98 31 121 9 10 12 25 8 37 -3 12 -2 21 3 21 5 0 12 9 15
21 3 12 10 18 16 14 7 -3 8 0 5 9 -3 9 -11 13 -17 9 -5 -3 -8 -2 -5 3 3 5 8
17 12 28 6 18 7 18 26 1 16 -14 20 -15 21 -4 1 37 7 77 14 98 5 17 4 21 -5 16
-7 -4 -5 6 5 24 9 19 20 29 27 25 7 -5 9 0 6 14 -4 12 -1 25 4 29 6 3 8 1 4
-5 -3 -5 -3 -12 2 -14 4 -1 2 -19 -5 -38 -7 -21 -12 -27 -12 -15 -1 14 -4 16
-12 8 -12 -12 -4 -33 11 -33 13 0 42 71 36 86 -3 8 1 11 10 7 7 -3 14 0 14 6
0 6 8 11 18 11 14 0 15 -2 2 -10 -9 -6 -10 -10 -3 -10 6 0 15 5 19 11 11 18
13 69 2 69 -5 0 -6 5 -2 12 5 7 11 5 21 -7 12 -17 13 -13 8 28 -2 28 0 49 7
53 7 5 8 3 3 -6 -6 -9 -4 -11 4 -6 7 5 10 14 7 21 -2 7 3 20 12 29 17 15 35
11 39 -9 1 -5 5 -18 8 -27 4 -11 3 -18 -5 -18 -6 0 -8 4 -5 10 4 6 -1 7 -12 3
-15 -6 -16 -4 -5 9 10 13 10 17 -1 21 -20 7 -14 -33 6 -48 9 -7 14 -15 10 -18
-9 -9 19 -8 33 1 6 4 15 18 19 32 7 22 6 23 -9 11 -15 -12 -18 -11 -15 5 0 3
-7 16 -15 30 -12 17 -13 23 -4 22 7 -2 12 3 10 10 -2 10 2 10 18 2 11 -6 24
-8 29 -5 5 3 11 -1 14 -7 2 -7 8 -9 13 -5 5 4 3 12 -5 16 -7 5 -13 12 -14 17
-1 5 -8 9 -15 10 -11 2 -11 0 0 -13 11 -14 11 -15 -2 -11 -26 8 -17 33 12 32
15 0 25 2 23 5 -3 2 1 11 8 20 10 14 10 14 -3 6 -9 -5 -7 -2 3 8 11 9 24 17
31 17 7 0 6 -4 -3 -9 -9 -6 -6 -8 12 -8 14 0 36 10 48 23 22 23 14 35 -8 13
-8 -8 -13 -7 -18 3 -5 7 -5 10 0 6 4 -4 21 4 38 18 35 30 112 70 102 54 -4 -6
-18 -15 -32 -21 -13 -5 -21 -13 -18 -19 4 -6 -1 -7 -12 -4 -15 5 -16 4 -3 -5
22 -16 33 -13 26 5 -5 13 -2 15 13 11 12 -3 22 1 25 10 3 8 9 12 14 10 4 -3
16 2 27 10 20 15 20 15 -2 10 -24 -5 -32 7 -10 16 6 3 29 13 50 22 26 10 36
12 31 4 -5 -9 -2 -10 9 -6 9 3 18 1 21 -6 2 -7 5 -5 5 5 1 9 -5 19 -11 21 -10
4 -10 6 -1 6 6 1 15 -3 18 -9 3 -5 11 -10 17 -10 7 0 6 5 -1 14 -9 11 -9 16 0
22 8 4 9 3 5 -4 -4 -7 -2 -12 4 -12 6 0 13 7 16 15 4 8 8 15 11 15 3 0 3 -6 0
-14z m467 -18 c0 -13 7 -23 15 -23 8 0 16 -7 18 -15 4 -13 3 -13 -7 0 -8 12
-9 6 -4 -22 3 -21 2 -38 -2 -39 -5 0 -16 -2 -25 -4 -12 -2 -16 4 -16 19 1 11
-2 34 -6 49 -6 20 -4 27 3 22 6 -4 11 -1 9 6 -3 24 1 43 7 36 4 -4 7 -17 8
-29z m-291 5 c-10 -8 -24 -21 -32 -31 -13 -16 -13 -16 -8 1 4 10 1 17 -5 17
-7 0 -4 6 6 13 9 7 26 13 37 13 19 0 19 -1 2 -13z m3227 -23 c27 -53 52 -66
92 -46 28 15 36 14 92 -3 34 -10 93 -22 133 -26 l71 -7 7 -116 c3 -65 7 -133
8 -152 l2 -35 -265 -14 c-240 -12 -269 -12 -310 3 -30 11 -78 16 -141 16 -83
0 -101 3 -130 23 -53 35 -71 79 -67 168 2 61 8 82 28 112 43 63 144 97 320
107 63 4 121 7 127 8 7 1 22 -16 33 -38z m-3211 3 c-15 -18 -16 -18 36 3 8 3
15 1 15 -4 0 -6 11 -23 26 -37 14 -14 22 -30 19 -36 -4 -6 0 -9 10 -7 10 2 20
-4 22 -12 4 -13 3 -13 -6 0 -9 12 -11 11 -11 -9 0 -19 4 -22 21 -18 12 3 18 3
15 0 -3 -4 3 -13 14 -20 11 -8 18 -19 15 -24 -3 -5 2 -18 13 -29 l19 -20 13
25 c7 13 16 23 19 20 10 -5 6 59 -4 76 -7 11 -6 12 7 2 8 -7 18 -10 21 -6 4 3
7 -2 8 -13 0 -18 1 -18 9 1 7 15 9 8 8 -27 -1 -27 3 -53 10 -60 9 -9 12 3 14
58 l2 69 3 -61 c2 -33 -1 -73 -7 -88 -10 -28 -11 -28 -28 -9 -9 11 -23 18 -31
15 -11 -4 -11 -6 0 -13 11 -7 11 -9 1 -9 -7 0 -10 -5 -7 -10 5 -8 12 -7 23 2
9 7 13 8 9 2 -4 -7 1 -18 10 -25 12 -10 14 -10 9 -1 -4 6 -2 12 3 12 16 0 13
-26 -4 -40 -8 -6 -20 -10 -27 -7 -8 3 -6 6 5 6 10 1 15 6 12 11 -7 12 -57 2
-67 -14 -8 -12 -50 22 -42 35 8 13 -10 11 -25 -3 -11 -11 -13 -10 -8 5 4 9 3
17 -1 17 -4 0 -13 14 -20 30 -8 17 -18 27 -24 24 -6 -4 -6 -10 1 -17 6 -6 11
-15 11 -21 0 -5 -6 -1 -14 9 -8 12 -11 26 -6 35 4 8 5 21 3 28 -3 6 0 12 6 12
6 0 11 5 11 10 0 18 -22 10 -27 -10 -8 -29 -18 -25 -42 18 l-21 37 25 -30 c26
-31 35 -23 11 10 -8 11 -12 25 -9 32 3 7 0 13 -6 13 -6 0 -11 -4 -11 -10 0 -5
-8 -9 -17 -8 -10 1 -29 0 -43 -1 -19 -1 -22 -3 -10 -10 8 -6 18 -7 23 -4 5 3
4 -5 -3 -17 -10 -18 -9 -24 1 -31 8 -5 10 -9 5 -9 -6 0 -5 -5 2 -12 9 -9 7
-15 -6 -25 -16 -14 -16 -14 0 -9 10 3 20 0 24 -7 4 -7 4 -9 -1 -5 -4 4 -14 3
-22 -3 -12 -11 -15 -7 -12 17 0 4 -5 11 -13 16 -10 7 -9 8 5 4 9 -3 17 -1 17
4 0 6 -4 10 -10 10 -5 0 -9 3 -9 8 3 19 -2 33 -11 27 -5 -3 -7 -13 -4 -23 2
-9 -3 -2 -11 17 -9 18 -14 36 -11 39 4 3 6 0 6 -6 0 -19 15 -14 18 6 1 9 3 28
5 42 3 31 17 55 37 63 23 8 23 8 9 -10z m-139 -18 c0 -8 -2 -15 -4 -15 -2 0
-6 7 -10 15 -3 8 -1 15 4 15 6 0 10 -7 10 -15z m85 -43 c-8 -8 -13 0 -20 33
l-7 30 16 -29 c9 -16 14 -31 11 -34z m-103 -10 c-7 -2 -7 -12 0 -35 13 -39 28
-58 38 -52 11 7 6 -22 -5 -32 -4 -4 -5 -2 -1 5 4 7 2 12 -7 12 -14 0 -32 29
-41 69 -6 28 14 75 22 51 3 -7 0 -16 -6 -18z m2154 -55 c85 -143 81 -155 -191
-597 -169 -275 -224 -483 -212 -800 11 -270 64 -484 160 -639 l21 -34 -28 7
c-37 9 -96 -3 -103 -21 -9 -23 16 -33 87 -34 l65 0 -40 -15 c-22 -9 -74 -22
-115 -30 -41 -8 -78 -18 -83 -23 -11 -11 2 -39 21 -45 26 -8 179 11 235 30 61
20 118 76 135 131 35 117 78 654 68 861 -9 209 -49 361 -127 490 l-39 63 64
107 c35 59 79 135 98 169 18 35 36 63 41 63 8 0 62 -82 105 -161 39 -72 77
-188 93 -282 11 -66 11 -79 -2 -94 -53 -62 -128 -250 -154 -383 -49 -258 -18
-587 77 -813 33 -78 35 -109 17 -237 -31 -224 -154 -445 -301 -542 -78 -52
-117 -61 -181 -39 -253 87 -455 321 -541 629 -41 142 -48 205 -51 447 -2 158
-8 264 -20 340 -38 242 13 562 128 806 103 216 281 416 504 565 77 51 222 134
233 134 3 -1 19 -24 36 -53z m-2132 29 c-3 -8 -1 -17 5 -21 6 -3 11 -11 11
-18 0 -15 -29 25 -30 41 0 6 4 12 10 12 5 0 7 -6 4 -14z m-886 -35 c47 -24
124 -107 149 -161 10 -22 24 -40 30 -40 7 0 -5 -23 -27 -52 -55 -73 -122 -213
-165 -348 -20 -63 -38 -119 -39 -124 -1 -5 -19 14 -39 42 -52 70 -137 146
-200 176 -59 29 -158 50 -193 42 -13 -4 -24 -3 -24 2 0 17 83 169 124 226 55
76 141 161 229 225 74 54 72 54 155 12z m1254 -3 c-9 -9 -12 -7 -12 12 0 19 3
21 12 12 9 -9 9 -15 0 -24z m-767 -18 c3 -5 1 -10 -4 -10 -6 0 -11 5 -11 10 0
6 2 10 4 10 3 0 8 -4 11 -10z m755 -10 c0 -5 -5 -10 -11 -10 -5 0 -7 5 -4 10
3 6 8 10 11 10 2 0 4 -4 4 -10z m-223 -82 c-3 -8 -6 -5 -6 6 -1 11 2 17 5 13
3 -3 4 -12 1 -19z m26 -3 c-3 -9 -8 -14 -10 -11 -3 3 -2 9 2 15 9 16 15 13 8
-4z m194 -65 c21 -6 23 -9 8 -9 -25 -1 -65 25 -65 42 0 7 7 4 14 -6 8 -10 27
-22 43 -27z m-457 -36 c0 -8 -4 -14 -8 -14 -4 0 -8 9 -8 19 0 11 4 17 8 15 4
-3 8 -12 8 -20z m227 11 c0 -8 -4 -15 -9 -15 -4 0 -8 -5 -8 -11 0 -6 9 -8 23
-3 51 17 87 11 87 -13 0 -8 5 -11 12 -7 7 5 9 2 6 -8 -4 -8 0 -15 8 -15 7 0
11 4 8 9 -12 19 14 5 51 -28 24 -21 32 -33 20 -29 -20 6 -20 6 -1 -9 10 -8 22
-13 26 -11 4 3 13 -2 20 -10 7 -8 9 -15 4 -15 -5 0 2 -7 14 -16 21 -14 22 -41
1 -28 -5 3 -6 10 -3 16 4 7 2 8 -4 4 -11 -6 -16 6 -13 27 2 12 -6 8 -20 -10
-12 -14 -12 -16 0 -9 9 6 12 4 9 -5 -3 -8 -10 -15 -16 -15 -7 -1 -15 -2 -19
-3 -7 -1 33 -41 42 -41 3 0 4 3 4 8 -3 20 2 33 11 27 6 -4 8 -10 5 -15 -3 -5
-1 -11 5 -15 21 -13 9 -24 -21 -20 -36 4 -93 -31 -85 -52 3 -7 1 -13 -4 -13
-15 0 -12 23 6 48 18 26 12 41 -9 24 -7 -6 -23 -8 -36 -5 -17 4 -19 8 -9 15 8
5 3 6 -14 2 -18 -4 -28 -2 -28 5 0 6 6 11 13 11 9 0 9 2 0 8 -7 4 -37 7 -68 6
-35 -1 -55 3 -55 10 0 6 -16 22 -35 35 -27 18 -35 30 -35 55 0 20 -3 26 -8 18
-11 -16 -3 -74 9 -66 5 3 9 0 9 -5 0 -6 -13 -11 -29 -11 -16 0 -31 -6 -34 -12
-3 -7 -5 2 -4 20 0 26 2 30 9 18 13 -24 23 -20 26 10 1 20 -2 25 -13 20 -9 -3
-15 0 -15 10 0 8 4 13 9 10 5 -3 11 4 14 15 4 15 11 20 22 15 13 -5 12 0 -4
21 -12 14 -19 28 -16 31 3 3 12 -3 20 -14 10 -12 13 -13 10 -3 -4 10 1 15 17
16 54 2 78 8 82 20 7 17 13 16 13 -2z m-761 -42 c-3 -4 -6 -1 -6 5 0 7 -5 12
-11 12 -5 0 -8 -4 -5 -9 3 -5 -1 -12 -10 -15 -8 -3 -13 -10 -10 -14 3 -5 -1
-9 -9 -9 -9 0 -5 11 12 34 23 30 28 32 36 18 5 -9 6 -19 3 -22z m474 -3 c-12
-23 -4 -43 9 -22 6 10 10 10 20 -2 17 -20 6 -36 -25 -36 -14 0 -22 -4 -19 -10
4 -6 -2 -7 -17 -1 -13 5 -22 16 -22 25 1 9 -2 14 -6 11 -5 -3 -12 0 -16 6 -5
9 1 10 20 5 15 -4 26 -2 26 4 0 12 32 51 38 46 2 -3 -2 -14 -8 -26z m2725 3
c9 -40 49 -104 87 -142 35 -35 140 -91 171 -91 36 0 10 -23 -51 -46 -89 -33
-196 -106 -275 -185 -37 -38 -69 -69 -72 -69 -3 0 -5 11 -5 23 0 45 -41 183
-77 260 l-36 77 40 48 c35 41 183 152 203 152 5 0 11 -12 15 -27z m-2582 -18
c-5 -13 -23 -22 -23 -11 0 15 14 35 21 31 4 -3 6 -12 2 -20z m-663 -43 c0 -12
-3 -12 -15 -2 -13 11 -14 10 -10 -2 4 -9 0 -15 -9 -15 -11 0 -12 5 -6 17 11
21 40 22 40 2z m478 -21 c11 -7 10 -9 -3 -14 -9 -4 -13 -3 -10 3 3 6 2 10 -4
10 -6 0 -15 -8 -20 -19 -6 -10 -17 -21 -25 -24 -12 -5 -12 -1 1 24 14 29 36
36 61 20z m246 -66 c5 -15 -22 -36 -46 -34 -7 0 -4 4 6 8 19 7 19 8 -2 13 -15
4 -22 2 -22 -8 0 -8 -6 -11 -15 -8 -20 8 2 30 36 37 13 2 27 5 30 6 4 0 9 -6
13 -14z m-166 -30 c-1 -14 -10 -28 -21 -31 -24 -8 -55 -41 -78 -86 -21 -41
-24 -110 -8 -173 13 -54 17 -70 18 -72 1 -2 2 -6 3 -10 1 -5 10 -16 19 -27 10
-10 15 -26 12 -35 -4 -9 -3 -13 1 -10 10 9 291 -283 352 -364 169 -229 237
-472 188 -677 -28 -119 -95 -203 -193 -242 -49 -20 -74 -22 -191 -22 -156 0
-254 19 -347 65 -100 48 -147 133 -173 311 -21 141 -4 463 40 758 15 98 19
112 32 104 7 -5 8 -3 2 7 -4 8 -7 25 -5 39 6 55 53 215 77 261 29 57 78 114
92 105 6 -3 9 1 8 10 0 9 15 28 34 42 19 15 31 20 25 12 -9 -14 -8 -14 5 0 21
22 83 60 97 60 8 0 12 -11 11 -25z m485 10 c-3 -9 -8 -14 -10 -11 -3 3 -2 9 2
15 9 16 15 13 8 -4z m52 -25 c3 -6 -1 -7 -9 -4 -18 7 -21 14 -7 14 6 0 13 -4
16 -10z m-204 -23 c37 -15 46 -23 45 -41 l-1 -23 -47 28 c-25 15 -50 24 -54
21 -5 -4 -2 1 6 11 12 17 11 18 -16 12 -23 -4 -25 -3 -9 4 11 5 22 9 25 8 3
-1 26 -10 51 -20z m-1001 -13 c0 -8 -5 -12 -10 -9 -6 4 -8 11 -5 16 9 14 15
11 15 -7z m-425 -58 c77 -36 173 -118 231 -198 l37 -49 -17 -77 c-27 -126 -45
-267 -52 -402 l-7 -128 -46 -14 c-79 -22 -260 -17 -380 12 l-103 25 6 105 c16
264 69 561 132 736 l14 41 58 -9 c31 -5 89 -24 127 -42z m419 19 c3 -8 1 -15
-4 -15 -6 0 -10 7 -10 15 0 8 2 15 4 15 2 0 6 -7 10 -15z m813 9 c-3 -3 -12
-4 -19 -1 -8 3 -5 6 6 6 11 1 17 -2 13 -5z m-486 -77 c-6 -8 -9 -17 -6 -21 3
-3 0 -2 -6 3 -12 10 -4 31 13 31 7 0 7 -4 -1 -13z m317 -103 c0 -15 -4 -22
-10 -16 -5 5 -6 16 -2 25 9 23 12 21 12 -9z m-364 -41 c-6 -25 -24 -56 -24
-41 0 10 22 68 26 68 2 0 1 -12 -2 -27z m2530 -74 c68 -171 84 -327 68 -634
-18 -326 -49 -573 -77 -611 -10 -15 -14 -13 -32 17 -103 167 -153 359 -169
642 -12 223 22 412 106 586 58 119 57 119 104 0z m-1498 15 c1 -9 -1 -13 -4
-9 -4 4 -7 10 -7 13 0 4 -4 14 -9 22 -7 12 -6 13 4 3 8 -7 15 -20 16 -29z
m2824 -164 c35 -102 35 -103 -85 -160 -120 -58 -412 -137 -432 -117 -9 10 57
122 103 175 25 29 93 84 150 123 57 39 123 93 147 119 l42 48 23 -51 c13 -29
37 -90 52 -137z m-3883 88 c-3 -8 -6 -5 -6 6 -1 11 2 17 5 13 3 -3 4 -12 1
-19z m-27 -87 c0 -21 -16 -2 -24 29 -7 24 -6 24 8 6 9 -11 16 -27 16 -35z m7
-43 c-3 -8 -6 -5 -6 6 -1 11 2 17 5 13 3 -3 4 -12 1 -19z m727 -55 c-1 -16 -2
-32 -3 -36 -1 -5 -8 -1 -17 8 -15 15 -15 17 1 35 23 25 22 25 19 -7z m757 -17
c-1 -3 11 -18 27 -34 15 -15 18 -19 7 -9 -12 9 -26 17 -32 17 -13 0 -24 25
-16 34 7 6 15 1 14 -8z m2476 -92 c17 -85 21 -387 5 -454 -7 -30 -16 -39 -72
-67 -99 -50 -178 -66 -290 -61 -97 5 -201 29 -218 51 -5 7 -18 37 -28 67 -23
67 -24 241 -2 310 l14 45 69 8 c130 14 379 99 460 156 22 15 41 27 43 26 1 -1
10 -38 19 -81z m-3164 37 c21 -36 22 -47 2 -31 -8 7 -15 19 -15 26 0 8 -4 14
-10 14 -5 0 -10 5 -10 10 0 19 16 10 33 -19z m-32 -3 c11 -11 19 -26 19 -31 0
-6 -1 -8 -2 -6 -2 2 -14 16 -27 32 -14 15 -21 27 -16 27 4 0 16 -10 26 -22z
m754 -16 c-6 -7 -35 18 -35 31 0 5 9 2 20 -8 11 -10 18 -20 15 -23z m-1918
-59 c-3 -10 -5 -2 -5 17 0 19 2 27 5 18 2 -10 2 -26 0 -35z m1203 17 c0 -5 -2
-10 -4 -10 -3 0 -8 5 -11 10 -3 6 -1 10 4 10 6 0 11 -4 11 -10z m-1203 -122
c-3 -8 -6 -5 -6 6 -1 11 2 17 5 13 3 -3 4 -12 1 -19z m-6 -133 c0 -59 -3 -110
-6 -113 -3 -3 -5 48 -5 113 0 65 2 116 6 113 3 -3 5 -54 5 -113z m-451 8 c114
-30 276 -36 351 -11 l46 15 6 -151 c7 -176 31 -374 63 -523 3 -18 -3 -26 -36
-43 -110 -56 -247 -62 -380 -15 -89 31 -102 34 -107 19 -4 -13 93 -58 157 -73
103 -24 250 -7 338 38 l36 19 33 -119 c41 -152 100 -301 161 -409 l48 -85 -29
-24 c-66 -55 -203 -82 -317 -62 -75 14 -189 49 -209 65 -24 19 -97 186 -144
332 -93 285 -136 538 -144 848 -6 213 -5 219 13 212 10 -4 62 -19 114 -33z
m800 -85 c0 -25 -3 -29 -10 -18 -13 20 -13 50 0 50 6 0 10 -15 10 -32z m1037
-20 c-3 -7 -5 -2 -5 12 0 14 2 19 5 13 2 -7 2 -19 0 -25z m760 -145 c-2 -16
-4 -5 -4 22 0 28 2 40 4 28 2 -13 2 -35 0 -50z m-730 -5 c-3 -8 -6 -5 -6 6 -1
11 2 17 5 13 3 -3 4 -12 1 -19z m2933 -12 c-8 -8 -94 -71 -190 -140 l-174
-125 -24 22 c-52 48 -150 182 -140 192 2 2 28 -3 58 -11 65 -17 215 -18 293
-3 31 7 85 26 119 44 74 38 77 40 58 21z m-4000 -42 c0 -13 -4 -24 -10 -24 -5
0 -10 14 -10 31 0 17 4 28 10 24 6 -3 10 -17 10 -31z m1800 -88 c0 -14 -4 -28
-10 -31 -6 -4 -10 7 -10 24 0 17 5 31 10 31 6 0 10 -11 10 -24z m-733 -48 c-3
-8 -6 -5 -6 6 -1 11 2 17 5 13 3 -3 4 -12 1 -19z m25 -65 c-10 -28 -10 -28
-11 12 -1 28 2 36 10 28 8 -8 8 -19 1 -40z m-26 13 c0 -14 -5 -21 -9 -17 -4 4
-5 15 -1 24 9 24 12 21 10 -7z m-1361 -66 c3 -5 1 -10 -4 -10 -6 0 -11 5 -11
10 0 6 2 10 4 10 3 0 8 -4 11 -10z m329 -6 c3 -8 2 -12 -4 -9 -6 3 -10 10 -10
16 0 14 7 11 14 -7z m1753 -26 c-3 -8 -6 -5 -6 6 -1 11 2 17 5 13 3 -3 4 -12
1 -19z m-1757 -3 c11 -13 10 -14 -4 -9 -9 3 -16 10 -16 15 0 13 6 11 20 -6z
m-311 -94 c1 -35 -5 -22 -12 24 -5 28 -4 34 3 20 5 -11 9 -31 9 -44z m24 -46
c-3 -9 -8 -14 -10 -11 -3 3 -2 9 2 15 9 16 15 13 8 -4z m2037 -10 c0 -8 -4
-15 -10 -15 -5 0 -10 7 -10 15 0 8 5 15 10 15 6 0 10 -7 10 -15z m1324 -142
l38 -43 -82 -95 c-83 -95 -93 -102 -118 -86 -12 7 -11 14 3 41 22 42 65 212
65 259 l1 36 27 -35 c15 -19 44 -54 66 -77z m-2329 77 c13 -5 14 -9 5 -9 -8 0
-24 4 -35 9 -13 5 -14 9 -5 9 8 0 24 -4 35 -9z m992 -12 c-3 -8 -6 -5 -6 6 -1
11 2 17 5 13 3 -3 4 -12 1 -19z m-1081 3 c-4 -5 0 -12 6 -14 7 -3 3 -6 -8 -6
-12 -1 -24 6 -28 14 -4 10 1 15 15 15 11 0 18 -4 15 -9z m57 -8 c-7 -2 -19 -2
-25 0 -7 3 -2 5 12 5 14 0 19 -2 13 -5z m1008 -32 c7 12 9 11 9 -1 0 -8 -5
-22 -10 -30 -6 -9 -10 -10 -10 -3 0 6 -2 17 -3 25 -2 7 -2 9 1 4 2 -4 8 -2 13
5z m-1971 -32 c0 -6 -4 -7 -10 -4 -5 3 -10 11 -10 16 0 6 5 7 10 4 6 -3 10
-11 10 -16z m1963 -50 c-4 -15 -8 -17 -13 -8 -10 15 -1 41 10 34 5 -3 6 -14 3
-26z m-1935 -59 c0 -9 -3 -7 -8 5 -5 11 -8 29 -8 40 0 16 2 15 8 -5 4 -14 8
-32 8 -40z m1903 -37 c-12 -20 -14 -14 -5 12 4 9 9 14 11 11 3 -2 0 -13 -6
-23z m-21 -60 c0 -11 -38 -73 -45 -73 -2 0 4 14 15 32 10 17 17 35 14 40 -3 4
0 8 5 8 6 0 11 -3 11 -7z m-1786 -25 c-3 -13 -11 -25 -16 -26 -5 -2 -4 -10 2
-17 8 -10 8 -15 -1 -21 -8 -4 -9 -3 -5 4 4 7 3 12 -2 12 -6 0 -13 7 -16 16 -3
8 -2 12 4 9 5 -3 12 6 16 20 3 14 10 25 16 25 5 0 6 -10 2 -22z m3040 -14 c12
-5 4 -22 -40 -87 -31 -44 -73 -116 -95 -159 l-39 -78 -83 0 -82 0 51 29 c64
37 178 159 224 239 36 64 39 66 64 56z m-1957 -90 c-3 -3 -12 -4 -19 -1 -8 3
-5 6 6 6 11 1 17 -2 13 -5z m-957 -244 c66 -64 146 -114 230 -144 32 -12 63
-25 67 -30 11 -12 -452 1 -542 14 -161 24 -285 84 -359 174 l-35 44 62 -20
c76 -25 236 -29 317 -9 61 15 145 54 156 72 5 8 14 2 27 -17 11 -16 46 -54 77
-84z m48 25 c-3 -3 -9 2 -12 12 -6 14 -5 15 5 6 7 -7 10 -15 7 -18z m1265 -12
c-7 -2 -19 -2 -25 0 -7 3 -2 5 12 5 14 0 19 -2 13 -5z m-46 -18 c0 -8 -6 -16
-14 -19 -8 -3 -13 2 -13 14 0 11 6 20 13 20 8 0 14 -7 14 -15z m-1137 -9 c0
-2 -7 -9 -15 -16 -13 -11 -14 -10 -9 4 5 14 24 23 24 12z m830 -76 c8 -5 11
-10 5 -10 -5 0 -17 5 -25 10 -8 5 -10 10 -5 10 6 0 17 -5 25 -10z m-664 -32
c-10 -5 -23 -5 -33 1 -15 8 -11 10 15 9 26 -1 30 -3 18 -10z m452 0 c-3 -7
-13 -14 -24 -15 -10 -2 -13 0 -6 3 6 3 10 10 6 15 -3 5 2 9 11 9 9 0 15 -6 13
-12z m-134 -18 c4 -5 -11 -4 -35 1 -24 6 -46 13 -49 16 -8 9 74 -8 84 -17z
m49 3 c-7 -2 -19 -2 -25 0 -7 3 -2 5 12 5 14 0 19 -2 13 -5z m-198 -12 c15 -7
11 -9 -19 -9 -26 0 -34 3 -25 9 16 10 18 10 44 0z"/>
<path d="M5255 6490 c-28 -30 -27 -44 1 -15 9 8 21 15 27 14 9 0 8 -2 0 -6
-15 -5 -17 -23 -4 -23 13 0 19 22 12 43 -6 16 -10 14 -36 -13z"/>
<path d="M5560 6352 c0 -14 6 -22 16 -22 14 0 15 3 3 18 -7 9 -15 19 -16 21
-2 2 -3 -5 -3 -17z"/>
<path d="M5414 6335 c11 -8 25 -15 30 -14 6 0 5 3 -2 6 -6 2 -10 9 -6 14 3 5
-5 9 -18 9 -22 -1 -22 -1 -4 -15z"/>
<path d="M5468 6317 c6 -24 29 -32 47 -17 17 14 21 35 5 25 -5 -3 -10 -2 -10
3 0 6 -11 9 -23 8 -18 -1 -23 -6 -19 -19z"/>
<path d="M5552 6308 c5 -15 28 -23 28 -10 0 5 -7 13 -16 16 -10 4 -14 1 -12
-6z"/>
<path d="M5262 6233 c-5 -10 -6 -27 -2 -38 6 -16 8 -14 12 15 7 41 3 49 -10
23z"/>
<path d="M5601 6204 c0 -11 3 -14 6 -6 3 7 2 16 -1 19 -3 4 -6 -2 -5 -13z"/>
<path d="M4953 6154 c-18 -19 -17 -21 22 -22 21 -1 33 3 30 8 -3 6 -12 10 -20
10 -7 0 -15 4 -17 9 -1 5 -9 3 -15 -5z"/>
<path d="M5045 6140 c3 -5 11 -10 16 -10 6 0 7 5 4 10 -3 6 -11 10 -16 10 -6
0 -7 -4 -4 -10z"/>
<path d="M5317 6113 c-40 -6 -23 -23 24 -23 40 0 52 13 23 24 -9 3 -16 5 -17
5 -1 -1 -14 -4 -30 -6z"/>
<path d="M5390 6100 c0 -6 7 -10 15 -10 8 0 15 2 15 4 0 2 -7 6 -15 10 -8 3
-15 1 -15 -4z"/>
<path d="M5606 6062 c-3 -5 1 -9 9 -9 8 0 12 4 9 9 -3 4 -7 8 -9 8 -2 0 -6 -4
-9 -8z"/>
<path d="M5305 6040 c3 -5 14 -10 23 -10 15 0 15 2 2 10 -20 13 -33 13 -25 0z"/>
<path d="M5600 6020 c0 -11 4 -20 9 -20 11 0 22 26 14 34 -12 12 -23 5 -23
-14z"/>
<path d="M4683 6004 c-4 -10 -2 -19 5 -22 7 -2 10 -7 8 -10 -2 -4 2 -12 9 -19
10 -9 13 -7 11 12 0 13 -5 21 -10 17 -5 -3 -7 2 -3 11 3 9 2 19 -4 22 -5 4
-12 -2 -16 -11z"/>
<path d="M5125 5999 c-11 -17 1 -21 15 -4 8 9 8 15 2 15 -6 0 -14 -5 -17 -11z"/>
<path d="M5200 5994 c0 -8 5 -12 10 -9 6 4 8 11 5 16 -9 14 -15 11 -15 -7z"/>
<path d="M5144 5964 c5 -14 4 -15 -9 -4 -10 8 -15 9 -15 1 0 -6 5 -11 10 -11
7 0 7 -6 0 -20 -6 -11 -9 -20 -8 -21 26 -7 38 -4 42 8 4 11 2 13 -9 9 -8 -3
-15 -1 -15 4 0 16 20 22 34 11 10 -8 17 -7 26 4 7 9 10 18 6 22 -3 3 -6 1 -6
-7 0 -9 -3 -10 -13 -1 -8 6 -17 8 -20 4 -4 -3 -7 -1 -7 5 0 7 -5 12 -11 12 -6
0 -8 -7 -5 -16z"/>
<path d="M5950 5965 c7 -9 15 -13 17 -11 7 7 -7 26 -19 26 -6 0 -6 -6 2 -15z"/>
<path d="M4996 5941 c5 -11 3 -13 -9 -8 -10 3 -17 2 -17 -3 0 -6 8 -10 18 -10
9 0 26 -7 36 -15 22 -17 36 -11 35 13 0 14 -2 13 -9 -3 -8 -18 -9 -18 -9 -2
-1 10 -7 17 -13 14 -7 -2 -19 3 -26 12 -9 10 -11 11 -6 2z"/>
<path d="M5920 5899 c0 -14 52 -58 70 -58 11 0 10 4 -5 15 -11 8 -30 24 -42
34 -13 11 -23 15 -23 9z"/>
<path d="M5080 5880 c-8 -5 -12 -11 -10 -14 3 -2 14 2 24 10 22 15 10 19 -14
4z"/>
<path d="M5043 5854 c0 -17 2 -22 7 -13 5 6 6 18 3 26 -8 19 -10 16 -10 -13z"/>
<path d="M5932 5824 c-7 -8 -8 -14 -3 -14 10 0 25 19 20 25 -2 1 -10 -3 -17
-11z"/>
<path d="M4795 5799 c-4 -6 -5 -12 -2 -15 2 -3 7 2 10 11 7 17 1 20 -8 4z"/>
<path d="M4878 5803 c7 -3 16 -2 19 1 4 3 -2 6 -13 5 -11 0 -14 -3 -6 -6z"/>
<path d="M4828 5783 c6 -2 18 -2 25 0 6 3 1 5 -13 5 -14 0 -19 -2 -12 -5z"/>
<path d="M6007 5751 c3 -12 14 -18 30 -18 l26 0 -24 18 c-31 24 -38 24 -32 0z"/>
<path d="M5543 5740 c-1 -11 2 -22 8 -25 5 -4 9 3 9 14 0 26 -15 35 -17 11z"/>
<path d="M5957 5709 c8 -8 16 -8 30 0 16 9 14 10 -11 11 -22 0 -27 -3 -19 -11z"/>
<path d="M5490 5693 c0 -7 5 -13 11 -13 6 0 8 -7 5 -17 -4 -10 -3 -14 1 -9 13
13 10 53 -4 53 -7 0 -13 -6 -13 -14z"/>
<path d="M5584 5675 c4 -24 16 -30 16 -7 0 12 -4 22 -9 22 -5 0 -8 -7 -7 -15z"/>
<path d="M6067 5633 c-10 -19 -17 -63 -8 -63 4 0 11 14 15 32 6 31 3 47 -7 31z"/>
<path d="M5816 5593 c-6 -14 -5 -15 5 -6 7 7 10 15 7 18 -3 3 -9 -2 -12 -12z"/>
<path d="M5324 5536 c-19 -15 -19 -15 2 -13 11 0 21 7 21 14 0 16 1 16 -23 -1z"/>
<path d="M6060 5515 c0 -19 4 -35 8 -35 4 0 6 16 4 35 -2 19 -6 35 -8 35 -2 0
-4 -16 -4 -35z"/>
<path d="M5857 5496 c-3 -8 3 -26 14 -39 26 -34 25 -56 -1 -32 -18 16 -20 16
-20 2 0 -10 4 -17 9 -17 6 0 11 -17 13 -37 4 -54 22 -47 29 12 4 39 1 57 -16
88 -16 27 -24 34 -28 23z"/>
<path d="M6110 5445 c0 -29 4 -45 13 -45 8 0 12 16 12 45 0 29 -4 45 -12 45
-9 0 -13 -16 -13 -45z"/>
<path d="M5150 5451 c0 -8 41 -23 47 -17 2 1 -8 8 -22 14 -14 6 -25 8 -25 3z"/>
<path d="M6040 5450 c0 -5 5 -10 10 -10 6 0 10 5 10 10 0 6 -4 10 -10 10 -5 0
-10 -4 -10 -10z"/>
<path d="M5068 5433 c7 -3 16 -2 19 1 4 3 -2 6 -13 5 -11 0 -14 -3 -6 -6z"/>
<path d="M6080 5294 c0 -8 5 -12 10 -9 6 3 10 10 10 16 0 5 -4 9 -10 9 -5 0
-10 -7 -10 -16z"/>
<path d="M6020 5161 c0 -19 22 -23 38 -7 15 15 14 16 -11 16 -15 0 -27 -4 -27
-9z"/>
<path d="M6000 5106 c0 -9 5 -16 10 -16 6 0 10 4 10 9 0 6 -4 13 -10 16 -5 3
-10 -1 -10 -9z"/>
<path d="M5902 5049 c-2 -33 1 -37 22 -35 13 0 22 5 19 9 -3 5 -11 6 -18 3 -9
-3 -15 5 -18 27 -4 32 -4 32 -5 -4z"/>
<path d="M5941 5054 c0 -11 3 -14 6 -6 3 7 2 16 -1 19 -3 4 -6 -2 -5 -13z"/>
<path d="M5860 5041 c0 -10 7 -21 15 -25 11 -4 15 1 15 19 0 16 -6 25 -15 25
-8 0 -15 -9 -15 -19z"/>
<path d="M6001 4896 c-1 -26 2 -37 9 -30 6 6 6 21 1 39 -9 30 -9 30 -10 -9z"/>
<path d="M6006 4826 c5 -19 3 -27 -3 -23 -14 9 -35 -95 -22 -108 13 -13 30 14
23 37 -2 9 0 19 5 22 6 4 8 13 4 21 -3 8 0 15 6 15 6 0 11 8 11 17 0 13 3 14
12 5 15 -15 28 -16 28 -2 0 6 -7 10 -15 10 -8 0 -15 8 -16 18 0 15 -1 14 -8
-3 -8 -19 -8 -19 -19 0 -11 18 -11 16 -6 -9z"/>
<path d="M5921 4824 c0 -11 3 -14 6 -6 3 7 2 16 -1 19 -3 4 -6 -2 -5 -13z"/>
<path d="M5737 4803 c-5 -7 -5 -19 -1 -25 6 -10 4 -10 -8 0 -13 10 -17 10 -22
-3 -6 -18 2 -45 15 -45 12 0 31 49 27 69 -3 12 -5 13 -11 4z"/>
<path d="M6030 4733 c0 -13 5 -23 10 -23 13 0 13 11 0 30 -8 12 -10 11 -10 -7z"/>
<path d="M5695 4653 c-7 -26 -8 -26 -15 -8 -8 18 -9 18 -9 2 -1 -10 -5 -15
-11 -12 -6 3 -7 -1 -4 -9 3 -9 10 -13 15 -10 5 3 12 -2 15 -10 3 -9 12 -16 20
-16 7 0 18 -18 24 -40 12 -46 30 -44 30 2 0 17 -3 29 -6 25 -14 -13 -34 24
-34 62 0 47 -14 54 -25 14z"/>
<path d="M5586 4591 c-4 -5 -3 -17 1 -27 4 -12 3 -15 -5 -10 -16 10 -15 1 1
-13 11 -8 13 -3 13 24 -1 38 -2 40 -10 26z"/>
<path d="M5924 4435 c0 -24 3 -32 12 -28 11 4 11 10 2 26 -6 12 -10 24 -9 25
2 2 1 5 -1 7 -2 2 -3 -12 -4 -30z"/>
<path d="M7269 6009 c-27 -39 -81 -62 -121 -54 -23 6 -29 4 -26 -6 3 -8 21
-15 42 -17 24 -2 54 -16 81 -37 57 -43 134 -79 215 -100 90 -24 252 -17 335
15 74 28 82 35 64 56 -30 37 -69 44 -173 32 -126 -15 -214 -2 -313 48 -69 34
-72 38 -66 65 7 38 -10 37 -38 -2z m44 -69 c14 -11 52 -33 84 -48 56 -26 63
-27 235 -27 97 0 179 -3 183 -7 13 -13 -70 -29 -175 -35 -128 -7 -198 8 -318
68 -74 37 -80 43 -65 55 24 18 26 17 56 -6z"/>
<path d="M4962 6297 c-7 -8 -7 -18 -2 -27 11 -16 11 -15 15 18 3 26 1 27 -13
9z"/>
<path d="M4653 5915 c12 -12 26 -19 30 -17 12 6 -20 39 -38 39 -10 0 -8 -6 8
-22z"/>
<path d="M4587 5653 c-10 -9 -8 -53 2 -53 5 0 14 7 21 15 20 24 -2 59 -23 38z"/>
<path d="M4607 5563 c-4 -3 -7 -11 -7 -17 0 -6 5 -5 12 2 6 6 9 14 7 17 -3 3
-9 2 -12 -2z"/>
<path d="M6206 5043 c-6 -14 -5 -15 5 -6 7 7 10 15 7 18 -3 3 -9 -2 -12 -12z"/>
<path d="M5975 4281 c-3 -5 -2 -12 3 -15 5 -3 9 1 9 9 0 17 -3 19 -12 6z"/>
<path d="M5894 4158 l-19 -23 23 19 c12 11 22 21 22 23 0 8 -8 2 -26 -19z"/>
<path d="M5823 4075 c0 -8 4 -12 9 -9 5 3 6 10 3 15 -9 13 -12 11 -12 -6z"/>
<path d="M6470 4036 c0 -2 9 -6 20 -9 11 -3 18 -1 14 4 -5 9 -34 13 -34 5z"/>
<path d="M6359 3933 c-13 -16 -12 -17 4 -4 16 13 21 21 13 21 -2 0 -10 -8 -17
-17z"/>
<path d="M6130 3749 c0 -5 5 -7 10 -4 6 3 10 8 10 11 0 2 -4 4 -10 4 -5 0 -10
-5 -10 -11z"/>
<path d="M6089 3713 c-13 -17 -13 -17 6 -3 11 8 22 16 24 17 2 2 0 3 -6 3 -6
0 -17 -8 -24 -17z"/>
<path d="M5839 3563 c-13 -17 -13 -17 6 -3 11 8 22 16 24 17 2 2 0 3 -6 3 -6
0 -17 -8 -24 -17z"/>
<path d="M5630 5510 c-9 -6 -10 -10 -3 -10 6 0 15 5 18 10 8 12 4 12 -15 0z"/>
<path d="M5188 5293 c7 -3 16 -2 19 1 4 3 -2 6 -13 5 -11 0 -14 -3 -6 -6z"/>
<path d="M5415 4429 c-11 -16 -2 -17 25 -2 24 12 24 13 3 13 -12 0 -25 -5 -28
-11z"/>
<path d="M9172 4244 c-7 -8 -8 -14 -3 -14 10 0 25 19 20 25 -2 1 -10 -3 -17
-11z"/>
<path d="M9181 3854 c0 -11 3 -14 6 -6 3 7 2 16 -1 19 -3 4 -6 -2 -5 -13z"/>
<path d="M9408 3703 c7 -3 16 -2 19 1 4 3 -2 6 -13 5 -11 0 -14 -3 -6 -6z"/>
<path d="M8778 3543 c7 -3 16 -2 19 1 4 3 -2 6 -13 5 -11 0 -14 -3 -6 -6z"/>
<path d="M5194 4290 c1 -39 16 -51 16 -12 0 17 -4 33 -8 36 -5 3 -8 -8 -8 -24z"/>
<path d="M5080 4280 c-9 -6 -10 -10 -3 -10 6 0 15 5 18 10 8 12 4 12 -15 0z"/>
<path d="M5035 4232 c-7 -7 5 -22 18 -22 7 0 6 4 -3 10 -13 8 -12 10 3 10 9 0
17 -4 17 -10 0 -5 7 -7 16 -3 9 3 21 -3 30 -16 13 -18 17 -19 30 -7 29 30 17
41 -46 42 -33 0 -62 -2 -65 -4z"/>
<path d="M5203 4143 c1 -18 5 -33 9 -33 14 0 14 16 2 40 l-13 25 2 -32z"/>
<path d="M5160 4126 c0 -17 5 -26 16 -26 10 0 14 7 12 22 -5 32 -28 35 -28 4z"/>
<path d="M4983 4123 c9 -2 25 -2 35 0 9 3 1 5 -18 5 -19 0 -27 -2 -17 -5z"/>
<path d="M5068 4123 c6 -2 18 -2 25 0 6 3 1 5 -13 5 -14 0 -19 -2 -12 -5z"/>
<path d="M5020 4100 c0 -5 5 -10 10 -10 6 0 10 5 10 10 0 6 -4 10 -10 10 -5 0
-10 -4 -10 -10z"/>
<path d="M5238 4079 c-31 -17 -19 -30 12 -14 17 9 30 18 30 20 0 8 -24 5 -42
-6z"/>
<path d="M4805 4016 c-5 -26 -1 -47 15 -81 18 -37 26 -45 48 -44 l27 1 -27 11
c-20 8 -28 18 -29 36 -3 87 -5 105 -16 108 -7 3 -15 -10 -18 -31z m25 -27 c0
-10 -4 -19 -10 -19 -5 0 -10 12 -10 26 0 14 4 23 10 19 6 -3 10 -15 10 -26z"/>
<path d="M5140 4045 c0 -5 5 -17 10 -25 5 -8 10 -10 10 -5 0 6 -5 17 -10 25
-5 8 -10 11 -10 5z"/>
<path d="M4557 3793 c-9 -14 -5 -63 4 -57 5 3 8 19 7 35 -2 31 -4 34 -11 22z"/>
<path d="M4800 3790 c0 -5 7 -10 15 -10 8 0 15 5 15 10 0 6 -7 10 -15 10 -8 0
-15 -4 -15 -10z"/>
<path d="M4626 3742 c-6 -18 -14 -23 -31 -19 -22 4 -43 -18 -30 -31 3 -3 5 -1
5 5 0 6 8 9 18 7 24 -5 55 21 50 43 -4 15 -5 15 -12 -5z"/>
<path d="M4808 3712 c3 -10 1 -13 -6 -8 -15 9 -15 5 2 -34 12 -29 14 -30 19
-11 3 12 1 21 -4 21 -5 0 -9 5 -9 11 0 5 4 8 9 5 5 -3 14 1 21 9 7 8 11 15 9
16 -32 7 -46 4 -41 -9z"/>
<path d="M4605 3689 c-31 -9 -65 -56 -65 -90 0 -11 7 -31 16 -44 9 -14 14 -32
10 -40 -7 -18 -4 -19 39 -1 18 8 36 12 38 9 3 -2 10 4 15 14 12 22 0 106 -18
128 -11 13 -10 15 4 9 12 -5 15 -2 10 10 -7 18 -7 18 -49 5z"/>
<path d="M4664 3647 c3 -10 6 -32 6 -48 0 -17 4 -28 9 -25 12 8 3 68 -11 81
-8 7 -9 4 -4 -8z"/>
<path d="M4510 3643 c0 -5 5 -15 10 -23 8 -12 10 -11 10 8 0 12 -4 22 -10 22
-5 0 -10 -3 -10 -7z"/>
<path d="M4702 3630 c0 -14 2 -19 5 -12 2 6 2 18 0 25 -3 6 -5 1 -5 -13z"/>
<path d="M4760 3630 c0 -5 5 -10 10 -10 6 0 10 5 10 10 0 6 -4 10 -10 10 -5 0
-10 -4 -10 -10z"/>
<path d="M4431 3622 c0 -7 4 -21 11 -32 10 -15 9 -29 -6 -72 -10 -29 -22 -63
-28 -75 -19 -39 -2 -47 20 -9 12 20 22 40 22 44 1 4 7 14 14 22 7 8 13 33 15
55 1 30 -1 36 -8 25 -9 -13 -11 -13 -11 3 0 9 -4 17 -9 17 -5 0 -12 8 -14 18
-3 9 -5 11 -6 4z"/>
<path d="M4727 3612 c2 -10 -10 -32 -27 -51 -24 -26 -28 -36 -19 -47 13 -15
31 -9 27 9 -2 7 1 13 7 14 5 2 10 -6 10 -17 0 -22 18 -29 23 -8 2 9 0 8 -7 -2
-14 -19 -14 0 -1 35 9 23 8 26 -5 21 -19 -7 -19 1 0 20 19 19 19 30 1 37 -9 4
-12 0 -9 -11z"/>
<path d="M4506 3585 c-3 -8 -1 -15 4 -15 6 0 10 7 10 15 0 8 -2 15 -4 15 -2 0
-6 -7 -10 -15z"/>
<path d="M5250 3580 l-35 -7 32 -2 c17 0 35 4 38 9 3 6 5 9 3 9 -2 -1 -19 -5
-38 -9z"/>
<path d="M5440 3530 c0 -5 5 -10 10 -10 6 0 10 5 10 10 0 6 -4 10 -10 10 -5 0
-10 -4 -10 -10z"/>
<path d="M4630 3500 c0 -5 5 -10 10 -10 6 0 10 5 10 10 0 6 -4 10 -10 10 -5 0
-10 -4 -10 -10z"/>
<path d="M5164 3475 c16 -9 32 -13 35 -10 8 9 -21 25 -44 25 -16 0 -14 -3 9
-15z"/>
<path d="M5295 3480 c-8 -13 3 -30 21 -30 18 0 18 14 0 29 -10 8 -16 9 -21 1z"/>
<path d="M5340 3481 c0 -6 5 -13 10 -16 6 -3 10 1 10 9 0 9 -4 16 -10 16 -5 0
-10 -4 -10 -9z"/>
<path d="M4385 3459 c-4 -6 -5 -12 -2 -15 2 -3 7 2 10 11 7 17 1 20 -8 4z"/>
<path d="M5506 3461 c-3 -4 5 -13 17 -18 19 -9 23 -8 24 8 2 19 -31 28 -41 10z"/>
<path d="M5604 3457 c4 -13 0 -20 -14 -24 -26 -7 -26 -23 1 -23 11 0 18 4 15
8 -3 5 6 15 19 22 14 7 25 17 25 22 0 13 -18 9 -23 -4 -4 -10 -8 -9 -17 2 -10
13 -11 12 -6 -3z"/>
<path d="M4465 3427 c-4 -10 -5 -21 -1 -24 10 -10 18 4 13 24 -4 17 -4 17 -12
0z"/>
<path d="M4361 3384 c0 -11 3 -14 6 -6 3 7 2 16 -1 19 -3 4 -6 -2 -5 -13z"/>
<path d="M4380 3369 c-6 -11 -10 -25 -7 -32 2 -6 9 3 15 21 12 36 8 42 -8 11z"/>
<path d="M4463 3345 c0 -27 2 -38 4 -22 2 15 2 37 0 50 -2 12 -4 0 -4 -28z"/>
<path d="M4399 3355 c-4 -45 -1 -96 5 -102 14 -15 28 15 16 36 -6 12 -8 25 -5
30 3 5 1 20 -4 33 -9 21 -10 21 -12 3z"/>
<path d="M5850 3332 c0 -17 39 -44 57 -39 16 4 16 5 1 6 -10 0 -18 4 -18 9 0
4 -9 13 -20 20 -11 7 -20 8 -20 4z"/>
<path d="M5395 3243 c-4 -32 -8 -69 -11 -82 -2 -14 0 -20 5 -15 10 10 26 154
18 154 -3 0 -9 -26 -12 -57z"/>
<path d="M5432 3275 c0 -16 2 -22 5 -12 2 9 2 23 0 30 -3 6 -5 -1 -5 -18z"/>
<path d="M5925 3280 c-5 -7 -20 -9 -40 -6 -22 4 -34 2 -38 -6 -3 -9 10 -14 49
-15 57 -2 73 7 50 26 -11 9 -16 9 -21 1z"/>
<path d="M4344 3264 c-15 -6 -5 -46 10 -41 13 4 22 47 9 46 -4 0 -13 -3 -19
-5z"/>
<path d="M4460 3219 c0 -24 -5 -58 -12 -76 -10 -28 -10 -36 2 -43 8 -5 18 -6
22 -4 12 7 10 152 -2 159 -6 4 -10 -10 -10 -36z"/>
<path d="M4391 3214 c0 -11 3 -14 6 -6 3 7 2 16 -1 19 -3 4 -6 -2 -5 -13z"/>
<path d="M4442 3190 c0 -19 2 -27 5 -17 2 9 2 25 0 35 -3 9 -5 1 -5 -18z"/>
<path d="M6017 3196 c-9 -7 -17 -17 -17 -22 0 -4 5 -3 12 4 15 15 32 16 23 2
-3 -5 -2 -10 4 -10 16 0 22 17 8 28 -8 7 -17 6 -30 -2z"/>
<path d="M4560 3153 c0 -11 3 -14 8 -7 4 6 14 14 22 17 10 4 8 6 -7 6 -16 1
-23 -5 -23 -16z"/>
<path d="M5926 3162 c-3 -6 -1 -14 5 -17 15 -10 25 3 12 16 -7 7 -13 7 -17 1z"/>
<path d="M6085 3150 c-3 -6 1 -7 9 -4 18 7 21 14 7 14 -6 0 -13 -4 -16 -10z"/>
<path d="M4484 3007 c0 -51 2 -65 5 -37 l5 45 6 -45 c7 -43 7 -42 8 21 1 36 7
70 14 77 6 6 8 15 4 19 -4 4 -11 1 -17 -7 -7 -11 -11 -12 -17 -3 -4 7 -8 -25
-8 -70z"/>
<path d="M5530 3031 c0 -12 6 -21 16 -21 9 0 14 7 12 17 -5 25 -28 28 -28 4z"/>
<path d="M6235 2950 c-3 -5 -1 -10 4 -10 6 0 11 5 11 10 0 6 -2 10 -4 10 -3 0
-8 -4 -11 -10z"/>
<path d="M6233 2915 c-9 -24 1 -27 15 -5 8 13 8 20 2 20 -6 0 -13 -7 -17 -15z"/>
<path d="M4491 2904 c0 -11 3 -14 6 -6 3 7 2 16 -1 19 -3 4 -6 -2 -5 -13z"/>
<path d="M5591 2904 c0 -11 3 -14 6 -6 3 7 2 16 -1 19 -3 4 -6 -2 -5 -13z"/>
<path d="M6262 2855 c-2 -27 1 -33 15 -31 25 4 29 42 6 55 -17 8 -19 5 -21
-24z"/>
<path d="M5590 2853 c1 -16 71 -103 83 -103 8 0 7 4 -3 10 -8 5 -12 10 -8 10
4 0 -4 12 -17 26 -27 29 -35 54 -11 35 10 -9 15 -8 19 3 4 10 1 13 -7 10 -8
-3 -17 -1 -21 5 -7 12 -35 15 -35 4z"/>
<path d="M6148 2843 c6 -2 18 -2 25 0 6 3 1 5 -13 5 -14 0 -19 -2 -12 -5z"/>
<path d="M6213 2843 c-21 -8 -15 -22 7 -16 11 3 20 9 20 14 0 10 -8 10 -27 2z"/>
<path d="M6099 2831 c11 -7 10 -11 -5 -20 -14 -8 -15 -11 -4 -11 10 0 6 -9
-13 -25 -15 -14 -38 -46 -51 -72 -21 -43 -23 -60 -21 -153 3 -108 11 -150 26
-150 12 0 11 27 -1 35 -6 4 -7 11 -4 17 4 6 1 14 -6 18 -7 4 -11 13 -9 19 3 7
19 -8 36 -33 68 -97 193 -83 250 27 18 36 34 168 21 184 -5 6 -10 27 -10 45
-1 34 -13 58 -30 58 -6 0 -5 -7 2 -15 7 -9 10 -18 7 -22 -4 -3 -12 6 -18 21
-7 14 -18 26 -25 26 -7 0 -16 5 -20 12 -5 8 -2 9 10 5 9 -4 15 -3 12 2 -3 5
-36 6 -73 3 -60 -4 -66 -3 -56 10 14 17 8 28 -16 28 -13 0 -13 -2 -2 -9z"/>
<path d="M6145 2820 c-3 -5 -1 -10 4 -10 6 0 11 5 11 10 0 6 -2 10 -4 10 -3 0
-8 -4 -11 -10z"/>
<path d="M5655 2809 c-9 -14 -2 -20 14 -10 8 6 9 11 3 15 -6 3 -14 1 -17 -5z"/>
<path d="M6320 2805 c0 -5 5 -17 10 -25 5 -8 10 -10 10 -5 0 6 -5 17 -10 25
-5 8 -10 11 -10 5z"/>
<path d="M5933 2763 c-13 -5 -18 -35 -7 -46 8 -7 34 17 34 32 0 13 -12 19 -27
14z"/>
<path d="M4532 2740 c0 -14 2 -19 5 -12 2 6 2 18 0 25 -3 6 -5 1 -5 -13z"/>
<path d="M4557 2746 c-4 -10 -5 -21 -2 -24 9 -9 17 6 13 25 -3 17 -4 17 -11
-1z"/>
<path d="M4578 2677 c-12 -29 -10 -63 3 -50 6 6 9 23 7 39 -2 24 -4 26 -10 11z"/>
<path d="M4487 2653 c-11 -10 -8 -43 3 -43 6 0 10 11 10 25 0 26 -2 29 -13 18z"/>
<path d="M6402 2630 c0 -14 2 -19 5 -12 2 6 2 18 0 25 -3 6 -5 1 -5 -13z"/>
<path d="M5726 2593 c2 -6 6 -29 10 -49 7 -36 7 -37 16 -14 6 16 5 26 -1 28
-6 2 -8 15 -5 30 4 19 3 23 -4 13 -5 -7 -12 -9 -14 -5 -3 5 -3 4 -2 -3z"/>
<path d="M4562 2500 c0 -19 2 -27 5 -17 2 9 2 25 0 35 -3 9 -5 1 -5 -18z"/>
<path d="M6402 2470 c0 -14 2 -19 5 -12 2 6 2 18 0 25 -3 6 -5 1 -5 -13z"/>
<path d="M6277 2425 c-15 -19 -24 -35 -19 -35 14 0 54 48 51 59 -2 6 -17 -5
-32 -24z"/>
<path d="M5753 2410 c0 -25 2 -35 4 -22 2 12 2 32 0 45 -2 12 -4 2 -4 -23z"/>
<path d="M4560 2395 c0 -14 4 -25 9 -25 4 0 6 11 3 25 -2 14 -6 25 -8 25 -2 0
-4 -11 -4 -25z"/>
<path d="M6050 2391 c0 -6 9 -9 20 -8 11 1 20 5 20 9 0 4 -9 8 -20 8 -11 0
-20 -4 -20 -9z"/>
<path d="M6138 2373 c7 -3 16 -2 19 1 4 3 -2 6 -13 5 -11 0 -14 -3 -6 -6z"/>
<path d="M4430 2170 c10 -6 11 -10 3 -10 -7 0 -13 -7 -13 -15 0 -18 -26 -20
-33 -2 -4 9 -6 9 -6 0 -1 -6 4 -15 9 -18 6 -3 10 -16 9 -28 0 -21 -1 -21 -9
-2 -6 16 -8 14 -7 -12 0 -18 3 -33 6 -33 8 0 31 50 31 66 0 7 4 14 9 16 4 2
12 13 15 26 6 17 3 22 -11 22 -15 0 -16 -2 -3 -10z"/>
<path d="M5717 2138 c-10 -5 -27 -8 -38 -5 -18 5 -23 -3 -20 -30 1 -7 -4 -13
-10 -13 -7 0 -4 -7 7 -15 16 -13 16 -14 2 -9 -10 3 -18 2 -18 -4 0 -6 8 -9 18
-8 19 3 23 22 10 48 -6 13 -4 16 11 15 11 0 19 -4 19 -7 -1 -17 3 -30 12 -30
5 0 7 6 4 14 -3 7 2 21 12 30 20 21 15 28 -9 14z"/>
<path d="M4471 2104 c0 -11 3 -14 6 -6 3 7 2 16 -1 19 -3 4 -6 -2 -5 -13z"/>
<path d="M4666 2061 c-3 -5 3 -11 14 -14 13 -3 20 0 20 9 0 15 -26 19 -34 5z"/>
<path d="M4642 1988 c5 -32 28 -35 28 -4 0 17 -5 26 -16 26 -10 0 -14 -7 -12
-22z"/>
<path d="M5642 1994 c-6 -7 -12 -16 -12 -19 0 -11 28 -5 39 9 16 19 -9 29 -27
10z"/>
<path d="M5487 1955 c-18 -13 -17 -14 3 -20 26 -8 29 -5 21 17 -5 14 -9 15
-24 3z"/>
<path d="M5583 1915 c0 -8 4 -12 9 -9 4 3 8 9 8 15 0 5 -4 9 -8 9 -5 0 -9 -7
-9 -15z"/>
<path d="M5458 1893 c7 -3 16 -2 19 1 4 3 -2 6 -13 5 -11 0 -14 -3 -6 -6z"/>
<path d="M4472 1860 c0 -14 2 -19 5 -12 2 6 2 18 0 25 -3 6 -5 1 -5 -13z"/>
<path d="M6328 1827 c-3 -19 -2 -25 4 -19 6 6 8 18 6 28 -3 14 -5 12 -10 -9z"/>
<path d="M6249 1808 c-6 -21 -6 -45 0 -55 4 -8 7 1 8 22 1 19 -1 35 -3 35 -2
0 -4 -1 -5 -2z"/>
<path d="M6327 1783 c-4 -3 -7 -11 -7 -17 0 -6 5 -5 12 2 6 6 9 14 7 17 -3 3
-9 2 -12 -2z"/>
<path d="M4846 1763 c20 -15 68 -18 60 -4 -3 5 -22 11 -42 13 -32 4 -34 3 -18
-9z"/>
<path d="M5148 1758 c12 -6 22 -15 22 -20 0 -4 7 -8 15 -8 8 0 15 4 15 8 0 16
-25 32 -49 31 l-26 0 23 -11z"/>
<path d="M4978 1753 c12 -2 32 -2 45 0 12 2 2 4 -23 4 -25 0 -35 -2 -22 -4z"/>
<path d="M4908 1733 c6 -2 18 -2 25 0 6 3 1 5 -13 5 -14 0 -19 -2 -12 -5z"/>
<path d="M4993 1733 c9 -2 25 -2 35 0 9 3 1 5 -18 5 -19 0 -27 -2 -17 -5z"/>
<path d="M5128 1733 c7 -3 16 -2 19 1 4 3 -2 6 -13 5 -11 0 -14 -3 -6 -6z"/>
<path d="M4470 1690 c0 -5 5 -10 11 -10 5 0 7 5 4 10 -3 6 -8 10 -11 10 -2 0
-4 -4 -4 -10z"/>
<path d="M4818 1663 c7 -3 16 -2 19 1 4 3 -2 6 -13 5 -11 0 -14 -3 -6 -6z"/>
<path d="M4620 1631 c0 -11 4 -22 9 -25 11 -7 23 22 15 35 -9 16 -24 10 -24
-10z"/>
<path d="M5715 1560 c11 -5 27 -9 35 -9 9 0 8 4 -5 9 -11 5 -27 9 -35 9 -9 0
-8 -4 5 -9z"/>
<path d="M6227 1501 c-4 -17 -3 -21 5 -13 5 5 8 16 6 23 -3 8 -7 3 -11 -10z"/>
<path d="M5450 1481 c0 -6 5 -13 10 -16 6 -3 10 -36 9 -73 -1 -49 -3 -60 -9
-42 -4 14 -8 18 -9 9 -1 -21 41 -107 46 -92 2 7 0 21 -6 32 -6 11 -11 47 -11
80 0 50 4 63 20 73 29 18 27 43 -1 26 -17 -10 -23 -10 -26 0 -5 14 -23 16 -23
3z"/>
<path d="M5891 1453 c-1 -23 3 -44 7 -47 4 -2 6 12 4 32 -5 56 -10 62 -11 15z"/>
<path d="M6080 1480 c0 -5 5 -10 10 -10 6 0 10 5 10 10 0 6 -4 10 -10 10 -5 0
-10 -4 -10 -10z"/>
<path d="M6160 1479 c0 -5 3 -8 8 -6 4 1 7 -2 7 -8 0 -5 -15 -9 -34 -7 -32 3
-33 2 -28 -24 6 -32 -1 -56 -14 -48 -5 3 -6 11 -3 17 4 7 4 9 -1 5 -5 -5 -9
-23 -11 -40 -1 -18 0 -25 3 -15 2 10 12 16 21 15 9 -2 16 2 15 7 -1 11 16 30
32 34 6 1 9 9 7 18 -2 8 1 12 7 8 6 -3 11 -1 11 4 0 6 5 10 11 9 6 -2 12 7 14
18 1 16 -4 22 -22 22 -13 0 -23 -4 -23 -9z"/>
<path d="M5442 1435 c0 -16 2 -22 5 -12 2 9 2 23 0 30 -3 6 -5 -1 -5 -18z"/>
<path d="M4697 1395 c-4 -8 -2 -17 3 -20 6 -4 10 3 10 14 0 25 -6 27 -13 6z"/>
<path d="M5901 1374 c0 -11 3 -14 6 -6 3 7 2 16 -1 19 -3 4 -6 -2 -5 -13z"/>
<path d="M4900 1326 c0 -9 30 -14 35 -6 4 6 -3 10 -14 10 -12 0 -21 -2 -21 -4z"/>
<path d="M5442 1295 c0 -16 2 -22 5 -12 2 9 2 23 0 30 -3 6 -5 -1 -5 -18z"/>
<path d="M4852 1239 c10 -5 15 -17 12 -27 -5 -14 -4 -14 4 -2 12 16 -2 40 -22
40 -6 0 -3 -5 6 -11z"/>
<path d="M5521 1234 c0 -11 3 -14 6 -6 3 7 2 16 -1 19 -3 4 -6 -2 -5 -13z"/>
<path d="M4917 1210 c3 -11 14 -20 24 -20 12 0 19 7 19 20 0 14 -7 20 -24 20
-19 0 -23 -4 -19 -20z"/>
<path d="M5138 1163 c6 -2 18 -2 25 0 6 3 1 5 -13 5 -14 0 -19 -2 -12 -5z"/>
<path d="M5664 4271 c1 -17 5 -33 8 -36 3 -3 5 8 3 25 -1 17 -5 33 -8 36 -3 3
-4 -8 -3 -25z"/>
<path d="M8321 4261 c-18 -3 -40 -15 -47 -27 -13 -18 -11 -23 14 -47 24 -23
28 -24 28 -8 0 11 -6 17 -13 14 -7 -3 -11 3 -10 16 1 15 8 21 24 21 13 0 23
-4 23 -10 0 -5 12 -10 27 -10 26 0 26 1 7 15 -10 8 -32 15 -49 16 l-30 2 28 4
c60 9 116 -47 85 -85 -6 -7 -8 -16 -4 -19 19 -19 28 38 16 94 0 2 -63 33 -64
32 -1 -1 -16 -4 -35 -8z"/>
<path d="M8322 4155 c-8 -10 -9 -15 -2 -15 6 0 8 -6 4 -12 -5 -9 -2 -9 9 1 17
14 23 41 10 41 -5 -1 -14 -7 -21 -15z"/>
<path d="M8284 4135 c8 -8 18 -15 22 -15 3 0 1 7 -6 15 -7 8 -17 15 -22 15 -5
0 -3 -7 6 -15z"/>
<path d="M8230 4112 c-32 -26 -37 -99 -9 -125 16 -15 19 -16 19 -2 0 12 4 14
19 6 10 -6 21 -8 24 -5 3 3 11 3 18 -1 8 -6 4 -12 -12 -21 -13 -7 -19 -13 -14
-13 6 -1 17 3 25 9 9 6 17 5 21 -2 12 -19 78 11 95 44 17 33 7 76 -18 80 -7 0
-19 2 -25 2 -14 1 -18 21 -5 21 4 0 16 6 26 12 17 9 15 11 -14 9 -30 -1 -35
-6 -41 -34 -6 -32 4 -54 15 -30 2 7 4 2 3 -12 -1 -14 -6 -28 -12 -32 -5 -4 -6
-11 -1 -15 4 -4 16 3 27 16 15 18 17 27 8 37 -8 10 -8 14 0 14 6 0 11 -4 11
-10 0 -5 5 -9 11 -7 6 1 14 -5 16 -13 4 -13 3 -13 -7 0 -9 12 -10 11 -5 -8 4
-15 1 -24 -9 -28 -9 -3 -16 -12 -16 -19 0 -14 -38 -27 -52 -19 -5 4 -7 12 -4
19 2 7 -1 12 -7 12 -64 -2 -84 15 -79 68 2 18 1 17 -8 -2 -12 -29 -17 -29 -15
-2 1 11 15 31 31 44 16 14 24 24 18 25 -7 0 -22 -8 -34 -18z m-8 -104 c-7 -7
-12 -8 -12 -2 0 14 12 26 19 19 2 -3 -1 -11 -7 -17z"/>
<path d="M8265 4099 c-12 -19 5 -23 22 -6 16 16 16 17 1 17 -9 0 -20 -5 -23
-11z"/>
<path d="M8310 4101 c0 -8 -8 -20 -17 -27 -10 -7 -13 -14 -7 -14 5 0 19 6 30
14 15 12 17 17 7 27 -11 11 -13 10 -13 0z"/>
<path d="M8263 4045 c9 -8 17 -20 19 -27 3 -7 12 -9 23 -4 17 6 15 9 -13 26
-39 24 -49 25 -29 5z"/>
<path d="M5437 4280 c3 -14 10 -30 15 -37 5 -7 7 -17 3 -22 -3 -7 0 -8 10 -5
11 5 14 2 9 -12 -4 -15 -4 -16 4 -5 14 19 10 32 -21 72 -24 30 -26 31 -20 9z"/>
<path d="M5516 4154 c-9 -23 -8 -24 17 -22 13 1 24 8 24 15 0 7 -3 11 -5 8 -3
-3 -11 0 -17 5 -9 8 -14 6 -19 -6z"/>
<path d="M5595 4041 c-9 -16 10 -21 41 -11 l29 10 -33 -5 c-20 -3 -31 -1 -27
5 3 6 4 10 1 10 -3 0 -7 -4 -11 -9z"/>
<path d="M5398 3921 c-16 -9 -28 -20 -28 -24 0 -5 10 -1 22 7 12 9 30 16 40
16 9 0 19 4 22 8 8 14 -28 10 -56 -7z"/>
<path d="M5435 3905 c-19 -10 -22 -13 -8 -9 18 4 22 2 17 -10 -4 -10 -1 -16 7
-16 8 0 14 11 14 25 0 14 0 25 0 25 0 -1 -13 -7 -30 -15z"/>
<path d="M5527 3876 c-7 -18 15 -37 31 -27 9 6 8 12 -7 25 -16 14 -19 15 -24
2z"/>
<path d="M5289 3849 c-12 -9 -12 -10 1 -6 8 2 27 -2 43 -10 15 -7 27 -11 27
-9 0 3 -13 12 -28 20 -20 10 -33 11 -43 5z"/>
<path d="M5373 3838 c9 -5 22 -6 28 -2 6 3 15 0 20 -7 7 -11 9 -11 9 3 0 12
-9 16 -37 16 -29 0 -33 -2 -20 -10z"/>
<path d="M5522 3828 c2 -7 -17 -23 -42 -35 -48 -25 -47 -26 18 -23 52 2 100
41 76 61 -13 11 -19 2 -15 -23 0 -4 -6 -5 -14 -2 -8 4 -13 10 -10 14 3 5 1 12
-5 15 -6 4 -9 1 -8 -7z"/>
<path d="M5340 3800 c-13 -8 -12 -10 3 -10 9 0 17 5 17 10 0 12 -1 12 -20 0z"/>
<path d="M5068 3873 c6 -2 18 -2 25 0 6 3 1 5 -13 5 -14 0 -19 -2 -12 -5z"/>
<path d="M5053 3713 c4 -3 1 -13 -6 -22 -11 -14 -10 -14 5 -2 16 12 16 31 1
31 -4 0 -3 -3 0 -7z"/>
<path d="M4970 3666 c0 -2 7 -7 16 -10 8 -3 12 -2 9 4 -6 10 -25 14 -25 6z"/>
<path d="M4920 3610 c0 -5 5 -10 11 -10 5 0 7 5 4 10 -3 6 -8 10 -11 10 -2 0
-4 -4 -4 -10z"/>
<path d="M4843 3421 c-9 -14 -8 -18 3 -18 7 0 11 4 8 8 -2 4 1 9 8 11 7 3 8 7
2 11 -5 3 -15 -2 -21 -12z"/>
<path d="M5430 3704 c0 -8 62 -35 72 -32 6 2 -8 11 -31 20 -22 9 -41 15 -41
12z"/>
<path d="M8405 8220 c-3 -6 1 -7 9 -4 18 7 21 14 7 14 -6 0 -13 -4 -16 -10z"/>
<path d="M8139 8063 c-13 -16 -12 -17 4 -4 9 7 17 15 17 17 0 8 -8 3 -21 -13z"/>
<path d="M8876 8063 c-6 -14 -5 -15 5 -6 7 7 10 15 7 18 -3 3 -9 -2 -12 -12z"/>
<path d="M10130 8037 c0 -3 12 -12 26 -22 15 -9 23 -12 20 -6 -7 11 -46 35
-46 28z"/>
<path d="M8604 7990 c0 -13 4 -16 10 -10 7 7 7 13 0 20 -6 6 -10 3 -10 -10z"/>
<path d="M7265 7940 c3 -5 8 -10 11 -10 2 0 4 5 4 10 0 6 -5 10 -11 10 -5 0
-7 -4 -4 -10z"/>
<path d="M7970 7916 c0 -2 7 -7 16 -10 8 -3 12 -2 9 4 -6 10 -25 14 -25 6z"/>
<path d="M8738 7913 c7 -3 16 -2 19 1 4 3 -2 6 -13 5 -11 0 -14 -3 -6 -6z"/>
<path d="M7900 7900 c-9 -6 -10 -10 -3 -10 6 0 15 5 18 10 8 12 4 12 -15 0z"/>
<path d="M10440 7850 c0 -5 5 -10 11 -10 5 0 7 5 4 10 -3 6 -8 10 -11 10 -2 0
-4 -4 -4 -10z"/>
<path d="M10990 7456 c0 -2 8 -10 18 -17 15 -13 16 -12 3 4 -13 16 -21 21 -21
13z"/>
<path d="M11360 7190 c8 -5 20 -10 25 -10 6 0 3 5 -5 10 -8 5 -19 10 -25 10
-5 0 -3 -5 5 -10z"/>
<path d="M8019 7144 c-13 -14 -17 -23 -9 -19 13 5 46 45 37 45 -2 0 -14 -11
-28 -26z"/>
<path d="M12033 6875 c0 -7 6 -11 14 -8 7 3 13 6 13 8 0 2 -6 5 -13 8 -8 3
-14 -1 -14 -8z"/>
<path d="M8081 6858 c-14 -23 -14 -23 8 -4 22 20 25 26 13 26 -4 0 -13 -10
-21 -22z"/>
<path d="M12070 6866 c0 -2 8 -10 18 -17 15 -13 16 -12 3 4 -13 16 -21 21 -21
13z"/>
<path d="M12161 6775 c0 -5 3 -16 8 -23 7 -11 9 -10 14 3 4 9 3 14 -2 10 -5
-3 -12 1 -14 7 -3 7 -6 9 -6 3z"/>
<path d="M7974 6728 l-19 -23 23 19 c21 18 27 26 19 26 -2 0 -12 -10 -23 -22z"/>
<path d="M12210 6716 c0 -2 8 -10 18 -17 15 -13 16 -12 3 4 -13 16 -21 21 -21
13z"/>
<path d="M4793 6685 c-31 -22 -58 -125 -33 -125 5 0 20 11 34 25 30 29 48 31
87 8 36 -21 44 -13 30 29 -27 77 -67 98 -118 63z"/>
<path d="M7828 6633 c7 -3 16 -2 19 1 4 3 -2 6 -13 5 -11 0 -14 -3 -6 -6z"/>
<path d="M9070 6580 c-9 -6 -10 -10 -3 -10 6 0 15 5 18 10 8 12 4 12 -15 0z"/>
<path d="M10205 6550 c10 -11 20 -20 23 -20 3 0 -3 9 -13 20 -10 11 -20 20
-23 20 -3 0 3 -9 13 -20z"/>
<path d="M10235 6519 c-4 -6 -5 -12 -2 -15 2 -3 7 2 10 11 7 17 1 20 -8 4z"/>
<path d="M12291 6354 c0 -11 3 -14 6 -6 3 7 2 16 -1 19 -3 4 -6 -2 -5 -13z"/>
<path d="M8053 6195 c0 -7 6 -11 14 -8 7 3 13 6 13 8 0 2 -6 5 -13 8 -8 3 -14
-1 -14 -8z"/>
<path d="M575 6147 c-6 -7 -23 -34 -38 -61 -19 -35 -24 -53 -17 -65 8 -14 9
-13 10 6 0 12 3 24 8 26 9 6 10 -69 0 -78 -4 -4 -5 4 -2 17 2 12 1 17 -2 10
-5 -10 -9 -9 -18 3 -10 15 -16 8 -44 -45 -18 -34 -29 -67 -26 -73 4 -7 3 -9
-1 -4 -7 6 -45 -38 -45 -53 0 -3 263 -4 585 -3 548 2 587 4 605 21 14 13 18
27 15 52 -3 23 -1 30 4 21 7 -11 14 -9 34 12 13 15 28 27 33 27 4 0 -10 -19
-31 -41 -65 -68 -22 -40 71 46 182 168 208 195 191 195 -10 0 -20 -7 -23 -15
-4 -8 -11 -15 -16 -15 -6 0 -8 6 -5 13 4 12 -275 13 -1021 4 -116 -1 -212 1
-212 6 0 12 -44 7 -55 -6z m1285 -31 c0 -2 -8 -10 -17 -17 -16 -13 -17 -12 -4
4 13 16 21 21 21 13z m-58 -48 c-7 -7 -12 -8 -12 -2 0 14 12 26 19 19 2 -3 -1
-11 -7 -17z m-177 -116 c-3 -3 -11 0 -18 7 -9 10 -8 11 6 5 10 -3 15 -9 12
-12z m-1194 -105 c-10 -9 -11 -8 -5 6 3 10 9 15 12 12 3 -3 0 -11 -7 -18z m32
8 c-3 -9 -8 -14 -10 -11 -3 3 -2 9 2 15 9 16 15 13 8 -4z"/>
<path d="M12205 6119 c-4 -6 -5 -12 -2 -15 2 -3 7 2 10 11 7 17 1 20 -8 4z"/>
<path d="M12179 6043 c-13 -16 -12 -17 4 -4 16 13 21 21 13 21 -2 0 -10 -8
-17 -17z"/>
<path d="M12102 5965 c4 -4 3 -14 -4 -22 -6 -7 -9 -15 -7 -18 3 -2 10 4 17 15
9 15 9 21 -1 26 -6 4 -9 4 -5 -1z"/>
<path d="M12006 5882 c-2 -4 4 -8 14 -8 10 0 16 4 14 8 -3 4 -9 8 -14 8 -5 0
-11 -4 -14 -8z"/>
<path d="M3517 5829 c7 -7 15 -10 18 -7 3 3 -2 9 -12 12 -14 6 -15 5 -6 -5z"/>
<path d="M3986 5798 c3 -5 10 -6 15 -3 13 9 11 12 -6 12 -8 0 -12 -4 -9 -9z"/>
<path d="M11919 5793 c-13 -17 -13 -17 6 -3 11 8 22 16 24 17 2 2 0 3 -6 3 -6
0 -17 -8 -24 -17z"/>
<path d="M11865 5790 c-3 -6 1 -7 9 -4 18 7 21 14 7 14 -6 0 -13 -4 -16 -10z"/>
<path d="M10256 5763 c-6 -14 -5 -15 5 -6 7 7 10 15 7 18 -3 3 -9 -2 -12 -12z"/>
<path d="M4020 5769 c0 -3 13 -18 29 -33 22 -21 31 -25 37 -14 4 7 3 10 -1 5
-5 -4 -21 5 -37 20 -15 15 -28 24 -28 22z"/>
<path d="M11860 5760 c-9 -6 -10 -10 -3 -10 6 0 15 5 18 10 8 12 4 12 -15 0z"/>
<path d="M11750 5710 c-9 -6 -10 -10 -3 -10 6 0 15 5 18 10 8 12 4 12 -15 0z"/>
<path d="M4100 5689 c0 -3 13 -18 29 -33 22 -21 31 -25 37 -14 4 7 3 10 -1 5
-5 -4 -21 5 -37 20 -15 15 -28 24 -28 22z"/>
<path d="M4180 5606 c0 -2 8 -10 18 -17 15 -13 16 -12 3 4 -13 16 -21 21 -21
13z"/>
<path d="M4226 5558 c3 -5 10 -6 15 -3 13 9 11 12 -6 12 -8 0 -12 -4 -9 -9z"/>
<path d="M11305 5550 c3 -5 11 -10 16 -10 6 0 7 5 4 10 -3 6 -11 10 -16 10 -6
0 -7 -4 -4 -10z"/>
<path d="M8511 5487 c-13 -21 -12 -21 5 -5 10 10 16 20 13 22 -3 3 -11 -5 -18
-17z"/>
<path d="M4290 5496 c0 -2 8 -10 18 -17 15 -13 16 -12 3 4 -13 16 -21 21 -21
13z"/>
<path d="M10870 5460 c-9 -6 -10 -10 -3 -10 6 0 15 5 18 10 8 12 4 12 -15 0z"/>
<path d="M195 5390 c-3 -5 -1 -10 4 -10 6 0 11 5 11 10 0 6 -2 10 -4 10 -3 0
-8 -4 -11 -10z"/>
<path d="M4600 5270 c-8 -5 -10 -10 -5 -10 6 0 17 5 25 10 8 5 11 10 5 10 -5
0 -17 -5 -25 -10z"/>
<path d="M8279 5133 c-13 -16 -12 -17 4 -4 9 7 17 15 17 17 0 8 -8 3 -21 -13z"/>
<path d="M8240 5126 c0 -2 8 -10 18 -17 15 -13 16 -12 3 4 -13 16 -21 21 -21
13z"/>
<path d="M10470 5116 c0 -2 8 -10 18 -17 15 -13 16 -12 3 4 -13 16 -21 21 -21
13z"/>
<path d="M7331 5084 c0 -11 3 -14 6 -6 3 7 2 16 -1 19 -3 4 -6 -2 -5 -13z"/>
<path d="M2614 5071 c-2 -2 -4 -71 -4 -153 l0 -148 440 0 441 0 -3 150 -3 150
-433 3 c-239 1 -436 0 -438 -2z"/>
<path d="M8195 5050 c-16 -17 -16 -20 -3 -15 9 4 19 13 22 21 7 19 2 18 -19
-6z"/>
<path d="M10575 5020 c10 -11 20 -20 23 -20 3 0 -3 9 -13 20 -10 11 -20 20
-23 20 -3 0 3 -9 13 -20z"/>
<path d="M8108 4988 c10 -13 10 -17 0 -21 -9 -4 -9 -6 -1 -6 20 -2 24 16 5 30
-15 13 -16 12 -4 -3z"/>
<path d="M10640 4950 c6 -11 13 -20 16 -20 2 0 0 9 -6 20 -6 11 -13 20 -16 20
-2 0 0 -9 6 -20z"/>
<path d="M8536 4825 c-11 -8 -15 -15 -9 -15 6 0 16 7 23 15 16 19 11 19 -14 0z"/>
<path d="M7868 4733 c7 -3 16 -2 19 1 4 3 -2 6 -13 5 -11 0 -14 -3 -6 -6z"/>
<path d="M4889 4678 c-6 -21 -5 -37 2 -32 5 3 6 10 3 16 -5 8 -1 9 10 5 10 -4
15 -3 11 3 -5 9 -24 14 -26 8z"/>
<path d="M10649 4393 c0 -5 -2 -16 -4 -26 -3 -14 -1 -16 10 -7 8 6 11 18 8 26
-6 15 -13 19 -14 7z"/>
<path d="M10609 4323 c-13 -16 -12 -17 4 -4 16 13 21 21 13 21 -2 0 -10 -8
-17 -17z"/>
<path d="M277 4249 c12 -12 24 -21 27 -18 2 2 -8 13 -22 23 l-27 19 22 -24z"/>
<path d="M392 4174 c10 -10 20 -16 22 -13 3 3 -5 11 -17 18 -21 13 -21 12 -5
-5z"/>
<path d="M568 4103 c7 -3 16 -2 19 1 4 3 -2 6 -13 5 -11 0 -14 -3 -6 -6z"/>
<path d="M3939 4081 c12 -8 12 -12 2 -24 -9 -12 -9 -17 1 -23 7 -4 10 -4 6 1
-4 4 -3 14 3 21 12 15 4 34 -14 34 -8 0 -7 -4 2 -9z"/>
<path d="M610 4076 c0 -2 7 -7 16 -10 8 -3 12 -2 9 4 -6 10 -25 14 -25 6z"/>
<path d="M706 4036 c5 -13 4 -17 -4 -12 -6 3 -14 1 -18 -6 -4 -7 -3 -9 1 -5 5
4 14 -2 21 -15 11 -21 12 -21 10 9 -1 18 -5 35 -9 40 -5 4 -5 -1 -1 -11z"/>
<path d="M3691 3554 c0 -11 3 -14 6 -6 3 7 2 16 -1 19 -3 4 -6 -2 -5 -13z"/>
<path d="M740 3557 c0 -16 21 -47 33 -47 8 0 9 3 1 8 -6 4 -16 16 -22 27 -6
11 -12 16 -12 12z"/>
<path d="M760 3556 c0 -2 8 -10 18 -17 15 -13 16 -12 3 4 -13 16 -21 21 -21
13z"/>
<path d="M1770 3456 c0 -2 7 -7 16 -10 8 -3 12 -2 9 4 -6 10 -25 14 -25 6z"/>
<path d="M1860 3406 c0 -2 7 -7 16 -10 8 -3 12 -2 9 4 -6 10 -25 14 -25 6z"/>
<path d="M1985 3320 c10 -11 20 -20 23 -20 3 0 -3 9 -13 20 -10 11 -20 20 -23
20 -3 0 3 -9 13 -20z"/>
<path d="M2688 3317 c12 -7 19 -17 15 -22 -4 -4 -2 -5 6 0 12 7 11 10 -4 22
-11 7 -24 13 -29 13 -6 -1 -1 -6 12 -13z"/>
<path d="M2065 3261 c-3 -5 -2 -12 3 -15 5 -3 9 1 9 9 0 17 -3 19 -12 6z"/>
</g>
</svg>
