<?xml version="1.0" encoding="UTF-8"?>
<svg width="170px" height="37px" viewBox="0 0 170 37" version="1.1" xmlns="http://www.w3.org/2000/svg" xmlns:xlink="http://www.w3.org/1999/xlink">
    <!-- Generator: Sketch 52.2 (67145) - http://www.bohemiancoding.com/sketch -->
    <title>white-logo</title>
    <desc>Created with Sketch.</desc>
    <g id="Page-1" stroke="none" stroke-width="1" fill="none" fill-rule="evenodd">
        <g id="Desktop" transform="translate(-759.000000, -1816.000000)" fill="#FFFFFF">
            <g id="Group-2" transform="translate(0.000000, 1311.000000)">
                <g id="white-logo" transform="translate(759.000000, 505.000000)">
                    <polygon id="Fill-22" points="17.9832481 37 13.2096073 37 11.2117472 16.8477767 8.9356405 37 4.21798328 37 0 0.430232558 5.54989005 0.430232558 7.32632279 23.4921661 9.49129796 0.430232558 13.7644292 0.430232558 15.5968455 23.4921661 17.7058371 0.430232558 22.8680203 0.430232558"></polygon>
                    <polygon id="Fill-23" points="30.6345178 37 36.6751269 37 36.6751269 0.430232558 30.6345178 0.430232558"></polygon>
                    <polygon id="Fill-24" points="50.58742 31.6186893 57.0599106 31.6186893 57.0599106 37 44.4416244 37 44.4416244 35.0781033 51.2399912 5.81071665 44.8223591 5.81071665 44.8223591 0.430232558 57.3857868 0.430232558 57.3857868 2.35212924"></polygon>
                    <polygon id="Fill-25" points="66.4467005 37 66.4467005 0.430232558 78.5279188 0.430232558 78.5279188 5.70160252 72.2073595 5.70160252 72.2073595 15.6954653 76.4019814 15.6954653 76.4019814 20.69157 72.2073595 20.69157 72.2073595 31.5641322 78.5279188 31.5641322 78.5279188 37"></polygon>
                    <polygon id="Fill-26" points="87.5888325 37 87.5888325 0.430232558 91.4900605 0.430232558 91.4900605 33.2115903 98.8071066 33.2115903 98.8071066 37"></polygon>
                    <polygon id="Fill-27" points="108.730964 37 112.614213 37 112.614213 0.430232558 108.730964 0.430232558"></polygon>
                    <polygon id="Fill-28" points="135.148514 37 128.915672 18.4952348 127.150517 12.619604 127.150517 37 123.401015 37 123.401015 0.430232558 126.985293 0.430232558 132.666005 19.2094364 134.320734 25.1396242 134.320734 0.430232558 138.071066 0.430232558 138.071066 37"></polygon>
                    <polygon id="Fill-29" points="148.857868 37 148.857868 0.430232558 160.507614 0.430232558 160.507614 4.10870148 152.813636 4.10870148 152.813636 16.2988995 158.364286 16.2988995 158.364286 19.8682543 152.813636 19.8682543 152.813636 33.3207045 160.507614 33.3207045 160.507614 37"></polygon>
                    <path d="M167.066365,2.2053077 L167.27354,2.2053077 C167.569504,2.2053077 167.752464,2.19457628 167.824213,2.17132486 C167.895065,2.14896773 167.950671,2.10961917 167.991926,2.05238491 C168.034079,1.99604493 168.054707,1.93165638 168.054707,1.85921927 C168.054707,1.78946501 168.034079,1.72686504 167.99372,1.67231363 C167.953361,1.61776222 167.896859,1.57930795 167.822419,1.55516225 C167.74798,1.53191083 167.56502,1.51939083 167.27354,1.51939083 L167.066365,1.51939083 L167.066365,2.2053077 Z M166.555154,3.63258714 L166.555154,1.12143384 L167.066365,1.12143384 C167.545289,1.12143384 167.813451,1.12322242 167.871747,1.12769384 C168.041254,1.14200241 168.172196,1.17509097 168.266366,1.2278538 C168.360537,1.28061664 168.438564,1.36110232 168.502241,1.46841657 C168.565021,1.57662509 168.596411,1.69735362 168.596411,1.82881357 C168.596411,2.0103535 168.537218,2.16506486 168.418833,2.29384196 C168.29955,2.42261905 168.132734,2.50221044 167.918384,2.53351043 C167.994617,2.56123328 168.05381,2.59342755 168.094169,2.6274104 C168.135424,2.66139324 168.192823,2.72578179 168.265469,2.81968175 C168.283406,2.84472174 168.346187,2.94667027 168.45112,3.12642163 L168.747981,3.63258714 L168.11659,3.63258714 L167.905828,3.22479302 C167.763227,2.95024741 167.645738,2.77854462 167.552464,2.70789608 C167.45919,2.63635325 167.342598,2.60058183 167.1991,2.60058183 L167.066365,2.60058183 L167.066365,3.63258714 L166.555154,3.63258714 Z M167.630491,0.463239818 C167.304033,0.463239818 166.991029,0.544619786 166.691477,0.707379722 C166.391925,0.870139658 166.15605,1.10354814 165.983853,1.40849945 C165.811655,1.71345075 165.725556,2.03271063 165.725556,2.36627907 C165.725556,2.69805894 165.809861,3.01374167 165.977575,3.31422155 C166.146185,3.61470144 166.380266,3.84989849 166.681611,4.01802413 C166.983854,4.18793835 167.299549,4.27200118 167.630491,4.27200118 C167.96233,4.27200118 168.279819,4.18793835 168.579371,4.01802413 C168.87982,3.84989849 169.114797,3.61470144 169.284304,3.31422155 C169.453811,3.01374167 169.538116,2.69805894 169.538116,2.36627907 C169.538116,2.03271063 169.452017,1.71345075 169.27982,1.40849945 C169.106726,1.10354814 168.870851,0.870139658 168.570402,0.707379722 C168.269953,0.544619786 167.956052,0.463239818 167.630491,0.463239818 Z M167.626904,0 C168.034079,0 168.424214,0.101054246 168.798205,0.304951309 C169.172197,0.507059801 169.46547,0.797702544 169.678923,1.17687954 C169.892377,1.55605653 170,1.95222495 170,2.36627907 C170,2.77765034 169.895067,3.1711359 169.685201,3.54494718 C169.476233,3.91875846 169.182959,4.2094012 168.808967,4.41866398 C168.433182,4.62703247 168.040357,4.73255814 167.626904,4.73255814 C167.214347,4.73255814 166.820625,4.62703247 166.445737,4.41866398 C166.070848,4.2094012 165.777574,3.91875846 165.568606,3.54494718 C165.359637,3.1711359 165.253807,2.77765034 165.253807,2.36627907 C165.253807,1.95222495 165.361431,1.55605653 165.574884,1.17687954 C165.788337,0.797702544 166.081611,0.507059801 166.455602,0.304951309 C166.829593,0.101054246 167.219728,0 167.626904,0 Z" id="Fill-30"></path>
                </g>
            </g>
        </g>
    </g>
</svg>