<?xml version="1.0" encoding="UTF-8"?>
<svg width="90px" height="107px" viewBox="0 0 90 107" version="1.1" xmlns="http://www.w3.org/2000/svg" xmlns:xlink="http://www.w3.org/1999/xlink">
    <!-- Generator: Sketch 52.2 (67145) - http://www.bohemiancoding.com/sketch -->
    <title>Group 217</title>
    <desc>Created with Sketch.</desc>
    <g id="Page-1" stroke="none" stroke-width="1" fill="none" fill-rule="evenodd">
        <g id="Desktop" transform="translate(-591.000000, -1781.000000)">
            <g id="Group-2" transform="translate(0.000000, 1311.000000)">
                <g id="Group-217" transform="translate(591.000000, 470.000000)">
                    <path d="M20.1742,75.2548 L13.6462,75.2548 C13.6462,75.2548 -1.0878,76.7778 0.0642,53.4178 C0.0642,53.4178 -1.2948,32.0658 14.1482,31.8148 C29.5912,31.5638 44.5522,31.8148 44.5522,31.8148 L44.5522,29.1508 L23.2502,29.1508 L23.0912,18.0138 C23.0912,18.0138 23.0912,8.2758 45.3622,8.9298 C67.6342,9.5818 66.3622,19.8428 66.3622,19.8428 L66.3752,41.0008 C66.3752,41.0008 66.4412,52.6928 52.8402,52.0568 L33.5912,51.9778 C33.5912,51.9778 21.1032,50.6248 20.3872,63.5908 L20.1742,75.2548 Z" id="Fill-1" fill="#386F9B"></path>
                    <path d="M69.2494,31.5487 L75.7774,31.5487 C75.7774,31.5487 90.5114,30.0257 89.3594,53.3857 C89.3594,53.3857 90.7184,74.7377 75.2754,74.9887 C59.8324,75.2397 44.8714,74.9887 44.8714,74.9887 L44.8714,77.6527 L66.1734,77.6527 L66.3324,88.7897 C66.3324,88.7897 66.3324,98.5277 44.0614,97.8747 C21.7894,97.2217 23.0614,86.9607 23.0614,86.9607 L23.0484,65.8027 C23.0484,65.8027 22.9824,54.1107 36.5834,54.7467 L55.8324,54.8257 C55.8324,54.8257 68.3204,56.1787 69.0374,43.2127 L69.2494,31.5487 Z" id="Fill-3" fill="#F3C046"></path>
                    <path d="M37.1854,9.2187 C37.1854,9.2187 37.9034,6.9127 40.1044,7.3627 C42.3064,7.8117 41.8924,8.9297 41.8924,8.9297 L43.1214,6.2217 L45.6404,3.6567 L47.4154,2.7527 L49.3254,2.2297 L50.3684,1.7517 L51.0594,0.8227 L51.5494,1.9617 L51.3674,3.2047 L52.7084,2.1467 L54.0184,1.5627 L54.0184,2.9427 L54.5364,4.0477 L54.8604,5.1837 L56.0884,3.8467 L56.8434,2.9047 L58.3364,1.7327 L58.5354,3.6957 L58.9474,5.3987 L59.6674,6.1927 C59.6674,6.1927 60.3224,7.5237 60.3374,7.5937 C60.3534,7.6637 60.5714,8.6897 60.5714,8.6897 L61.1304,7.8157 L62.7774,6.5047 L64.3154,5.8887 L65.4564,5.5997 L67.1264,5.6597 L68.5254,5.9897 L68.6554,6.2687 L67.5664,7.3897 L67.1884,8.5567 L67.2384,10.3757 C67.2384,10.3757 66.8574,11.8617 66.8524,11.8767 C66.8474,11.8917 66.7564,12.1377 66.7564,12.1377 L68.1284,11.8767 L69.2574,12.1377 L70.2514,12.1727 L71.8074,12.8567 L73.3354,13.6247 L74.8064,14.7717 L75.4994,15.5857 L73.8474,16.3197 L72.6404,17.0667 L71.6924,17.8707 L70.2244,18.8437 L68.5164,19.4347 L68.6924,19.7137 L70.0584,20.7547 L70.9884,22.1957 L71.4774,22.9567 L72.7454,23.7207 L74.1934,24.1507 L75.3584,24.3027 L72.6124,25.4017 L70.1694,25.8397 L68.8174,25.9037 L67.6594,25.7537 L66.2034,25.5847 L66.9674,26.6347 L67.4974,28.0587 L68.8704,29.3387 L69.1914,29.5587 C69.1914,29.5587 66.3814,30.6757 66.3744,30.6457 C66.3684,30.6147 64.1484,30.6467 64.1484,30.6467 L62.2444,30.1257 L60.6514,29.0837 L58.8754,26.6637 L58.0564,24.1937 L57.8554,23.4747 L55.6854,22.4307 L52.8264,20.2557 L50.5714,17.8137" id="Fill-5" fill="#36709C"></path>
                    <path d="M23.0487,76.4218 L20.4087,77.2308 L21.7287,78.3888 L22.2307,79.6778 L22.8427,80.8358 L23.2607,81.4358 L22.2867,81.2288 L20.2067,81.0738 L18.0717,81.2638 L15.6407,81.8548 L14.0797,82.4468 L16.1997,82.9978 L17.4327,83.5878 L18.2257,84.5208 L18.6707,85.5578 L19.7157,86.4388 L21.0497,87.4318 L20.2067,87.6758 L18.9157,88.2448 L18.1117,88.8208 L16.8197,90.0558 C16.8197,90.0558 15.0727,90.9398 15.0127,90.9598 C14.9527,90.9818 13.8537,91.3758 13.8537,91.3758 L15.4567,92.9818 L18.5577,94.5338 L21.0497,95.1128 L22.6697,94.8808 L22.2887,95.8858 L22.3497,97.3508 L22.2007,98.8238 L21.5737,99.9638 L20.5797,100.7898 L21.6137,101.1168 L23.4377,101.3138 L25.9237,100.7368 L27.9517,99.5978 L29.0167,98.5638 L29.2327,99.6888 L30.1967,101.2278 L30.8357,102.7448 L31.0067,104.8638 L31.0067,105.3508 L32.4307,104.1888 L34.6527,101.5448 L34.6527,102.5898 L35.4097,104.0238 L35.5307,105.4728 L36.8597,104.6968 L38.2047,103.6268 L37.8327,105.0488 L38.2627,105.8668 L38.5017,106.3588 L38.8747,105.2458 L39.8007,104.7908 L41.5997,104.3178 L43.6377,103.3758 L45.0607,102.1198 L46.1627,100.9608 L47.0747,99.3048 L47.5497,98.1318 L47.8157,98.5898 L49.2567,99.5288 L50.5807,99.5198 L51.4437,99.1178 L52.1947,98.0158 L52.3227,97.5748" id="Fill-7" fill="#F1C44A"></path>
                    <path d="M24.2079,16.3232 C24.0289,16.3232 23.8789,16.3682 23.7579,16.4602 C23.3259,16.7842 23.2539,17.6462 23.2849,18.3412 C23.7049,17.6472 23.9339,17.5322 24.1589,17.6042 C24.3419,17.6632 24.4399,17.8552 24.4509,18.1772 C25.0139,17.8752 25.6089,17.4302 25.6169,17.0942 C25.6219,16.8822 25.3479,16.7012 25.1179,16.5882 C24.7609,16.4112 24.4569,16.3232 24.2079,16.3232 Z M23.0039,19.9292 L22.8739,19.2022 C22.8299,18.9582 22.4749,16.7992 23.4579,16.0592 C23.9109,15.7202 24.5429,15.7472 25.3389,16.1382 C25.8639,16.3982 26.1249,16.7232 26.1169,17.1062 C26.0959,17.9822 24.5789,18.6872 24.2749,18.8202 L23.8669,18.9982 L23.9269,18.5562 C23.9409,18.4532 23.9479,18.3412 23.9489,18.2442 C23.8309,18.3992 23.6369,18.6992 23.3419,19.2722 L23.0039,19.9292 Z" id="Fill-9" fill="#0B050D"></path>
                    <path d="M24.9837,14.0497 C25.1977,13.8847 25.4387,13.8527 25.6787,13.8297 C25.9207,13.8207 26.1507,13.9227 26.3677,14.0177 C26.8117,14.1977 27.2017,14.5167 27.4307,14.9137 L27.3917,14.9457 C27.0557,14.6497 26.6577,14.4787 26.2497,14.3997 C26.0417,14.3647 25.8317,14.3807 25.6297,14.3277 C25.4257,14.2627 25.2187,14.2217 24.9897,14.0997 L24.9837,14.0497 Z" id="Fill-11" fill="#0B050D"></path>
                    <path d="M27.1185,12.286 C27.3595,12.125 27.6275,12.107 27.8895,12.104 C28.1525,12.115 28.3945,12.237 28.6225,12.356 C29.0885,12.58 29.4865,12.92 29.7845,13.314 L29.7485,13.348 C29.3525,13.062 28.9245,12.85 28.4795,12.729 C28.2545,12.671 28.0235,12.667 27.8075,12.598 C27.5895,12.515 27.3685,12.462 27.1235,12.336 L27.1185,12.286 Z" id="Fill-13" fill="#0B050D"></path>
                    <path d="M59.6737,20.7978 C55.7037,20.7978 51.6617,15.1148 50.6587,12.6898 C49.7777,10.5638 46.5557,10.8078 45.2137,11.0108 C44.1037,11.1828 42.2397,10.2628 41.7327,8.9898 C41.2967,7.8938 40.2017,7.3628 38.9377,7.6378 C37.6447,7.9188 37.4347,9.2418 37.4327,9.2548 L36.9387,9.1828 C36.9477,9.1138 37.2047,7.5028 38.8317,7.1498 C40.3437,6.8208 41.6667,7.4698 42.1977,8.8048 C42.6147,9.8528 44.2037,10.6518 45.1377,10.5168 C46.5987,10.2948 50.1057,10.0458 51.1207,12.4978 C52.0987,14.8628 56.3697,20.8178 60.1947,20.2598 L60.2697,20.7538 C60.0707,20.7838 59.8727,20.7978 59.6737,20.7978" id="Fill-15" fill="#0B050D"></path>
                    <path d="M59.7191,18.0634 C58.7111,18.0634 57.7961,17.1464 57.6171,15.9054 C57.5271,15.2674 57.6421,14.6374 57.9421,14.1304 C58.2521,13.6054 58.7211,13.2734 59.2641,13.1974 C59.3311,13.1874 59.3971,13.1814 59.4631,13.1804 L59.4711,13.6804 C59.4261,13.6814 59.3801,13.6854 59.3341,13.6924 C58.9451,13.7474 58.6041,13.9934 58.3721,14.3844 C58.1301,14.7944 58.0381,15.3094 58.1131,15.8344 C58.2651,16.8994 59.0611,17.6684 59.8841,17.5514 C60.4451,17.4704 60.9101,16.9774 61.0711,16.2924 L61.5581,16.4064 C61.3501,17.2924 60.7211,17.9364 59.9541,18.0454 C59.8761,18.0574 59.7971,18.0634 59.7191,18.0634" id="Fill-17" fill="#0B050D"></path>
                    <path d="M60.0243,20.7636 L59.9743,20.7636 L59.9813,20.2636 C60.4503,20.2646 60.8533,20.1756 61.2493,19.9836 C61.9753,19.6296 62.5083,18.9866 62.7493,18.1716 C62.9923,17.3486 62.9103,16.4516 62.5173,15.6436 C61.8733,14.3196 60.4883,13.5216 59.1583,13.7066 L59.0903,13.2106 C60.6393,12.9986 62.2303,13.9096 62.9663,15.4246 C63.4143,16.3446 63.5073,17.3696 63.2283,18.3136 C62.9473,19.2646 62.3213,20.0176 61.4673,20.4326 C61.0153,20.6526 60.5303,20.7636 60.0243,20.7636" id="Fill-19" fill="#0B050D"></path>
                    <path d="M59.8094,23.8407 C59.5694,23.8407 59.3284,23.8237 59.0914,23.7927 L59.0774,23.7927 C58.7264,23.7927 53.4784,23.6037 48.4944,15.1667 C48.4834,15.1497 47.7634,14.0097 43.9104,14.9817 C43.8134,14.9927 38.0794,15.5067 36.9404,9.6067 L36.9394,9.6067 C36.9344,9.6067 36.7264,9.0907 37.2074,8.4117 L37.6164,8.7007 C37.2964,9.1527 37.4094,9.4447 37.4144,9.4567 C38.4814,14.9587 43.6064,14.5147 43.8244,14.4897 C48.0264,13.4277 48.8524,14.7697 48.9324,14.9257 C53.8264,23.2077 59.0584,23.2947 59.1224,23.2947 C59.3724,23.3257 59.5924,23.3407 59.8094,23.3407 C62.9124,23.3407 65.4364,20.3937 65.4364,16.7707 C65.4364,15.6097 65.1744,14.4697 64.6774,13.4747 L65.1244,13.2517 C65.6554,14.3157 65.9364,15.5317 65.9364,16.7707 C65.9364,20.6687 63.1874,23.8407 59.8094,23.8407" id="Fill-21" fill="#0B050D"></path>
                    <path d="M60.3011,20.7245 C58.4801,20.7245 56.7631,19.7765 55.7981,18.2275 C55.0501,17.0265 54.8141,15.6055 55.1341,14.2275 C55.4531,12.8485 56.2911,11.6765 57.4921,10.9285 C59.9731,9.3825 63.2461,10.1435 64.7931,12.6225 C64.9341,12.8495 65.0581,13.0875 65.1641,13.3305 L64.7051,13.5305 C64.6101,13.3095 64.4961,13.0925 64.3681,12.8865 C62.9681,10.6425 60.0021,9.9545 57.7571,11.3525 C56.6691,12.0305 55.9101,13.0915 55.6201,14.3395 C55.3311,15.5885 55.5451,16.8755 56.2221,17.9635 C57.1161,19.3965 58.7461,20.2725 60.4081,20.2235 L60.4201,20.7235 C60.3801,20.7245 60.3401,20.7245 60.3011,20.7245" id="Fill-23" fill="#0B050D"></path>
                    <path d="M24.7967,23.3739 L25.9737,25.4129 L27.1507,23.3739 L24.7967,23.3739 Z M25.9737,26.4129 L23.9307,22.8739 L28.0167,22.8739 L25.9737,26.4129 Z" id="Fill-25" fill="#0B050D"></path>
                    <path d="M31.4247,23.3739 L32.6017,25.4129 L33.7787,23.3739 L31.4247,23.3739 Z M32.6017,26.4129 L30.5587,22.8739 L34.6447,22.8739 L32.6017,26.4129 Z" id="Fill-27" fill="#0B050D"></path>
                    <path d="M28.0164,23.3739 L29.1934,25.4129 L30.3704,23.3739 L28.0164,23.3739 Z M29.1934,26.4129 L27.1504,22.8739 L31.2364,22.8739 L29.1934,26.4129 Z" id="Fill-29" fill="#0B050D"></path>
                    <path d="M34.5345,23.3739 L35.7115,25.4129 L36.8885,23.3739 L34.5345,23.3739 Z M35.7115,26.4129 L33.6685,22.8739 L37.7545,22.8739 L35.7115,26.4129 Z" id="Fill-31" fill="#0B050D"></path>
                    <path d="M41.1336,23.4423 L42.0856,25.3533 L43.0386,23.4423 L41.1336,23.4423 Z M42.0856,26.4723 L40.3256,22.9423 L43.8466,22.9423 L42.0856,26.4723 Z" id="Fill-33" fill="#0B050D"></path>
                    <path d="M37.7542,23.3739 L38.9312,25.4129 L40.1082,23.3739 L37.7542,23.3739 Z M38.9312,26.4129 L36.8882,22.8739 L40.9742,22.8739 L38.9312,26.4129 Z" id="Fill-35" fill="#0B050D"></path>
                    <path d="M42.2113,8.9442 L41.7203,8.8502 C41.7313,8.7942 42.8723,3.1902 49.1273,2.0192 C49.1423,2.0162 50.7093,1.7072 50.7093,0.6872 L50.7093,0.0002 L51.1503,0.5272 C51.5973,1.0602 52.2373,2.3542 51.4623,3.4322 L51.0563,3.1412 C51.5173,2.5002 51.3013,1.7792 51.0663,1.3202 C50.6233,2.2362 49.2863,2.4992 49.2183,2.5112 C43.3073,3.6172 42.2533,8.7272 42.2113,8.9442" id="Fill-37" fill="#0B050D"></path>
                    <path d="M47.8919,10.7411 C47.8899,10.6771 47.6839,4.2671 53.8229,1.2181 L54.2319,1.0141 L54.1829,1.4691 C54.1809,1.4811 54.0509,2.7431 54.6279,3.5561 C55.3329,4.5531 55.0599,5.4111 55.0479,5.4471 L54.5739,5.2891 C54.5809,5.2641 54.7719,4.6261 54.2199,3.8451 C53.7629,3.2011 53.6749,2.3671 53.6679,1.8611 C48.2119,4.8321 48.3889,10.6601 48.3919,10.7201 L47.8919,10.7411 Z" id="Fill-39" fill="#0B050D"></path>
                    <path d="M51.3539,13.4569 L51.0489,13.0609 C51.0699,13.0439 53.1669,11.3939 53.3459,8.5409 C53.5369,5.4939 57.2559,1.8149 58.4129,1.4299 L58.7949,1.3029 L58.7389,1.7019 C58.7349,1.7279 58.3819,4.3809 59.7629,5.9189 C61.3169,7.6499 60.5059,10.3369 60.4709,10.4499 L59.9939,10.3019 C60.0009,10.2769 60.7529,7.7709 59.3909,6.2529 C58.2089,4.9369 58.1559,2.9869 58.2029,2.0999 C56.9469,2.9229 54.0089,5.9539 53.8449,8.5719 C53.6509,11.6589 51.4479,13.3849 51.3539,13.4569" id="Fill-41" fill="#0B050D"></path>
                    <path d="M65.2337,14.1689 L65.0757,13.6939 C66.5487,13.2009 67.1087,10.6249 66.9457,8.9539 C66.8127,7.5749 67.7537,6.6339 68.3337,6.1909 C63.6997,4.6929 60.7837,8.5359 60.6587,8.7049 L60.2557,8.4079 C60.2907,8.3619 63.7127,3.8319 68.9757,5.8909 L69.4737,6.0849 L69.0047,6.3429 C68.9877,6.3519 67.2887,7.3039 67.4437,8.9049 C67.6157,10.6729 67.0327,13.5669 65.2337,14.1689" id="Fill-43" fill="#0B050D"></path>
                    <path d="M66.952,19.8515 C66.337,19.8515 65.732,19.7735 65.174,19.6065 L65.317,19.1275 C67.463,19.7675 70.337,19.0165 71.592,17.4885 C72.628,16.2265 74.364,15.6735 75.192,15.4725 C70.742,11.1305 66.909,12.2595 66.869,12.2705 L66.721,11.7935 C66.895,11.7365 71.076,10.5095 75.873,15.4485 L76.208,15.7915 L75.734,15.8695 C75.709,15.8725 73.224,16.2885 71.979,17.8055 C70.939,19.0715 68.892,19.8515 66.952,19.8515" id="Fill-45" fill="#0B050D"></path>
                    <path d="M69.0999,26.0732 C66.7149,26.0732 64.0569,25.4302 61.7719,23.3102 L62.1119,22.9432 C66.5319,27.0462 72.4499,25.3482 74.6809,24.4852 C73.4879,24.3232 71.5959,23.8532 71.0089,22.4922 C70.2489,20.7282 68.1869,19.7172 68.1659,19.7072 L68.3839,19.2562 C68.4749,19.3012 70.6349,20.3612 71.4679,22.2952 C72.2019,23.9952 75.6629,24.0692 75.6979,24.0702 L76.6999,24.0862 L75.8079,24.5432 C75.7589,24.5682 72.7489,26.0732 69.0999,26.0732" id="Fill-47" fill="#0B050D"></path>
                    <path d="M64.8221,30.8964 C63.6221,30.8964 62.5381,30.6204 61.5781,30.0694 C58.2111,28.1344 57.6131,23.5494 57.5901,23.3554 L58.0861,23.2944 C58.0921,23.3394 58.6791,27.8294 61.8301,29.6364 C63.6441,30.6784 65.9631,30.6464 68.7291,29.5464 C68.2231,29.1764 67.3851,28.4444 67.0491,27.4584 C66.6221,26.2064 65.8871,25.6354 65.8801,25.6294 L66.1801,25.2304 C66.2161,25.2564 67.0431,25.8884 67.5221,27.2974 C67.9461,28.5414 69.3681,29.3744 69.3831,29.3814 L69.8141,29.6304 L69.3561,29.8284 C67.7021,30.5404 66.1871,30.8964 64.8221,30.8964" id="Fill-49" fill="#0B050D"></path>
                    <path d="M50.8045,28.1659 L23.0485,28.1659 L23.0485,27.6659 L50.3045,27.6659 L50.3045,25.4389 C49.9105,21.6959 45.0915,21.2679 45.0435,21.2639 L23.0295,21.2649 L23.0295,20.7649 L45.0625,20.7649 C45.1355,20.7699 50.3645,21.2289 50.8035,25.4129 L50.8045,28.1659 Z" id="Fill-51" fill="#0B050D"></path>
                    <path d="M47.3695,26.4696 L23.0485,26.4696 L23.0485,25.9696 L46.8695,25.9696 L46.8695,25.1096 C46.6285,23.5596 43.5305,23.3746 43.4995,23.3736 L23.0485,23.3736 L23.0485,22.8736 L43.5125,22.8736 C43.6705,22.8816 47.0615,23.0866 47.3665,25.0716 L47.3695,26.4696 Z" id="Fill-53" fill="#0B050D"></path>
                    <path d="M35.9793,16.2773 C35.9793,15.2413 35.1383,14.4003 34.1013,14.4003 C33.0643,14.4003 32.2233,15.2413 32.2233,16.2773 C32.2233,17.3143 33.0643,18.1553 34.1013,18.1553 C35.1383,18.1553 35.9793,17.3143 35.9793,16.2773" id="Fill-55" fill="#0B050D"></path>
                    <path d="M34.1014,14.6503 C33.2044,14.6503 32.4734,15.3793 32.4734,16.2773 C32.4734,17.1743 33.2044,17.9053 34.1014,17.9053 C34.9984,17.9053 35.7294,17.1743 35.7294,16.2773 C35.7294,15.3793 34.9984,14.6503 34.1014,14.6503 M34.1014,18.4053 C32.9284,18.4053 31.9734,17.4513 31.9734,16.2773 C31.9734,15.1043 32.9284,14.1503 34.1014,14.1503 C35.2744,14.1503 36.2294,15.1043 36.2294,16.2773 C36.2294,17.4513 35.2744,18.4053 34.1014,18.4053" id="Fill-57" fill="#0B050D"></path>
                    <path d="M20.3089,68.0927 L14.2519,68.0927 C11.3979,67.8247 9.2989,65.2867 8.1589,60.7537 C7.3109,57.3837 7.2819,54.0467 7.2819,54.0137 C7.3139,47.4527 8.7179,42.7817 11.4539,40.1267 C13.6499,37.9947 15.8709,38.0257 15.9629,38.0297 C16.1899,38.0287 39.4809,37.8987 45.6599,37.8217 C47.2369,37.8017 48.4429,37.2977 49.2449,36.3217 C50.9419,34.2577 50.3159,30.7267 50.3089,30.6907 L50.8009,30.5997 C50.8299,30.7537 51.4769,34.3927 49.6319,36.6387 C48.7329,37.7337 47.3979,38.2997 45.6659,38.3217 C39.4859,38.3987 16.1929,38.5287 15.9579,38.5297 C15.9119,38.5147 13.8299,38.5077 11.7879,40.4987 C9.1979,43.0247 7.8129,47.6967 7.7819,54.0127 C7.7829,54.1397 7.9349,66.9957 14.2749,67.5937 L20.3089,67.5927 L20.3089,68.0927 Z" id="Fill-59" fill="#0B050D"></path>
                    <path d="M48.4696,37.2421 C48.4606,37.2131 47.5266,34.2601 44.4966,33.5601 L44.6086,33.0741 C47.9276,33.8391 48.9076,36.9651 48.9486,37.0971 L48.4696,37.2421 Z" id="Fill-61" fill="#0B050D"></path>
                    <path d="M17.2943,38.3105 C17.2853,38.2815 16.3513,35.3285 13.3213,34.6285 L13.4333,34.1425 C16.7523,34.9075 17.7323,38.0335 17.7733,38.1655 L17.2943,38.3105 Z" id="Fill-63" fill="#0B050D"></path>
                    <path d="M26.202,38.3105 C26.193,38.2815 25.259,35.3285 22.229,34.6285 L22.342,34.1425 C25.66,34.9075 26.64,38.0335 26.681,38.1655 L26.202,38.3105 Z" id="Fill-65" fill="#0B050D"></path>
                    <path d="M35.0262,38.3105 C35.0172,38.2815 34.0832,35.3285 31.0532,34.6285 L31.1662,34.1425 C34.4842,34.9075 35.4642,38.0335 35.5052,38.1655 L35.0262,38.3105 Z" id="Fill-67" fill="#0B050D"></path>
                    <path d="M42.848,38.0116 C42.839,37.9826 41.905,35.0306 38.875,34.3306 L38.988,33.8446 C42.306,34.6096 43.286,37.7346 43.327,37.8666 L42.848,38.0116 Z" id="Fill-69" fill="#0B050D"></path>
                    <path d="M11.0404,40.6562 C11.0254,40.6292 9.4824,37.9432 6.3734,37.9072 L6.3794,37.4072 C9.7844,37.4462 11.4094,40.2912 11.4774,40.4122 L11.0404,40.6562 Z" id="Fill-71" fill="#0B050D"></path>
                    <path d="M7.5321,52.0907 C4.6671,52.0907 1.8631,50.4037 1.7451,50.3327 L2.0051,49.9047 C2.0321,49.9227 4.8091,51.5907 7.5321,51.5907 L7.5321,52.0907 Z" id="Fill-73" fill="#0B050D"></path>
                    <path d="M8.1805,45.9648 C8.1655,45.9378 6.6225,43.2528 3.5135,43.2168 L3.5195,42.7168 C6.9245,42.7558 8.5495,45.5998 8.6175,45.7208 L8.1805,45.9648 Z" id="Fill-75" fill="#0B050D"></path>
                    <path d="M6.9505,59.9306 C4.4835,59.9306 2.3275,58.4946 2.2245,58.4246 L2.5045,58.0106 C2.5325,58.0286 5.2795,59.8576 7.9735,59.3346 L8.0695,59.8256 C7.6935,59.8986 7.3185,59.9306 6.9505,59.9306" id="Fill-77" fill="#0B050D"></path>
                    <path d="M7.0726,66.5995 C5.5046,66.5995 4.3106,66.1765 4.2296,66.1475 L4.4006,65.6765 C4.4306,65.6875 7.5506,66.7865 10.2436,65.3575 L10.4776,65.7985 C9.3226,66.4125 8.1146,66.5995 7.0726,66.5995" id="Fill-79" fill="#0B050D"></path>
                    <path d="M11.659,71.6913 C11.362,71.6913 11.176,71.6673 11.167,71.6653 L11.237,71.1703 C11.389,71.1883 15.025,71.6543 15.689,67.7993 L16.182,67.8853 C15.588,71.3293 12.803,71.6913 11.659,71.6913" id="Fill-81" fill="#0B050D"></path>
                    <path d="M43.933,10.7021 C44.102,9.7941 44.377,8.9341 44.773,8.1191 C45.171,7.3131 45.725,6.5531 46.491,6.0861 C45.773,6.6231 45.314,7.4071 45.002,8.2201 C44.695,9.0351 44.507,9.9081 44.43,10.7581 L43.933,10.7021 Z" id="Fill-83" fill="#231F20"></path>
                    <path d="M50.1185,11.5273 C50.5805,11.1003 50.9875,10.5383 51.2535,9.9333 C51.5295,9.3263 51.6455,8.6423 51.5795,7.9593 C51.7285,8.6273 51.7005,9.3483 51.4885,10.0203 C51.2795,10.6973 50.9465,11.3203 50.4675,11.8853 L50.1185,11.5273 Z" id="Fill-85" fill="#231F20"></path>
                    <path d="M53.0028,16.1122 C53.9088,15.1162 54.7558,14.0362 55.4748,12.8852 C55.8368,12.3102 56.1628,11.7112 56.4148,11.0802 C56.6638,10.4522 56.8638,9.7852 56.8328,9.0962 C56.9058,9.7832 56.7458,10.4712 56.5318,11.1232 C56.3158,11.7782 56.0228,12.4072 55.6908,13.0102 C55.0298,14.2242 54.2488,15.3592 53.3778,16.4432 L53.0028,16.1122 Z" id="Fill-87" fill="#231F20"></path>
                    <path d="M62.5335,10.9706 C62.6905,10.5406 62.8975,10.1736 63.1485,9.8246 C63.3975,9.4766 63.6995,9.1706 64.0365,8.9286 C63.7545,9.2346 63.5295,9.5806 63.3645,9.9496 C63.1985,10.3136 63.0755,10.7136 63.0205,11.0836 L62.5335,10.9706 Z" id="Fill-89" fill="#231F20"></path>
                    <path d="M65.5877,16.2431 C66.1907,16.0421 66.7907,15.8901 67.4057,15.7851 C68.0177,15.6851 68.6497,15.6311 69.2577,15.7391 C68.6417,15.7151 68.0427,15.8521 67.4627,16.0281 C66.8867,16.2091 66.3167,16.4401 65.7847,16.7031 L65.5877,16.2431 Z" id="Fill-91" fill="#231F20"></path>
                    <path d="M64.0374,21.3153 C64.8614,21.5213 65.6544,21.7823 66.4254,22.1203 C66.8094,22.2853 67.1834,22.4833 67.5334,22.7133 C67.8784,22.9463 68.2184,23.2193 68.4144,23.5903 C68.1824,23.2433 67.8264,23.0133 67.4694,22.8213 C67.1064,22.6313 66.7264,22.4763 66.3354,22.3523 C65.5574,22.1013 64.7464,21.9233 63.9474,21.8063 L64.0374,21.3153 Z" id="Fill-93" fill="#231F20"></path>
                    <path d="M61.076,23.54 C61.256,24.467 61.566,25.405 62.015,26.257 C62.467,27.105 63.101,27.894 63.993,28.332 C63.066,27.973 62.337,27.219 61.8,26.385 C61.261,25.539 60.865,24.623 60.587,23.643 L61.076,23.54 Z" id="Fill-95" fill="#231F20"></path>
                    <path d="M65.0135,88.7353 C64.4505,89.0383 63.8565,89.4823 63.8475,89.8193 C63.8435,90.0313 64.1165,90.2123 64.3465,90.3253 C64.9585,90.6293 65.4165,90.6723 65.7065,90.4533 C66.1385,90.1293 66.2105,89.2663 66.1805,88.5723 C65.7605,89.2653 65.5315,89.3813 65.3055,89.3083 C65.1225,89.2503 65.0245,89.0583 65.0135,88.7353 M65.2625,91.0893 C64.9315,91.0893 64.5525,90.9843 64.1255,90.7743 C63.6005,90.5143 63.3395,90.1893 63.3485,89.8063 C63.3695,88.9303 64.8865,88.2253 65.1895,88.0923 L65.5975,87.9153 L65.5375,88.3563 C65.5235,88.4603 65.5165,88.5723 65.5155,88.6693 C65.6345,88.5133 65.8275,88.2143 66.1225,87.6403 L66.4605,86.9833 L66.5915,87.7113 C66.6345,87.9553 66.9895,90.1143 66.0075,90.8533 C65.7975,91.0103 65.5485,91.0893 65.2625,91.0893" id="Fill-97" fill="#0B050D"></path>
                    <path d="M64.4808,92.8632 C64.2668,93.0282 64.0248,93.0602 63.7858,93.0832 C63.5438,93.0922 63.3138,92.9902 63.0958,92.8952 C62.6518,92.7152 62.2628,92.3962 62.0338,91.9992 L62.0728,91.9672 C62.4088,92.2632 62.8068,92.4342 63.2148,92.5132 C63.4228,92.5482 63.6328,92.5322 63.8348,92.5852 C64.0388,92.6502 64.2458,92.6912 64.4748,92.8132 L64.4808,92.8632 Z" id="Fill-99" fill="#0B050D"></path>
                    <path d="M62.346,94.6269 C62.105,94.7879 61.837,94.8059 61.575,94.8089 C61.312,94.7979 61.07,94.6759 60.842,94.5569 C60.375,94.3329 59.978,93.9929 59.68,93.5989 L59.716,93.5639 C60.111,93.8509 60.54,94.0629 60.985,94.1839 C61.21,94.2419 61.441,94.2459 61.657,94.3149 C61.875,94.3969 62.096,94.4509 62.341,94.5769 L62.346,94.6269 Z" id="Fill-101" fill="#0B050D"></path>
                    <path d="M49.8705,99.8476 C48.6875,99.8476 47.7065,99.2126 47.2665,98.1086 C46.8495,97.0596 45.2565,96.2526 44.3265,96.3966 C42.8655,96.6176 39.3595,96.8676 38.3445,94.4146 C37.3675,92.0496 33.1045,86.0966 29.2695,86.6536 L29.1955,86.1596 C33.3465,85.5446 37.7535,91.6766 38.8065,94.2236 C39.6855,96.3496 42.9075,96.1036 44.2515,95.9026 C45.3705,95.7326 47.2245,96.6506 47.7315,97.9226 C48.1665,99.0176 49.2645,99.5486 50.5265,99.2756 C51.8205,98.9936 52.0295,97.6706 52.0315,97.6586 L52.5265,97.7306 C52.5165,97.7986 52.2605,99.4106 50.6335,99.7636 C50.3725,99.8206 50.1175,99.8476 49.8705,99.8476" id="Fill-103" fill="#0B050D"></path>
                    <path d="M30.0062,93.7333 L29.9882,93.2333 C30.0362,93.2313 30.0832,93.2273 30.1312,93.2203 C30.5192,93.1663 30.8602,92.9203 31.0922,92.5283 C31.3342,92.1183 31.4262,91.6033 31.3512,91.0783 C31.2762,90.5523 31.0442,90.0843 30.6972,89.7583 C30.3652,89.4463 29.9642,89.3043 29.5812,89.3613 C29.0202,89.4423 28.5542,89.9353 28.3942,90.6203 L27.9062,90.5063 C28.1142,89.6203 28.7432,88.9763 29.5102,88.8673 C30.0552,88.7903 30.5962,88.9763 31.0392,89.3933 C31.4682,89.7963 31.7552,90.3703 31.8462,91.0073 C31.9372,91.6453 31.8222,92.2753 31.5232,92.7823 C31.2122,93.3073 30.7432,93.6393 30.2002,93.7153 C30.1352,93.7253 30.0702,93.7313 30.0062,93.7333" id="Fill-105" fill="#0B050D"></path>
                    <path d="M29.9251,93.7323 C28.5291,93.7323 27.1641,92.8573 26.4981,91.4893 C26.0501,90.5693 25.9571,89.5433 26.2361,88.5993 C26.5171,87.6483 27.1431,86.8953 27.9971,86.4803 C28.4651,86.2533 28.9751,86.1393 29.4901,86.1493 L29.4841,86.6493 C29.0291,86.6583 28.6121,86.7373 28.2161,86.9293 C27.4891,87.2833 26.9561,87.9263 26.7151,88.7413 C26.4721,89.5643 26.5541,90.4623 26.9471,91.2703 C27.5911,92.5933 28.9731,93.3853 30.3061,93.2063 L30.3741,93.7023 C30.2251,93.7223 30.0741,93.7323 29.9251,93.7323" id="Fill-107" fill="#0B050D"></path>
                    <path d="M52.2562,98.5019 L51.8482,98.2129 C52.1682,97.7609 52.0552,97.4679 52.0502,97.4559 C50.9832,91.9539 45.8552,92.3959 45.6402,92.4229 C41.4362,93.4839 40.6122,92.1439 40.5322,91.9879 C35.6342,83.6979 30.4292,83.6179 30.3422,83.6179 L30.3412,83.6179 C30.0912,83.5869 29.8722,83.5719 29.6552,83.5719 C26.5522,83.5719 24.0282,86.5199 24.0282,90.1429 C24.0282,91.3039 24.2902,92.4429 24.7872,93.4389 L24.3392,93.6609 C23.8092,92.5979 23.5282,91.3809 23.5282,90.1429 C23.5282,86.2439 26.2772,83.0719 29.6552,83.0719 C29.8952,83.0719 30.1362,83.0889 30.3732,83.1199 C30.5652,83.1239 35.9022,83.1689 40.9702,91.7469 C40.9812,91.7659 41.7032,92.9029 45.5542,91.9319 C45.6492,91.9179 51.3862,91.4059 52.5252,97.3089 C52.5332,97.3089 52.7442,97.8139 52.2562,98.5019" id="Fill-109" fill="#0B050D"></path>
                    <path d="M29.1786,96.7851 C27.4076,96.7851 25.6756,95.9001 24.6716,94.2901 C24.5306,94.0631 24.4066,93.8251 24.3006,93.5821 L24.7596,93.3831 C24.8546,93.6031 24.9686,93.8201 25.0956,94.0261 C26.4956,96.2691 29.4616,96.9571 31.7076,95.5601 C33.9526,94.1611 34.6416,91.1951 33.2416,88.9491 C32.3486,87.5171 30.7386,86.6731 29.0566,86.6891 L29.0446,86.1891 C29.0846,86.1881 29.1246,86.1881 29.1636,86.1881 C30.9846,86.1881 32.7016,87.1371 33.6666,88.6851 C35.2116,91.1651 34.4516,94.4391 31.9716,95.9841 C31.1026,96.5261 30.1346,96.7851 29.1786,96.7851" id="Fill-111" fill="#0B050D"></path>
                    <path d="M62.3143,83.539 L64.6683,83.539 L63.4913,81.5 L62.3143,83.539 Z M65.5343,84.039 L61.4483,84.039 L63.4913,80.5 L65.5343,84.039 Z" id="Fill-113" fill="#0B050D"></path>
                    <path d="M55.6864,83.539 L58.0404,83.539 L56.8634,81.5 L55.6864,83.539 Z M58.9064,84.039 L54.8204,84.039 L56.8634,80.5 L58.9064,84.039 Z" id="Fill-115" fill="#0B050D"></path>
                    <path d="M59.0946,83.539 L61.4486,83.539 L60.2716,81.5 L59.0946,83.539 Z M62.3146,84.039 L58.2286,84.039 L60.2716,80.5 L62.3146,84.039 Z" id="Fill-117" fill="#0B050D"></path>
                    <path d="M52.5765,83.539 L54.9305,83.539 L53.7535,81.5 L52.5765,83.539 Z M55.7965,84.039 L51.7105,84.039 L53.7535,80.5 L55.7965,84.039 Z" id="Fill-119" fill="#0B050D"></path>
                    <path d="M46.4256,83.4706 L48.3306,83.4706 L47.3786,81.5596 L46.4256,83.4706 Z M49.1386,83.9706 L45.6176,83.9706 L47.3786,80.4406 L49.1386,83.9706 Z" id="Fill-121" fill="#0B050D"></path>
                    <path d="M49.3563,83.539 L51.7103,83.539 L50.5333,81.5 L49.3563,83.539 Z M52.5763,84.039 L48.4903,84.039 L50.5333,80.5 L52.5763,84.039 Z" id="Fill-123" fill="#0B050D"></path>
                    <path d="M38.7557,106.913 L38.3137,106.386 C37.8677,105.852 37.2277,104.559 38.0017,103.481 L38.4077,103.772 C37.9477,104.413 38.1637,105.134 38.3977,105.593 C38.8417,104.677 40.1777,104.414 40.2457,104.401 C46.1577,103.296 47.2117,98.185 47.2537,97.969 L47.7447,98.062 C47.7337,98.119 46.5917,103.723 40.3377,104.893 C40.3227,104.896 38.7557,105.206 38.7557,106.226 L38.7557,106.913 Z" id="Fill-125" fill="#0B050D"></path>
                    <path d="M35.2328,105.8993 L35.2818,105.4453 C35.2838,105.4323 35.4128,104.1703 34.8368,103.3563 C34.1318,102.3603 34.4048,101.5023 34.4168,101.4653 L34.8908,101.6243 C34.8828,101.6483 34.6928,102.2873 35.2448,103.0673 C35.7008,103.7113 35.7898,104.5463 35.7958,105.0523 C41.2528,102.0813 41.0758,96.2533 41.0728,96.1933 L41.5728,96.1713 C41.5748,96.2363 41.7808,102.6453 35.6418,105.6963 L35.2328,105.8993 Z" id="Fill-127" fill="#0B050D"></path>
                    <path d="M30.6683,105.6103 L30.7243,105.2113 C30.7283,105.1843 31.0833,102.5323 29.7023,100.9943 C28.1473,99.2623 28.9583,96.5763 28.9933,96.4633 L29.4703,96.6113 C29.4623,96.6353 28.7113,99.1413 30.0743,100.6603 C31.2543,101.9753 31.3073,103.9253 31.2613,104.8133 C32.5173,103.9903 35.4563,100.9603 35.6193,98.3413 C35.8133,95.2543 38.0173,93.5283 38.1103,93.4563 L38.4153,93.8523 C38.3943,93.8693 36.2973,95.5183 36.1183,98.3733 C35.9283,101.4203 32.2083,105.0983 31.0513,105.4833 L30.6683,105.6103 Z" id="Fill-129" fill="#0B050D"></path>
                    <path d="M23.2098,101.5585 C22.3728,101.5585 21.4618,101.4035 20.4888,101.0225 L19.9908,100.8285 L20.4598,100.5705 C20.4778,100.5615 22.1768,99.6095 22.0208,98.0085 C21.8488,96.2415 22.4328,93.3455 24.2308,92.7445 L24.3888,93.2185 C22.9158,93.7105 22.3558,96.2885 22.5188,97.9595 C22.6528,99.3375 21.7118,100.2795 21.1318,100.7215 C25.7778,102.2145 28.7748,98.2505 28.8058,98.2085 L29.2078,98.5055 C29.1798,98.5435 26.8998,101.5585 23.2098,101.5585" id="Fill-131" fill="#0B050D"></path>
                    <path d="M21.2962,95.2939 C19.6392,95.2939 16.7492,94.7159 13.5912,91.4649 L13.2562,91.1209 L13.7312,91.0439 C13.7552,91.0399 16.2402,90.6239 17.4862,89.1069 C18.8552,87.4399 21.9702,86.6119 24.2902,87.3069 L24.1482,87.7849 C22.0022,87.1469 19.1272,87.8969 17.8732,89.4239 C16.8362,90.6869 15.1002,91.2389 14.2732,91.4399 C18.7232,95.7819 22.5552,94.6539 22.5952,94.6429 L22.7432,95.1189 C22.6842,95.1389 22.1562,95.2939 21.2962,95.2939" id="Fill-133" fill="#0B050D"></path>
                    <path d="M21.0804,87.6571 C20.9894,87.6121 18.8294,86.5521 17.9964,84.6191 C17.2644,82.9201 13.8014,82.8441 13.7664,82.8431 L12.7664,82.8261 L13.6564,82.3701 C13.7374,82.3281 21.9144,78.2411 27.6924,83.6011 L27.3524,83.9691 C22.9324,79.8651 17.0134,81.5641 14.7844,82.4281 C15.9764,82.5901 17.8694,83.0601 18.4554,84.4221 C19.2154,86.1841 21.2774,87.1961 21.2984,87.2061 L21.0804,87.6571 Z" id="Fill-135" fill="#0B050D"></path>
                    <path d="M31.3783,83.6181 C31.3723,83.5731 30.7853,79.0841 27.6343,77.2761 C25.8213,76.2341 23.5023,76.2651 20.7353,77.3661 C21.2413,77.7361 22.0793,78.4691 22.4153,79.4551 C22.8413,80.7071 23.5763,81.2771 23.5843,81.2831 L23.2833,81.6821 C23.2483,81.6561 22.4213,81.0241 21.9413,79.6161 C21.5183,78.3721 20.0973,77.5391 20.0823,77.5311 L19.6513,77.2821 L20.1083,77.0851 C23.2183,75.7461 25.8363,75.6671 27.8863,76.8441 C31.2533,78.7781 31.8513,83.3631 31.8743,83.5571 L31.3783,83.6181 Z" id="Fill-137" fill="#0B050D"></path>
                    <path d="M66.4349,86.1484 L44.4019,86.1484 C44.3299,86.1434 39.0999,85.6844 38.6619,81.5014 L38.6599,78.7474 L66.4159,78.7474 L66.4159,79.2474 L39.1599,79.2474 L39.1599,81.4744 C39.5539,85.2234 44.3729,85.6454 44.4209,85.6494 L66.4349,85.6484 L66.4349,86.1484 Z" id="Fill-139" fill="#0B050D"></path>
                    <path d="M66.4159,84.039 L45.9519,84.039 C45.7939,84.031 42.4029,83.826 42.0979,81.842 L42.0949,80.443 L66.4159,80.443 L66.4159,80.943 L42.5949,80.943 L42.5949,81.804 C42.8359,83.353 45.9339,83.538 45.9649,83.539 L66.4159,83.539 L66.4159,84.039 Z" id="Fill-141" fill="#0B050D"></path>
                    <path d="M53.4852,90.6357 C53.4852,91.6727 54.3262,92.5127 55.3632,92.5127 C56.4002,92.5127 57.2412,91.6727 57.2412,90.6357 C57.2412,89.5987 56.4002,88.7577 55.3632,88.7577 C54.3262,88.7577 53.4852,89.5987 53.4852,90.6357" id="Fill-143" fill="#0B050D"></path>
                    <path d="M55.3631,89.0077 C54.4661,89.0077 53.7351,89.7377 53.7351,90.6357 C53.7351,91.5327 54.4661,92.2627 55.3631,92.2627 C56.2601,92.2627 56.9911,91.5327 56.9911,90.6357 C56.9911,89.7377 56.2601,89.0077 55.3631,89.0077 M55.3631,92.7627 C54.1901,92.7627 53.2351,91.8087 53.2351,90.6357 C53.2351,89.4617 54.1901,88.5077 55.3631,88.5077 C56.5361,88.5077 57.4911,89.4617 57.4911,90.6357 C57.4911,91.8087 56.5361,92.7627 55.3631,92.7627" id="Fill-145" fill="#0B050D"></path>
                    <path d="M38.6639,76.3134 C38.6349,76.1594 37.9879,72.5204 39.8319,70.2744 C40.7319,69.1794 42.0659,68.6134 43.7979,68.5914 C49.9789,68.5144 73.2719,68.3844 73.5059,68.3834 C73.5409,68.3814 75.6339,68.4054 77.6769,66.4144 C80.2669,63.8884 81.6519,59.2154 81.6829,52.9004 C81.6819,52.7734 81.5299,39.9174 75.1889,39.3194 L69.1559,39.3204 L69.1559,38.8204 L75.2119,38.8204 C78.0669,39.0874 80.1649,41.6254 81.3059,46.1594 C82.1529,49.5294 82.1829,52.8664 82.1829,52.8994 C82.1499,59.4594 80.7469,64.1304 78.0109,66.7864 C75.8139,68.9174 73.5949,68.8854 73.5009,68.8834 C73.2739,68.8844 49.9829,69.0144 43.8039,69.0914 C42.2269,69.1114 41.0209,69.6154 40.2199,70.5894 C38.5229,72.6544 39.1489,76.1864 39.1549,76.2224 L38.6639,76.3134 Z" id="Fill-147" fill="#0B050D"></path>
                    <path d="M44.8553,73.8398 C41.5373,73.0738 40.5563,69.9478 40.5163,69.8158 L40.9953,69.6708 C41.0033,69.6998 41.9383,72.6528 44.9673,73.3538 L44.8553,73.8398 Z" id="Fill-149" fill="#0B050D"></path>
                    <path d="M76.0306,72.7704 C72.7126,72.0054 71.7316,68.8794 71.6916,68.7474 L72.1706,68.6024 C72.1786,68.6314 73.1136,71.5844 76.1426,72.2844 L76.0306,72.7704 Z" id="Fill-151" fill="#0B050D"></path>
                    <path d="M67.1234,72.7704 C63.8054,72.0054 62.8244,68.8794 62.7844,68.7474 L63.2624,68.6024 C63.2714,68.6314 64.2054,71.5844 67.2354,72.2844 L67.1234,72.7704 Z" id="Fill-153" fill="#0B050D"></path>
                    <path d="M58.2992,72.7704 C54.9812,72.0054 54.0002,68.8794 53.9602,68.7474 L54.4382,68.6024 C54.4472,68.6314 55.3812,71.5844 58.4112,72.2844 L58.2992,72.7704 Z" id="Fill-155" fill="#0B050D"></path>
                    <path d="M50.4774,73.0683 C47.1594,72.3043 46.1784,69.1783 46.1384,69.0463 L46.6164,68.9013 C46.6254,68.9303 47.5594,71.8833 50.5894,72.5823 L50.4774,73.0683 Z" id="Fill-157" fill="#0B050D"></path>
                    <path d="M83.0848,69.5058 C79.6808,69.4668 78.0548,66.6218 77.9878,66.5008 L78.4238,66.2568 C78.4388,66.2838 79.9818,68.9698 83.0908,69.0058 L83.0848,69.5058 Z" id="Fill-159" fill="#0B050D"></path>
                    <path d="M87.4598,57.0077 C87.4318,56.9897 84.6548,55.3217 81.9328,55.3217 L81.9328,54.8217 C84.7978,54.8217 87.6018,56.5087 87.7198,56.5797 L87.4598,57.0077 Z" id="Fill-161" fill="#0B050D"></path>
                    <path d="M85.9447,64.1972 C82.5407,64.1582 80.9147,61.3132 80.8477,61.1922 L81.2837,60.9482 C81.2987,60.9752 82.8417,63.6612 85.9507,63.6972 L85.9447,64.1972 Z" id="Fill-163" fill="#0B050D"></path>
                    <path d="M86.9598,48.9023 C86.9328,48.8843 84.1828,47.0533 81.4908,47.5783 L81.3948,47.0883 C84.2928,46.5223 87.1208,48.4073 87.2398,48.4883 L86.9598,48.9023 Z" id="Fill-165" fill="#0B050D"></path>
                    <path d="M79.2215,41.5556 L78.9875,41.1146 C81.8805,39.5766 85.0995,40.7176 85.2345,40.7656 L85.0635,41.2366 C85.0335,41.2246 81.9145,40.1256 79.2215,41.5556" id="Fill-167" fill="#0B050D"></path>
                    <path d="M73.7752,39.1132 L73.2822,39.0272 C74.0302,34.6882 78.2532,35.2382 78.2972,35.2482 L78.2272,35.7422 C78.0742,35.7232 74.4402,35.2592 73.7752,39.1132" id="Fill-169" fill="#0B050D"></path>
                    <path d="M45.5316,96.2109 C45.3626,97.1189 45.0876,97.9789 44.6916,98.7939 C44.2936,99.5999 43.7396,100.3599 42.9736,100.8269 C43.6916,100.2899 44.1506,99.5069 44.4626,98.6929 C44.7696,97.8779 44.9576,97.0049 45.0346,96.1549 L45.5316,96.2109 Z" id="Fill-171" fill="#231F20"></path>
                    <path d="M39.346,95.3857 C38.884,95.8127 38.477,96.3747 38.211,96.9797 C37.935,97.5867 37.819,98.2707 37.885,98.9537 C37.736,98.2857 37.764,97.5647 37.976,96.8927 C38.185,96.2157 38.518,95.5927 38.997,95.0277 L39.346,95.3857 Z" id="Fill-173" fill="#231F20"></path>
                    <path d="M36.4613,90.8007 C35.5563,91.7967 34.7093,92.8767 33.9893,94.0277 C33.6273,94.6027 33.3023,95.2017 33.0493,95.8327 C32.8013,96.4607 32.6003,97.1277 32.6313,97.8167 C32.5583,97.1297 32.7183,96.4417 32.9323,95.7897 C33.1493,95.1347 33.4413,94.5057 33.7733,93.9027 C34.4343,92.6887 35.2163,91.5537 36.0873,90.4697 L36.4613,90.8007 Z" id="Fill-175" fill="#231F20"></path>
                    <path d="M26.931,95.9423 C26.774,96.3723 26.567,96.7393 26.316,97.0883 C26.067,97.4363 25.765,97.7423 25.428,97.9843 C25.71,97.6783 25.934,97.3323 26.1,96.9633 C26.265,96.5993 26.389,96.1993 26.444,95.8293 L26.931,95.9423 Z" id="Fill-177" fill="#231F20"></path>
                    <path d="M23.8763,90.6698 C23.2733,90.8708 22.6743,91.0228 22.0583,91.1278 C21.4463,91.2278 20.8143,91.2818 20.2073,91.1738 C20.8223,91.1978 21.4223,91.0618 22.0013,90.8848 C22.5783,90.7038 23.1473,90.4728 23.6793,90.2098 L23.8763,90.6698 Z" id="Fill-179" fill="#231F20"></path>
                    <path d="M25.4271,85.5985 C24.6031,85.3915 23.8101,85.1305 23.0391,84.7935 C22.6551,84.6275 22.2811,84.4295 21.9311,84.1995 C21.5861,83.9665 21.2461,83.6935 21.0501,83.3225 C21.2821,83.6695 21.6381,83.8995 21.9951,84.0915 C22.3581,84.2815 22.7381,84.4365 23.1291,84.5605 C23.9071,84.8115 24.7171,84.9895 25.5171,85.1065 L25.4271,85.5985 Z" id="Fill-181" fill="#231F20"></path>
                    <path d="M28.3885,83.3739 C28.2085,82.4459 27.8985,81.5079 27.4495,80.6559 C26.9975,79.8079 26.3635,79.0199 25.4715,78.5809 C26.3985,78.9399 27.1275,79.6939 27.6645,80.5279 C28.2035,81.3739 28.5995,82.2899 28.8775,83.2699 L28.3885,83.3739 Z" id="Fill-183" fill="#231F20"></path>
                    <path d="M20.7664,50.9794 C20.7664,49.9074 19.8964,49.0384 18.8254,49.0384 C17.7524,49.0384 16.8834,49.9074 16.8834,50.9794 C16.8834,52.0514 17.7524,52.9204 18.8254,52.9204 C19.8964,52.9204 20.7664,52.0514 20.7664,50.9794" id="Fill-185" fill="#4490BC"></path>
                    <path d="M31.1346,43.9013 C31.1346,42.8303 30.2656,41.9603 29.1936,41.9603 C28.1206,41.9603 27.2516,42.8303 27.2516,43.9013 C27.2516,44.9733 28.1206,45.8423 29.1936,45.8423 C30.2656,45.8423 31.1346,44.9733 31.1346,43.9013" id="Fill-187" fill="#4490BC"></path>
                    <path d="M41.9657,46.8876 C41.9657,45.8156 41.0957,44.9466 40.0247,44.9466 C38.9517,44.9466 38.0827,45.8156 38.0827,46.8876 C38.0827,47.9596 38.9517,48.8286 40.0247,48.8286 C41.0957,48.8286 41.9657,47.9596 41.9657,46.8876" id="Fill-189" fill="#4490BC"></path>
                    <path d="M51.0023,42.9667 C51.0023,41.8947 50.1333,41.0257 49.0613,41.0257 C47.9883,41.0257 47.1193,41.8947 47.1193,42.9667 C47.1193,44.0377 47.9883,44.9077 49.0613,44.9077 C50.1333,44.9077 51.0023,44.0377 51.0023,42.9667" id="Fill-191" fill="#4490BC"></path>
                    <path d="M63.0716,45.8427 C63.0716,44.7717 62.2026,43.9017 61.1306,43.9017 C60.0576,43.9017 59.1886,44.7717 59.1886,45.8427 C59.1886,46.9147 60.0576,47.7847 61.1306,47.7847 C62.2026,47.7847 63.0716,46.9147 63.0716,45.8427" id="Fill-193" fill="#4490BC"></path>
                    <path d="M61.0663,35.2441 C61.0663,34.1721 60.1973,33.3031 59.1253,33.3031 C58.0523,33.3031 57.1833,34.1721 57.1833,35.2441 C57.1833,36.3161 58.0523,37.1851 59.1253,37.1851 C60.1973,37.1851 61.0663,36.3161 61.0663,35.2441" id="Fill-195" fill="#4490BC"></path>
                    <path d="M17.8778,41.9745 C17.8778,40.9025 17.0088,40.0335 15.9368,40.0335 C14.8638,40.0335 13.9948,40.9025 13.9948,41.9745 C13.9948,43.0465 14.8638,43.9155 15.9368,43.9155 C17.0088,43.9155 17.8778,43.0465 17.8778,41.9745" id="Fill-197" fill="#4490BC"></path>
                    <path d="M16.8836,61.621 C16.8836,60.549 16.0136,59.68 14.9416,59.68 C13.8696,59.68 13.0006,60.549 13.0006,61.621 C13.0006,62.693 13.8696,63.562 14.9416,63.562 C16.0136,63.562 16.8836,62.693 16.8836,61.621" id="Fill-199" fill="#4490BC"></path>
                    <path d="M69.4872,55.953 C69.4872,57.025 70.3562,57.894 71.4282,57.894 C72.5012,57.894 73.3702,57.025 73.3702,55.953 C73.3702,54.881 72.5012,54.012 71.4282,54.012 C70.3562,54.012 69.4872,54.881 69.4872,55.953" id="Fill-201" fill="#BB9545"></path>
                    <path d="M59.1185,63.0302 C59.1185,64.1022 59.9875,64.9712 61.0595,64.9712 C62.1325,64.9712 63.0015,64.1022 63.0015,63.0302 C63.0015,61.9582 62.1325,61.0892 61.0595,61.0892 C59.9875,61.0892 59.1185,61.9582 59.1185,63.0302" id="Fill-203" fill="#BB9545"></path>
                    <path d="M48.2879,60.0439 C48.2879,61.1159 49.1569,61.9849 50.2289,61.9849 C51.3019,61.9849 52.1709,61.1159 52.1709,60.0439 C52.1709,58.9719 51.3019,58.1029 50.2289,58.1029 C49.1569,58.1029 48.2879,58.9719 48.2879,60.0439" id="Fill-205" fill="#BB9545"></path>
                    <path d="M39.2513,63.9657 C39.2513,65.0377 40.1203,65.9067 41.1923,65.9067 C42.2653,65.9067 43.1343,65.0377 43.1343,63.9657 C43.1343,62.8937 42.2653,62.0247 41.1923,62.0247 C40.1203,62.0247 39.2513,62.8937 39.2513,63.9657" id="Fill-207" fill="#BB9545"></path>
                    <path d="M27.9471,61.0556 C27.9471,62.1276 28.8161,62.9966 29.8881,62.9966 C30.9611,62.9966 31.8301,62.1276 31.8301,61.0556 C31.8301,59.9836 30.9611,59.1146 29.8881,59.1146 C28.8161,59.1146 27.9471,59.9836 27.9471,61.0556" id="Fill-209" fill="#BB9545"></path>
                    <path d="M29.1873,71.6884 C29.1873,72.7604 30.0563,73.6294 31.1283,73.6294 C32.2013,73.6294 33.0703,72.7604 33.0703,71.6884 C33.0703,70.6164 32.2013,69.7474 31.1283,69.7474 C30.0563,69.7474 29.1873,70.6164 29.1873,71.6884" id="Fill-211" fill="#BB9545"></path>
                    <path d="M72.3758,64.9579 C72.3758,66.0299 73.2448,66.8989 74.3168,66.8989 C75.3898,66.8989 76.2588,66.0299 76.2588,64.9579 C76.2588,63.8859 75.3898,63.0169 74.3168,63.0169 C73.2448,63.0169 72.3758,63.8859 72.3758,64.9579" id="Fill-213" fill="#BB9545"></path>
                    <path d="M73.37,45.3114 C73.37,46.3834 74.239,47.2524 75.311,47.2524 C76.384,47.2524 77.253,46.3834 77.253,45.3114 C77.253,44.2394 76.384,43.3704 75.311,43.3704 C74.239,43.3704 73.37,44.2394 73.37,45.3114" id="Fill-215" fill="#BB9545"></path>
                </g>
            </g>
        </g>
    </g>
</svg>