<?xml version="1.0" encoding="UTF-8"?>
<svg id="Layer_1" data-name="Layer 1" xmlns="http://www.w3.org/2000/svg" xmlns:xlink="http://www.w3.org/1999/xlink" viewBox="0 0 319 132">
  <defs>
    <style>
      .cls-1 {
        fill: #516f40;
      }

      .cls-2 {
        fill: url(#radial-gradient);
        stroke: #236f97;
        stroke-miterlimit: 10;
      }
    </style>
    <radialGradient id="radial-gradient" cx="67.13" cy="53.5" fx="67.13" fy="53.5" r="162.46" gradientTransform="translate(18.93) scale(1.13 1)" gradientUnits="userSpaceOnUse">
      <stop offset="0" stop-color="#cce0f4"/>
      <stop offset="0" stop-color="#c2dcf2"/>
      <stop offset="0" stop-color="#a9d2ee"/>
      <stop offset="0" stop-color="#7fc2e7"/>
      <stop offset="0" stop-color="#46abdd"/>
      <stop offset="0" stop-color="#1e9cd7"/>
      <stop offset="0" stop-color="#0075be"/>
      <stop offset="0" stop-color="#005c98"/>
      <stop offset="1" stop-color="#236f97"/>
    </radialGradient>
  </defs>
  <rect class="cls-2" x="-148.24" y="-26.5" width="485.74" height="160"/>
  <path class="cls-1" d="M314.92,80.5c-11.56-7-13.73-7-13.73-7h-2.89c-7.23-8-15.18-11-15.18-11-7.23-1-9.4-4-9.4-4l-2.89-2h-.7c-1.4,0-2.47-.45-3.26-1-.02,0-.03,0-.04,0-1.2,0-2.08-.66-2.66-1.64-.01,0-.02,0-.03,0-.48,0-.91-.11-1.29-.3-3.2,.2-2.36,.78-3.58-.06-1.14-.79-4.96-3.43-6.53-4.52-.15,.05-.37,.1-.69,.16-2.17,.36-5.06,2.36-5.06,2.36l-1.45,3h-5.06c-2.88-3.99-4.16-6.2-4.7-7.24-.33-.43-.57-.95-.75-1.52-.02-.05-.05-.1-.07-.15-.08-.03-.17-.06-.27-.1-2.89-1-3.61-5-3.61-5-1.73-.8-4.37,.95-5.38,1.69-.26,.19-.4,.31-.4,.31l-.72,5-1.45,4c-1.45,2-3.61,1-3.61,1-1.45,0,.72,2-1.45,0-2.17-2-4.34-6-4.34-6l-1.45-9s.72-.17,0-.59l-.72-.41c-2.89,2-13.73,13-13.73,13,0,0,7.95-6-.72,1-8.67,7-12.29,8-12.29,8-6.8,.67-10.98-.91-13-2.03-2.2-.59-4.32-1.55-6.63-3.1-1.97-1.32-4.09-2.51-5.66-4.72-.39-.55-.74-1.16-1.06-1.79-.25-.22-.39-.36-.39-.36,0,0-1.6,0-2.96-1.27-1.01-.46-2.03-.87-3.11-.83-2.15,.07-4.64-.14-6.72,.64-.04,.02-.08,.02-.12,.04-.24,.15-.49,.29-.73,.42-4.12,2.24-8.23,4.51-12.34,6.8-7.77,4.32-16.5,9.34-24.94,9.91-.17,.01-.33,0-.48,0-.55,.29-1,.56-1.34,.78-.49,.32-.75,.52-.75,.52l-8.68,7-3.61,6c-22.4,17-57.09,41-57.09,41l-14.45,2-6.5,4c-14.45,9-21.66,9.5-21.66,9.5l325.92,2.5,.72-51-4.34-4Z"/>
</svg>