<?xml version="1.0" encoding="UTF-8"?>
<svg id="Layer_1" data-name="Layer 1" xmlns="http://www.w3.org/2000/svg" viewBox="0 0 191 49">
  <defs>
    <style>
      .cls-1 {
        fill: #516f40;
      }

      .cls-2 {
        fill: #236f97;
        stroke: #236f97;
        stroke-miterlimit: 10;
      }
    </style>
  </defs>
  <rect class="cls-2" x="-16.68" y="-14.48" width="274.19" height="103.2"/>
  <path class="cls-1" d="M196.92,35.7c-9.89-4.8-11.74-4.8-11.74-4.8h-2.47c-6.18-5.49-12.98-7.55-12.98-7.55-6.18-.69-8.03-2.74-8.03-2.74l-2.47-1.37h-.6c-1.2,0-2.11-.31-2.79-.69-.01,0-.02,0-.04,0-1.02,0-1.78-.45-2.28-1.13,0,0-.02,0-.03,0-.41,0-.78-.08-1.1-.21-2.73,.14-2.01,.54-3.06-.04-.97-.54-4.24-2.35-5.58-3.1-.13,.03-.32,.07-.59,.11-1.85,.25-4.33,1.62-4.33,1.62l-1.24,2.06h-4.33c-2.46-2.74-3.56-4.26-4.02-4.97-.28-.29-.49-.65-.64-1.04-.02-.03-.04-.07-.06-.1-.07-.02-.15-.04-.23-.07-2.47-.69-3.09-3.43-3.09-3.43-1.48-.55-3.74,.65-4.6,1.16-.22,.13-.35,.21-.35,.21l-.62,3.43-1.24,2.74c-1.24,1.37-3.09,.69-3.09,.69-1.24,0,.62,1.37-1.24,0-1.85-1.37-3.71-4.12-3.71-4.12l-1.24-6.18s.62-.12,0-.4l-.62-.28c-2.47,1.37-11.74,8.92-11.74,8.92,0,0,6.8-4.12-.62,.69-7.41,4.8-10.5,5.49-10.5,5.49-5.82,.46-9.39-.63-11.11-1.39-1.88-.4-3.69-1.06-5.67-2.13-1.69-.91-3.5-1.72-4.84-3.24-.34-.38-.63-.79-.9-1.23-.22-.15-.34-.25-.34-.25,0,0-1.37,0-2.53-.87-.87-.31-1.73-.6-2.66-.57-1.84,.05-3.97-.1-5.74,.44-.03,.01-.07,.02-.1,.03-.21,.1-.41,.2-.62,.29-3.53,1.54-7.04,3.1-10.55,4.67-6.65,2.97-14.11,6.41-21.32,6.8-.14,0-.28,0-.41,0-.47,.2-.86,.39-1.14,.54-.42,.22-.64,.35-.64,.35l-7.42,4.8-3.08,4.12c-19.15,11.67-48.81,28.13-48.81,28.13l-12.36,1.37-5.56,2.74c-12.36,6.18-18.51,6.52-18.51,6.52l278.63,1.72,.62-35-3.71-2.74Z"/>
</svg>