<?xml version="1.0" standalone="no"?>
<!DOCTYPE svg PUBLIC "-//W3C//DTD SVG 20010904//EN"
 "http://www.w3.org/TR/2001/REC-SVG-20010904/DTD/svg10.dtd">
<svg version="1.0" xmlns="http://www.w3.org/2000/svg"
 width="711.000000pt" height="711.000000pt" viewBox="0 0 711.000000 711.000000"
 preserveAspectRatio="xMidYMid meet">
<metadata>
Created by potrace 1.11, written by Peter Selinger 2001-2013
</metadata>
<g transform="translate(0.000000,711.000000) scale(0.100000,-0.100000)"
fill="#000000" stroke="none">
<path d="M3520 5812 c-47 -26 -73 -80 -72 -151 0 -48 7 -69 54 -153 29 -54 56
-98 60 -98 6 0 56 75 84 127 7 13 20 33 28 45 20 28 21 117 2 161 -16 40 -70
87 -99 87 -12 0 -38 -8 -57 -18z"/>
<path d="M4000 5588 c-19 -13 -45 -39 -58 -58 -23 -33 -24 -40 -17 -140 4 -57
9 -108 11 -112 6 -9 140 80 167 110 25 28 44 93 39 134 -8 73 -81 107 -142 66z"/>
<path d="M3039 5571 c-25 -25 -29 -37 -29 -81 0 -29 7 -66 16 -83 13 -28 162
-163 169 -155 2 2 6 21 9 43 4 22 11 66 18 98 12 67 2 114 -36 158 -50 57
-102 64 -147 20z"/>
<path d="M2638 5383 c-53 -33 -69 -131 -33 -206 16 -35 192 -184 203 -173 6 7
7 12 17 86 3 25 9 61 12 80 11 53 11 52 -8 104 -21 58 -52 93 -96 112 -42 18
-62 17 -95 -3z"/>
<path d="M4425 5355 c-5 -2 -22 -6 -37 -9 -41 -9 -95 -61 -113 -111 -14 -35
-16 -65 -12 -151 3 -58 8 -108 10 -111 7 -6 180 103 201 126 26 28 53 112 49
150 -2 19 -10 45 -18 58 -16 24 -63 52 -80 48z"/>
<path d="M3070 4739 c-127 -6 -156 -16 -214 -74 -41 -41 -88 -109 -104 -150
-31 -80 -33 -135 -38 -770 -4 -582 -3 -656 11 -704 40 -131 146 -237 247 -246
23 -2 45 -4 49 -4 3 -1 23 -17 45 -37 78 -73 87 -75 431 -76 276 -2 311 0 341
16 75 39 84 60 83 196 -2 163 0 159 -94 216 -48 30 -88 62 -97 80 -26 47 -74
45 -147 -5 -72 -49 -131 -63 -250 -59 -89 3 -92 4 -98 28 -7 24 -6 103 2 485
11 558 9 538 66 612 64 81 107 96 275 97 124 1 141 -2 181 -23 24 -12 53 -33
65 -46 11 -13 31 -26 43 -30 19 -5 25 -1 34 21 15 42 17 256 1 262 -7 2 -10 8
-6 13 3 5 -35 35 -85 67 -58 36 -92 65 -96 79 -3 13 -17 31 -32 40 -24 16 -55
18 -263 18 -129 0 -287 -2 -350 -6z"/>
<path d="M247 4734 c-1 -1 -54 -4 -117 -8 -134 -8 -150 -18 -110 -69 49 -62
62 -113 65 -256 4 -167 13 -639 21 -1106 3 -192 7 -417 8 -500 4 -173 -5 -214
-59 -283 -45 -57 -42 -75 11 -82 22 -3 54 -16 71 -28 17 -12 34 -22 37 -22 4
0 24 -12 46 -26 44 -29 62 -29 255 1 118 18 165 24 192 25 12 0 28 7 37 15 13
14 11 19 -20 53 -19 20 -38 51 -42 67 -5 17 -7 194 -5 395 4 443 6 487 18 499
6 5 33 12 60 15 28 3 61 8 75 11 14 3 71 9 127 14 124 10 155 27 217 121 70
106 71 107 82 485 7 257 7 284 -8 327 -18 50 -99 132 -157 159 -28 12 -55 34
-65 51 -34 57 -146 123 -228 134 -34 5 -505 12 -511 8z m444 -381 c5 -26 7
-75 10 -204 3 -144 3 -146 -25 -193 -15 -26 -32 -46 -38 -44 -12 4 -15 419 -3
438 7 12 54 14 56 3z"/>
<path d="M4308 4731 c-72 -23 -158 -103 -199 -183 -51 -100 -51 -99 -56 -783
-5 -636 -5 -640 17 -704 47 -142 165 -250 319 -295 30 -9 57 -20 60 -24 14
-20 72 -52 136 -75 74 -26 123 -35 245 -42 41 -3 98 -8 125 -13 87 -14 241 -2
300 23 47 19 115 92 139 148 29 66 45 152 45 242 0 39 2 183 5 320 3 138 8
369 11 515 3 146 7 279 9 297 5 49 -13 132 -42 191 -30 61 -113 148 -169 177
-21 10 -56 37 -78 60 -148 149 -139 147 -524 151 -174 2 -328 0 -343 -5z m613
-419 c7 -18 9 -205 6 -552 -5 -541 -7 -562 -47 -616 -35 -47 -60 -55 -171 -49
-56 3 -106 10 -109 16 -11 16 -13 116 -13 574 -1 468 1 479 56 562 43 64 92
87 192 90 74 2 76 2 86 -25z"/>
<path d="M6512 4722 c-32 -5 -53 -43 -57 -104 -2 -29 -4 -222 -5 -428 -1 -319
-3 -371 -14 -345 -7 17 -22 50 -33 75 -43 94 -101 237 -113 275 -7 22 -18 49
-24 60 -7 11 -27 58 -45 104 -41 108 -84 165 -170 221 -40 25 -76 58 -86 76
-10 18 -29 37 -44 43 -39 16 -397 19 -412 4 -10 -10 -2 -27 37 -84 l49 -72 -2
-546 c-1 -300 -2 -689 -2 -864 l-1 -319 -40 -40 c-53 -54 -52 -74 3 -88 52
-13 77 -25 147 -71 35 -22 83 -42 135 -53 44 -11 81 -19 82 -18 2 0 24 -5 50
-12 27 -7 68 -12 93 -12 38 1 45 4 50 26 4 14 5 115 3 225 -7 365 -8 644 -2
637 4 -4 41 -86 84 -182 43 -96 86 -195 97 -219 11 -23 62 -140 114 -260 53
-119 105 -226 118 -239 12 -13 49 -30 81 -38 32 -9 77 -28 99 -43 47 -32 105
-64 123 -67 6 -1 29 -4 50 -7 21 -3 45 -8 53 -11 8 -3 40 -7 70 -10 30 -3 63
-8 72 -11 13 -5 9 9 -17 60 -31 63 -50 138 -48 195 11 319 16 462 18 590 1 85
5 263 9 395 3 132 8 348 11 480 11 432 9 416 33 462 l22 43 -42 26 c-24 15
-62 40 -86 55 -24 16 -48 29 -54 29 -5 0 -8 6 -5 14 3 8 0 22 -7 32 -12 16
-33 18 -192 18 -99 1 -189 0 -202 -2z"/>
<path d="M2222 4700 c-15 -9 -37 -37 -50 -61 -12 -24 -34 -64 -48 -89 -14 -25
-62 -110 -107 -189 -93 -166 -78 -167 -163 4 -36 71 -68 121 -92 142 -20 17
-39 31 -42 30 -3 -1 -24 10 -47 23 -29 17 -50 39 -63 67 -33 70 -42 73 -231
73 -130 0 -169 -3 -178 -14 -17 -20 3 -55 52 -91 45 -33 52 -47 260 -475 197
-404 175 -335 182 -587 6 -254 16 -617 19 -687 2 -35 -4 -63 -22 -98 -29 -58
-24 -81 17 -76 21 2 54 -13 122 -56 l94 -58 65 6 c36 4 99 12 140 19 41 7 93
12 116 12 37 0 40 2 30 18 -6 9 -14 17 -18 17 -4 0 -15 12 -25 26 -20 32 -21
43 -24 529 -2 401 -1 412 57 543 13 29 24 55 24 58 0 3 15 29 34 58 19 30 64
114 101 187 36 74 71 143 77 154 6 11 29 54 51 95 59 111 117 194 154 219 18
12 33 26 33 31 0 6 -43 38 -96 72 -58 37 -93 66 -90 74 8 22 -17 31 -94 34
-204 7 -210 7 -238 -10z"/>
<path d="M2842 2193 l0 -312 89 0 89 0 0 34 c0 34 -1 35 -42 34 -24 -1 -50 -1
-58 0 -14 1 -16 34 -15 264 1 144 -2 270 -7 279 -5 11 -18 17 -32 16 l-24 -2
0 -313z"/>
<path d="M3189 2507 c-3 -11 -20 -120 -35 -227 -3 -19 -7 -45 -9 -57 -4 -24
-24 -162 -30 -208 -2 -16 -7 -53 -11 -82 l-6 -51 33 1 c24 2 33 7 34 22 5 51
17 130 21 134 7 7 66 6 70 0 2 -4 6 -24 9 -45 13 -110 15 -114 46 -114 25 0
29 4 29 28 0 16 -4 53 -10 83 -5 30 -11 70 -14 89 -3 19 -14 98 -26 175 -12
77 -24 157 -27 178 -3 21 -6 46 -7 55 -2 11 -14 18 -34 19 -18 2 -32 2 -33 0z
m39 -264 c2 -21 7 -56 12 -78 13 -56 13 -55 -21 -55 -27 0 -30 3 -26 23 3 12
8 45 12 72 11 84 19 98 23 38z"/>
<path d="M3402 2475 c3 -27 7 -30 40 -33 l37 -3 0 -247 c0 -136 0 -262 0 -279
1 -30 4 -33 31 -33 l30 0 0 279 0 280 38 3 c34 3 37 6 37 33 l0 30 -108 0
-108 0 3 -30z"/>
<path d="M3760 2496 c0 -6 -6 -54 -14 -106 -8 -52 -17 -117 -20 -145 -4 -27
-9 -61 -11 -75 -3 -14 -7 -38 -9 -55 -9 -65 -19 -132 -26 -177 -8 -54 -6 -58
26 -58 28 0 33 7 40 62 13 105 14 106 50 102 37 -4 42 -11 49 -74 9 -81 12
-87 46 -88 l30 -1 -6 47 c-3 26 -8 58 -10 72 -2 14 -11 72 -20 130 -8 58 -17
116 -19 130 -3 14 -7 48 -11 75 -3 28 -9 66 -12 85 -4 19 -8 44 -9 55 -1 11
-3 23 -3 26 -2 11 -71 6 -71 -5z m46 -257 c3 -24 9 -61 14 -81 9 -42 6 -48
-27 -48 -22 0 -23 3 -19 38 3 20 8 61 12 90 8 61 12 62 20 1z"/>
<path d="M4029 2467 c-1 -23 -3 -64 -4 -92 -2 -36 -15 -387 -17 -465 -1 -24 6
-30 32 -30 26 0 30 4 31 28 1 15 3 68 4 117 6 168 7 167 39 -67 10 -73 14 -79
50 -76 35 3 31 -10 62 211 11 78 19 57 22 -56 4 -154 4 -151 39 -155 l31 -3
-3 83 c-12 367 -18 514 -20 527 -1 11 -13 16 -37 17 l-36 1 -12 -86 c-7 -47
-14 -95 -16 -106 -2 -11 -6 -40 -9 -65 -3 -25 -7 -54 -9 -65 -3 -11 -5 -33 -5
-49 -1 -29 -13 -29 -17 -1 -1 7 -5 33 -8 57 -3 24 -8 57 -11 73 -2 17 -7 48
-10 70 -5 37 -8 60 -21 142 -4 28 -8 31 -39 31 -34 0 -35 -1 -36 -41z"/>
<path d="M4585 2320 c-4 -16 -11 -30 -15 -30 -5 0 -18 -10 -30 -22 -11 -12
-33 -27 -48 -34 l-27 -11 33 -7 c18 -4 30 -11 27 -15 -5 -9 31 -51 45 -51 4 0
12 -15 16 -32 l7 -33 8 31 c5 18 19 35 33 42 13 6 27 20 30 30 4 11 19 23 34
27 l27 8 -26 11 c-36 16 -89 68 -89 88 0 30 -18 29 -25 -2z m29 -66 c24 -9 21
-61 -4 -69 -41 -13 -69 43 -32 64 21 13 17 12 36 5z"/>
<path d="M2481 2320 c-1 -14 -13 -36 -26 -49 -14 -13 -25 -29 -25 -36 0 -7
-12 -18 -27 -23 -25 -9 -25 -11 -6 -11 12 -1 34 -12 49 -26 15 -14 31 -25 36
-25 5 0 14 -12 20 -27 l12 -28 4 28 c4 31 44 77 82 93 l25 11 -29 7 c-16 4
-38 18 -48 32 -11 13 -25 24 -32 24 -7 0 -17 12 -23 28 l-11 27 -1 -25z m43
-76 c21 -21 4 -54 -28 -54 -29 0 -41 34 -19 55 18 19 28 19 47 -1z"/>
<path d="M4920 2250 c0 -8 -15 -25 -34 -38 l-34 -23 29 -28 c16 -16 29 -33 29
-40 0 -6 13 2 30 19 16 16 35 30 42 30 6 0 0 12 -14 28 -14 15 -30 36 -36 47
-8 14 -12 16 -12 5z m23 -64 c7 -18 -1 -26 -25 -26 -11 0 -18 7 -18 20 0 23
35 28 43 6z"/>
<path d="M2166 2231 c-7 -21 -29 -54 -41 -63 -6 -5 -4 -8 4 -8 8 0 29 -11 47
-25 19 -14 31 -20 28 -12 -3 8 8 28 25 45 23 26 26 32 11 32 -9 0 -29 11 -43
24 -22 20 -26 21 -31 7z m37 -62 c-7 -7 -19 -9 -28 -5 -13 5 -14 10 -4 27 10
20 12 20 27 5 12 -12 13 -19 5 -27z"/>
<path d="M5174 2165 c-13 -33 1 -37 161 -50 44 -4 94 -8 110 -10 17 -2 66 -6
109 -10 44 -3 93 -8 110 -10 17 -2 60 -7 96 -10 36 -4 72 -8 80 -10 8 -1 51
-6 95 -9 156 -13 246 -23 275 -31 15 -4 33 -7 120 -20 87 -13 105 -16 120 -20
8 -2 40 -7 70 -10 30 -4 57 -8 60 -10 3 -2 30 -6 60 -9 78 -10 191 -25 220
-30 14 -3 63 -13 108 -22 69 -14 85 -15 92 -4 14 23 0 38 -44 44 -24 4 -54 9
-67 11 -145 25 -208 36 -229 40 -14 3 -38 7 -55 10 -16 3 -41 7 -55 10 -14 3
-41 7 -60 10 -19 3 -60 10 -90 15 -30 5 -75 12 -100 15 -25 3 -56 8 -70 10
-14 2 -45 7 -70 10 -25 3 -56 8 -70 10 -14 2 -52 7 -85 9 -237 21 -411 39
-490 50 -99 15 -162 21 -307 32 -76 5 -89 4 -94 -11z"/>
<path d="M1767 2163 c-3 -2 -89 -11 -177 -19 -41 -3 -82 -7 -90 -9 -8 -2 -44
-6 -80 -10 -36 -3 -123 -15 -195 -26 -71 -10 -148 -21 -170 -24 -96 -11 -133
-16 -185 -25 -30 -5 -75 -12 -100 -15 -25 -3 -67 -10 -95 -15 -27 -5 -70 -12
-95 -15 -95 -13 -116 -16 -140 -20 -14 -3 -41 -7 -60 -10 -19 -3 -60 -11 -90
-17 -30 -6 -62 -12 -70 -13 -71 -11 -100 -20 -105 -33 -3 -9 1 -21 9 -28 12
-8 46 -4 143 17 71 15 151 30 179 34 29 3 60 7 70 9 11 2 42 7 69 10 28 4 88
13 135 21 80 13 260 40 343 50 63 8 121 16 147 20 28 4 104 13 170 20 25 3 61
7 80 10 19 2 64 7 100 10 36 3 76 7 90 10 14 2 63 7 110 11 92 6 115 16 101
43 -7 11 -23 16 -51 16 -23 0 -42 -1 -43 -2z"/>
<path d="M3906 1727 c-4 -29 -2 -65 3 -79 18 -48 81 -65 102 -27 19 36 2 84
-44 123 -23 20 -45 36 -48 36 -4 0 -10 -24 -13 -53z"/>
<path d="M3176 1745 c-44 -27 -65 -57 -66 -95 0 -33 17 -50 51 -50 44 0 69 41
69 111 0 33 -3 59 -7 59 -5 0 -26 -12 -47 -25z"/>
<path d="M3359 1547 c-45 -30 -65 -71 -50 -103 15 -33 54 -32 80 2 16 20 20
36 16 72 -3 25 -6 47 -8 49 -2 2 -19 -7 -38 -20z"/>
<path d="M3764 1543 c-3 -15 -7 -33 -9 -40 -7 -21 16 -73 36 -84 25 -13 56 -3
64 21 10 33 -6 69 -46 101 l-38 30 -7 -28z"/>
<path d="M3535 1443 c-16 -26 -28 -57 -27 -68 3 -45 14 -66 40 -76 23 -9 30
-7 49 16 28 32 29 64 3 113 -35 68 -35 67 -65 15z"/>
</g>
</svg>
